<?xml version="1.0" encoding="utf-8"?>
<svg viewBox="118.53099822998047 79.18800354003906 150.593994140625 165.98399353027344" width="150.593994140625" height="165.98399353027344" xmlns="http://www.w3.org/2000/svg">
  <path d="M 139.387 194.494 L 139.087 194.494 C 137.787 194.494 136.687 193.994 135.787 192.994 C 135.287 192.494 134.81 191.594 134.357 190.294 C 133.91 188.994 133.737 186.844 133.837 183.844 C 131.137 188.144 128.637 190.744 126.337 191.644 C 125.537 191.844 124.764 191.944 124.017 191.944 C 123.264 191.944 122.537 191.694 121.837 191.194 C 121.137 190.794 120.41 190.094 119.657 189.094 C 118.91 188.094 118.737 186.544 119.137 184.444 C 119.437 182.644 120.164 180.821 121.317 178.974 C 122.464 177.121 123.437 175.644 124.237 174.544 C 125.037 173.444 126.06 172.217 127.307 170.864 C 128.56 169.517 129.687 168.744 130.687 168.544 C 131.387 168.444 132.01 168.594 132.557 168.994 C 133.11 169.394 133.437 169.944 133.537 170.644 C 133.737 171.244 133.66 171.794 133.307 172.294 C 132.96 172.794 132.537 173.144 132.037 173.344 C 131.737 173.544 131.16 174.094 130.307 174.994 C 129.46 175.894 128.487 177.094 127.387 178.594 C 125.087 181.694 123.937 184.194 123.937 186.094 C 123.937 186.594 124.087 186.894 124.387 186.994 L 124.687 186.994 C 125.487 186.694 126.387 185.894 127.387 184.594 C 128.387 183.294 129.41 181.767 130.457 180.014 C 131.51 178.267 132.51 176.421 133.457 174.474 C 134.41 172.521 135.187 170.694 135.787 168.994 C 135.987 168.394 136.387 167.944 136.987 167.644 C 137.587 167.344 138.187 167.294 138.787 167.494 C 139.387 167.694 139.86 168.067 140.207 168.614 C 140.56 169.167 140.637 169.744 140.437 170.344 C 140.337 171.244 140.187 172.194 139.987 173.194 C 139.787 173.994 139.61 174.971 139.457 176.124 C 139.31 177.271 139.187 178.394 139.087 179.494 C 138.687 182.994 138.587 185.444 138.787 186.844 C 138.987 188.244 139.187 189.144 139.387 189.544 C 139.787 189.344 140.487 188.671 141.487 187.524 C 142.487 186.371 143.837 183.994 145.537 180.394 C 146.737 177.894 147.71 175.621 148.457 173.574 C 149.21 171.521 149.587 170.444 149.587 170.344 C 149.787 169.744 150.187 169.294 150.787 168.994 C 151.387 168.694 152.037 168.644 152.737 168.844 C 154.237 169.344 154.737 170.394 154.237 171.994 C 154.237 172.094 153.837 173.217 153.037 175.364 C 152.237 177.517 151.237 179.894 150.037 182.494 C 148.137 186.494 146.314 189.444 144.567 191.344 C 142.814 193.244 141.087 194.294 139.387 194.494 ZM 177.487 166.444 C 178.487 167.444 179.237 168.994 179.737 171.094 C 180.237 173.194 179.687 176.194 178.087 180.094 C 176.987 182.694 175.587 185.294 173.887 187.894 C 172.187 190.494 170.287 192.894 168.187 195.094 C 167.487 195.894 166.637 196.744 165.637 197.644 C 164.637 198.544 163.537 199.367 162.337 200.114 C 161.137 200.867 159.887 201.521 158.587 202.074 C 157.287 202.621 155.987 202.894 154.687 202.894 C 154.187 202.894 153.613 202.844 152.967 202.744 C 152.313 202.644 151.637 202.394 150.937 201.994 C 150.437 205.194 150.063 207.771 149.817 209.724 C 149.563 211.671 149.437 212.894 149.437 213.394 C 149.537 214.094 149.387 214.667 148.987 215.114 C 148.587 215.567 148.087 215.894 147.487 216.094 L 147.037 216.094 C 145.637 216.094 144.837 215.394 144.637 213.994 C 144.637 213.894 144.613 213.694 144.567 213.394 C 144.513 213.094 144.563 212.371 144.717 211.224 C 144.863 210.071 145.087 208.344 145.387 206.044 C 145.687 203.744 146.137 200.544 146.737 196.444 C 146.437 195.044 146.637 193.344 147.337 191.344 C 147.937 187.044 148.663 181.921 149.517 175.974 C 150.363 170.021 151.387 162.944 152.587 154.744 C 153.587 147.644 154.587 140.694 155.587 133.894 C 156.587 127.094 157.487 121.044 158.287 115.744 C 159.087 110.444 159.737 106.144 160.237 102.844 C 160.737 99.544 160.987 97.894 160.987 97.894 C 161.187 96.294 162.087 95.594 163.687 95.794 C 165.287 95.994 165.987 96.894 165.787 98.494 C 164.887 104.694 163.913 111.267 162.867 118.214 C 161.813 125.167 160.787 132.171 159.787 139.224 C 158.787 146.271 157.787 153.221 156.787 160.074 C 155.787 166.921 154.887 173.344 154.087 179.344 C 154.987 178.144 156.11 176.694 157.457 174.994 C 158.81 173.294 160.31 171.667 161.957 170.114 C 163.61 168.567 165.337 167.244 167.137 166.144 C 168.937 165.044 170.737 164.494 172.537 164.494 C 174.537 164.494 176.187 165.144 177.487 166.444 Z M 173.587 178.294 C 174.387 176.294 174.813 174.544 174.867 173.044 C 174.913 171.544 174.637 170.544 174.037 170.044 C 173.637 169.644 173.137 169.444 172.537 169.444 C 171.237 169.444 169.587 170.167 167.587 171.614 C 165.587 173.067 163.487 175.094 161.287 177.694 C 158.987 180.594 157.06 183.371 155.507 186.024 C 153.96 188.671 152.837 190.844 152.137 192.544 C 152.037 193.044 151.963 193.594 151.917 194.194 C 151.863 194.794 151.787 195.344 151.687 195.844 C 152.187 196.844 152.687 197.444 153.187 197.644 C 153.687 197.844 154.187 197.944 154.687 197.944 C 155.987 197.944 157.513 197.367 159.267 196.214 C 161.013 195.067 162.787 193.571 164.587 191.724 C 166.387 189.871 168.087 187.767 169.687 185.414 C 171.287 183.067 172.587 180.694 173.587 178.294 ZM 187.387 188.944 C 186.987 188.944 186.387 188.844 185.587 188.644 C 184.187 188.344 183.113 187.821 182.367 187.074 C 181.613 186.321 181.137 185.544 180.937 184.744 C 180.537 183.744 180.387 182.644 180.487 181.444 C 180.587 180.244 180.813 179.044 181.167 177.844 C 181.513 176.644 181.987 175.471 182.587 174.324 C 183.187 173.171 183.737 172.144 184.237 171.244 C 184.337 171.044 184.437 170.821 184.537 170.574 C 184.637 170.321 184.737 170.094 184.837 169.894 C 185.637 168.294 186.687 167.094 187.987 166.294 C 189.287 165.494 190.637 165.194 192.037 165.394 C 194.237 165.694 195.787 167.094 196.687 169.594 C 196.887 170.394 197.06 171.221 197.207 172.074 C 197.36 172.921 197.387 173.794 197.287 174.694 C 198.187 174.294 199.16 173.894 200.207 173.494 C 201.26 173.094 202.387 172.594 203.587 171.994 C 204.187 171.594 204.81 171.521 205.457 171.774 C 206.11 172.021 206.587 172.444 206.887 173.044 C 207.187 173.644 207.237 174.267 207.037 174.914 C 206.837 175.567 206.437 176.044 205.837 176.344 C 204.037 177.144 202.36 177.867 200.807 178.514 C 199.26 179.167 197.787 179.694 196.387 180.094 C 195.787 182.494 194.737 184.494 193.237 186.094 C 191.537 187.994 189.587 188.944 187.387 188.944 Z M 185.887 179.194 C 185.687 179.994 185.513 180.721 185.367 181.374 C 185.213 182.021 185.237 182.594 185.437 183.094 C 185.537 183.194 185.663 183.321 185.817 183.474 C 185.963 183.621 186.287 183.744 186.787 183.844 C 187.087 184.044 187.487 184.094 187.987 183.994 C 188.487 183.894 189.037 183.494 189.637 182.794 C 189.837 182.494 190.06 182.194 190.307 181.894 C 190.56 181.594 190.787 181.244 190.987 180.844 C 188.987 180.844 187.287 180.294 185.887 179.194 Z M 188.737 173.344 C 188.537 174.444 188.637 175.094 189.037 175.294 C 189.437 175.794 190.537 175.994 192.337 175.894 C 192.437 174.994 192.46 174.144 192.407 173.344 C 192.36 172.544 192.237 171.844 192.037 171.244 C 191.837 170.744 191.587 170.394 191.287 170.194 C 191.087 170.194 190.837 170.344 190.537 170.644 C 190.337 170.844 190.187 171.044 190.087 171.244 C 189.887 171.544 189.66 171.871 189.407 172.224 C 189.16 172.571 188.937 172.944 188.737 173.344 ZM 220.536 201.394 C 220.336 201.394 220.21 201.371 220.156 201.324 C 220.11 201.271 220.036 201.244 219.936 201.244 C 217.736 200.744 216.51 198.894 216.256 195.694 C 216.01 192.494 216.336 187.894 217.236 181.894 C 215.536 184.494 213.81 186.644 212.056 188.344 C 210.31 190.044 208.436 190.844 206.436 190.744 C 204.636 190.544 203.386 189.794 202.686 188.494 C 202.186 187.794 201.886 186.494 201.786 184.594 C 201.686 182.694 202.436 179.544 204.036 175.144 C 204.836 172.844 205.636 170.894 206.436 169.294 C 207.236 167.694 207.636 166.844 207.636 166.744 C 207.936 166.144 208.41 165.721 209.056 165.474 C 209.71 165.221 210.336 165.244 210.936 165.544 C 211.536 165.844 211.963 166.321 212.216 166.974 C 212.463 167.621 212.436 168.244 212.136 168.844 C 212.036 168.844 211.636 169.644 210.936 171.244 C 210.236 172.844 209.486 174.694 208.686 176.794 C 207.586 179.894 206.963 182.094 206.816 183.394 C 206.663 184.694 206.636 185.494 206.736 185.794 C 207.036 185.794 207.613 185.517 208.466 184.964 C 209.313 184.417 210.536 183.044 212.136 180.844 C 213.236 179.144 214.286 177.371 215.286 175.524 C 216.286 173.671 217.136 172.044 217.836 170.644 L 219.036 168.244 C 219.336 167.844 219.686 167.394 220.086 166.894 C 220.486 166.394 221.086 166.144 221.886 166.144 C 222.586 166.144 223.236 166.444 223.836 167.044 C 224.236 167.544 224.436 168.067 224.436 168.614 C 224.436 169.167 224.336 169.844 224.136 170.644 C 224.036 171.144 223.96 171.694 223.906 172.294 C 223.86 172.894 223.736 173.594 223.536 174.394 C 223.136 176.294 222.736 178.444 222.336 180.844 C 221.936 183.244 221.586 185.594 221.286 187.894 C 220.986 191.094 220.91 193.294 221.056 194.494 C 221.21 195.694 221.336 196.394 221.436 196.594 C 221.936 196.794 222.363 197.194 222.716 197.794 C 223.063 198.394 223.136 198.944 222.936 199.444 C 222.636 200.744 221.836 201.394 220.536 201.394 ZM 266.586 141.694 C 268.086 141.694 268.936 142.494 269.136 144.094 C 269.136 144.794 268.909 145.394 268.456 145.894 C 268.009 146.394 267.436 146.644 266.736 146.644 C 260.736 146.844 254.963 147.194 249.416 147.694 C 243.863 148.194 238.586 148.794 233.586 149.494 C 233.086 155.994 232.559 162.694 232.006 169.594 C 231.459 176.494 230.959 183.194 230.506 189.694 C 230.059 196.194 229.659 202.417 229.306 208.364 C 228.959 214.317 228.663 219.644 228.416 224.344 C 228.163 229.044 228.036 232.944 228.036 236.044 C 228.036 239.144 228.136 241.194 228.336 242.194 C 228.536 242.894 228.436 243.517 228.036 244.064 C 227.636 244.617 227.086 244.994 226.386 245.194 L 225.936 245.194 C 224.636 245.194 223.836 244.544 223.536 243.244 C 223.236 242.044 223.109 239.617 223.156 235.964 C 223.209 232.317 223.363 227.894 223.616 222.694 C 223.863 217.494 224.163 211.767 224.516 205.514 C 224.863 199.267 225.286 192.894 225.786 186.394 C 226.286 179.894 226.786 173.521 227.286 167.274 C 227.786 161.021 228.236 155.344 228.636 150.244 C 223.436 151.044 218.736 151.844 214.536 152.644 C 210.336 153.444 206.736 154.167 203.736 154.814 C 200.736 155.467 198.386 156.021 196.686 156.474 C 194.986 156.921 194.136 157.144 194.136 157.144 C 194.036 157.244 193.836 157.294 193.536 157.294 C 192.236 157.294 191.436 156.694 191.136 155.494 C 190.636 153.894 191.186 152.894 192.786 152.494 C 192.886 152.494 193.813 152.244 195.566 151.744 C 197.313 151.244 199.759 150.671 202.906 150.024 C 206.059 149.371 209.863 148.621 214.316 147.774 C 218.763 146.921 223.686 146.094 229.086 145.294 C 229.386 141.594 229.636 138.467 229.836 135.914 C 230.036 133.367 230.236 131.544 230.436 130.444 C 230.436 129.744 230.686 129.171 231.186 128.724 C 231.686 128.271 232.286 128.094 232.986 128.194 C 233.686 128.294 234.259 128.594 234.706 129.094 C 235.159 129.594 235.336 130.194 235.236 130.894 C 235.036 133.094 234.836 135.317 234.636 137.564 C 234.436 139.817 234.236 142.144 234.036 144.544 C 238.936 143.844 244.109 143.244 249.556 142.744 C 255.009 142.244 260.686 141.894 266.586 141.694 Z" transform="matrix(1, 0, 0, 1, 0, 0)" style="fill: rgb(173, 216, 230); white-space: pre;"/>
</svg>