<?xml version="1.0" encoding="utf-8"?>
<svg viewBox="-100 128.4219970703125 700 371.5780029296875" width="700" height="371.5780029296875" xmlns="http://www.w3.org/2000/svg">
  <g transform="matrix(1, 0, 0, 1, 36.99497985839844, 72.60899353027344)">
    <path d="M -56.245 271.402 C -56.945 271.402 -57.722 271.252 -58.575 270.952 C -59.422 270.652 -60.295 270.002 -61.195 269.002 C -63.595 266.202 -64.945 260.002 -65.245 250.402 C -65.345 246.802 -65.245 242.729 -64.945 238.182 C -64.645 233.629 -64.245 228.652 -63.745 223.252 C -63.345 218.652 -62.845 214.202 -62.245 209.902 C -61.645 205.602 -61.122 201.775 -60.675 198.422 C -60.222 195.075 -59.818 192.375 -59.465 190.322 C -59.118 188.275 -58.945 187.252 -58.945 187.252 C -58.745 186.452 -58.368 185.852 -57.815 185.452 C -57.268 185.052 -56.595 184.902 -55.795 185.002 C -54.995 185.202 -54.372 185.602 -53.925 186.202 C -53.472 186.802 -53.345 187.502 -53.545 188.302 C -53.545 188.302 -53.718 189.302 -54.065 191.302 C -54.418 193.302 -54.822 195.952 -55.275 199.252 C -55.722 202.552 -56.245 206.329 -56.845 210.582 C -57.445 214.829 -57.945 219.202 -58.345 223.702 C -59.145 231.802 -59.595 238.452 -59.695 243.652 C -59.795 248.852 -59.695 253.002 -59.395 256.102 C -59.095 259.202 -58.695 261.452 -58.195 262.852 C -57.695 264.252 -57.295 265.152 -56.995 265.552 C -56.695 265.752 -56.445 265.852 -56.245 265.852 C -53.245 265.852 -50.422 264.952 -47.775 263.152 C -45.122 261.352 -42.845 259.352 -40.945 257.152 C -39.045 254.952 -37.522 252.929 -36.375 251.082 C -35.222 249.229 -34.645 248.302 -34.645 248.302 C -34.345 247.602 -33.845 247.125 -33.145 246.872 C -32.445 246.625 -31.745 246.702 -31.045 247.102 C -30.345 247.402 -29.868 247.902 -29.615 248.602 C -29.368 249.302 -29.445 250.002 -29.845 250.702 C -29.945 250.902 -30.645 252.102 -31.945 254.302 C -33.245 256.502 -35.068 258.875 -37.415 261.422 C -39.768 263.975 -42.518 266.275 -45.665 268.322 C -48.818 270.375 -52.345 271.402 -56.245 271.402 ZM -20.595 263.602 C -21.195 263.602 -21.645 263.502 -21.945 263.302 C -24.945 261.402 -27.145 258.202 -28.545 253.702 C -29.945 249.202 -30.245 244.252 -29.445 238.852 C -28.645 233.552 -26.868 229.102 -24.115 225.502 C -21.368 221.902 -17.895 219.552 -13.695 218.452 C -10.295 217.552 -7.845 218.002 -6.345 219.802 C -4.645 221.702 -4.695 224.902 -6.495 229.402 C -7.395 231.502 -8.645 233.775 -10.245 236.222 C -11.845 238.675 -13.645 241.052 -15.645 243.352 C -16.845 244.752 -18.222 246.152 -19.775 247.552 C -21.322 248.952 -22.845 250.002 -24.345 250.702 C -23.845 252.702 -23.172 254.425 -22.325 255.872 C -21.472 257.325 -20.495 258.402 -19.395 259.102 C -18.795 259.502 -18.422 260.025 -18.275 260.672 C -18.122 261.325 -18.195 261.952 -18.495 262.552 C -18.895 263.252 -19.595 263.602 -20.595 263.602 Z M -10.095 222.952 L -10.545 222.952 C -10.745 222.952 -10.995 222.952 -11.295 222.952 C -11.595 222.952 -11.995 223.052 -12.495 223.252 C -15.695 224.052 -18.345 225.902 -20.445 228.802 C -22.545 231.702 -23.945 235.302 -24.645 239.602 C -24.945 241.802 -25.045 243.752 -24.945 245.452 C -24.445 245.152 -23.845 244.675 -23.145 244.022 C -22.445 243.375 -21.645 242.602 -20.745 241.702 C -19.245 240.002 -17.795 238.202 -16.395 236.302 C -14.995 234.402 -13.745 232.502 -12.645 230.602 C -11.245 228.202 -10.422 226.402 -10.175 225.202 C -9.922 224.002 -9.895 223.252 -10.095 222.952 ZM 36.805 204.802 C 38.305 204.802 39.155 205.602 39.355 207.202 C 39.355 207.902 39.128 208.502 38.675 209.002 C 38.228 209.502 37.655 209.752 36.955 209.752 C 30.955 209.952 25.182 210.302 19.635 210.802 C 14.082 211.302 8.805 211.902 3.805 212.602 C 3.305 219.102 2.778 225.802 2.225 232.702 C 1.678 239.602 1.178 246.302 0.725 252.802 C 0.278 259.302 -0.122 265.525 -0.475 271.472 C -0.822 277.425 -1.118 282.752 -1.365 287.452 C -1.618 292.152 -1.745 296.052 -1.745 299.152 C -1.745 302.252 -1.645 304.302 -1.445 305.302 C -1.245 306.002 -1.345 306.625 -1.745 307.172 C -2.145 307.725 -2.695 308.102 -3.395 308.302 L -3.845 308.302 C -5.145 308.302 -5.945 307.652 -6.245 306.352 C -6.545 305.152 -6.672 302.725 -6.625 299.072 C -6.572 295.425 -6.418 291.002 -6.165 285.802 C -5.918 280.602 -5.618 274.875 -5.265 268.622 C -4.918 262.375 -4.495 256.002 -3.995 249.502 C -3.495 243.002 -2.995 236.629 -2.495 230.382 C -1.995 224.129 -1.545 218.452 -1.145 213.352 C -6.345 214.152 -11.045 214.952 -15.245 215.752 C -19.445 216.552 -23.045 217.275 -26.045 217.922 C -29.045 218.575 -31.395 219.129 -33.095 219.582 C -34.795 220.029 -35.645 220.252 -35.645 220.252 C -35.745 220.352 -35.945 220.402 -36.245 220.402 C -37.545 220.402 -38.345 219.802 -38.645 218.602 C -39.145 217.002 -38.595 216.002 -36.995 215.602 C -36.895 215.602 -35.968 215.352 -34.215 214.852 C -32.468 214.352 -30.022 213.779 -26.875 213.132 C -23.722 212.479 -19.918 211.729 -15.465 210.882 C -11.018 210.029 -6.095 209.202 -0.695 208.402 C -0.395 204.702 -0.145 201.575 0.055 199.022 C 0.255 196.475 0.455 194.652 0.655 193.552 C 0.655 192.852 0.905 192.279 1.405 191.832 C 1.905 191.379 2.505 191.202 3.205 191.302 C 3.905 191.402 4.478 191.702 4.925 192.202 C 5.378 192.702 5.555 193.302 5.455 194.002 C 5.255 196.202 5.055 198.425 4.855 200.672 C 4.655 202.925 4.455 205.252 4.255 207.652 C 9.155 206.952 14.328 206.352 19.775 205.852 C 25.228 205.352 30.905 205.002 36.805 204.802 ZM 41.055 271.552 C 39.655 271.552 38.405 271.225 37.305 270.572 C 36.205 269.925 35.405 269.052 34.905 267.952 C 33.105 263.952 35.605 258.402 42.405 251.302 C 42.305 251.102 42.255 250.952 42.255 250.852 C 42.255 250.752 42.205 250.602 42.105 250.402 C 41.405 247.902 40.778 245.429 40.225 242.982 C 39.678 240.529 39.305 238.252 39.105 236.152 C 38.505 230.452 39.955 227.002 43.455 225.802 C 46.255 224.902 48.805 225.002 51.105 226.102 C 52.105 226.602 52.928 227.202 53.575 227.902 C 54.228 228.602 54.778 229.279 55.225 229.932 C 55.678 230.579 56.005 231.152 56.205 231.652 C 56.405 232.152 56.505 232.452 56.505 232.552 C 56.705 233.152 56.678 233.752 56.425 234.352 C 56.178 234.952 55.705 235.352 55.005 235.552 C 54.405 235.752 53.778 235.725 53.125 235.472 C 52.478 235.225 52.055 234.752 51.855 234.052 L 51.405 233.152 C 51.205 232.952 51.028 232.679 50.875 232.332 C 50.728 231.979 50.505 231.652 50.205 231.352 C 48.905 230.052 47.155 229.752 44.955 230.452 C 44.355 230.652 44.005 231.352 43.905 232.552 C 43.805 233.752 43.805 234.802 43.905 235.702 C 44.105 237.402 44.428 239.252 44.875 241.252 C 45.328 243.252 45.855 245.302 46.455 247.402 C 48.755 245.402 51.328 243.275 54.175 241.022 C 57.028 238.775 60.205 236.452 63.705 234.052 C 64.205 233.652 64.778 233.529 65.425 233.682 C 66.078 233.829 66.605 234.152 67.005 234.652 C 68.005 235.852 67.805 237.002 66.405 238.102 C 58.405 243.602 52.205 248.502 47.805 252.802 C 48.305 254.702 48.728 256.502 49.075 258.202 C 49.428 259.902 49.655 261.502 49.755 263.002 C 49.955 265.202 49.382 267.002 48.035 268.402 C 46.682 269.802 45.155 270.752 43.455 271.252 C 42.455 271.452 41.655 271.552 41.055 271.552 Z M 43.755 257.002 C 43.555 257.202 43.405 257.402 43.305 257.602 C 43.205 257.802 43.055 258.002 42.855 258.202 C 41.755 259.602 40.955 260.779 40.455 261.732 C 39.955 262.679 39.628 263.452 39.475 264.052 C 39.328 264.652 39.278 265.102 39.325 265.402 C 39.378 265.702 39.405 265.902 39.405 266.002 C 39.705 266.702 40.655 266.852 42.255 266.452 C 42.455 266.452 42.978 266.229 43.825 265.782 C 44.678 265.329 45.055 264.552 44.955 263.452 C 44.855 262.452 44.705 261.425 44.505 260.372 C 44.305 259.325 44.055 258.202 43.755 257.002 ZM 121.505 229.552 C 122.505 230.552 123.255 232.102 123.755 234.202 C 124.255 236.302 123.705 239.302 122.105 243.202 C 121.005 245.802 119.605 248.402 117.905 251.002 C 116.205 253.602 114.305 256.002 112.205 258.202 C 111.505 259.002 110.655 259.852 109.655 260.752 C 108.655 261.652 107.555 262.475 106.355 263.222 C 105.155 263.975 103.905 264.629 102.605 265.182 C 101.305 265.729 100.005 266.002 98.705 266.002 C 98.205 266.002 97.632 265.952 96.985 265.852 C 96.332 265.752 95.655 265.502 94.955 265.102 C 94.455 268.302 94.082 270.879 93.835 272.832 C 93.582 274.779 93.455 276.002 93.455 276.502 C 93.555 277.202 93.405 277.775 93.005 278.222 C 92.605 278.675 92.105 279.002 91.505 279.202 L 91.055 279.202 C 89.655 279.202 88.855 278.502 88.655 277.102 C 88.655 277.002 88.632 276.802 88.585 276.502 C 88.532 276.202 88.582 275.479 88.735 274.332 C 88.882 273.179 89.105 271.452 89.405 269.152 C 89.705 266.852 90.155 263.652 90.755 259.552 C 90.455 258.152 90.655 256.452 91.355 254.452 C 91.955 250.152 92.682 245.029 93.535 239.082 C 94.382 233.129 95.405 226.052 96.605 217.852 C 97.605 210.752 98.605 203.802 99.605 197.002 C 100.605 190.202 101.505 184.152 102.305 178.852 C 103.105 173.552 103.755 169.252 104.255 165.952 C 104.755 162.652 105.005 161.002 105.005 161.002 C 105.205 159.402 106.105 158.702 107.705 158.902 C 109.305 159.102 110.005 160.002 109.805 161.602 C 108.905 167.802 107.932 174.375 106.885 181.322 C 105.832 188.275 104.805 195.279 103.805 202.332 C 102.805 209.379 101.805 216.329 100.805 223.182 C 99.805 230.029 98.905 236.452 98.105 242.452 C 99.005 241.252 100.128 239.802 101.475 238.102 C 102.828 236.402 104.328 234.775 105.975 233.222 C 107.628 231.675 109.355 230.352 111.155 229.252 C 112.955 228.152 114.755 227.602 116.555 227.602 C 118.555 227.602 120.205 228.252 121.505 229.552 Z M 117.605 241.402 C 118.405 239.402 118.832 237.652 118.885 236.152 C 118.932 234.652 118.655 233.652 118.055 233.152 C 117.655 232.752 117.155 232.552 116.555 232.552 C 115.255 232.552 113.605 233.275 111.605 234.722 C 109.605 236.175 107.505 238.202 105.305 240.802 C 103.005 243.702 101.078 246.479 99.525 249.132 C 97.978 251.779 96.855 253.952 96.155 255.652 C 96.055 256.152 95.982 256.702 95.935 257.302 C 95.882 257.902 95.805 258.452 95.705 258.952 C 96.205 259.952 96.705 260.552 97.205 260.752 C 97.705 260.952 98.205 261.052 98.705 261.052 C 100.005 261.052 101.532 260.475 103.285 259.322 C 105.032 258.175 106.805 256.679 108.605 254.832 C 110.405 252.979 112.105 250.875 113.705 248.522 C 115.305 246.175 116.605 243.802 117.605 241.402 ZM 141.705 264.502 C 141.505 264.502 141.378 264.479 141.325 264.432 C 141.278 264.379 141.205 264.352 141.105 264.352 C 138.905 263.852 137.678 262.002 137.425 258.802 C 137.178 255.602 137.505 251.002 138.405 245.002 C 136.705 247.602 134.978 249.752 133.225 251.452 C 131.478 253.152 129.605 253.952 127.605 253.852 C 125.805 253.652 124.555 252.902 123.855 251.602 C 123.355 250.902 123.055 249.602 122.955 247.702 C 122.855 245.802 123.605 242.652 125.205 238.252 C 126.005 235.952 126.805 234.002 127.605 232.402 C 128.405 230.802 128.805 229.952 128.805 229.852 C 129.105 229.252 129.578 228.829 130.225 228.582 C 130.878 228.329 131.505 228.352 132.105 228.652 C 132.705 228.952 133.132 229.429 133.385 230.082 C 133.632 230.729 133.605 231.352 133.305 231.952 C 133.205 231.952 132.805 232.752 132.105 234.352 C 131.405 235.952 130.655 237.802 129.855 239.902 C 128.755 243.002 128.132 245.202 127.985 246.502 C 127.832 247.802 127.805 248.602 127.905 248.902 C 128.205 248.902 128.782 248.625 129.635 248.072 C 130.482 247.525 131.705 246.152 133.305 243.952 C 134.405 242.252 135.455 240.479 136.455 238.632 C 137.455 236.779 138.305 235.152 139.005 233.752 L 140.205 231.352 C 140.505 230.952 140.855 230.502 141.255 230.002 C 141.655 229.502 142.255 229.252 143.055 229.252 C 143.755 229.252 144.405 229.552 145.005 230.152 C 145.405 230.652 145.605 231.175 145.605 231.722 C 145.605 232.275 145.505 232.952 145.305 233.752 C 145.205 234.252 145.128 234.802 145.075 235.402 C 145.028 236.002 144.905 236.702 144.705 237.502 C 144.305 239.402 143.905 241.552 143.505 243.952 C 143.105 246.352 142.755 248.702 142.455 251.002 C 142.155 254.202 142.078 256.402 142.225 257.602 C 142.378 258.802 142.505 259.502 142.605 259.702 C 143.105 259.902 143.532 260.302 143.885 260.902 C 144.232 261.502 144.305 262.052 144.105 262.552 C 143.805 263.852 143.005 264.502 141.705 264.502 ZM 147.955 264.502 C 146.955 264.502 146.205 263.952 145.705 262.852 C 145.505 262.452 145.332 261.902 145.185 261.202 C 145.032 260.502 144.955 259.502 144.955 258.202 C 144.955 256.902 145.078 255.302 145.325 253.402 C 145.578 251.502 145.955 249.102 146.455 246.202 C 146.955 243.202 147.478 240.552 148.025 238.252 C 148.578 235.952 148.905 234.752 149.005 234.652 C 149.205 233.952 149.578 233.429 150.125 233.082 C 150.678 232.729 151.305 232.652 152.005 232.852 C 152.605 233.052 153.078 233.425 153.425 233.972 C 153.778 234.525 153.855 235.152 153.655 235.852 C 153.455 236.952 153.205 238.102 152.905 239.302 C 152.705 240.402 152.432 241.629 152.085 242.982 C 151.732 244.329 151.455 245.702 151.255 247.102 C 150.755 249.702 150.405 251.879 150.205 253.632 C 150.005 255.379 149.905 256.775 149.905 257.822 C 149.905 258.875 149.955 259.652 150.055 260.152 C 150.155 260.652 150.205 260.952 150.205 261.052 C 150.905 262.652 150.455 263.702 148.855 264.202 C 148.455 264.402 148.155 264.502 147.955 264.502 Z M 151.255 229.102 C 150.555 229.102 149.978 228.852 149.525 228.352 C 149.078 227.852 148.855 227.252 148.855 226.552 C 148.855 225.952 149.078 225.429 149.525 224.982 C 149.978 224.529 150.505 224.252 151.105 224.152 C 151.105 224.052 151.132 223.979 151.185 223.932 C 151.232 223.879 151.255 223.752 151.255 223.552 C 151.455 222.852 151.828 222.302 152.375 221.902 C 152.928 221.502 153.555 221.402 154.255 221.602 C 154.955 221.802 155.482 222.179 155.835 222.732 C 156.182 223.279 156.255 223.902 156.055 224.602 C 155.555 226.602 154.778 227.852 153.725 228.352 C 152.678 228.852 151.855 229.102 151.255 229.102 ZM 160.655 277.552 C 159.655 277.552 158.755 277.152 157.955 276.352 C 157.655 275.952 157.382 275.452 157.135 274.852 C 156.882 274.252 156.655 273.352 156.455 272.152 C 156.255 270.952 156.132 269.402 156.085 267.502 C 156.032 265.602 156.105 263.202 156.305 260.302 C 156.505 257.002 156.805 253.202 157.205 248.902 C 157.605 244.602 158.155 239.802 158.855 234.502 C 159.455 230.002 160.055 225.629 160.655 221.382 C 161.255 217.129 161.805 213.352 162.305 210.052 C 162.805 206.752 163.205 204.075 163.505 202.022 C 163.805 199.975 163.955 198.902 163.955 198.802 C 164.055 198.102 164.378 197.552 164.925 197.152 C 165.478 196.752 166.105 196.652 166.805 196.852 C 167.505 196.952 168.055 197.279 168.455 197.832 C 168.855 198.379 168.955 199.002 168.755 199.702 C 168.755 199.702 168.605 200.702 168.305 202.702 C 168.005 204.702 167.605 207.302 167.105 210.502 C 166.605 213.702 166.055 217.402 165.455 221.602 C 164.855 225.802 164.305 230.102 163.805 234.502 C 162.905 241.202 162.255 246.802 161.855 251.302 C 161.455 255.802 161.205 259.502 161.105 262.402 C 161.005 265.302 161.005 267.502 161.105 269.002 C 161.205 270.502 161.305 271.552 161.405 272.152 C 161.805 271.852 162.305 271.352 162.905 270.652 C 163.505 269.952 164.205 268.902 165.005 267.502 C 166.105 265.802 167.205 263.825 168.305 261.572 C 169.405 259.325 170.505 257.052 171.605 254.752 C 173.905 250.252 176.105 246.079 178.205 242.232 C 180.305 238.379 182.405 235.702 184.505 234.202 C 185.005 233.802 185.582 233.679 186.235 233.832 C 186.882 233.979 187.405 234.302 187.805 234.802 C 188.205 235.402 188.355 236.029 188.255 236.682 C 188.155 237.329 187.805 237.852 187.205 238.252 C 186.405 238.852 185.555 239.775 184.655 241.022 C 183.755 242.275 182.828 243.775 181.875 245.522 C 180.928 247.275 179.955 249.129 178.955 251.082 C 177.955 253.029 177.005 254.952 176.105 256.852 C 172.805 263.552 170.028 268.675 167.775 272.222 C 165.528 275.775 163.155 277.552 160.655 277.552 ZM 212.205 320.302 L 212.055 320.302 C 210.655 320.302 209.855 319.502 209.655 317.902 C 208.855 294.302 208.805 273.752 209.505 256.252 C 210.205 238.752 211.255 224.102 212.655 212.302 C 212.155 213.702 211.705 215.052 211.305 216.352 C 210.905 217.652 210.455 218.952 209.955 220.252 C 207.555 226.952 205.405 232.352 203.505 236.452 C 201.605 240.552 199.905 243.752 198.405 246.052 C 196.905 248.352 195.582 249.925 194.435 250.772 C 193.282 251.625 192.255 252.202 191.355 252.502 C 189.455 253.102 187.705 252.702 186.105 251.302 C 185.005 250.302 184.205 249.079 183.705 247.632 C 183.205 246.179 182.982 244.652 183.035 243.052 C 183.082 241.452 183.378 239.902 183.925 238.402 C 184.478 236.902 185.205 235.602 186.105 234.502 C 187.905 232.302 190.205 231.102 193.005 230.902 C 195.205 230.802 197.455 231.402 199.755 232.702 C 200.555 230.802 201.405 228.702 202.305 226.402 C 203.205 224.102 204.205 221.502 205.305 218.602 C 206.605 215.202 207.855 211.675 209.055 208.022 C 210.255 204.375 211.405 200.779 212.505 197.232 C 213.605 193.679 214.655 190.229 215.655 186.882 C 216.655 183.529 217.555 180.452 218.355 177.652 C 218.755 176.052 219.105 174.629 219.405 173.382 C 219.705 172.129 220.005 170.952 220.305 169.852 C 220.805 168.152 221.228 166.779 221.575 165.732 C 221.928 164.679 222.205 163.802 222.405 163.102 C 222.905 161.902 223.282 161.052 223.535 160.552 C 223.782 160.052 224.155 159.702 224.655 159.502 C 225.555 159.102 226.455 159.252 227.355 159.952 C 227.955 160.552 228.205 161.202 228.105 161.902 C 228.005 162.602 227.855 163.202 227.655 163.702 C 227.355 164.402 226.955 165.675 226.455 167.522 C 225.955 169.375 225.305 171.552 224.505 174.052 C 224.305 174.852 224.078 175.652 223.825 176.452 C 223.578 177.252 223.355 178.052 223.155 178.852 C 221.755 184.652 220.405 191.902 219.105 200.602 C 218.305 206.202 217.528 212.802 216.775 220.402 C 216.028 228.002 215.405 236.652 214.905 246.352 C 214.405 256.052 214.105 266.852 214.005 278.752 C 213.905 290.652 214.105 303.652 214.605 317.752 C 214.605 318.452 214.382 319.052 213.935 319.552 C 213.482 320.052 212.905 320.302 212.205 320.302 Z M 193.605 235.852 C 192.005 235.852 190.755 236.452 189.855 237.652 C 189.255 238.352 188.805 239.179 188.505 240.132 C 188.205 241.079 188.028 242.029 187.975 242.982 C 187.928 243.929 188.032 244.829 188.285 245.682 C 188.532 246.529 188.905 247.152 189.405 247.552 C 189.605 247.752 189.805 247.852 190.005 247.852 C 190.205 247.752 190.528 247.552 190.975 247.252 C 191.428 246.952 191.955 246.429 192.555 245.682 C 193.155 244.929 193.878 243.875 194.725 242.522 C 195.578 241.175 196.555 239.352 197.655 237.052 C 196.355 236.252 195.005 235.852 193.605 235.852 ZM 293.105 204.802 C 294.605 204.802 295.455 205.602 295.655 207.202 C 295.655 207.902 295.428 208.502 294.975 209.002 C 294.528 209.502 293.955 209.752 293.255 209.752 C 287.255 209.952 281.482 210.302 275.935 210.802 C 270.382 211.302 265.105 211.902 260.105 212.602 C 259.605 219.102 259.078 225.802 258.525 232.702 C 257.978 239.602 257.478 246.302 257.025 252.802 C 256.578 259.302 256.178 265.525 255.825 271.472 C 255.478 277.425 255.182 282.752 254.935 287.452 C 254.682 292.152 254.555 296.052 254.555 299.152 C 254.555 302.252 254.655 304.302 254.855 305.302 C 255.055 306.002 254.955 306.625 254.555 307.172 C 254.155 307.725 253.605 308.102 252.905 308.302 L 252.455 308.302 C 251.155 308.302 250.355 307.652 250.055 306.352 C 249.755 305.152 249.628 302.725 249.675 299.072 C 249.728 295.425 249.882 291.002 250.135 285.802 C 250.382 280.602 250.682 274.875 251.035 268.622 C 251.382 262.375 251.805 256.002 252.305 249.502 C 252.805 243.002 253.305 236.629 253.805 230.382 C 254.305 224.129 254.755 218.452 255.155 213.352 C 249.955 214.152 245.255 214.952 241.055 215.752 C 236.855 216.552 233.255 217.275 230.255 217.922 C 227.255 218.575 224.905 219.129 223.205 219.582 C 221.505 220.029 220.655 220.252 220.655 220.252 C 220.555 220.352 220.355 220.402 220.055 220.402 C 218.755 220.402 217.955 219.802 217.655 218.602 C 217.155 217.002 217.705 216.002 219.305 215.602 C 219.405 215.602 220.332 215.352 222.085 214.852 C 223.832 214.352 226.278 213.779 229.425 213.132 C 232.578 212.479 236.382 211.729 240.835 210.882 C 245.282 210.029 250.205 209.202 255.605 208.402 C 255.905 204.702 256.155 201.575 256.355 199.022 C 256.555 196.475 256.755 194.652 256.955 193.552 C 256.955 192.852 257.205 192.279 257.705 191.832 C 258.205 191.379 258.805 191.202 259.505 191.302 C 260.205 191.402 260.778 191.702 261.225 192.202 C 261.678 192.702 261.855 193.302 261.755 194.002 C 261.555 196.202 261.355 198.425 261.155 200.672 C 260.955 202.925 260.755 205.252 260.555 207.652 C 265.455 206.952 270.628 206.352 276.075 205.852 C 281.528 205.352 287.205 205.002 293.105 204.802 ZM 271.605 252.052 C 271.205 252.052 270.605 251.952 269.805 251.752 C 268.405 251.452 267.332 250.929 266.585 250.182 C 265.832 249.429 265.355 248.652 265.155 247.852 C 264.755 246.852 264.605 245.752 264.705 244.552 C 264.805 243.352 265.032 242.152 265.385 240.952 C 265.732 239.752 266.205 238.579 266.805 237.432 C 267.405 236.279 267.955 235.252 268.455 234.352 C 268.555 234.152 268.655 233.929 268.755 233.682 C 268.855 233.429 268.955 233.202 269.055 233.002 C 269.855 231.402 270.905 230.202 272.205 229.402 C 273.505 228.602 274.855 228.302 276.255 228.502 C 278.455 228.802 280.005 230.202 280.905 232.702 C 281.105 233.502 281.278 234.329 281.425 235.182 C 281.578 236.029 281.605 236.902 281.505 237.802 C 282.405 237.402 283.378 237.002 284.425 236.602 C 285.478 236.202 286.605 235.702 287.805 235.102 C 288.405 234.702 289.028 234.629 289.675 234.882 C 290.328 235.129 290.805 235.552 291.105 236.152 C 291.405 236.752 291.455 237.375 291.255 238.022 C 291.055 238.675 290.655 239.152 290.055 239.452 C 288.255 240.252 286.578 240.975 285.025 241.622 C 283.478 242.275 282.005 242.802 280.605 243.202 C 280.005 245.602 278.955 247.602 277.455 249.202 C 275.755 251.102 273.805 252.052 271.605 252.052 Z M 270.105 242.302 C 269.905 243.102 269.732 243.829 269.585 244.482 C 269.432 245.129 269.455 245.702 269.655 246.202 C 269.755 246.302 269.882 246.429 270.035 246.582 C 270.182 246.729 270.505 246.852 271.005 246.952 C 271.305 247.152 271.705 247.202 272.205 247.102 C 272.705 247.002 273.255 246.602 273.855 245.902 C 274.055 245.602 274.278 245.302 274.525 245.002 C 274.778 244.702 275.005 244.352 275.205 243.952 C 273.205 243.952 271.505 243.402 270.105 242.302 Z M 272.955 236.452 C 272.755 237.552 272.855 238.202 273.255 238.402 C 273.655 238.902 274.755 239.102 276.555 239.002 C 276.655 238.102 276.678 237.252 276.625 236.452 C 276.578 235.652 276.455 234.952 276.255 234.352 C 276.055 233.852 275.805 233.502 275.505 233.302 C 275.305 233.302 275.055 233.452 274.755 233.752 C 274.555 233.952 274.405 234.152 274.305 234.352 C 274.105 234.652 273.878 234.979 273.625 235.332 C 273.378 235.679 273.155 236.052 272.955 236.452 ZM 280.255 342.352 L 279.805 342.352 L 279.655 342.352 C 277.155 342.152 275.055 341.675 273.355 340.922 C 271.655 340.175 270.232 339.279 269.085 338.232 C 267.932 337.179 267.082 336.029 266.535 334.782 C 265.982 333.529 265.555 332.302 265.255 331.102 C 264.455 327.402 264.732 323.102 266.085 318.202 C 267.432 313.302 269.305 308.302 271.705 303.202 C 274.105 298.102 276.805 293.129 279.805 288.282 C 282.805 283.429 285.505 279.202 287.905 275.602 C 290.505 271.802 293.182 268.102 295.935 264.502 C 298.682 260.902 301.405 257.502 304.105 254.302 C 304.105 249.602 304.055 245.252 303.955 241.252 C 303.855 237.252 303.705 233.802 303.505 230.902 C 303.405 231.102 303.305 231.302 303.205 231.502 C 303.105 231.702 303.005 231.902 302.905 232.102 C 301.605 234.402 300.428 236.229 299.375 237.582 C 298.328 238.929 297.378 239.979 296.525 240.732 C 295.678 241.479 294.955 242.002 294.355 242.302 C 293.755 242.602 293.205 242.802 292.705 242.902 C 291.005 243.102 289.655 242.602 288.655 241.402 C 288.155 240.902 287.682 240.002 287.235 238.702 C 286.782 237.402 287.055 235.752 288.055 233.752 C 288.655 232.552 289.478 231.352 290.525 230.152 C 291.578 228.952 292.782 227.852 294.135 226.852 C 295.482 225.852 296.855 225.002 298.255 224.302 C 299.655 223.602 301.005 223.102 302.305 222.802 C 302.505 222.502 302.632 222.252 302.685 222.052 C 302.732 221.852 302.805 221.652 302.905 221.452 L 303.205 220.852 C 303.705 219.652 304.605 219.202 305.905 219.502 C 307.205 219.702 307.855 220.452 307.855 221.752 C 307.855 221.752 307.905 222.425 308.005 223.772 C 308.105 225.125 308.205 227.002 308.305 229.402 C 308.405 231.802 308.532 234.629 308.685 237.882 C 308.832 241.129 308.905 244.702 308.905 248.602 C 312.105 245.002 315.078 241.952 317.825 239.452 C 320.578 236.952 322.805 235.202 324.505 234.202 C 325.105 233.902 325.728 233.852 326.375 234.052 C 327.028 234.252 327.505 234.652 327.805 235.252 C 328.205 235.852 328.305 236.479 328.105 237.132 C 327.905 237.779 327.505 238.252 326.905 238.552 C 325.205 239.452 322.778 241.452 319.625 244.552 C 316.478 247.652 312.955 251.502 309.055 256.102 C 309.055 258.402 309.032 260.702 308.985 263.002 C 308.932 265.302 308.855 267.652 308.755 270.052 C 307.555 304.652 302.255 326.852 292.855 336.652 C 289.255 340.452 285.055 342.352 280.255 342.352 Z M 279.955 337.402 C 283.455 337.502 286.605 336.102 289.405 333.202 C 293.605 328.802 296.928 321.279 299.375 310.632 C 301.828 299.979 303.305 286.402 303.805 269.902 C 303.905 268.502 303.955 267.179 303.955 265.932 C 303.955 264.679 304.005 263.402 304.105 262.102 C 302.105 264.602 300.078 267.225 298.025 269.972 C 295.978 272.725 293.955 275.552 291.955 278.452 C 283.955 290.152 278.055 300.475 274.255 309.422 C 270.455 318.375 269.055 325.302 270.055 330.202 C 270.155 330.902 270.382 331.652 270.735 332.452 C 271.082 333.252 271.628 333.975 272.375 334.622 C 273.128 335.275 274.105 335.875 275.305 336.422 C 276.505 336.975 278.055 337.302 279.955 337.402 Z M 298.705 229.702 C 297.305 230.502 296.032 231.452 294.885 232.552 C 293.732 233.652 292.905 234.752 292.405 235.852 C 292.105 236.452 291.955 236.902 291.955 237.202 C 291.955 237.502 292.005 237.752 292.105 237.952 C 292.505 237.752 293.205 237.129 294.205 236.082 C 295.205 235.029 296.705 232.902 298.705 229.702 ZM 332.705 263.602 C 332.105 263.602 331.655 263.502 331.355 263.302 C 328.355 261.402 326.155 258.202 324.755 253.702 C 323.355 249.202 323.055 244.252 323.855 238.852 C 324.655 233.552 326.432 229.102 329.185 225.502 C 331.932 221.902 335.405 219.552 339.605 218.452 C 343.005 217.552 345.455 218.002 346.955 219.802 C 348.655 221.702 348.605 224.902 346.805 229.402 C 345.905 231.502 344.655 233.775 343.055 236.222 C 341.455 238.675 339.655 241.052 337.655 243.352 C 336.455 244.752 335.078 246.152 333.525 247.552 C 331.978 248.952 330.455 250.002 328.955 250.702 C 329.455 252.702 330.128 254.425 330.975 255.872 C 331.828 257.325 332.805 258.402 333.905 259.102 C 334.505 259.502 334.878 260.025 335.025 260.672 C 335.178 261.325 335.105 261.952 334.805 262.552 C 334.405 263.252 333.705 263.602 332.705 263.602 Z M 343.205 222.952 L 342.755 222.952 C 342.555 222.952 342.305 222.952 342.005 222.952 C 341.705 222.952 341.305 223.052 340.805 223.252 C 337.605 224.052 334.955 225.902 332.855 228.802 C 330.755 231.702 329.355 235.302 328.655 239.602 C 328.355 241.802 328.255 243.752 328.355 245.452 C 328.855 245.152 329.455 244.675 330.155 244.022 C 330.855 243.375 331.655 242.602 332.555 241.702 C 334.055 240.002 335.505 238.202 336.905 236.302 C 338.305 234.402 339.555 232.502 340.655 230.602 C 342.055 228.202 342.878 226.402 343.125 225.202 C 343.378 224.002 343.405 223.252 343.205 222.952 ZM 390.105 204.802 C 391.605 204.802 392.455 205.602 392.655 207.202 C 392.655 207.902 392.428 208.502 391.975 209.002 C 391.528 209.502 390.955 209.752 390.255 209.752 C 384.255 209.952 378.482 210.302 372.935 210.802 C 367.382 211.302 362.105 211.902 357.105 212.602 C 356.605 219.102 356.078 225.802 355.525 232.702 C 354.978 239.602 354.478 246.302 354.025 252.802 C 353.578 259.302 353.178 265.525 352.825 271.472 C 352.478 277.425 352.182 282.752 351.935 287.452 C 351.682 292.152 351.555 296.052 351.555 299.152 C 351.555 302.252 351.655 304.302 351.855 305.302 C 352.055 306.002 351.955 306.625 351.555 307.172 C 351.155 307.725 350.605 308.102 349.905 308.302 L 349.455 308.302 C 348.155 308.302 347.355 307.652 347.055 306.352 C 346.755 305.152 346.628 302.725 346.675 299.072 C 346.728 295.425 346.882 291.002 347.135 285.802 C 347.382 280.602 347.682 274.875 348.035 268.622 C 348.382 262.375 348.805 256.002 349.305 249.502 C 349.805 243.002 350.305 236.629 350.805 230.382 C 351.305 224.129 351.755 218.452 352.155 213.352 C 346.955 214.152 342.255 214.952 338.055 215.752 C 333.855 216.552 330.255 217.275 327.255 217.922 C 324.255 218.575 321.905 219.129 320.205 219.582 C 318.505 220.029 317.655 220.252 317.655 220.252 C 317.555 220.352 317.355 220.402 317.055 220.402 C 315.755 220.402 314.955 219.802 314.655 218.602 C 314.155 217.002 314.705 216.002 316.305 215.602 C 316.405 215.602 317.332 215.352 319.085 214.852 C 320.832 214.352 323.278 213.779 326.425 213.132 C 329.578 212.479 333.382 211.729 337.835 210.882 C 342.282 210.029 347.205 209.202 352.605 208.402 C 352.905 204.702 353.155 201.575 353.355 199.022 C 353.555 196.475 353.755 194.652 353.955 193.552 C 353.955 192.852 354.205 192.279 354.705 191.832 C 355.205 191.379 355.805 191.202 356.505 191.302 C 357.205 191.402 357.778 191.702 358.225 192.202 C 358.678 192.702 358.855 193.302 358.755 194.002 C 358.555 196.202 358.355 198.425 358.155 200.672 C 357.955 202.925 357.755 205.252 357.555 207.652 C 362.455 206.952 367.628 206.352 373.075 205.852 C 378.528 205.352 384.205 205.002 390.105 204.802 ZM 361.705 264.952 L 361.255 264.952 C 360.055 264.752 359.282 264.079 358.935 262.932 C 358.582 261.779 358.355 260.852 358.255 260.152 C 358.255 259.852 358.232 259.325 358.185 258.572 C 358.132 257.825 358.205 256.625 358.405 254.972 C 358.605 253.325 358.905 251.079 359.305 248.232 C 359.705 245.379 360.305 241.652 361.105 237.052 C 361.905 232.452 362.982 226.802 364.335 220.102 C 365.682 213.402 367.355 205.452 369.355 196.252 C 370.855 189.452 372.305 182.852 373.705 176.452 C 375.105 170.052 376.378 164.379 377.525 159.432 C 378.678 154.479 379.605 150.502 380.305 147.502 C 381.005 144.502 381.355 142.952 381.355 142.852 C 381.555 142.152 381.928 141.625 382.475 141.272 C 383.028 140.925 383.655 140.852 384.355 141.052 C 385.055 141.252 385.578 141.629 385.925 142.182 C 386.278 142.729 386.355 143.302 386.155 143.902 C 385.155 148.202 383.955 153.402 382.555 159.502 C 381.155 165.602 379.682 172.125 378.135 179.072 C 376.582 186.025 375.032 193.175 373.485 200.522 C 371.932 207.875 370.478 214.902 369.125 221.602 C 367.778 228.302 366.605 234.452 365.605 240.052 C 364.605 245.652 363.905 250.202 363.505 253.702 C 364.405 251.402 365.378 249.052 366.425 246.652 C 367.478 244.252 368.628 242.125 369.875 240.272 C 371.128 238.425 372.478 236.952 373.925 235.852 C 375.378 234.752 377.005 234.352 378.805 234.652 C 380.405 234.952 381.682 235.502 382.635 236.302 C 383.582 237.102 384.332 238.029 384.885 239.082 C 385.432 240.129 385.805 241.252 386.005 242.452 C 386.205 243.652 386.405 244.752 386.605 245.752 C 386.805 246.752 386.982 247.752 387.135 248.752 C 387.282 249.752 387.555 250.402 387.955 250.702 C 388.455 251.002 389.105 251.052 389.905 250.852 C 391.705 250.652 393.755 249.752 396.055 248.152 C 398.355 246.552 400.605 244.702 402.805 242.602 C 405.005 240.502 407.055 238.402 408.955 236.302 C 410.855 234.202 412.305 232.502 413.305 231.202 C 413.805 230.702 414.378 230.375 415.025 230.222 C 415.678 230.075 416.255 230.252 416.755 230.752 C 417.255 231.252 417.555 231.825 417.655 232.472 C 417.755 233.125 417.605 233.702 417.205 234.202 C 417.105 234.302 416.205 235.352 414.505 237.352 C 412.805 239.352 410.705 241.652 408.205 244.252 C 404.705 247.752 401.478 250.452 398.525 252.352 C 395.578 254.252 392.955 255.402 390.655 255.802 C 388.355 256.102 386.505 255.702 385.105 254.602 C 383.805 253.602 382.982 252.379 382.635 250.932 C 382.282 249.479 382.005 247.952 381.805 246.352 C 381.505 244.052 381.128 242.379 380.675 241.332 C 380.228 240.279 379.355 239.652 378.055 239.452 C 376.855 239.252 375.305 240.752 373.405 243.952 C 372.305 245.652 371.305 247.602 370.405 249.802 C 369.505 252.002 368.655 254.052 367.855 255.952 C 367.355 257.052 366.932 258.052 366.585 258.952 C 366.232 259.852 365.855 260.702 365.455 261.502 C 365.155 262.102 364.732 262.829 364.185 263.682 C 363.632 264.529 362.805 264.952 361.705 264.952 ZM 423.605 263.602 C 423.005 263.602 422.555 263.502 422.255 263.302 C 419.255 261.402 417.055 258.202 415.655 253.702 C 414.255 249.202 413.955 244.252 414.755 238.852 C 415.555 233.552 417.332 229.102 420.085 225.502 C 422.832 221.902 426.305 219.552 430.505 218.452 C 433.905 217.552 436.355 218.002 437.855 219.802 C 439.555 221.702 439.505 224.902 437.705 229.402 C 436.805 231.502 435.555 233.775 433.955 236.222 C 432.355 238.675 430.555 241.052 428.555 243.352 C 427.355 244.752 425.978 246.152 424.425 247.552 C 422.878 248.952 421.355 250.002 419.855 250.702 C 420.355 252.702 421.028 254.425 421.875 255.872 C 422.728 257.325 423.705 258.402 424.805 259.102 C 425.405 259.502 425.778 260.025 425.925 260.672 C 426.078 261.325 426.005 261.952 425.705 262.552 C 425.305 263.252 424.605 263.602 423.605 263.602 Z M 434.105 222.952 L 433.655 222.952 C 433.455 222.952 433.205 222.952 432.905 222.952 C 432.605 222.952 432.205 223.052 431.705 223.252 C 428.505 224.052 425.855 225.902 423.755 228.802 C 421.655 231.702 420.255 235.302 419.555 239.602 C 419.255 241.802 419.155 243.752 419.255 245.452 C 419.755 245.152 420.355 244.675 421.055 244.022 C 421.755 243.375 422.555 242.602 423.455 241.702 C 424.955 240.002 426.405 238.202 427.805 236.302 C 429.205 234.402 430.455 232.502 431.555 230.602 C 432.955 228.202 433.778 226.402 434.025 225.202 C 434.278 224.002 434.305 223.252 434.105 222.952 ZM 445.455 260.752 L 444.705 260.752 C 443.905 260.752 443.305 260.452 442.905 259.852 C 442.605 259.452 442.405 259.052 442.305 258.652 C 442.205 258.252 442.205 257.352 442.305 255.952 L 442.305 255.502 C 442.205 254.202 442.105 252.552 442.005 250.552 C 441.905 248.552 441.782 246.429 441.635 244.182 C 441.482 241.929 441.328 239.652 441.175 237.352 C 441.028 235.052 440.905 232.952 440.805 231.052 C 440.705 230.352 440.882 229.752 441.335 229.252 C 441.782 228.752 442.355 228.502 443.055 228.502 C 443.755 228.402 444.355 228.575 444.855 229.022 C 445.355 229.475 445.605 230.052 445.605 230.752 C 445.705 232.152 445.855 234.302 446.055 237.202 C 446.155 237.002 446.255 236.829 446.355 236.682 C 446.455 236.529 446.555 236.352 446.655 236.152 C 448.355 233.052 450.255 231.152 452.355 230.452 C 454.455 229.752 456.355 229.502 458.055 229.702 C 459.655 229.902 460.355 230.802 460.155 232.402 C 459.955 234.002 459.055 234.702 457.455 234.502 C 455.455 234.402 453.855 234.952 452.655 236.152 C 451.555 237.252 450.655 238.625 449.955 240.272 C 449.255 241.925 448.705 243.702 448.305 245.602 C 447.905 247.502 447.628 249.352 447.475 251.152 C 447.328 252.952 447.205 254.452 447.105 255.652 C 447.205 256.452 447.255 257.079 447.255 257.532 C 447.255 257.979 447.255 258.302 447.255 258.502 C 447.155 259.202 446.932 259.702 446.585 260.002 C 446.232 260.302 445.855 260.552 445.455 260.752 Z" transform="matrix(1, 0, 0, 1, 15.499998092651367, -0.0000070000005507608876)" style="fill: rgb(255, 192, 203); white-space: pre;"/>
    <path d="M 33.072 180.812 C 34.345 179.932 35.712 179.299 37.172 178.912 C 37.565 178.812 37.909 178.762 38.202 178.762 C 39.175 178.762 40.005 179.249 40.692 180.222 C 41.472 181.395 42.009 182.569 42.302 183.742 C 42.402 184.422 42.452 185.155 42.452 185.942 C 42.452 186.329 42.452 186.719 42.452 187.112 C 42.059 189.745 41.082 191.892 39.522 193.552 C 38.155 195.019 37.079 195.752 36.292 195.752 C 36.199 195.752 36.102 195.752 36.002 195.752 C 35.122 195.265 34.732 194.095 34.832 192.242 C 34.832 190.382 34.782 188.429 34.682 186.382 C 34.589 185.402 34.442 184.375 34.242 183.302 C 34.049 182.322 33.659 181.492 33.072 180.812 Z" transform="matrix(1, 0, 0, 1, 0, 0)" style="fill: rgb(255, 192, 203); white-space: pre;"/>
  </g>
  <path d="M 513.29 325.633 C 512.997 325.046 512.85 324.51 512.85 324.023 C 512.85 323.143 513.34 322.36 514.32 321.673 C 515.393 320.993 516.467 320.653 517.54 320.653 C 518.127 320.653 518.663 320.75 519.15 320.943 C 520.81 321.43 521.787 322.846 522.08 325.193 C 522.08 325.58 522.08 325.92 522.08 326.213 C 522.08 327.873 521.543 328.9 520.47 329.293 C 519.883 329.586 519.297 329.733 518.71 329.733 C 517.837 329.733 517.007 329.44 516.22 328.853 C 514.953 327.973 513.977 326.9 513.29 325.633 Z" style="fill: rgb(255, 192, 203); white-space: pre;" transform="matrix(1, 0, 0, 1, 0, 0)"/>
</svg>