<?xml version="1.0" encoding="utf-8"?>
<svg viewBox="67.43800354003906 17.516000747680664 474.3909912109375 167.5469970703125" width="474.3909912109375" height="167.5469970703125" xmlns="http://www.w3.org/2000/svg">
  <path d="M 74.048 126.879 C 72.548 126.879 71.248 126.329 70.148 125.229 C 70.148 125.129 70.098 125.079 69.998 125.079 C 68.298 122.979 67.698 120.629 68.198 118.029 C 68.498 116.229 69.248 114.552 70.448 112.999 C 71.648 111.452 72.921 110.079 74.268 108.879 C 75.621 107.679 76.875 106.729 78.028 106.029 C 79.175 105.329 79.898 104.879 80.198 104.679 C 80.798 104.379 81.421 104.306 82.068 104.459 C 82.721 104.606 83.198 104.979 83.498 105.579 C 83.898 106.179 83.998 106.806 83.798 107.459 C 83.598 108.106 83.198 108.579 82.598 108.879 C 81.998 109.279 81.198 109.829 80.198 110.529 C 79.198 111.229 78.198 112.029 77.198 112.929 C 76.198 113.829 75.298 114.806 74.498 115.859 C 73.698 116.906 73.198 117.929 72.998 118.929 C 72.898 119.929 73.148 120.929 73.748 121.929 C 73.848 121.929 74.048 121.929 74.348 121.929 C 74.648 121.929 75.148 121.779 75.848 121.479 C 76.548 121.179 77.421 120.679 78.468 119.979 C 79.521 119.279 80.848 118.229 82.448 116.829 C 83.448 116.029 84.398 115.179 85.298 114.279 C 86.198 113.379 86.998 112.579 87.698 111.879 C 88.498 111.079 89.198 110.329 89.798 109.629 C 90.298 109.129 90.871 108.852 91.518 108.799 C 92.171 108.752 92.748 108.979 93.248 109.479 C 93.748 109.979 94.021 110.556 94.068 111.209 C 94.121 111.856 93.898 112.429 93.398 112.929 C 93.398 113.029 92.748 113.756 91.448 115.109 C 90.148 116.456 88.548 117.979 86.648 119.679 C 81.248 124.479 77.048 126.879 74.048 126.879 ZM 102.597 128.829 C 102.197 128.829 101.597 128.729 100.797 128.529 C 99.397 128.229 98.324 127.706 97.577 126.959 C 96.824 126.206 96.347 125.429 96.147 124.629 C 95.747 123.629 95.597 122.529 95.697 121.329 C 95.797 120.129 96.024 118.929 96.377 117.729 C 96.724 116.529 97.197 115.356 97.797 114.209 C 98.397 113.056 98.947 112.029 99.447 111.129 C 99.547 110.929 99.647 110.706 99.747 110.459 C 99.847 110.206 99.947 109.979 100.047 109.779 C 100.847 108.179 101.897 106.979 103.197 106.179 C 104.497 105.379 105.847 105.079 107.247 105.279 C 109.447 105.579 110.997 106.979 111.897 109.479 C 112.097 110.279 112.271 111.106 112.417 111.959 C 112.571 112.806 112.597 113.679 112.497 114.579 C 113.397 114.179 114.371 113.779 115.417 113.379 C 116.471 112.979 117.597 112.479 118.797 111.879 C 119.397 111.479 120.021 111.406 120.667 111.659 C 121.321 111.906 121.797 112.329 122.097 112.929 C 122.397 113.529 122.447 114.152 122.247 114.799 C 122.047 115.452 121.647 115.929 121.047 116.229 C 119.247 117.029 117.571 117.752 116.017 118.399 C 114.471 119.052 112.997 119.579 111.597 119.979 C 110.997 122.379 109.947 124.379 108.447 125.979 C 106.747 127.879 104.797 128.829 102.597 128.829 Z M 101.097 119.079 C 100.897 119.879 100.724 120.606 100.577 121.259 C 100.424 121.906 100.447 122.479 100.647 122.979 C 100.747 123.079 100.874 123.206 101.027 123.359 C 101.174 123.506 101.497 123.629 101.997 123.729 C 102.297 123.929 102.697 123.979 103.197 123.879 C 103.697 123.779 104.247 123.379 104.847 122.679 C 105.047 122.379 105.271 122.079 105.517 121.779 C 105.771 121.479 105.997 121.129 106.197 120.729 C 104.197 120.729 102.497 120.179 101.097 119.079 Z M 103.947 113.229 C 103.747 114.329 103.847 114.979 104.247 115.179 C 104.647 115.679 105.747 115.879 107.547 115.779 C 107.647 114.879 107.671 114.029 107.617 113.229 C 107.571 112.429 107.447 111.729 107.247 111.129 C 107.047 110.629 106.797 110.279 106.497 110.079 C 106.297 110.079 106.047 110.229 105.747 110.529 C 105.547 110.729 105.397 110.929 105.297 111.129 C 105.097 111.429 104.871 111.756 104.617 112.109 C 104.371 112.456 104.147 112.829 103.947 113.229 ZM 149.146 158.379 L 148.846 158.379 C 146.546 158.079 144.823 156.879 143.676 154.779 C 142.523 152.679 141.746 150.052 141.346 146.899 C 140.946 143.752 140.796 140.279 140.896 136.479 C 140.996 132.679 141.146 128.879 141.346 125.079 C 141.546 123.079 141.696 121.029 141.796 118.929 C 141.896 116.829 141.896 115.079 141.796 113.679 C 141.596 114.079 141.346 114.506 141.046 114.959 C 140.746 115.406 140.396 116.029 139.996 116.829 C 139.296 118.229 138.596 119.752 137.896 121.399 C 137.196 123.052 136.496 124.729 135.796 126.429 C 133.696 131.429 132.096 134.902 130.996 136.849 C 129.896 138.802 128.646 139.779 127.246 139.779 C 126.146 139.779 125.396 139.429 124.996 138.729 C 124.496 138.229 124.17 137.406 124.016 136.259 C 123.87 135.106 123.996 133.079 124.396 130.179 C 124.596 128.579 124.873 126.756 125.226 124.709 C 125.573 122.656 125.996 120.329 126.496 117.729 C 126.896 115.629 127.32 113.552 127.766 111.499 C 128.22 109.452 128.62 107.629 128.966 106.029 C 129.32 104.429 129.596 103.129 129.796 102.129 C 129.996 101.129 130.096 100.629 130.096 100.629 C 130.296 99.929 130.67 99.402 131.216 99.049 C 131.77 98.702 132.396 98.629 133.096 98.829 C 133.696 99.029 134.196 99.406 134.596 99.959 C 134.996 100.506 135.096 101.129 134.896 101.829 C 134.596 103.229 134.246 104.829 133.846 106.629 C 133.546 108.129 133.17 109.852 132.716 111.799 C 132.27 113.752 131.846 115.729 131.446 117.729 C 130.946 120.129 130.546 122.206 130.246 123.959 C 129.946 125.706 129.696 127.279 129.496 128.679 C 129.796 127.979 130.096 127.279 130.396 126.579 C 130.696 125.879 130.996 125.229 131.296 124.629 C 132.096 122.629 132.92 120.629 133.766 118.629 C 134.62 116.629 135.496 114.829 136.396 113.229 C 136.696 112.629 137.07 111.956 137.516 111.209 C 137.97 110.456 138.496 109.729 139.096 109.029 C 139.696 108.329 140.37 107.806 141.116 107.459 C 141.87 107.106 142.696 107.029 143.596 107.229 C 144.996 107.629 145.846 108.552 146.146 109.999 C 146.446 111.452 146.596 112.929 146.596 114.429 C 146.696 115.829 146.696 117.479 146.596 119.379 C 146.496 121.279 146.396 123.279 146.296 125.379 C 146.096 128.579 145.946 131.902 145.846 135.349 C 145.746 138.802 145.846 141.979 146.146 144.879 C 146.646 150.379 147.746 153.229 149.446 153.429 C 150.146 153.529 150.723 153.829 151.176 154.329 C 151.623 154.829 151.796 155.429 151.696 156.129 C 151.496 157.629 150.646 158.379 149.146 158.379 ZM 182.196 158.379 L 181.896 158.379 C 179.596 158.079 177.872 156.879 176.726 154.779 C 175.572 152.679 174.796 150.052 174.396 146.899 C 173.996 143.752 173.846 140.279 173.946 136.479 C 174.046 132.679 174.196 128.879 174.396 125.079 C 174.596 123.079 174.746 121.029 174.846 118.929 C 174.946 116.829 174.946 115.079 174.846 113.679 C 174.646 114.079 174.396 114.506 174.096 114.959 C 173.796 115.406 173.446 116.029 173.046 116.829 C 172.346 118.229 171.646 119.752 170.946 121.399 C 170.246 123.052 169.546 124.729 168.846 126.429 C 166.746 131.429 165.146 134.902 164.046 136.849 C 162.946 138.802 161.696 139.779 160.296 139.779 C 159.196 139.779 158.446 139.429 158.046 138.729 C 157.546 138.229 157.219 137.406 157.066 136.259 C 156.919 135.106 157.046 133.079 157.446 130.179 C 157.646 128.579 157.922 126.756 158.276 124.709 C 158.622 122.656 159.046 120.329 159.546 117.729 C 159.946 115.629 160.369 113.552 160.816 111.499 C 161.269 109.452 161.669 107.629 162.016 106.029 C 162.369 104.429 162.646 103.129 162.846 102.129 C 163.046 101.129 163.146 100.629 163.146 100.629 C 163.346 99.929 163.719 99.402 164.266 99.049 C 164.819 98.702 165.446 98.629 166.146 98.829 C 166.746 99.029 167.246 99.406 167.646 99.959 C 168.046 100.506 168.146 101.129 167.946 101.829 C 167.646 103.229 167.296 104.829 166.896 106.629 C 166.596 108.129 166.219 109.852 165.766 111.799 C 165.319 113.752 164.896 115.729 164.496 117.729 C 163.996 120.129 163.596 122.206 163.296 123.959 C 162.996 125.706 162.746 127.279 162.546 128.679 C 162.846 127.979 163.146 127.279 163.446 126.579 C 163.746 125.879 164.046 125.229 164.346 124.629 C 165.146 122.629 165.969 120.629 166.816 118.629 C 167.669 116.629 168.546 114.829 169.446 113.229 C 169.746 112.629 170.119 111.956 170.566 111.209 C 171.019 110.456 171.546 109.729 172.146 109.029 C 172.746 108.329 173.419 107.806 174.166 107.459 C 174.919 107.106 175.746 107.029 176.646 107.229 C 178.046 107.629 178.896 108.552 179.196 109.999 C 179.496 111.452 179.646 112.929 179.646 114.429 C 179.746 115.829 179.746 117.479 179.646 119.379 C 179.546 121.279 179.446 123.279 179.346 125.379 C 179.146 128.579 178.996 131.902 178.896 135.349 C 178.796 138.802 178.896 141.979 179.196 144.879 C 179.696 150.379 180.796 153.229 182.496 153.429 C 183.196 153.529 183.772 153.829 184.226 154.329 C 184.672 154.829 184.846 155.429 184.746 156.129 C 184.546 157.629 183.696 158.379 182.196 158.379 ZM 199.045 140.379 C 198.445 140.379 197.995 140.279 197.695 140.079 C 194.695 138.179 192.495 134.979 191.095 130.479 C 189.695 125.979 189.395 121.029 190.195 115.629 C 190.995 110.329 192.771 105.879 195.525 102.279 C 198.271 98.679 201.745 96.329 205.945 95.229 C 209.345 94.329 211.795 94.779 213.295 96.579 C 214.995 98.479 214.945 101.679 213.145 106.179 C 212.245 108.279 210.995 110.552 209.395 112.999 C 207.795 115.452 205.995 117.829 203.995 120.129 C 202.795 121.529 201.418 122.929 199.865 124.329 C 198.318 125.729 196.795 126.779 195.295 127.479 C 195.795 129.479 196.468 131.202 197.315 132.649 C 198.168 134.102 199.145 135.179 200.245 135.879 C 200.845 136.279 201.218 136.802 201.365 137.449 C 201.518 138.102 201.445 138.729 201.145 139.329 C 200.745 140.029 200.045 140.379 199.045 140.379 Z M 209.545 99.729 L 209.095 99.729 C 208.895 99.729 208.645 99.729 208.345 99.729 C 208.045 99.729 207.645 99.829 207.145 100.029 C 203.945 100.829 201.295 102.679 199.195 105.579 C 197.095 108.479 195.695 112.079 194.995 116.379 C 194.695 118.579 194.595 120.529 194.695 122.229 C 195.195 121.929 195.795 121.452 196.495 120.799 C 197.195 120.152 197.995 119.379 198.895 118.479 C 200.395 116.779 201.845 114.979 203.245 113.079 C 204.645 111.179 205.895 109.279 206.995 107.379 C 208.395 104.979 209.218 103.179 209.465 101.979 C 209.718 100.779 209.745 100.029 209.545 99.729 ZM 225.944 126.879 C 224.444 126.879 223.144 126.329 222.044 125.229 C 222.044 125.129 221.994 125.079 221.894 125.079 C 220.194 122.979 219.594 120.629 220.094 118.029 C 220.394 116.229 221.144 114.552 222.344 112.999 C 223.544 111.452 224.817 110.079 226.164 108.879 C 227.517 107.679 228.771 106.729 229.924 106.029 C 231.071 105.329 231.794 104.879 232.094 104.679 C 232.694 104.379 233.317 104.306 233.964 104.459 C 234.617 104.606 235.094 104.979 235.394 105.579 C 235.794 106.179 235.894 106.806 235.694 107.459 C 235.494 108.106 235.094 108.579 234.494 108.879 C 233.894 109.279 233.094 109.829 232.094 110.529 C 231.094 111.229 230.094 112.029 229.094 112.929 C 228.094 113.829 227.194 114.806 226.394 115.859 C 225.594 116.906 225.094 117.929 224.894 118.929 C 224.794 119.929 225.044 120.929 225.644 121.929 C 225.744 121.929 225.944 121.929 226.244 121.929 C 226.544 121.929 227.044 121.779 227.744 121.479 C 228.444 121.179 229.317 120.679 230.364 119.979 C 231.417 119.279 232.744 118.229 234.344 116.829 C 235.344 116.029 236.294 115.179 237.194 114.279 C 238.094 113.379 238.894 112.579 239.594 111.879 C 240.394 111.079 241.094 110.329 241.694 109.629 C 242.194 109.129 242.767 108.852 243.414 108.799 C 244.067 108.752 244.644 108.979 245.144 109.479 C 245.644 109.979 245.917 110.556 245.964 111.209 C 246.017 111.856 245.794 112.429 245.294 112.929 C 245.294 113.029 244.644 113.756 243.344 115.109 C 242.044 116.456 240.444 117.979 238.544 119.679 C 233.144 124.479 228.944 126.879 225.944 126.879 ZM 287.643 81.579 C 289.143 81.579 289.993 82.379 290.193 83.979 C 290.193 84.679 289.966 85.279 289.513 85.779 C 289.066 86.279 288.493 86.529 287.793 86.529 C 281.793 86.729 276.02 87.079 270.473 87.579 C 264.92 88.079 259.643 88.679 254.643 89.379 C 254.143 95.879 253.616 102.579 253.063 109.479 C 252.516 116.379 252.016 123.079 251.563 129.579 C 251.116 136.079 250.716 142.302 250.363 148.249 C 250.016 154.202 249.72 159.529 249.473 164.229 C 249.22 168.929 249.093 172.829 249.093 175.929 C 249.093 179.029 249.193 181.079 249.393 182.079 C 249.593 182.779 249.493 183.402 249.093 183.949 C 248.693 184.502 248.143 184.879 247.443 185.079 L 246.993 185.079 C 245.693 185.079 244.893 184.429 244.593 183.129 C 244.293 181.929 244.166 179.502 244.213 175.849 C 244.266 172.202 244.42 167.779 244.673 162.579 C 244.92 157.379 245.22 151.652 245.573 145.399 C 245.92 139.152 246.343 132.779 246.843 126.279 C 247.343 119.779 247.843 113.406 248.343 107.159 C 248.843 100.906 249.293 95.229 249.693 90.129 C 244.493 90.929 239.793 91.729 235.593 92.529 C 231.393 93.329 227.793 94.052 224.793 94.699 C 221.793 95.352 219.443 95.906 217.743 96.359 C 216.043 96.806 215.193 97.029 215.193 97.029 C 215.093 97.129 214.893 97.179 214.593 97.179 C 213.293 97.179 212.493 96.579 212.193 95.379 C 211.693 93.779 212.243 92.779 213.843 92.379 C 213.943 92.379 214.87 92.129 216.623 91.629 C 218.37 91.129 220.816 90.556 223.963 89.909 C 227.116 89.256 230.92 88.506 235.373 87.659 C 239.82 86.806 244.743 85.979 250.143 85.179 C 250.443 81.479 250.693 78.352 250.893 75.799 C 251.093 73.252 251.293 71.429 251.493 70.329 C 251.493 69.629 251.743 69.056 252.243 68.609 C 252.743 68.156 253.343 67.979 254.043 68.079 C 254.743 68.179 255.316 68.479 255.763 68.979 C 256.216 69.479 256.393 70.079 256.293 70.779 C 256.093 72.979 255.893 75.202 255.693 77.449 C 255.493 79.702 255.293 82.029 255.093 84.429 C 259.993 83.729 265.166 83.129 270.613 82.629 C 276.066 82.129 281.743 81.779 287.643 81.579 ZM 300.942 146.229 C 300.342 146.229 299.942 146.179 299.742 146.079 C 297.142 145.779 295.142 144.479 293.742 142.179 C 291.442 137.879 292.292 130.279 296.292 119.379 C 296.992 117.479 297.715 115.656 298.462 113.909 C 299.215 112.156 299.892 110.602 300.492 109.249 C 301.092 107.902 301.592 106.829 301.992 106.029 C 302.392 105.229 302.592 104.779 302.592 104.679 C 302.892 104.079 303.342 103.656 303.942 103.409 C 304.542 103.156 305.142 103.179 305.742 103.479 C 306.442 103.779 306.892 104.256 307.092 104.909 C 307.292 105.556 307.242 106.179 306.942 106.779 C 306.842 106.879 306.142 108.329 304.842 111.129 C 303.542 113.929 302.242 117.229 300.942 121.029 C 299.742 124.329 298.892 127.106 298.392 129.359 C 297.892 131.606 297.592 133.456 297.492 134.909 C 297.392 136.356 297.415 137.479 297.562 138.279 C 297.715 139.079 297.892 139.629 298.092 139.929 C 298.592 140.729 299.342 141.179 300.342 141.279 C 301.642 141.379 302.942 140.929 304.242 139.929 C 305.742 138.629 307.015 136.706 308.062 134.159 C 309.115 131.606 309.992 128.856 310.692 125.909 C 311.392 122.956 311.915 120.106 312.262 117.359 C 312.615 114.606 312.842 112.379 312.942 110.679 L 312.942 110.379 C 312.942 109.679 313.192 109.106 313.692 108.659 C 314.192 108.206 314.792 107.979 315.492 107.979 C 316.192 108.079 316.765 108.352 317.212 108.799 C 317.665 109.252 317.842 109.829 317.742 110.529 L 317.742 110.829 C 317.742 111.329 317.692 112.552 317.592 114.499 C 317.492 116.452 317.492 118.679 317.592 121.179 C 317.692 124.379 317.842 126.829 318.042 128.529 C 318.242 130.229 318.442 131.429 318.642 132.129 C 318.842 131.729 318.992 131.379 319.092 131.079 C 319.392 130.279 319.615 129.429 319.762 128.529 C 319.915 127.629 320.092 126.679 320.292 125.679 C 320.692 123.679 321.142 121.829 321.642 120.129 C 322.142 118.429 322.992 117.179 324.192 116.379 C 325.192 115.679 326.392 115.479 327.792 115.779 C 328.592 115.979 329.618 115.879 330.872 115.479 C 332.118 115.079 333.442 114.529 334.842 113.829 C 336.242 113.129 337.618 112.352 338.972 111.499 C 340.318 110.652 341.542 109.829 342.642 109.029 C 343.142 108.629 343.718 108.479 344.372 108.579 C 345.018 108.679 345.542 109.029 345.942 109.629 C 346.442 110.129 346.618 110.706 346.472 111.359 C 346.318 112.006 345.992 112.529 345.492 112.929 C 345.392 113.029 344.742 113.506 343.542 114.359 C 342.342 115.206 340.842 116.129 339.042 117.129 C 333.742 120.029 329.692 121.179 326.892 120.579 C 326.492 120.979 326.142 121.829 325.842 123.129 C 325.542 124.429 325.292 125.579 325.092 126.579 C 324.692 128.879 324.165 131.079 323.512 133.179 C 322.865 135.279 321.592 136.729 319.692 137.529 C 318.492 138.029 317.342 137.879 316.242 137.079 C 315.742 136.779 315.292 136.329 314.892 135.729 C 314.492 135.129 314.142 134.129 313.842 132.729 C 311.942 138.029 309.792 141.679 307.392 143.679 C 305.392 145.379 303.242 146.229 300.942 146.229 ZM 347.19 141.279 C 346.19 141.279 345.44 140.729 344.94 139.629 C 344.74 139.229 344.567 138.679 344.42 137.979 C 344.267 137.279 344.19 136.279 344.19 134.979 C 344.19 133.679 344.314 132.079 344.56 130.179 C 344.814 128.279 345.19 125.879 345.69 122.979 C 346.19 119.979 346.714 117.329 347.26 115.029 C 347.814 112.729 348.14 111.529 348.24 111.429 C 348.44 110.729 348.814 110.206 349.36 109.859 C 349.914 109.506 350.54 109.429 351.24 109.629 C 351.84 109.829 352.314 110.202 352.66 110.749 C 353.014 111.302 353.09 111.929 352.89 112.629 C 352.69 113.729 352.44 114.879 352.14 116.079 C 351.94 117.179 351.667 118.406 351.32 119.759 C 350.967 121.106 350.69 122.479 350.49 123.879 C 349.99 126.479 349.64 128.656 349.44 130.409 C 349.24 132.156 349.14 133.552 349.14 134.599 C 349.14 135.652 349.19 136.429 349.29 136.929 C 349.39 137.429 349.44 137.729 349.44 137.829 C 350.14 139.429 349.69 140.479 348.09 140.979 C 347.69 141.179 347.39 141.279 347.19 141.279 Z M 350.49 105.879 C 349.79 105.879 349.214 105.629 348.76 105.129 C 348.314 104.629 348.09 104.029 348.09 103.329 C 348.09 102.729 348.314 102.206 348.76 101.759 C 349.214 101.306 349.74 101.029 350.34 100.929 C 350.34 100.829 350.367 100.756 350.42 100.709 C 350.467 100.656 350.49 100.529 350.49 100.329 C 350.69 99.629 351.064 99.079 351.61 98.679 C 352.164 98.279 352.79 98.179 353.49 98.379 C 354.19 98.579 354.717 98.956 355.07 99.509 C 355.417 100.056 355.49 100.679 355.29 101.379 C 354.79 103.379 354.014 104.629 352.96 105.129 C 351.914 105.629 351.09 105.879 350.49 105.879 ZM 401.39 81.579 C 402.89 81.579 403.74 82.379 403.94 83.979 C 403.94 84.679 403.713 85.279 403.26 85.779 C 402.813 86.279 402.24 86.529 401.54 86.529 C 395.54 86.729 389.767 87.079 384.22 87.579 C 378.667 88.079 373.39 88.679 368.39 89.379 C 367.89 95.879 367.363 102.579 366.81 109.479 C 366.263 116.379 365.763 123.079 365.31 129.579 C 364.863 136.079 364.463 142.302 364.11 148.249 C 363.763 154.202 363.467 159.529 363.22 164.229 C 362.967 168.929 362.84 172.829 362.84 175.929 C 362.84 179.029 362.94 181.079 363.14 182.079 C 363.34 182.779 363.24 183.402 362.84 183.949 C 362.44 184.502 361.89 184.879 361.19 185.079 L 360.74 185.079 C 359.44 185.079 358.64 184.429 358.34 183.129 C 358.04 181.929 357.913 179.502 357.96 175.849 C 358.013 172.202 358.167 167.779 358.42 162.579 C 358.667 157.379 358.967 151.652 359.32 145.399 C 359.667 139.152 360.09 132.779 360.59 126.279 C 361.09 119.779 361.59 113.406 362.09 107.159 C 362.59 100.906 363.04 95.229 363.44 90.129 C 358.24 90.929 353.54 91.729 349.34 92.529 C 345.14 93.329 341.54 94.052 338.54 94.699 C 335.54 95.352 333.19 95.906 331.49 96.359 C 329.79 96.806 328.94 97.029 328.94 97.029 C 328.84 97.129 328.64 97.179 328.34 97.179 C 327.04 97.179 326.24 96.579 325.94 95.379 C 325.44 93.779 325.99 92.779 327.59 92.379 C 327.69 92.379 328.617 92.129 330.37 91.629 C 332.117 91.129 334.563 90.556 337.71 89.909 C 340.863 89.256 344.667 88.506 349.12 87.659 C 353.567 86.806 358.49 85.979 363.89 85.179 C 364.19 81.479 364.44 78.352 364.64 75.799 C 364.84 73.252 365.04 71.429 365.24 70.329 C 365.24 69.629 365.49 69.056 365.99 68.609 C 366.49 68.156 367.09 67.979 367.79 68.079 C 368.49 68.179 369.063 68.479 369.51 68.979 C 369.963 69.479 370.14 70.079 370.04 70.779 C 369.84 72.979 369.64 75.202 369.44 77.449 C 369.24 79.702 369.04 82.029 368.84 84.429 C 373.74 83.729 378.913 83.129 384.36 82.629 C 389.813 82.129 395.49 81.779 401.39 81.579 ZM 376.99 141.729 L 376.54 141.729 C 375.34 141.529 374.566 140.856 374.22 139.709 C 373.866 138.556 373.64 137.629 373.54 136.929 C 373.54 136.629 373.516 136.102 373.47 135.349 C 373.416 134.602 373.49 133.402 373.69 131.749 C 373.89 130.102 374.19 127.856 374.59 125.009 C 374.99 122.156 375.59 118.429 376.39 113.829 C 377.19 109.229 378.266 103.579 379.62 96.879 C 380.966 90.179 382.64 82.229 384.64 73.029 C 386.14 66.229 387.59 59.629 388.99 53.229 C 390.39 46.829 391.663 41.156 392.81 36.209 C 393.963 31.256 394.89 27.279 395.59 24.279 C 396.29 21.279 396.64 19.729 396.64 19.629 C 396.84 18.929 397.213 18.402 397.76 18.049 C 398.313 17.702 398.94 17.629 399.64 17.829 C 400.34 18.029 400.863 18.406 401.21 18.959 C 401.563 19.506 401.64 20.079 401.44 20.679 C 400.44 24.979 399.24 30.179 397.84 36.279 C 396.44 42.379 394.966 48.902 393.42 55.849 C 391.866 62.802 390.316 69.952 388.77 77.299 C 387.216 84.652 385.763 91.679 384.41 98.379 C 383.063 105.079 381.89 111.229 380.89 116.829 C 379.89 122.429 379.19 126.979 378.79 130.479 C 379.69 128.179 380.663 125.829 381.71 123.429 C 382.763 121.029 383.913 118.902 385.16 117.049 C 386.413 115.202 387.763 113.729 389.21 112.629 C 390.663 111.529 392.29 111.129 394.09 111.429 C 395.69 111.729 396.966 112.279 397.92 113.079 C 398.866 113.879 399.616 114.806 400.17 115.859 C 400.716 116.906 401.09 118.029 401.29 119.229 C 401.49 120.429 401.69 121.529 401.89 122.529 C 402.09 123.529 402.266 124.529 402.42 125.529 C 402.566 126.529 402.84 127.179 403.24 127.479 C 403.74 127.779 404.39 127.829 405.19 127.629 C 406.99 127.429 409.04 126.529 411.34 124.929 C 413.64 123.329 415.89 121.479 418.09 119.379 C 420.29 117.279 422.34 115.179 424.24 113.079 C 426.14 110.979 427.59 109.279 428.59 107.979 C 429.09 107.479 429.663 107.152 430.31 106.999 C 430.963 106.852 431.54 107.029 432.04 107.529 C 432.54 108.029 432.84 108.602 432.94 109.249 C 433.04 109.902 432.89 110.479 432.49 110.979 C 432.39 111.079 431.49 112.129 429.79 114.129 C 428.09 116.129 425.99 118.429 423.49 121.029 C 419.99 124.529 416.763 127.229 413.81 129.129 C 410.863 131.029 408.24 132.179 405.94 132.579 C 403.64 132.879 401.79 132.479 400.39 131.379 C 399.09 130.379 398.266 129.156 397.92 127.709 C 397.566 126.256 397.29 124.729 397.09 123.129 C 396.79 120.829 396.413 119.156 395.96 118.109 C 395.513 117.056 394.64 116.429 393.34 116.229 C 392.14 116.029 390.59 117.529 388.69 120.729 C 387.59 122.429 386.59 124.379 385.69 126.579 C 384.79 128.779 383.94 130.829 383.14 132.729 C 382.64 133.829 382.216 134.829 381.87 135.729 C 381.516 136.629 381.14 137.479 380.74 138.279 C 380.44 138.879 380.016 139.606 379.47 140.459 C 378.916 141.306 378.09 141.729 376.99 141.729 ZM 469.937 145.479 L 469.637 145.479 C 469.137 145.379 468.614 145.129 468.067 144.729 C 467.514 144.329 467.137 143.479 466.937 142.179 C 466.637 140.679 466.61 138.502 466.857 135.649 C 467.11 132.802 467.464 129.702 467.917 126.349 C 468.364 123.002 468.937 119.529 469.637 115.929 C 470.337 112.329 470.987 108.979 471.587 105.879 C 472.187 102.779 472.737 100.129 473.237 97.929 C 473.737 95.729 474.037 94.279 474.137 93.579 C 474.337 92.879 474.71 92.356 475.257 92.009 C 475.81 91.656 476.437 91.579 477.137 91.779 C 478.637 92.079 479.237 93.029 478.937 94.629 C 478.437 96.729 477.86 99.379 477.207 102.579 C 476.56 105.779 475.887 109.206 475.187 112.859 C 474.487 116.506 473.837 120.179 473.237 123.879 C 472.637 127.579 472.187 130.879 471.887 133.779 C 472.187 132.979 472.514 132.179 472.867 131.379 C 473.214 130.579 473.487 129.779 473.687 128.979 C 474.687 126.379 475.714 123.729 476.767 121.029 C 477.814 118.329 478.887 115.879 479.987 113.679 C 481.087 111.279 482.31 109.206 483.657 107.459 C 485.01 105.706 486.587 105.079 488.387 105.579 C 489.387 105.779 490.314 106.379 491.167 107.379 C 492.014 108.379 492.337 110.129 492.137 112.629 C 492.037 113.929 491.837 115.306 491.537 116.759 C 491.237 118.206 490.937 119.679 490.637 121.179 C 490.337 122.279 490.037 123.456 489.737 124.709 C 489.437 125.956 489.287 126.979 489.287 127.779 C 489.487 127.679 490.087 127.229 491.087 126.429 C 492.487 125.229 493.887 123.829 495.287 122.229 C 496.887 120.529 498.287 119.129 499.487 118.029 C 499.987 117.529 500.737 117.006 501.737 116.459 C 502.737 115.906 503.837 115.879 505.037 116.379 C 506.437 117.079 507.214 118.379 507.367 120.279 C 507.514 122.179 507.487 124.429 507.287 127.029 C 507.187 128.429 507.11 130.052 507.057 131.899 C 507.01 133.752 507.237 134.979 507.737 135.579 C 508.137 136.179 508.264 136.802 508.117 137.449 C 507.964 138.102 507.637 138.629 507.137 139.029 C 506.537 139.429 505.91 139.552 505.257 139.399 C 504.61 139.252 504.087 138.929 503.687 138.429 C 502.787 137.129 502.31 135.452 502.257 133.399 C 502.21 131.352 502.287 129.179 502.487 126.879 C 502.487 126.079 502.51 125.229 502.557 124.329 C 502.61 123.429 502.637 122.579 502.637 121.779 C 501.337 122.979 500.087 124.229 498.887 125.529 C 497.087 127.529 495.31 129.306 493.557 130.859 C 491.81 132.406 490.137 133.179 488.537 133.179 C 487.937 133.179 487.337 133.029 486.737 132.729 C 486.037 132.429 485.537 132.006 485.237 131.459 C 484.937 130.906 484.71 130.329 484.557 129.729 C 484.41 129.129 484.36 128.556 484.407 128.009 C 484.46 127.456 484.487 127.029 484.487 126.729 C 484.587 125.729 484.76 124.679 485.007 123.579 C 485.26 122.479 485.537 121.279 485.837 119.979 C 486.037 118.879 486.26 117.756 486.507 116.609 C 486.76 115.456 486.987 114.379 487.187 113.379 C 487.287 112.079 487.287 111.229 487.187 110.829 C 486.887 111.229 486.437 111.906 485.837 112.859 C 485.237 113.806 484.537 115.229 483.737 117.129 C 482.837 119.129 481.91 121.329 480.957 123.729 C 480.01 126.129 479.137 128.479 478.337 130.779 C 477.637 132.579 476.96 134.279 476.307 135.879 C 475.66 137.479 475.087 138.929 474.587 140.229 C 473.887 141.729 473.21 142.979 472.557 143.979 C 471.91 144.979 471.037 145.479 469.937 145.479 ZM 525.036 140.379 C 524.436 140.379 523.986 140.279 523.686 140.079 C 520.686 138.179 518.486 134.979 517.086 130.479 C 515.686 125.979 515.386 121.029 516.186 115.629 C 516.986 110.329 518.762 105.879 521.516 102.279 C 524.262 98.679 527.736 96.329 531.936 95.229 C 535.336 94.329 537.786 94.779 539.286 96.579 C 540.986 98.479 540.936 101.679 539.136 106.179 C 538.236 108.279 536.986 110.552 535.386 112.999 C 533.786 115.452 531.986 117.829 529.986 120.129 C 528.786 121.529 527.409 122.929 525.856 124.329 C 524.309 125.729 522.786 126.779 521.286 127.479 C 521.786 129.479 522.459 131.202 523.306 132.649 C 524.159 134.102 525.136 135.179 526.236 135.879 C 526.836 136.279 527.209 136.802 527.356 137.449 C 527.509 138.102 527.436 138.729 527.136 139.329 C 526.736 140.029 526.036 140.379 525.036 140.379 Z M 535.536 99.729 L 535.086 99.729 C 534.886 99.729 534.636 99.729 534.336 99.729 C 534.036 99.729 533.636 99.829 533.136 100.029 C 529.936 100.829 527.286 102.679 525.186 105.579 C 523.086 108.479 521.686 112.079 520.986 116.379 C 520.686 118.579 520.586 120.529 520.686 122.229 C 521.186 121.929 521.786 121.452 522.486 120.799 C 523.186 120.152 523.986 119.379 524.886 118.479 C 526.386 116.779 527.836 114.979 529.236 113.079 C 530.636 111.179 531.886 109.279 532.986 107.379 C 534.386 104.979 535.209 103.179 535.456 101.979 C 535.709 100.779 535.736 100.029 535.536 99.729 Z" transform="matrix(1, 0, 0, 1, 0, 0)" style="fill: rgb(173, 216, 230); white-space: pre;"/>
</svg>