<?xml version="1.0" encoding="utf-8"?>
<svg viewBox="-100 200 700 300" width="700" height="300" xmlns="http://www.w3.org/2000/svg">
  <path d="M 30.784 398.837 C 30.484 398.837 30.234 398.787 30.034 398.687 C 28.634 398.587 27.484 398.087 26.584 397.187 C 25.684 396.287 24.984 395.26 24.484 394.107 C 23.984 392.96 23.611 391.814 23.364 390.667 C 23.111 389.514 22.934 388.637 22.834 388.037 C 22.434 385.537 22.157 382.61 22.004 379.257 C 21.857 375.91 21.884 372.187 22.084 368.087 C 22.384 362.087 22.961 355.914 23.814 349.567 C 24.661 343.214 25.684 337.337 26.884 331.937 C 28.084 326.237 29.434 321.737 30.934 318.437 C 31.534 317.037 32.384 315.587 33.484 314.087 C 34.584 312.587 35.984 311.837 37.684 311.837 C 42.584 311.837 46.384 313.937 49.084 318.137 C 50.084 319.637 50.757 320.987 51.104 322.187 C 51.457 323.387 51.684 324.087 51.784 324.287 C 51.984 325.087 51.884 325.787 51.484 326.387 C 51.084 326.987 50.484 327.387 49.684 327.587 C 48.884 327.787 48.184 327.664 47.584 327.217 C 46.984 326.764 46.584 326.187 46.384 325.487 C 46.384 325.387 46.257 324.914 46.004 324.067 C 45.757 323.214 45.307 322.287 44.654 321.287 C 44.007 320.287 43.134 319.387 42.034 318.587 C 40.934 317.787 39.584 317.337 37.984 317.237 C 37.784 317.437 37.357 318.064 36.704 319.117 C 36.057 320.164 35.284 322.137 34.384 325.037 C 33.584 327.437 32.861 330.187 32.214 333.287 C 31.561 336.387 30.934 339.687 30.334 343.187 C 29.034 350.687 28.157 358.037 27.704 365.237 C 27.257 372.437 27.284 378.537 27.784 383.537 C 27.984 385.737 28.234 387.46 28.534 388.707 C 28.834 389.96 29.134 390.937 29.434 391.637 C 29.834 392.437 30.184 392.987 30.484 393.287 C 31.584 393.387 32.834 392.837 34.234 391.637 C 35.934 390.237 37.634 387.937 39.334 384.737 C 41.034 381.537 42.634 377.687 44.134 373.187 C 45.534 369.387 46.557 366.014 47.204 363.067 C 47.857 360.114 48.184 358.387 48.184 357.887 C 48.184 357.087 48.434 356.437 48.934 355.937 C 49.434 355.437 50.084 355.187 50.884 355.187 C 51.684 355.187 52.357 355.46 52.904 356.007 C 53.457 356.56 53.734 357.237 53.734 358.037 C 53.734 358.437 53.634 359.16 53.434 360.207 C 53.234 361.26 52.957 362.537 52.604 364.037 C 52.257 365.537 51.807 367.187 51.254 368.987 C 50.707 370.787 50.134 372.637 49.534 374.537 C 48.934 376.337 48.234 378.214 47.434 380.167 C 46.634 382.114 45.761 384.037 44.814 385.937 C 43.861 387.837 42.834 389.614 41.734 391.267 C 40.634 392.914 39.434 394.337 38.134 395.537 C 35.734 397.737 33.284 398.837 30.784 398.837 ZM 63.434 377.537 C 63.034 377.537 62.434 377.437 61.634 377.237 C 60.234 376.937 59.161 376.414 58.414 375.667 C 57.661 374.914 57.184 374.137 56.984 373.337 C 56.584 372.337 56.434 371.237 56.534 370.037 C 56.634 368.837 56.861 367.637 57.214 366.437 C 57.561 365.237 58.034 364.064 58.634 362.917 C 59.234 361.764 59.784 360.737 60.284 359.837 C 60.384 359.637 60.484 359.414 60.584 359.167 C 60.684 358.914 60.784 358.687 60.884 358.487 C 61.684 356.887 62.734 355.687 64.034 354.887 C 65.334 354.087 66.684 353.787 68.084 353.987 C 70.284 354.287 71.834 355.687 72.734 358.187 C 72.934 358.987 73.107 359.814 73.254 360.667 C 73.407 361.514 73.434 362.387 73.334 363.287 C 74.234 362.887 75.207 362.487 76.254 362.087 C 77.307 361.687 78.434 361.187 79.634 360.587 C 80.234 360.187 80.857 360.114 81.504 360.367 C 82.157 360.614 82.634 361.037 82.934 361.637 C 83.234 362.237 83.284 362.86 83.084 363.507 C 82.884 364.16 82.484 364.637 81.884 364.937 C 80.084 365.737 78.407 366.46 76.854 367.107 C 75.307 367.76 73.834 368.287 72.434 368.687 C 71.834 371.087 70.784 373.087 69.284 374.687 C 67.584 376.587 65.634 377.537 63.434 377.537 Z M 61.934 367.787 C 61.734 368.587 61.561 369.314 61.414 369.967 C 61.261 370.614 61.284 371.187 61.484 371.687 C 61.584 371.787 61.711 371.914 61.864 372.067 C 62.011 372.214 62.334 372.337 62.834 372.437 C 63.134 372.637 63.534 372.687 64.034 372.587 C 64.534 372.487 65.084 372.087 65.684 371.387 C 65.884 371.087 66.107 370.787 66.354 370.487 C 66.607 370.187 66.834 369.837 67.034 369.437 C 65.034 369.437 63.334 368.887 61.934 367.787 Z M 64.784 361.937 C 64.584 363.037 64.684 363.687 65.084 363.887 C 65.484 364.387 66.584 364.587 68.384 364.487 C 68.484 363.587 68.507 362.737 68.454 361.937 C 68.407 361.137 68.284 360.437 68.084 359.837 C 67.884 359.337 67.634 358.987 67.334 358.787 C 67.134 358.787 66.884 358.937 66.584 359.237 C 66.384 359.437 66.234 359.637 66.134 359.837 C 65.934 360.137 65.707 360.464 65.454 360.817 C 65.207 361.164 64.984 361.537 64.784 361.937 ZM 105.984 407.087 L 105.684 407.087 C 103.384 406.787 101.661 405.587 100.514 403.487 C 99.361 401.387 98.584 398.76 98.184 395.607 C 97.784 392.46 97.634 388.987 97.734 385.187 C 97.834 381.387 97.984 377.587 98.184 373.787 C 98.384 371.787 98.534 369.737 98.634 367.637 C 98.734 365.537 98.734 363.787 98.634 362.387 C 98.434 362.787 98.184 363.214 97.884 363.667 C 97.584 364.114 97.234 364.737 96.834 365.537 C 96.134 366.937 95.434 368.46 94.734 370.107 C 94.034 371.76 93.334 373.437 92.634 375.137 C 90.534 380.137 88.934 383.61 87.834 385.557 C 86.734 387.51 85.484 388.487 84.084 388.487 C 82.984 388.487 82.234 388.137 81.834 387.437 C 81.334 386.937 81.007 386.114 80.854 384.967 C 80.707 383.814 80.834 381.787 81.234 378.887 C 81.434 377.287 81.711 375.464 82.064 373.417 C 82.411 371.364 82.834 369.037 83.334 366.437 C 83.734 364.337 84.157 362.26 84.604 360.207 C 85.057 358.16 85.457 356.337 85.804 354.737 C 86.157 353.137 86.434 351.837 86.634 350.837 C 86.834 349.837 86.934 349.337 86.934 349.337 C 87.134 348.637 87.507 348.11 88.054 347.757 C 88.607 347.41 89.234 347.337 89.934 347.537 C 90.534 347.737 91.034 348.114 91.434 348.667 C 91.834 349.214 91.934 349.837 91.734 350.537 C 91.434 351.937 91.084 353.537 90.684 355.337 C 90.384 356.837 90.007 358.56 89.554 360.507 C 89.107 362.46 88.684 364.437 88.284 366.437 C 87.784 368.837 87.384 370.914 87.084 372.667 C 86.784 374.414 86.534 375.987 86.334 377.387 C 86.634 376.687 86.934 375.987 87.234 375.287 C 87.534 374.587 87.834 373.937 88.134 373.337 C 88.934 371.337 89.757 369.337 90.604 367.337 C 91.457 365.337 92.334 363.537 93.234 361.937 C 93.534 361.337 93.907 360.664 94.354 359.917 C 94.807 359.164 95.334 358.437 95.934 357.737 C 96.534 357.037 97.207 356.514 97.954 356.167 C 98.707 355.814 99.534 355.737 100.434 355.937 C 101.834 356.337 102.684 357.26 102.984 358.707 C 103.284 360.16 103.434 361.637 103.434 363.137 C 103.534 364.537 103.534 366.187 103.434 368.087 C 103.334 369.987 103.234 371.987 103.134 374.087 C 102.934 377.287 102.784 380.61 102.684 384.057 C 102.584 387.51 102.684 390.687 102.984 393.587 C 103.484 399.087 104.584 401.937 106.284 402.137 C 106.984 402.237 107.561 402.537 108.014 403.037 C 108.461 403.537 108.634 404.137 108.534 404.837 C 108.334 406.337 107.484 407.087 105.984 407.087 ZM 135.034 407.087 L 134.734 407.087 C 132.434 406.787 130.711 405.587 129.564 403.487 C 128.411 401.387 127.634 398.76 127.234 395.607 C 126.834 392.46 126.684 388.987 126.784 385.187 C 126.884 381.387 127.034 377.587 127.234 373.787 C 127.434 371.787 127.584 369.737 127.684 367.637 C 127.784 365.537 127.784 363.787 127.684 362.387 C 127.484 362.787 127.234 363.214 126.934 363.667 C 126.634 364.114 126.284 364.737 125.884 365.537 C 125.184 366.937 124.484 368.46 123.784 370.107 C 123.084 371.76 122.384 373.437 121.684 375.137 C 119.584 380.137 117.984 383.61 116.884 385.557 C 115.784 387.51 114.534 388.487 113.134 388.487 C 112.034 388.487 111.284 388.137 110.884 387.437 C 110.384 386.937 110.057 386.114 109.904 384.967 C 109.757 383.814 109.884 381.787 110.284 378.887 C 110.484 377.287 110.761 375.464 111.114 373.417 C 111.461 371.364 111.884 369.037 112.384 366.437 C 112.784 364.337 113.207 362.26 113.654 360.207 C 114.107 358.16 114.507 356.337 114.854 354.737 C 115.207 353.137 115.484 351.837 115.684 350.837 C 115.884 349.837 115.984 349.337 115.984 349.337 C 116.184 348.637 116.557 348.11 117.104 347.757 C 117.657 347.41 118.284 347.337 118.984 347.537 C 119.584 347.737 120.084 348.114 120.484 348.667 C 120.884 349.214 120.984 349.837 120.784 350.537 C 120.484 351.937 120.134 353.537 119.734 355.337 C 119.434 356.837 119.057 358.56 118.604 360.507 C 118.157 362.46 117.734 364.437 117.334 366.437 C 116.834 368.837 116.434 370.914 116.134 372.667 C 115.834 374.414 115.584 375.987 115.384 377.387 C 115.684 376.687 115.984 375.987 116.284 375.287 C 116.584 374.587 116.884 373.937 117.184 373.337 C 117.984 371.337 118.807 369.337 119.654 367.337 C 120.507 365.337 121.384 363.537 122.284 361.937 C 122.584 361.337 122.957 360.664 123.404 359.917 C 123.857 359.164 124.384 358.437 124.984 357.737 C 125.584 357.037 126.257 356.514 127.004 356.167 C 127.757 355.814 128.584 355.737 129.484 355.937 C 130.884 356.337 131.734 357.26 132.034 358.707 C 132.334 360.16 132.484 361.637 132.484 363.137 C 132.584 364.537 132.584 366.187 132.484 368.087 C 132.384 369.987 132.284 371.987 132.184 374.087 C 131.984 377.287 131.834 380.61 131.734 384.057 C 131.634 387.51 131.734 390.687 132.034 393.587 C 132.534 399.087 133.634 401.937 135.334 402.137 C 136.034 402.237 136.611 402.537 137.064 403.037 C 137.511 403.537 137.684 404.137 137.584 404.837 C 137.384 406.337 136.534 407.087 135.034 407.087 ZM 147.884 389.087 C 147.284 389.087 146.834 388.987 146.534 388.787 C 143.534 386.887 141.334 383.687 139.934 379.187 C 138.534 374.687 138.234 369.737 139.034 364.337 C 139.834 359.037 141.611 354.587 144.364 350.987 C 147.111 347.387 150.584 345.037 154.784 343.937 C 158.184 343.037 160.634 343.487 162.134 345.287 C 163.834 347.187 163.784 350.387 161.984 354.887 C 161.084 356.987 159.834 359.26 158.234 361.707 C 156.634 364.16 154.834 366.537 152.834 368.837 C 151.634 370.237 150.257 371.637 148.704 373.037 C 147.157 374.437 145.634 375.487 144.134 376.187 C 144.634 378.187 145.307 379.91 146.154 381.357 C 147.007 382.81 147.984 383.887 149.084 384.587 C 149.684 384.987 150.057 385.51 150.204 386.157 C 150.357 386.81 150.284 387.437 149.984 388.037 C 149.584 388.737 148.884 389.087 147.884 389.087 Z M 158.384 348.437 L 157.934 348.437 C 157.734 348.437 157.484 348.437 157.184 348.437 C 156.884 348.437 156.484 348.537 155.984 348.737 C 152.784 349.537 150.134 351.387 148.034 354.287 C 145.934 357.187 144.534 360.787 143.834 365.087 C 143.534 367.287 143.434 369.237 143.534 370.937 C 144.034 370.637 144.634 370.16 145.334 369.507 C 146.034 368.86 146.834 368.087 147.734 367.187 C 149.234 365.487 150.684 363.687 152.084 361.787 C 153.484 359.887 154.734 357.987 155.834 356.087 C 157.234 353.687 158.057 351.887 158.304 350.687 C 158.557 349.487 158.584 348.737 158.384 348.437 ZM 170.784 375.587 C 169.284 375.587 167.984 375.037 166.884 373.937 C 166.884 373.837 166.834 373.787 166.734 373.787 C 165.034 371.687 164.434 369.337 164.934 366.737 C 165.234 364.937 165.984 363.26 167.184 361.707 C 168.384 360.16 169.657 358.787 171.004 357.587 C 172.357 356.387 173.611 355.437 174.764 354.737 C 175.911 354.037 176.634 353.587 176.934 353.387 C 177.534 353.087 178.157 353.014 178.804 353.167 C 179.457 353.314 179.934 353.687 180.234 354.287 C 180.634 354.887 180.734 355.514 180.534 356.167 C 180.334 356.814 179.934 357.287 179.334 357.587 C 178.734 357.987 177.934 358.537 176.934 359.237 C 175.934 359.937 174.934 360.737 173.934 361.637 C 172.934 362.537 172.034 363.514 171.234 364.567 C 170.434 365.614 169.934 366.637 169.734 367.637 C 169.634 368.637 169.884 369.637 170.484 370.637 C 170.584 370.637 170.784 370.637 171.084 370.637 C 171.384 370.637 171.884 370.487 172.584 370.187 C 173.284 369.887 174.157 369.387 175.204 368.687 C 176.257 367.987 177.584 366.937 179.184 365.537 C 180.184 364.737 181.134 363.887 182.034 362.987 C 182.934 362.087 183.734 361.287 184.434 360.587 C 185.234 359.787 185.934 359.037 186.534 358.337 C 187.034 357.837 187.607 357.56 188.254 357.507 C 188.907 357.46 189.484 357.687 189.984 358.187 C 190.484 358.687 190.757 359.264 190.804 359.917 C 190.857 360.564 190.634 361.137 190.134 361.637 C 190.134 361.737 189.484 362.464 188.184 363.817 C 186.884 365.164 185.284 366.687 183.384 368.387 C 177.984 373.187 173.784 375.587 170.784 375.587 ZM 228.484 330.287 C 229.984 330.287 230.834 331.087 231.034 332.687 C 231.034 333.387 230.807 333.987 230.354 334.487 C 229.907 334.987 229.334 335.237 228.634 335.237 C 222.634 335.437 216.861 335.787 211.314 336.287 C 205.761 336.787 200.484 337.387 195.484 338.087 C 194.984 344.587 194.457 351.287 193.904 358.187 C 193.357 365.087 192.857 371.787 192.404 378.287 C 191.957 384.787 191.557 391.01 191.204 396.957 C 190.857 402.91 190.561 408.237 190.314 412.937 C 190.061 417.637 189.934 421.537 189.934 424.637 C 189.934 427.737 190.034 429.787 190.234 430.787 C 190.434 431.487 190.334 432.11 189.934 432.657 C 189.534 433.21 188.984 433.587 188.284 433.787 L 187.834 433.787 C 186.534 433.787 185.734 433.137 185.434 431.837 C 185.134 430.637 185.007 428.21 185.054 424.557 C 185.107 420.91 185.261 416.487 185.514 411.287 C 185.761 406.087 186.061 400.36 186.414 394.107 C 186.761 387.86 187.184 381.487 187.684 374.987 C 188.184 368.487 188.684 362.114 189.184 355.867 C 189.684 349.614 190.134 343.937 190.534 338.837 C 185.334 339.637 180.634 340.437 176.434 341.237 C 172.234 342.037 168.634 342.76 165.634 343.407 C 162.634 344.06 160.284 344.614 158.584 345.067 C 156.884 345.514 156.034 345.737 156.034 345.737 C 155.934 345.837 155.734 345.887 155.434 345.887 C 154.134 345.887 153.334 345.287 153.034 344.087 C 152.534 342.487 153.084 341.487 154.684 341.087 C 154.784 341.087 155.711 340.837 157.464 340.337 C 159.211 339.837 161.657 339.264 164.804 338.617 C 167.957 337.964 171.761 337.214 176.214 336.367 C 180.661 335.514 185.584 334.687 190.984 333.887 C 191.284 330.187 191.534 327.06 191.734 324.507 C 191.934 321.96 192.134 320.137 192.334 319.037 C 192.334 318.337 192.584 317.764 193.084 317.317 C 193.584 316.864 194.184 316.687 194.884 316.787 C 195.584 316.887 196.157 317.187 196.604 317.687 C 197.057 318.187 197.234 318.787 197.134 319.487 C 196.934 321.687 196.734 323.91 196.534 326.157 C 196.334 328.41 196.134 330.737 195.934 333.137 C 200.834 332.437 206.007 331.837 211.454 331.337 C 216.907 330.837 222.584 330.487 228.484 330.287 ZM 272.534 407.087 C 272.334 407.087 272.184 407.064 272.084 407.017 C 271.984 406.964 271.834 406.937 271.634 406.937 C 268.434 406.537 265.884 405.037 263.984 402.437 C 262.284 400.137 261.134 397.137 260.534 393.437 C 259.934 389.737 259.707 385.66 259.854 381.207 C 260.007 376.76 260.407 372.087 261.054 367.187 C 261.707 362.287 262.384 357.487 263.084 352.787 C 263.584 349.587 264.034 346.487 264.434 343.487 C 264.834 340.487 265.134 337.787 265.334 335.387 C 265.534 332.887 265.584 331.087 265.484 329.987 C 265.384 328.887 265.234 328.137 265.034 327.737 C 264.634 327.937 264.007 328.837 263.154 330.437 C 262.307 332.037 261.384 335.237 260.384 340.037 C 259.484 344.237 258.684 348.914 257.984 354.067 C 257.284 359.214 256.634 364.437 256.034 369.737 C 255.534 374.337 255.011 378.737 254.464 382.937 C 253.911 387.137 253.284 390.887 252.584 394.187 C 251.984 397.687 251.234 400.437 250.334 402.437 C 249.134 405.437 247.434 406.937 245.234 406.937 C 244.734 406.937 244.207 406.86 243.654 406.707 C 243.107 406.56 242.584 406.187 242.084 405.587 C 241.684 405.187 241.257 404.61 240.804 403.857 C 240.357 403.11 239.934 402.014 239.534 400.567 C 239.134 399.114 238.734 397.187 238.334 394.787 C 237.934 392.387 237.584 389.387 237.284 385.787 C 236.884 381.587 236.557 376.787 236.304 371.387 C 236.057 365.987 235.834 359.887 235.634 353.087 C 235.534 347.387 235.484 341.86 235.484 336.507 C 235.484 331.16 235.507 326.387 235.554 322.187 C 235.607 317.987 235.661 314.61 235.714 312.057 C 235.761 309.51 235.784 308.187 235.784 308.087 C 235.784 307.287 236.057 306.637 236.604 306.137 C 237.157 305.637 237.834 305.387 238.634 305.387 C 239.434 305.487 240.084 305.787 240.584 306.287 C 241.084 306.787 241.284 307.437 241.184 308.237 C 241.184 308.337 241.157 309.664 241.104 312.217 C 241.057 314.764 241.034 318.11 241.034 322.257 C 241.034 326.41 241.034 331.16 241.034 336.507 C 241.034 341.86 241.084 347.387 241.184 353.087 C 241.384 359.687 241.584 365.66 241.784 371.007 C 241.984 376.36 242.284 381.137 242.684 385.337 C 243.184 389.837 243.661 393.237 244.114 395.537 C 244.561 397.837 244.934 399.437 245.234 400.337 C 245.534 399.637 245.884 398.587 246.284 397.187 C 246.684 395.787 247.134 393.787 247.634 391.187 C 248.134 388.087 248.634 384.687 249.134 380.987 C 249.634 377.287 250.134 373.337 250.634 369.137 C 251.434 361.937 252.234 355.487 253.034 349.787 C 253.834 344.087 254.757 339.21 255.804 335.157 C 256.857 331.11 258.084 327.964 259.484 325.717 C 260.884 323.464 262.634 322.237 264.734 322.037 C 266.334 321.937 267.684 322.437 268.784 323.537 C 270.484 325.437 271.184 328.76 270.884 333.507 C 270.584 338.26 269.784 344.937 268.484 353.537 C 267.884 357.937 267.284 362.487 266.684 367.187 C 266.084 371.887 265.684 376.387 265.484 380.687 C 265.084 389.687 266.034 395.837 268.334 399.137 C 269.334 400.437 270.634 401.237 272.234 401.537 C 272.434 401.137 272.761 400.16 273.214 398.607 C 273.661 397.06 274.134 394.187 274.634 389.987 C 274.934 386.487 275.161 382.614 275.314 378.367 C 275.461 374.114 275.634 369.587 275.834 364.787 C 276.034 358.087 276.307 351.46 276.654 344.907 C 277.007 338.36 277.534 332.287 278.234 326.687 C 278.934 321.087 279.934 316.137 281.234 311.837 C 282.534 307.537 284.234 304.337 286.334 302.237 C 286.834 301.737 287.484 301.487 288.284 301.487 C 289.084 301.487 289.734 301.737 290.234 302.237 C 291.434 303.637 291.434 304.937 290.234 306.137 C 287.134 309.237 284.934 316.687 283.634 328.487 C 282.934 333.987 282.434 339.864 282.134 346.117 C 281.834 352.364 281.584 358.637 281.384 364.937 C 281.184 371.137 280.961 376.587 280.714 381.287 C 280.461 385.987 280.134 390.037 279.734 393.437 C 279.334 396.837 278.784 399.56 278.084 401.607 C 277.384 403.66 276.484 405.137 275.384 406.037 C 274.284 406.737 273.334 407.087 272.534 407.087 ZM 289.134 389.987 C 288.134 389.987 287.384 389.437 286.884 388.337 C 286.684 387.937 286.511 387.387 286.364 386.687 C 286.211 385.987 286.134 384.987 286.134 383.687 C 286.134 382.387 286.257 380.787 286.504 378.887 C 286.757 376.987 287.134 374.587 287.634 371.687 C 288.134 368.687 288.657 366.037 289.204 363.737 C 289.757 361.437 290.084 360.237 290.184 360.137 C 290.384 359.437 290.757 358.914 291.304 358.567 C 291.857 358.214 292.484 358.137 293.184 358.337 C 293.784 358.537 294.257 358.91 294.604 359.457 C 294.957 360.01 295.034 360.637 294.834 361.337 C 294.634 362.437 294.384 363.587 294.084 364.787 C 293.884 365.887 293.611 367.114 293.264 368.467 C 292.911 369.814 292.634 371.187 292.434 372.587 C 291.934 375.187 291.584 377.364 291.384 379.117 C 291.184 380.864 291.084 382.26 291.084 383.307 C 291.084 384.36 291.134 385.137 291.234 385.637 C 291.334 386.137 291.384 386.437 291.384 386.537 C 292.084 388.137 291.634 389.187 290.034 389.687 C 289.634 389.887 289.334 389.987 289.134 389.987 Z M 292.434 354.587 C 291.734 354.587 291.157 354.337 290.704 353.837 C 290.257 353.337 290.034 352.737 290.034 352.037 C 290.034 351.437 290.257 350.914 290.704 350.467 C 291.157 350.014 291.684 349.737 292.284 349.637 C 292.284 349.537 292.311 349.464 292.364 349.417 C 292.411 349.364 292.434 349.237 292.434 349.037 C 292.634 348.337 293.007 347.787 293.554 347.387 C 294.107 346.987 294.734 346.887 295.434 347.087 C 296.134 347.287 296.661 347.664 297.014 348.217 C 297.361 348.764 297.434 349.387 297.234 350.087 C 296.734 352.087 295.957 353.337 294.904 353.837 C 293.857 354.337 293.034 354.587 292.434 354.587 ZM 339.334 330.287 C 340.834 330.287 341.684 331.087 341.884 332.687 C 341.884 333.387 341.657 333.987 341.204 334.487 C 340.757 334.987 340.184 335.237 339.484 335.237 C 333.484 335.437 327.711 335.787 322.164 336.287 C 316.611 336.787 311.334 337.387 306.334 338.087 C 305.834 344.587 305.307 351.287 304.754 358.187 C 304.207 365.087 303.707 371.787 303.254 378.287 C 302.807 384.787 302.407 391.01 302.054 396.957 C 301.707 402.91 301.411 408.237 301.164 412.937 C 300.911 417.637 300.784 421.537 300.784 424.637 C 300.784 427.737 300.884 429.787 301.084 430.787 C 301.284 431.487 301.184 432.11 300.784 432.657 C 300.384 433.21 299.834 433.587 299.134 433.787 L 298.684 433.787 C 297.384 433.787 296.584 433.137 296.284 431.837 C 295.984 430.637 295.857 428.21 295.904 424.557 C 295.957 420.91 296.111 416.487 296.364 411.287 C 296.611 406.087 296.911 400.36 297.264 394.107 C 297.611 387.86 298.034 381.487 298.534 374.987 C 299.034 368.487 299.534 362.114 300.034 355.867 C 300.534 349.614 300.984 343.937 301.384 338.837 C 296.184 339.637 291.484 340.437 287.284 341.237 C 283.084 342.037 279.484 342.76 276.484 343.407 C 273.484 344.06 271.134 344.614 269.434 345.067 C 267.734 345.514 266.884 345.737 266.884 345.737 C 266.784 345.837 266.584 345.887 266.284 345.887 C 264.984 345.887 264.184 345.287 263.884 344.087 C 263.384 342.487 263.934 341.487 265.534 341.087 C 265.634 341.087 266.561 340.837 268.314 340.337 C 270.061 339.837 272.507 339.264 275.654 338.617 C 278.807 337.964 282.611 337.214 287.064 336.367 C 291.511 335.514 296.434 334.687 301.834 333.887 C 302.134 330.187 302.384 327.06 302.584 324.507 C 302.784 321.96 302.984 320.137 303.184 319.037 C 303.184 318.337 303.434 317.764 303.934 317.317 C 304.434 316.864 305.034 316.687 305.734 316.787 C 306.434 316.887 307.007 317.187 307.454 317.687 C 307.907 318.187 308.084 318.787 307.984 319.487 C 307.784 321.687 307.584 323.91 307.384 326.157 C 307.184 328.41 306.984 330.737 306.784 333.137 C 311.684 332.437 316.857 331.837 322.304 331.337 C 327.757 330.837 333.434 330.487 339.334 330.287 ZM 310.934 390.437 L 310.484 390.437 C 309.284 390.237 308.511 389.564 308.164 388.417 C 307.811 387.264 307.584 386.337 307.484 385.637 C 307.484 385.337 307.461 384.81 307.414 384.057 C 307.361 383.31 307.434 382.11 307.634 380.457 C 307.834 378.81 308.134 376.564 308.534 373.717 C 308.934 370.864 309.534 367.137 310.334 362.537 C 311.134 357.937 312.211 352.287 313.564 345.587 C 314.911 338.887 316.584 330.937 318.584 321.737 C 320.084 314.937 321.534 308.337 322.934 301.937 C 324.334 295.537 325.607 289.864 326.754 284.917 C 327.907 279.964 328.834 275.987 329.534 272.987 C 330.234 269.987 330.584 268.437 330.584 268.337 C 330.784 267.637 331.157 267.11 331.704 266.757 C 332.257 266.41 332.884 266.337 333.584 266.537 C 334.284 266.737 334.807 267.114 335.154 267.667 C 335.507 268.214 335.584 268.787 335.384 269.387 C 334.384 273.687 333.184 278.887 331.784 284.987 C 330.384 291.087 328.911 297.61 327.364 304.557 C 325.811 311.51 324.261 318.66 322.714 326.007 C 321.161 333.36 319.707 340.387 318.354 347.087 C 317.007 353.787 315.834 359.937 314.834 365.537 C 313.834 371.137 313.134 375.687 312.734 379.187 C 313.634 376.887 314.607 374.537 315.654 372.137 C 316.707 369.737 317.857 367.61 319.104 365.757 C 320.357 363.91 321.707 362.437 323.154 361.337 C 324.607 360.237 326.234 359.837 328.034 360.137 C 329.634 360.437 330.911 360.987 331.864 361.787 C 332.811 362.587 333.561 363.514 334.114 364.567 C 334.661 365.614 335.034 366.737 335.234 367.937 C 335.434 369.137 335.634 370.237 335.834 371.237 C 336.034 372.237 336.211 373.237 336.364 374.237 C 336.511 375.237 336.784 375.887 337.184 376.187 C 337.684 376.487 338.334 376.537 339.134 376.337 C 340.934 376.137 342.984 375.237 345.284 373.637 C 347.584 372.037 349.834 370.187 352.034 368.087 C 354.234 365.987 356.284 363.887 358.184 361.787 C 360.084 359.687 361.534 357.987 362.534 356.687 C 363.034 356.187 363.607 355.86 364.254 355.707 C 364.907 355.56 365.484 355.737 365.984 356.237 C 366.484 356.737 366.784 357.31 366.884 357.957 C 366.984 358.61 366.834 359.187 366.434 359.687 C 366.334 359.787 365.434 360.837 363.734 362.837 C 362.034 364.837 359.934 367.137 357.434 369.737 C 353.934 373.237 350.707 375.937 347.754 377.837 C 344.807 379.737 342.184 380.887 339.884 381.287 C 337.584 381.587 335.734 381.187 334.334 380.087 C 333.034 379.087 332.211 377.864 331.864 376.417 C 331.511 374.964 331.234 373.437 331.034 371.837 C 330.734 369.537 330.357 367.864 329.904 366.817 C 329.457 365.764 328.584 365.137 327.284 364.937 C 326.084 364.737 324.534 366.237 322.634 369.437 C 321.534 371.137 320.534 373.087 319.634 375.287 C 318.734 377.487 317.884 379.537 317.084 381.437 C 316.584 382.537 316.161 383.537 315.814 384.437 C 315.461 385.337 315.084 386.187 314.684 386.987 C 314.384 387.587 313.961 388.314 313.414 389.167 C 312.861 390.014 312.034 390.437 310.934 390.437 ZM 444.834 420.137 C 444.534 420.137 444.284 420.087 444.084 419.987 C 442.784 419.687 441.861 418.864 441.314 417.517 C 440.761 416.164 440.384 414.687 440.184 413.087 C 439.984 411.687 439.834 410.014 439.734 408.067 C 439.634 406.114 439.584 403.837 439.584 401.237 C 439.484 396.437 439.511 391.087 439.664 385.187 C 439.811 379.287 439.984 373.087 440.184 366.587 C 440.384 360.387 440.557 354.264 440.704 348.217 C 440.857 342.164 440.884 336.637 440.784 331.637 C 440.784 328.937 440.734 326.56 440.634 324.507 C 440.534 322.46 440.384 320.637 440.184 319.037 C 440.084 318.237 440.007 317.56 439.954 317.007 C 439.907 316.46 439.834 315.937 439.734 315.437 C 439.234 316.337 438.607 317.764 437.854 319.717 C 437.107 321.664 436.184 324.437 435.084 328.037 C 433.984 331.637 432.884 335.814 431.784 340.567 C 430.684 345.314 429.484 350.637 428.184 356.537 C 427.084 361.537 426.084 366.437 425.184 371.237 C 424.284 376.037 423.511 380.287 422.864 383.987 C 422.211 387.687 421.657 390.687 421.204 392.987 C 420.757 395.287 420.534 396.437 420.534 396.437 C 420.434 397.237 420.111 397.864 419.564 398.317 C 419.011 398.764 418.334 398.887 417.534 398.687 C 416.734 398.587 416.107 398.287 415.654 397.787 C 415.207 397.287 415.034 396.637 415.134 395.837 C 415.134 395.837 415.207 394.837 415.354 392.837 C 415.507 390.837 415.661 388.237 415.814 385.037 C 415.961 381.837 416.107 378.187 416.254 374.087 C 416.407 369.987 416.534 365.737 416.634 361.337 C 416.834 356.237 416.857 351.614 416.704 347.467 C 416.557 343.314 416.384 339.637 416.184 336.437 C 415.884 332.637 415.511 329.887 415.064 328.187 C 414.611 326.487 414.234 325.337 413.934 324.737 C 413.534 325.337 413.034 326.487 412.434 328.187 C 411.834 329.887 411.134 332.637 410.334 336.437 C 409.034 342.637 407.834 350.937 406.734 361.337 C 406.234 365.737 405.834 370.014 405.534 374.167 C 405.234 378.314 404.957 382.014 404.704 385.267 C 404.457 388.514 404.284 391.137 404.184 393.137 C 404.084 395.137 404.034 396.137 404.034 396.137 C 403.934 396.937 403.634 397.587 403.134 398.087 C 402.634 398.587 401.984 398.837 401.184 398.837 C 400.384 398.737 399.734 398.41 399.234 397.857 C 398.734 397.31 398.484 396.637 398.484 395.837 C 398.484 395.837 398.534 394.864 398.634 392.917 C 398.734 390.964 398.907 388.36 399.154 385.107 C 399.407 381.86 399.684 378.187 399.984 374.087 C 400.284 369.987 400.684 365.737 401.184 361.337 C 402.284 350.837 403.484 342.387 404.784 335.987 C 405.384 333.087 405.961 330.687 406.514 328.787 C 407.061 326.887 407.584 325.337 408.084 324.137 C 408.584 322.937 409.084 322.014 409.584 321.367 C 410.084 320.714 410.534 320.237 410.934 319.937 C 411.634 319.337 412.284 318.987 412.884 318.887 C 413.484 318.787 414.034 318.737 414.534 318.737 C 416.734 319.037 418.434 320.837 419.634 324.137 C 420.434 326.437 421.034 329.487 421.434 333.287 C 421.734 336.387 421.961 340.01 422.114 344.157 C 422.261 348.31 422.284 352.987 422.184 358.187 C 422.384 357.287 422.584 356.387 422.784 355.487 C 422.984 354.587 423.184 353.687 423.384 352.787 C 424.784 346.487 426.084 340.887 427.284 335.987 C 428.484 331.087 429.634 326.887 430.734 323.387 C 432.234 318.887 433.534 315.537 434.634 313.337 C 435.034 312.637 435.711 311.61 436.664 310.257 C 437.611 308.91 438.934 308.287 440.634 308.387 C 441.534 308.487 442.261 308.837 442.814 309.437 C 443.361 310.037 443.811 310.714 444.164 311.467 C 444.511 312.214 444.761 312.987 444.914 313.787 C 445.061 314.587 445.184 315.237 445.284 315.737 C 445.784 318.637 446.134 322.987 446.334 328.787 C 446.434 334.087 446.384 340.037 446.184 346.637 C 445.984 353.237 445.784 359.937 445.584 366.737 C 445.384 372.737 445.234 378.46 445.134 383.907 C 445.034 389.36 444.984 394.337 444.984 398.837 C 444.984 401.837 445.034 404.337 445.134 406.337 C 445.234 408.337 445.357 409.937 445.504 411.137 C 445.657 412.337 445.807 413.237 445.954 413.837 C 446.107 414.437 446.234 414.837 446.334 415.037 C 447.334 415.937 447.684 416.937 447.384 418.037 C 447.084 419.437 446.234 420.137 444.834 420.137 ZM 461.434 389.087 C 460.834 389.087 460.384 388.987 460.084 388.787 C 457.084 386.887 454.884 383.687 453.484 379.187 C 452.084 374.687 451.784 369.737 452.584 364.337 C 453.384 359.037 455.161 354.587 457.914 350.987 C 460.661 347.387 464.134 345.037 468.334 343.937 C 471.734 343.037 474.184 343.487 475.684 345.287 C 477.384 347.187 477.334 350.387 475.534 354.887 C 474.634 356.987 473.384 359.26 471.784 361.707 C 470.184 364.16 468.384 366.537 466.384 368.837 C 465.184 370.237 463.807 371.637 462.254 373.037 C 460.707 374.437 459.184 375.487 457.684 376.187 C 458.184 378.187 458.857 379.91 459.704 381.357 C 460.557 382.81 461.534 383.887 462.634 384.587 C 463.234 384.987 463.607 385.51 463.754 386.157 C 463.907 386.81 463.834 387.437 463.534 388.037 C 463.134 388.737 462.434 389.087 461.434 389.087 Z M 471.934 348.437 L 471.484 348.437 C 471.284 348.437 471.034 348.437 470.734 348.437 C 470.434 348.437 470.034 348.537 469.534 348.737 C 466.334 349.537 463.684 351.387 461.584 354.287 C 459.484 357.187 458.084 360.787 457.384 365.087 C 457.084 367.287 456.984 369.237 457.084 370.937 C 457.584 370.637 458.184 370.16 458.884 369.507 C 459.584 368.86 460.384 368.087 461.284 367.187 C 462.784 365.487 464.234 363.687 465.634 361.787 C 467.034 359.887 468.284 357.987 469.384 356.087 C 470.784 353.687 471.607 351.887 471.854 350.687 C 472.107 349.487 472.134 348.737 471.934 348.437 Z" transform="matrix(1, 0, 0, 1, 0, 0)" style="fill: rgb(255, 192, 203); white-space: pre;"/>
</svg>