<?xml version="1.0" encoding="utf-8"?>
<svg viewBox="121.8280029296875 79.18800354003906 178.93800354003906 165.98399353027344" width="178.93800354003906" height="165.98399353027344" xmlns="http://www.w3.org/2000/svg">
  <path d="M 128.437 186.994 C 126.937 186.994 125.637 186.444 124.537 185.344 C 124.537 185.244 124.487 185.194 124.387 185.194 C 122.687 183.094 122.087 180.744 122.587 178.144 C 122.887 176.344 123.637 174.667 124.837 173.114 C 126.037 171.567 127.31 170.194 128.657 168.994 C 130.01 167.794 131.264 166.844 132.417 166.144 C 133.564 165.444 134.287 164.994 134.587 164.794 C 135.187 164.494 135.81 164.421 136.457 164.574 C 137.11 164.721 137.587 165.094 137.887 165.694 C 138.287 166.294 138.387 166.921 138.187 167.574 C 137.987 168.221 137.587 168.694 136.987 168.994 C 136.387 169.394 135.587 169.944 134.587 170.644 C 133.587 171.344 132.587 172.144 131.587 173.044 C 130.587 173.944 129.687 174.921 128.887 175.974 C 128.087 177.021 127.587 178.044 127.387 179.044 C 127.287 180.044 127.537 181.044 128.137 182.044 C 128.237 182.044 128.437 182.044 128.737 182.044 C 129.037 182.044 129.537 181.894 130.237 181.594 C 130.937 181.294 131.81 180.794 132.857 180.094 C 133.91 179.394 135.237 178.344 136.837 176.944 C 137.837 176.144 138.787 175.294 139.687 174.394 C 140.587 173.494 141.387 172.694 142.087 171.994 C 142.887 171.194 143.587 170.444 144.187 169.744 C 144.687 169.244 145.26 168.967 145.907 168.914 C 146.56 168.867 147.137 169.094 147.637 169.594 C 148.137 170.094 148.41 170.671 148.457 171.324 C 148.51 171.971 148.287 172.544 147.787 173.044 C 147.787 173.144 147.137 173.871 145.837 175.224 C 144.537 176.571 142.937 178.094 141.037 179.794 C 135.637 184.594 131.437 186.994 128.437 186.994 ZM 151.987 188.944 C 151.587 188.944 150.987 188.844 150.187 188.644 C 148.787 188.344 147.713 187.821 146.967 187.074 C 146.213 186.321 145.737 185.544 145.537 184.744 C 145.137 183.744 144.987 182.644 145.087 181.444 C 145.187 180.244 145.413 179.044 145.767 177.844 C 146.113 176.644 146.587 175.471 147.187 174.324 C 147.787 173.171 148.337 172.144 148.837 171.244 C 148.937 171.044 149.037 170.821 149.137 170.574 C 149.237 170.321 149.337 170.094 149.437 169.894 C 150.237 168.294 151.287 167.094 152.587 166.294 C 153.887 165.494 155.237 165.194 156.637 165.394 C 158.837 165.694 160.387 167.094 161.287 169.594 C 161.487 170.394 161.66 171.221 161.807 172.074 C 161.96 172.921 161.987 173.794 161.887 174.694 C 162.787 174.294 163.76 173.894 164.807 173.494 C 165.86 173.094 166.987 172.594 168.187 171.994 C 168.787 171.594 169.41 171.521 170.057 171.774 C 170.71 172.021 171.187 172.444 171.487 173.044 C 171.787 173.644 171.837 174.267 171.637 174.914 C 171.437 175.567 171.037 176.044 170.437 176.344 C 168.637 177.144 166.96 177.867 165.407 178.514 C 163.86 179.167 162.387 179.694 160.987 180.094 C 160.387 182.494 159.337 184.494 157.837 186.094 C 156.137 187.994 154.187 188.944 151.987 188.944 Z M 150.487 179.194 C 150.287 179.994 150.113 180.721 149.967 181.374 C 149.813 182.021 149.837 182.594 150.037 183.094 C 150.137 183.194 150.263 183.321 150.417 183.474 C 150.563 183.621 150.887 183.744 151.387 183.844 C 151.687 184.044 152.087 184.094 152.587 183.994 C 153.087 183.894 153.637 183.494 154.237 182.794 C 154.437 182.494 154.66 182.194 154.907 181.894 C 155.16 181.594 155.387 181.244 155.587 180.844 C 153.587 180.844 151.887 180.294 150.487 179.194 Z M 153.337 173.344 C 153.137 174.444 153.237 175.094 153.637 175.294 C 154.037 175.794 155.137 175.994 156.937 175.894 C 157.037 174.994 157.06 174.144 157.007 173.344 C 156.96 172.544 156.837 171.844 156.637 171.244 C 156.437 170.744 156.187 170.394 155.887 170.194 C 155.687 170.194 155.437 170.344 155.137 170.644 C 154.937 170.844 154.787 171.044 154.687 171.244 C 154.487 171.544 154.26 171.871 154.007 172.224 C 153.76 172.571 153.537 172.944 153.337 173.344 ZM 193.537 218.494 L 193.237 218.494 C 190.937 218.194 189.213 216.994 188.067 214.894 C 186.913 212.794 186.137 210.167 185.737 207.014 C 185.337 203.867 185.187 200.394 185.287 196.594 C 185.387 192.794 185.537 188.994 185.737 185.194 C 185.937 183.194 186.087 181.144 186.187 179.044 C 186.287 176.944 186.287 175.194 186.187 173.794 C 185.987 174.194 185.737 174.621 185.437 175.074 C 185.137 175.521 184.787 176.144 184.387 176.944 C 183.687 178.344 182.987 179.867 182.287 181.514 C 181.587 183.167 180.887 184.844 180.187 186.544 C 178.087 191.544 176.487 195.017 175.387 196.964 C 174.287 198.917 173.037 199.894 171.637 199.894 C 170.537 199.894 169.787 199.544 169.387 198.844 C 168.887 198.344 168.56 197.521 168.407 196.374 C 168.26 195.221 168.387 193.194 168.787 190.294 C 168.987 188.694 169.263 186.871 169.617 184.824 C 169.963 182.771 170.387 180.444 170.887 177.844 C 171.287 175.744 171.71 173.667 172.157 171.614 C 172.61 169.567 173.01 167.744 173.357 166.144 C 173.71 164.544 173.987 163.244 174.187 162.244 C 174.387 161.244 174.487 160.744 174.487 160.744 C 174.687 160.044 175.06 159.517 175.607 159.164 C 176.16 158.817 176.787 158.744 177.487 158.944 C 178.087 159.144 178.587 159.521 178.987 160.074 C 179.387 160.621 179.487 161.244 179.287 161.944 C 178.987 163.344 178.637 164.944 178.237 166.744 C 177.937 168.244 177.56 169.967 177.107 171.914 C 176.66 173.867 176.237 175.844 175.837 177.844 C 175.337 180.244 174.937 182.321 174.637 184.074 C 174.337 185.821 174.087 187.394 173.887 188.794 C 174.187 188.094 174.487 187.394 174.787 186.694 C 175.087 185.994 175.387 185.344 175.687 184.744 C 176.487 182.744 177.31 180.744 178.157 178.744 C 179.01 176.744 179.887 174.944 180.787 173.344 C 181.087 172.744 181.46 172.071 181.907 171.324 C 182.36 170.571 182.887 169.844 183.487 169.144 C 184.087 168.444 184.76 167.921 185.507 167.574 C 186.26 167.221 187.087 167.144 187.987 167.344 C 189.387 167.744 190.237 168.667 190.537 170.114 C 190.837 171.567 190.987 173.044 190.987 174.544 C 191.087 175.944 191.087 177.594 190.987 179.494 C 190.887 181.394 190.787 183.394 190.687 185.494 C 190.487 188.694 190.337 192.017 190.237 195.464 C 190.137 198.917 190.237 202.094 190.537 204.994 C 191.037 210.494 192.137 213.344 193.837 213.544 C 194.537 213.644 195.113 213.944 195.567 214.444 C 196.013 214.944 196.187 215.544 196.087 216.244 C 195.887 217.744 195.037 218.494 193.537 218.494 ZM 237.036 141.694 C 238.536 141.694 239.386 142.494 239.586 144.094 C 239.586 144.794 239.36 145.394 238.906 145.894 C 238.46 146.394 237.886 146.644 237.186 146.644 C 231.186 146.844 225.413 147.194 219.866 147.694 C 214.313 148.194 209.036 148.794 204.036 149.494 C 203.536 155.994 203.01 162.694 202.456 169.594 C 201.91 176.494 201.41 183.194 200.956 189.694 C 200.51 196.194 200.11 202.417 199.756 208.364 C 199.41 214.317 199.113 219.644 198.866 224.344 C 198.613 229.044 198.486 232.944 198.486 236.044 C 198.486 239.144 198.586 241.194 198.786 242.194 C 198.986 242.894 198.886 243.517 198.486 244.064 C 198.086 244.617 197.536 244.994 196.836 245.194 L 196.386 245.194 C 195.086 245.194 194.286 244.544 193.986 243.244 C 193.686 242.044 193.56 239.617 193.606 235.964 C 193.66 232.317 193.813 227.894 194.066 222.694 C 194.313 217.494 194.613 211.767 194.966 205.514 C 195.313 199.267 195.736 192.894 196.236 186.394 C 196.736 179.894 197.236 173.521 197.736 167.274 C 198.236 161.021 198.686 155.344 199.086 150.244 C 193.886 151.044 189.186 151.844 184.986 152.644 C 180.786 153.444 177.186 154.167 174.186 154.814 C 171.186 155.467 168.836 156.021 167.136 156.474 C 165.436 156.921 164.586 157.144 164.586 157.144 C 164.486 157.244 164.286 157.294 163.986 157.294 C 162.686 157.294 161.886 156.694 161.586 155.494 C 161.086 153.894 161.636 152.894 163.236 152.494 C 163.336 152.494 164.263 152.244 166.016 151.744 C 167.763 151.244 170.21 150.671 173.356 150.024 C 176.51 149.371 180.313 148.621 184.766 147.774 C 189.213 146.921 194.136 146.094 199.536 145.294 C 199.836 141.594 200.086 138.467 200.286 135.914 C 200.486 133.367 200.686 131.544 200.886 130.444 C 200.886 129.744 201.136 129.171 201.636 128.724 C 202.136 128.271 202.736 128.094 203.436 128.194 C 204.136 128.294 204.71 128.594 205.156 129.094 C 205.61 129.594 205.786 130.194 205.686 130.894 C 205.486 133.094 205.286 135.317 205.086 137.564 C 204.886 139.817 204.686 142.144 204.486 144.544 C 209.386 143.844 214.56 143.244 220.006 142.744 C 225.46 142.244 231.136 141.894 237.036 141.694 ZM 224.136 194.494 L 223.836 194.494 C 222.536 194.494 221.436 193.994 220.536 192.994 C 220.036 192.494 219.56 191.594 219.106 190.294 C 218.66 188.994 218.486 186.844 218.586 183.844 C 215.886 188.144 213.386 190.744 211.086 191.644 C 210.286 191.844 209.513 191.944 208.766 191.944 C 208.013 191.944 207.286 191.694 206.586 191.194 C 205.886 190.794 205.16 190.094 204.406 189.094 C 203.66 188.094 203.486 186.544 203.886 184.444 C 204.186 182.644 204.913 180.821 206.066 178.974 C 207.213 177.121 208.186 175.644 208.986 174.544 C 209.786 173.444 210.81 172.217 212.056 170.864 C 213.31 169.517 214.436 168.744 215.436 168.544 C 216.136 168.444 216.76 168.594 217.306 168.994 C 217.86 169.394 218.186 169.944 218.286 170.644 C 218.486 171.244 218.41 171.794 218.056 172.294 C 217.71 172.794 217.286 173.144 216.786 173.344 C 216.486 173.544 215.91 174.094 215.056 174.994 C 214.21 175.894 213.236 177.094 212.136 178.594 C 209.836 181.694 208.686 184.194 208.686 186.094 C 208.686 186.594 208.836 186.894 209.136 186.994 L 209.436 186.994 C 210.236 186.694 211.136 185.894 212.136 184.594 C 213.136 183.294 214.16 181.767 215.206 180.014 C 216.26 178.267 217.26 176.421 218.206 174.474 C 219.16 172.521 219.936 170.694 220.536 168.994 C 220.736 168.394 221.136 167.944 221.736 167.644 C 222.336 167.344 222.936 167.294 223.536 167.494 C 224.136 167.694 224.61 168.067 224.956 168.614 C 225.31 169.167 225.386 169.744 225.186 170.344 C 225.086 171.244 224.936 172.194 224.736 173.194 C 224.536 173.994 224.36 174.971 224.206 176.124 C 224.06 177.271 223.936 178.394 223.836 179.494 C 223.436 182.994 223.336 185.444 223.536 186.844 C 223.736 188.244 223.936 189.144 224.136 189.544 C 224.536 189.344 225.236 188.671 226.236 187.524 C 227.236 186.371 228.586 183.994 230.286 180.394 C 231.486 177.894 232.46 175.621 233.206 173.574 C 233.96 171.521 234.336 170.444 234.336 170.344 C 234.536 169.744 234.936 169.294 235.536 168.994 C 236.136 168.694 236.786 168.644 237.486 168.844 C 238.986 169.344 239.486 170.394 238.986 171.994 C 238.986 172.094 238.586 173.217 237.786 175.364 C 236.986 177.517 235.986 179.894 234.786 182.494 C 232.886 186.494 231.063 189.444 229.316 191.344 C 227.563 193.244 225.836 194.294 224.136 194.494 ZM 241.536 186.994 C 240.036 186.994 238.736 186.444 237.636 185.344 C 237.636 185.244 237.586 185.194 237.486 185.194 C 235.786 183.094 235.186 180.744 235.686 178.144 C 235.986 176.344 236.736 174.667 237.936 173.114 C 239.136 171.567 240.409 170.194 241.756 168.994 C 243.109 167.794 244.363 166.844 245.516 166.144 C 246.663 165.444 247.386 164.994 247.686 164.794 C 248.286 164.494 248.909 164.421 249.556 164.574 C 250.209 164.721 250.686 165.094 250.986 165.694 C 251.386 166.294 251.486 166.921 251.286 167.574 C 251.086 168.221 250.686 168.694 250.086 168.994 C 249.486 169.394 248.686 169.944 247.686 170.644 C 246.686 171.344 245.686 172.144 244.686 173.044 C 243.686 173.944 242.786 174.921 241.986 175.974 C 241.186 177.021 240.686 178.044 240.486 179.044 C 240.386 180.044 240.636 181.044 241.236 182.044 C 241.336 182.044 241.536 182.044 241.836 182.044 C 242.136 182.044 242.636 181.894 243.336 181.594 C 244.036 181.294 244.909 180.794 245.956 180.094 C 247.009 179.394 248.336 178.344 249.936 176.944 C 250.936 176.144 251.886 175.294 252.786 174.394 C 253.686 173.494 254.486 172.694 255.186 171.994 C 255.986 171.194 256.686 170.444 257.286 169.744 C 257.786 169.244 258.359 168.967 259.006 168.914 C 259.659 168.867 260.236 169.094 260.736 169.594 C 261.236 170.094 261.509 170.671 261.556 171.324 C 261.609 171.971 261.386 172.544 260.886 173.044 C 260.886 173.144 260.236 173.871 258.936 175.224 C 257.636 176.571 256.036 178.094 254.136 179.794 C 248.736 184.594 244.536 186.994 241.536 186.994 ZM 298.236 141.694 C 299.736 141.694 300.586 142.494 300.786 144.094 C 300.786 144.794 300.559 145.394 300.106 145.894 C 299.659 146.394 299.086 146.644 298.386 146.644 C 292.386 146.844 286.613 147.194 281.066 147.694 C 275.513 148.194 270.236 148.794 265.236 149.494 C 264.736 155.994 264.209 162.694 263.656 169.594 C 263.109 176.494 262.609 183.194 262.156 189.694 C 261.709 196.194 261.309 202.417 260.956 208.364 C 260.609 214.317 260.313 219.644 260.066 224.344 C 259.813 229.044 259.686 232.944 259.686 236.044 C 259.686 239.144 259.786 241.194 259.986 242.194 C 260.186 242.894 260.086 243.517 259.686 244.064 C 259.286 244.617 258.736 244.994 258.036 245.194 L 257.586 245.194 C 256.286 245.194 255.486 244.544 255.186 243.244 C 254.886 242.044 254.759 239.617 254.806 235.964 C 254.859 232.317 255.013 227.894 255.266 222.694 C 255.513 217.494 255.813 211.767 256.166 205.514 C 256.513 199.267 256.936 192.894 257.436 186.394 C 257.936 179.894 258.436 173.521 258.936 167.274 C 259.436 161.021 259.886 155.344 260.286 150.244 C 255.086 151.044 250.386 151.844 246.186 152.644 C 241.986 153.444 238.386 154.167 235.386 154.814 C 232.386 155.467 230.036 156.021 228.336 156.474 C 226.636 156.921 225.786 157.144 225.786 157.144 C 225.686 157.244 225.486 157.294 225.186 157.294 C 223.886 157.294 223.086 156.694 222.786 155.494 C 222.286 153.894 222.836 152.894 224.436 152.494 C 224.536 152.494 225.463 152.244 227.216 151.744 C 228.963 151.244 231.409 150.671 234.556 150.024 C 237.709 149.371 241.513 148.621 245.966 147.774 C 250.413 146.921 255.336 146.094 260.736 145.294 C 261.036 141.594 261.286 138.467 261.486 135.914 C 261.686 133.367 261.886 131.544 262.086 130.444 C 262.086 129.744 262.336 129.171 262.836 128.724 C 263.336 128.271 263.936 128.094 264.636 128.194 C 265.336 128.294 265.909 128.594 266.356 129.094 C 266.809 129.594 266.986 130.194 266.886 130.894 C 266.686 133.094 266.486 135.317 266.286 137.564 C 266.086 139.817 265.886 142.144 265.686 144.544 C 270.586 143.844 275.759 143.244 281.206 142.744 C 286.659 142.244 292.336 141.894 298.236 141.694 Z" transform="matrix(1, 0, 0, 1, 0, 0)" style="fill: rgb(173, 216, 230); white-space: pre;"/>
</svg>