<?xml version="1.0" encoding="utf-8"?>
<svg viewBox="-100 200 700 300" width="700" height="300" xmlns="http://www.w3.org/2000/svg">
  <g transform="matrix(0.40806499123573303, 0, 0, 0.41666701436042786, 117.3544692993164, 216.66654968261724)">
    <g>
      <g>
        <path d="M385.02 80.1L386.41 80.22L387.78 80.39L389.13 80.61L390.46 80.87L391.77 81.17L393.05 81.52L394.32 81.92L395.56 82.35L396.78 82.82L397.97 83.34L399.14 83.89L400.27 84.48L401.38 85.11L402.46 85.77L403.5 86.47L404.52 87.2L405.5 87.97L406.44 88.77L407.35 89.6L408.23 90.46L409.06 91.34L409.86 92.26L410.62 93.2L411.34 94.18L412.01 95.17L412.64 96.19L413.23 97.24L413.77 98.3L414.26 99.39L414.71 100.5L415.11 101.63L415.46 102.78L415.76 103.94L416 105.13L416.2 106.32L416.34 107.54L416.42 108.76L416.45 110.01L416.45 320.05L541.58 320.05L543.46 320.1L545.29 320.24L547.07 320.48L548.8 320.82L550.48 321.23L552.09 321.73L553.65 322.31L555.15 322.97L556.59 323.7L557.97 324.49L559.28 325.35L560.53 326.28L561.7 327.26L562.81 328.3L563.85 329.38L564.81 330.52L565.7 331.69L566.52 332.91L567.25 334.17L567.91 335.46L568.48 336.77L568.97 338.12L569.38 339.48L569.7 340.87L569.93 342.27L570.07 343.68L570.12 345.1L570.08 346.52L569.95 347.95L569.71 349.37L569.38 350.79L568.95 352.2L568.42 353.59L567.78 354.97L567.04 356.33L566.19 357.66L565.23 358.96L564.17 360.24L562.99 361.48L561.7 362.68L344.68 552.97L343.87 553.65L343.03 554.3L342.16 554.92L341.28 555.5L340.37 556.04L339.45 556.55L338.51 557.03L337.55 557.47L336.57 557.87L335.59 558.24L334.58 558.58L333.57 558.87L332.55 559.14L331.52 559.37L330.48 559.56L329.43 559.72L328.38 559.84L327.32 559.93L326.26 559.98L325.21 560L324.15 559.98L323.09 559.93L322.03 559.84L320.98 559.72L319.93 559.56L318.89 559.37L317.86 559.14L316.84 558.87L315.83 558.58L314.83 558.24L313.84 557.87L312.86 557.47L311.9 557.03L310.96 556.55L310.04 556.04L309.13 555.5L308.25 554.92L307.38 554.3L306.54 553.65L305.73 552.97L88.42 362.68L87.13 361.48L85.96 360.24L84.89 358.96L83.93 357.66L83.09 356.33L82.34 354.97L81.71 353.59L81.18 352.2L80.74 350.79L80.41 349.37L80.18 347.95L80.04 346.52L80 345.1L80.05 343.68L80.19 342.27L80.43 340.87L80.75 339.48L81.15 338.12L81.64 336.77L82.22 335.46L82.87 334.17L83.61 332.91L84.42 331.69L85.31 330.52L86.28 329.38L87.31 328.3L88.42 327.26L89.6 326.28L90.85 325.35L92.16 324.49L93.53 323.7L94.97 322.97L96.47 322.31L98.03 321.73L99.65 321.23L101.32 320.82L103.05 320.48L104.83 320.24L106.66 320.1L108.54 320.05L233.82 320.05L233.82 110.01L233.85 108.76L233.93 107.54L234.07 106.32L234.26 105.13L234.51 103.94L234.81 102.78L235.16 101.63L235.56 100.5L236 99.39L236.5 98.3L237.04 97.24L237.63 96.19L238.26 95.17L238.93 94.18L239.65 93.2L240.41 92.26L241.2 91.34L242.04 90.46L242.91 89.6L243.82 88.77L244.77 87.97L245.75 87.2L246.76 86.47L247.81 85.77L248.89 85.11L249.99 84.48L251.13 83.89L252.3 83.34L253.49 82.82L254.7 82.35L255.95 81.92L257.21 81.52L258.5 81.17L259.81 80.87L261.14 80.61L262.49 80.39L263.86 80.22L265.24 80.1L266.65 80.02L268.06 80L382.21 80L383.62 80.02L385.02 80.1Z" id="" transform="matrix(1, 0, 0, 1, 0, 0)" style="fill: rgb(169, 169, 169);"/>
        <g>
          <path d="M385.02 80.1L386.41 80.22L387.78 80.39L389.13 80.61L390.46 80.87L391.77 81.17L393.05 81.52L394.32 81.92L395.56 82.35L396.78 82.82L397.97 83.34L399.14 83.89L400.27 84.48L401.38 85.11L402.46 85.77L403.5 86.47L404.52 87.2L405.5 87.97L406.44 88.77L407.35 89.6L408.23 90.46L409.06 91.34L409.86 92.26L410.62 93.2L411.34 94.18L412.01 95.17L412.64 96.19L413.23 97.24L413.77 98.3L414.26 99.39L414.71 100.5L415.11 101.63L415.46 102.78L415.76 103.94L416 105.13L416.2 106.32L416.34 107.54L416.42 108.76L416.45 110.01L416.45 320.05L541.58 320.05L543.46 320.1L545.29 320.24L547.07 320.48L548.8 320.82L550.48 321.23L552.09 321.73L553.65 322.31L555.15 322.97L556.59 323.7L557.97 324.49L559.28 325.35L560.53 326.28L561.7 327.26L562.81 328.3L563.85 329.38L564.81 330.52L565.7 331.69L566.52 332.91L567.25 334.17L567.91 335.46L568.48 336.77L568.97 338.12L569.38 339.48L569.7 340.87L569.93 342.27L570.07 343.68L570.12 345.1L570.08 346.52L569.95 347.95L569.71 349.37L569.38 350.79L568.95 352.2L568.42 353.59L567.78 354.97L567.04 356.33L566.19 357.66L565.23 358.96L564.17 360.24L562.99 361.48L561.7 362.68L344.68 552.97L343.87 553.65L343.03 554.3L342.16 554.92L341.28 555.5L340.37 556.04L339.45 556.55L338.51 557.03L337.55 557.47L336.57 557.87L335.59 558.24L334.58 558.58L333.57 558.87L332.55 559.14L331.52 559.37L330.48 559.56L329.43 559.72L328.38 559.84L327.32 559.93L326.26 559.98L325.21 560L324.15 559.98L323.09 559.93L322.03 559.84L320.98 559.72L319.93 559.56L318.89 559.37L317.86 559.14L316.84 558.87L315.83 558.58L314.83 558.24L313.84 557.87L312.86 557.47L311.9 557.03L310.96 556.55L310.04 556.04L309.13 555.5L308.25 554.92L307.38 554.3L306.54 553.65L305.73 552.97L88.42 362.68L87.13 361.48L85.96 360.24L84.89 358.96L83.93 357.66L83.09 356.33L82.34 354.97L81.71 353.59L81.18 352.2L80.74 350.79L80.41 349.37L80.18 347.95L80.04 346.52L80 345.1L80.05 343.68L80.19 342.27L80.43 340.87L80.75 339.48L81.15 338.12L81.64 336.77L82.22 335.46L82.87 334.17L83.61 332.91L84.42 331.69L85.31 330.52L86.28 329.38L87.31 328.3L88.42 327.26L89.6 326.28L90.85 325.35L92.16 324.49L93.53 323.7L94.97 322.97L96.47 322.31L98.03 321.73L99.65 321.23L101.32 320.82L103.05 320.48L104.83 320.24L106.66 320.1L108.54 320.05L233.82 320.05L233.82 110.01L233.85 108.76L233.93 107.54L234.07 106.32L234.26 105.13L234.51 103.94L234.81 102.78L235.16 101.63L235.56 100.5L236 99.39L236.5 98.3L237.04 97.24L237.63 96.19L238.26 95.17L238.93 94.18L239.65 93.2L240.41 92.26L241.2 91.34L242.04 90.46L242.91 89.6L243.82 88.77L244.77 87.97L245.75 87.2L246.76 86.47L247.81 85.77L248.89 85.11L249.99 84.48L251.13 83.89L252.3 83.34L253.49 82.82L254.7 82.35L255.95 81.92L257.21 81.52L258.5 81.17L259.81 80.87L261.14 80.61L262.49 80.39L263.86 80.22L265.24 80.1L266.65 80.02L268.06 80L382.21 80L383.62 80.02L385.02 80.1Z" id="" transform="matrix(1, 0, 0, 1, 0, 0)" style="fill: rgb(169, 169, 169);"/>
        </g>
      </g>
    </g>
  </g>
  <path d="M 19.869 389.285 L 19.719 389.285 C 18.919 389.285 18.296 389.008 17.849 388.455 C 17.396 387.908 17.169 387.235 17.169 386.435 L 22.719 301.235 C 22.919 299.435 23.919 298.535 25.719 298.535 C 26.519 298.635 27.142 298.962 27.589 299.515 C 28.042 300.062 28.269 300.735 28.269 301.535 L 22.719 386.735 C 22.519 388.435 21.569 389.285 19.869 389.285 Z M 6.369 402.185 C 5.569 402.185 4.896 401.935 4.349 401.435 C 3.796 400.935 3.519 400.285 3.519 399.485 C 3.519 398.685 3.769 398.035 4.269 397.535 C 4.769 397.035 5.419 396.785 6.219 396.785 C 10.219 396.685 13.896 395.662 17.249 393.715 C 20.596 391.762 23.619 389.358 26.319 386.505 C 29.019 383.658 31.392 380.635 33.439 377.435 C 35.492 374.235 37.169 371.335 38.469 368.735 C 41.069 363.535 43.369 357.935 45.369 351.935 C 47.369 345.935 48.919 339.985 50.019 334.085 C 51.119 327.785 51.546 322.885 51.299 319.385 C 51.046 315.885 50.519 313.585 49.719 312.485 C 48.819 311.285 47.669 310.435 46.269 309.935 C 44.869 309.435 43.319 309.162 41.619 309.115 C 39.919 309.062 38.146 309.212 36.299 309.565 C 34.446 309.912 32.719 310.335 31.119 310.835 C 29.119 311.435 27.219 312.085 25.419 312.785 C 23.619 313.485 22.019 314.162 20.619 314.815 C 19.219 315.462 18.119 316.012 17.319 316.465 C 16.519 316.912 16.119 317.135 16.119 317.135 C 15.419 317.535 14.719 317.612 14.019 317.365 C 13.319 317.112 12.769 316.635 12.369 315.935 C 11.969 315.335 11.869 314.658 12.069 313.905 C 12.269 313.158 12.719 312.635 13.419 312.335 C 13.519 312.235 14.019 311.962 14.919 311.515 C 15.819 311.062 16.996 310.485 18.449 309.785 C 19.896 309.085 21.569 308.362 23.469 307.615 C 25.369 306.862 27.369 306.185 29.469 305.585 C 34.469 304.085 38.919 303.435 42.819 303.635 C 48.019 303.935 51.819 305.885 54.219 309.485 C 55.219 310.885 55.892 312.662 56.239 314.815 C 56.592 316.962 56.769 319.235 56.769 321.635 C 56.769 324.035 56.619 326.412 56.319 328.765 C 56.019 331.112 55.719 333.185 55.419 334.985 C 54.319 341.185 52.719 347.408 50.619 353.655 C 48.519 359.908 46.119 365.735 43.419 371.135 C 38.819 380.235 33.619 387.435 27.819 392.735 C 21.219 398.835 14.069 401.985 6.369 402.185 ZM 65.269 370.685 C 64.869 370.685 64.269 370.585 63.469 370.385 C 62.069 370.085 60.996 369.562 60.249 368.815 C 59.496 368.062 59.019 367.285 58.819 366.485 C 58.419 365.485 58.269 364.385 58.369 363.185 C 58.469 361.985 58.696 360.785 59.049 359.585 C 59.396 358.385 59.869 357.212 60.469 356.065 C 61.069 354.912 61.619 353.885 62.119 352.985 C 62.219 352.785 62.319 352.562 62.419 352.315 C 62.519 352.062 62.619 351.835 62.719 351.635 C 63.519 350.035 64.569 348.835 65.869 348.035 C 67.169 347.235 68.519 346.935 69.919 347.135 C 72.119 347.435 73.669 348.835 74.569 351.335 C 74.769 352.135 74.942 352.962 75.089 353.815 C 75.242 354.662 75.269 355.535 75.169 356.435 C 76.069 356.035 77.042 355.635 78.089 355.235 C 79.142 354.835 80.269 354.335 81.469 353.735 C 82.069 353.335 82.692 353.262 83.339 353.515 C 83.992 353.762 84.469 354.185 84.769 354.785 C 85.069 355.385 85.119 356.008 84.919 356.655 C 84.719 357.308 84.319 357.785 83.719 358.085 C 81.919 358.885 80.242 359.608 78.689 360.255 C 77.142 360.908 75.669 361.435 74.269 361.835 C 73.669 364.235 72.619 366.235 71.119 367.835 C 69.419 369.735 67.469 370.685 65.269 370.685 Z M 63.769 360.935 C 63.569 361.735 63.396 362.462 63.249 363.115 C 63.096 363.762 63.119 364.335 63.319 364.835 C 63.419 364.935 63.546 365.062 63.699 365.215 C 63.846 365.362 64.169 365.485 64.669 365.585 C 64.969 365.785 65.369 365.835 65.869 365.735 C 66.369 365.635 66.919 365.235 67.519 364.535 C 67.719 364.235 67.942 363.935 68.189 363.635 C 68.442 363.335 68.669 362.985 68.869 362.585 C 66.869 362.585 65.169 362.035 63.769 360.935 Z M 66.619 355.085 C 66.419 356.185 66.519 356.835 66.919 357.035 C 67.319 357.535 68.419 357.735 70.219 357.635 C 70.319 356.735 70.342 355.885 70.289 355.085 C 70.242 354.285 70.119 353.585 69.919 352.985 C 69.719 352.485 69.469 352.135 69.169 351.935 C 68.969 351.935 68.719 352.085 68.419 352.385 C 68.219 352.585 68.069 352.785 67.969 352.985 C 67.769 353.285 67.542 353.612 67.289 353.965 C 67.042 354.312 66.819 354.685 66.619 355.085 ZM 85.919 388.085 C 85.319 388.085 84.919 388.035 84.719 387.935 C 82.119 387.635 80.119 386.335 78.719 384.035 C 76.419 379.735 77.269 372.135 81.269 361.235 C 81.969 359.335 82.692 357.512 83.439 355.765 C 84.192 354.012 84.869 352.458 85.469 351.105 C 86.069 349.758 86.569 348.685 86.969 347.885 C 87.369 347.085 87.569 346.635 87.569 346.535 C 87.869 345.935 88.319 345.512 88.919 345.265 C 89.519 345.012 90.119 345.035 90.719 345.335 C 91.419 345.635 91.869 346.112 92.069 346.765 C 92.269 347.412 92.219 348.035 91.919 348.635 C 91.819 348.735 91.119 350.185 89.819 352.985 C 88.519 355.785 87.219 359.085 85.919 362.885 C 84.719 366.185 83.869 368.962 83.369 371.215 C 82.869 373.462 82.569 375.312 82.469 376.765 C 82.369 378.212 82.392 379.335 82.539 380.135 C 82.692 380.935 82.869 381.485 83.069 381.785 C 83.569 382.585 84.319 383.035 85.319 383.135 C 86.619 383.235 87.919 382.785 89.219 381.785 C 90.719 380.485 91.992 378.562 93.039 376.015 C 94.092 373.462 94.969 370.712 95.669 367.765 C 96.369 364.812 96.892 361.962 97.239 359.215 C 97.592 356.462 97.819 354.235 97.919 352.535 L 97.919 352.235 C 97.919 351.535 98.169 350.962 98.669 350.515 C 99.169 350.062 99.769 349.835 100.469 349.835 C 101.169 349.935 101.742 350.208 102.189 350.655 C 102.642 351.108 102.819 351.685 102.719 352.385 L 102.719 352.685 C 102.719 353.185 102.669 354.408 102.569 356.355 C 102.469 358.308 102.469 360.535 102.569 363.035 C 102.669 366.235 102.819 368.685 103.019 370.385 C 103.219 372.085 103.419 373.285 103.619 373.985 C 103.819 373.585 103.969 373.235 104.069 372.935 C 104.369 372.135 104.592 371.285 104.739 370.385 C 104.892 369.485 105.069 368.535 105.269 367.535 C 105.669 365.535 106.119 363.685 106.619 361.985 C 107.119 360.285 107.969 359.035 109.169 358.235 C 110.169 357.535 111.369 357.335 112.769 357.635 C 113.569 357.835 114.596 357.735 115.849 357.335 C 117.096 356.935 118.419 356.385 119.819 355.685 C 121.219 354.985 122.596 354.208 123.949 353.355 C 125.296 352.508 126.519 351.685 127.619 350.885 C 128.119 350.485 128.696 350.335 129.349 350.435 C 129.996 350.535 130.519 350.885 130.919 351.485 C 131.419 351.985 131.596 352.562 131.449 353.215 C 131.296 353.862 130.969 354.385 130.469 354.785 C 130.369 354.885 129.719 355.362 128.519 356.215 C 127.319 357.062 125.819 357.985 124.019 358.985 C 118.719 361.885 114.669 363.035 111.869 362.435 C 111.469 362.835 111.119 363.685 110.819 364.985 C 110.519 366.285 110.269 367.435 110.069 368.435 C 109.669 370.735 109.142 372.935 108.489 375.035 C 107.842 377.135 106.569 378.585 104.669 379.385 C 103.469 379.885 102.319 379.735 101.219 378.935 C 100.719 378.635 100.269 378.185 99.869 377.585 C 99.469 376.985 99.119 375.985 98.819 374.585 C 96.919 379.885 94.769 383.535 92.369 385.535 C 90.369 387.235 88.219 388.085 85.919 388.085 ZM 153.519 400.235 L 153.219 400.235 C 150.919 399.935 149.196 398.735 148.049 396.635 C 146.896 394.535 146.119 391.908 145.719 388.755 C 145.319 385.608 145.169 382.135 145.269 378.335 C 145.369 374.535 145.519 370.735 145.719 366.935 C 145.919 364.935 146.069 362.885 146.169 360.785 C 146.269 358.685 146.269 356.935 146.169 355.535 C 145.969 355.935 145.719 356.362 145.419 356.815 C 145.119 357.262 144.769 357.885 144.369 358.685 C 143.669 360.085 142.969 361.608 142.269 363.255 C 141.569 364.908 140.869 366.585 140.169 368.285 C 138.069 373.285 136.469 376.758 135.369 378.705 C 134.269 380.658 133.019 381.635 131.619 381.635 C 130.519 381.635 129.769 381.285 129.369 380.585 C 128.869 380.085 128.542 379.262 128.389 378.115 C 128.242 376.962 128.369 374.935 128.769 372.035 C 128.969 370.435 129.246 368.612 129.599 366.565 C 129.946 364.512 130.369 362.185 130.869 359.585 C 131.269 357.485 131.692 355.408 132.139 353.355 C 132.592 351.308 132.992 349.485 133.339 347.885 C 133.692 346.285 133.969 344.985 134.169 343.985 C 134.369 342.985 134.469 342.485 134.469 342.485 C 134.669 341.785 135.042 341.258 135.589 340.905 C 136.142 340.558 136.769 340.485 137.469 340.685 C 138.069 340.885 138.569 341.262 138.969 341.815 C 139.369 342.362 139.469 342.985 139.269 343.685 C 138.969 345.085 138.619 346.685 138.219 348.485 C 137.919 349.985 137.542 351.708 137.089 353.655 C 136.642 355.608 136.219 357.585 135.819 359.585 C 135.319 361.985 134.919 364.062 134.619 365.815 C 134.319 367.562 134.069 369.135 133.869 370.535 C 134.169 369.835 134.469 369.135 134.769 368.435 C 135.069 367.735 135.369 367.085 135.669 366.485 C 136.469 364.485 137.292 362.485 138.139 360.485 C 138.992 358.485 139.869 356.685 140.769 355.085 C 141.069 354.485 141.442 353.812 141.889 353.065 C 142.342 352.312 142.869 351.585 143.469 350.885 C 144.069 350.185 144.742 349.662 145.489 349.315 C 146.242 348.962 147.069 348.885 147.969 349.085 C 149.369 349.485 150.219 350.408 150.519 351.855 C 150.819 353.308 150.969 354.785 150.969 356.285 C 151.069 357.685 151.069 359.335 150.969 361.235 C 150.869 363.135 150.769 365.135 150.669 367.235 C 150.469 370.435 150.319 373.758 150.219 377.205 C 150.119 380.658 150.219 383.835 150.519 386.735 C 151.019 392.235 152.119 395.085 153.819 395.285 C 154.519 395.385 155.096 395.685 155.549 396.185 C 155.996 396.685 156.169 397.285 156.069 397.985 C 155.869 399.485 155.019 400.235 153.519 400.235 ZM 160.519 396.185 C 159.519 396.185 158.619 395.785 157.819 394.985 C 157.519 394.585 157.246 394.085 156.999 393.485 C 156.746 392.885 156.519 391.985 156.319 390.785 C 156.119 389.585 155.996 388.035 155.949 386.135 C 155.896 384.235 155.969 381.835 156.169 378.935 C 156.369 375.635 156.669 371.835 157.069 367.535 C 157.469 363.235 158.019 358.435 158.719 353.135 C 159.319 348.635 159.919 344.262 160.519 340.015 C 161.119 335.762 161.669 331.985 162.169 328.685 C 162.669 325.385 163.069 322.708 163.369 320.655 C 163.669 318.608 163.819 317.535 163.819 317.435 C 163.919 316.735 164.242 316.185 164.789 315.785 C 165.342 315.385 165.969 315.285 166.669 315.485 C 167.369 315.585 167.919 315.912 168.319 316.465 C 168.719 317.012 168.819 317.635 168.619 318.335 C 168.619 318.335 168.469 319.335 168.169 321.335 C 167.869 323.335 167.469 325.935 166.969 329.135 C 166.469 332.335 165.919 336.035 165.319 340.235 C 164.719 344.435 164.169 348.735 163.669 353.135 C 162.769 359.835 162.119 365.435 161.719 369.935 C 161.319 374.435 161.069 378.135 160.969 381.035 C 160.869 383.935 160.869 386.135 160.969 387.635 C 161.069 389.135 161.169 390.185 161.269 390.785 C 161.669 390.485 162.169 389.985 162.769 389.285 C 163.369 388.585 164.069 387.535 164.869 386.135 C 165.969 384.435 167.069 382.458 168.169 380.205 C 169.269 377.958 170.369 375.685 171.469 373.385 C 173.769 368.885 175.969 364.712 178.069 360.865 C 180.169 357.012 182.269 354.335 184.369 352.835 C 184.869 352.435 185.446 352.312 186.099 352.465 C 186.746 352.612 187.269 352.935 187.669 353.435 C 188.069 354.035 188.219 354.662 188.119 355.315 C 188.019 355.962 187.669 356.485 187.069 356.885 C 186.269 357.485 185.419 358.408 184.519 359.655 C 183.619 360.908 182.692 362.408 181.739 364.155 C 180.792 365.908 179.819 367.762 178.819 369.715 C 177.819 371.662 176.869 373.585 175.969 375.485 C 172.669 382.185 169.892 387.308 167.639 390.855 C 165.392 394.408 163.019 396.185 160.519 396.185 ZM 192.569 370.685 C 192.169 370.685 191.569 370.585 190.769 370.385 C 189.369 370.085 188.296 369.562 187.549 368.815 C 186.796 368.062 186.319 367.285 186.119 366.485 C 185.719 365.485 185.569 364.385 185.669 363.185 C 185.769 361.985 185.996 360.785 186.349 359.585 C 186.696 358.385 187.169 357.212 187.769 356.065 C 188.369 354.912 188.919 353.885 189.419 352.985 C 189.519 352.785 189.619 352.562 189.719 352.315 C 189.819 352.062 189.919 351.835 190.019 351.635 C 190.819 350.035 191.869 348.835 193.169 348.035 C 194.469 347.235 195.819 346.935 197.219 347.135 C 199.419 347.435 200.969 348.835 201.869 351.335 C 202.069 352.135 202.242 352.962 202.389 353.815 C 202.542 354.662 202.569 355.535 202.469 356.435 C 203.369 356.035 204.342 355.635 205.389 355.235 C 206.442 354.835 207.569 354.335 208.769 353.735 C 209.369 353.335 209.992 353.262 210.639 353.515 C 211.292 353.762 211.769 354.185 212.069 354.785 C 212.369 355.385 212.419 356.008 212.219 356.655 C 212.019 357.308 211.619 357.785 211.019 358.085 C 209.219 358.885 207.542 359.608 205.989 360.255 C 204.442 360.908 202.969 361.435 201.569 361.835 C 200.969 364.235 199.919 366.235 198.419 367.835 C 196.719 369.735 194.769 370.685 192.569 370.685 Z M 191.069 360.935 C 190.869 361.735 190.696 362.462 190.549 363.115 C 190.396 363.762 190.419 364.335 190.619 364.835 C 190.719 364.935 190.846 365.062 190.999 365.215 C 191.146 365.362 191.469 365.485 191.969 365.585 C 192.269 365.785 192.669 365.835 193.169 365.735 C 193.669 365.635 194.219 365.235 194.819 364.535 C 195.019 364.235 195.242 363.935 195.489 363.635 C 195.742 363.335 195.969 362.985 196.169 362.585 C 194.169 362.585 192.469 362.035 191.069 360.935 Z M 193.919 355.085 C 193.719 356.185 193.819 356.835 194.219 357.035 C 194.619 357.535 195.719 357.735 197.519 357.635 C 197.619 356.735 197.642 355.885 197.589 355.085 C 197.542 354.285 197.419 353.585 197.219 352.985 C 197.019 352.485 196.769 352.135 196.469 351.935 C 196.269 351.935 196.019 352.085 195.719 352.385 C 195.519 352.585 195.369 352.785 195.269 352.985 C 195.069 353.285 194.842 353.612 194.589 353.965 C 194.342 354.312 194.119 354.685 193.919 355.085 ZM 227.019 376.235 L 226.719 376.235 C 225.419 376.235 224.319 375.735 223.419 374.735 C 222.919 374.235 222.442 373.335 221.989 372.035 C 221.542 370.735 221.369 368.585 221.469 365.585 C 218.769 369.885 216.269 372.485 213.969 373.385 C 213.169 373.585 212.396 373.685 211.649 373.685 C 210.896 373.685 210.169 373.435 209.469 372.935 C 208.769 372.535 208.042 371.835 207.289 370.835 C 206.542 369.835 206.369 368.285 206.769 366.185 C 207.069 364.385 207.796 362.562 208.949 360.715 C 210.096 358.862 211.069 357.385 211.869 356.285 C 212.669 355.185 213.692 353.958 214.939 352.605 C 216.192 351.258 217.319 350.485 218.319 350.285 C 219.019 350.185 219.642 350.335 220.189 350.735 C 220.742 351.135 221.069 351.685 221.169 352.385 C 221.369 352.985 221.292 353.535 220.939 354.035 C 220.592 354.535 220.169 354.885 219.669 355.085 C 219.369 355.285 218.792 355.835 217.939 356.735 C 217.092 357.635 216.119 358.835 215.019 360.335 C 212.719 363.435 211.569 365.935 211.569 367.835 C 211.569 368.335 211.719 368.635 212.019 368.735 L 212.319 368.735 C 213.119 368.435 214.019 367.635 215.019 366.335 C 216.019 365.035 217.042 363.508 218.089 361.755 C 219.142 360.008 220.142 358.162 221.089 356.215 C 222.042 354.262 222.819 352.435 223.419 350.735 C 223.619 350.135 224.019 349.685 224.619 349.385 C 225.219 349.085 225.819 349.035 226.419 349.235 C 227.019 349.435 227.492 349.808 227.839 350.355 C 228.192 350.908 228.269 351.485 228.069 352.085 C 227.969 352.985 227.819 353.935 227.619 354.935 C 227.419 355.735 227.242 356.712 227.089 357.865 C 226.942 359.012 226.819 360.135 226.719 361.235 C 226.319 364.735 226.219 367.185 226.419 368.585 C 226.619 369.985 226.819 370.885 227.019 371.285 C 227.419 371.085 228.119 370.412 229.119 369.265 C 230.119 368.112 231.469 365.735 233.169 362.135 C 234.369 359.635 235.342 357.362 236.089 355.315 C 236.842 353.262 237.219 352.185 237.219 352.085 C 237.419 351.485 237.819 351.035 238.419 350.735 C 239.019 350.435 239.669 350.385 240.369 350.585 C 241.869 351.085 242.369 352.135 241.869 353.735 C 241.869 353.835 241.469 354.958 240.669 357.105 C 239.869 359.258 238.869 361.635 237.669 364.235 C 235.769 368.235 233.946 371.185 232.199 373.085 C 230.446 374.985 228.719 376.035 227.019 376.235 ZM 266.269 438.935 L 266.119 438.935 C 264.719 438.935 263.919 438.135 263.719 436.535 C 262.919 412.935 262.869 392.385 263.569 374.885 C 264.269 357.385 265.319 342.735 266.719 330.935 C 266.219 332.335 265.769 333.685 265.369 334.985 C 264.969 336.285 264.519 337.585 264.019 338.885 C 261.619 345.585 259.469 350.985 257.569 355.085 C 255.669 359.185 253.969 362.385 252.469 364.685 C 250.969 366.985 249.646 368.558 248.499 369.405 C 247.346 370.258 246.319 370.835 245.419 371.135 C 243.519 371.735 241.769 371.335 240.169 369.935 C 239.069 368.935 238.269 367.712 237.769 366.265 C 237.269 364.812 237.046 363.285 237.099 361.685 C 237.146 360.085 237.442 358.535 237.989 357.035 C 238.542 355.535 239.269 354.235 240.169 353.135 C 241.969 350.935 244.269 349.735 247.069 349.535 C 249.269 349.435 251.519 350.035 253.819 351.335 C 254.619 349.435 255.469 347.335 256.369 345.035 C 257.269 342.735 258.269 340.135 259.369 337.235 C 260.669 333.835 261.919 330.308 263.119 326.655 C 264.319 323.008 265.469 319.412 266.569 315.865 C 267.669 312.312 268.719 308.862 269.719 305.515 C 270.719 302.162 271.619 299.085 272.419 296.285 C 272.819 294.685 273.169 293.262 273.469 292.015 C 273.769 290.762 274.069 289.585 274.369 288.485 C 274.869 286.785 275.292 285.412 275.639 284.365 C 275.992 283.312 276.269 282.435 276.469 281.735 C 276.969 280.535 277.346 279.685 277.599 279.185 C 277.846 278.685 278.219 278.335 278.719 278.135 C 279.619 277.735 280.519 277.885 281.419 278.585 C 282.019 279.185 282.269 279.835 282.169 280.535 C 282.069 281.235 281.919 281.835 281.719 282.335 C 281.419 283.035 281.019 284.308 280.519 286.155 C 280.019 288.008 279.369 290.185 278.569 292.685 C 278.369 293.485 278.142 294.285 277.889 295.085 C 277.642 295.885 277.419 296.685 277.219 297.485 C 275.819 303.285 274.469 310.535 273.169 319.235 C 272.369 324.835 271.592 331.435 270.839 339.035 C 270.092 346.635 269.469 355.285 268.969 364.985 C 268.469 374.685 268.169 385.485 268.069 397.385 C 267.969 409.285 268.169 422.285 268.669 436.385 C 268.669 437.085 268.446 437.685 267.999 438.185 C 267.546 438.685 266.969 438.935 266.269 438.935 Z M 247.669 354.485 C 246.069 354.485 244.819 355.085 243.919 356.285 C 243.319 356.985 242.869 357.812 242.569 358.765 C 242.269 359.712 242.092 360.662 242.039 361.615 C 241.992 362.562 242.096 363.462 242.349 364.315 C 242.596 365.162 242.969 365.785 243.469 366.185 C 243.669 366.385 243.869 366.485 244.069 366.485 C 244.269 366.385 244.592 366.185 245.039 365.885 C 245.492 365.585 246.019 365.062 246.619 364.315 C 247.219 363.562 247.942 362.508 248.789 361.155 C 249.642 359.808 250.619 357.985 251.719 355.685 C 250.419 354.885 249.069 354.485 247.669 354.485 ZM 319.469 402.185 C 318.969 402.185 318.492 402.085 318.039 401.885 C 317.592 401.685 317.269 401.335 317.069 400.835 C 316.869 400.535 316.669 399.935 316.469 399.035 C 316.269 398.135 316.119 396.235 316.019 393.335 C 315.919 390.435 315.969 386.158 316.169 380.505 C 316.369 374.858 316.819 367.085 317.519 357.185 C 317.819 352.385 318.146 347.735 318.499 343.235 C 318.846 338.735 319.169 334.708 319.469 331.155 C 319.769 327.608 320.019 324.735 320.219 322.535 C 320.419 320.335 320.519 319.235 320.519 319.235 C 320.619 318.435 320.946 317.785 321.499 317.285 C 322.046 316.785 322.719 316.585 323.519 316.685 C 324.319 316.785 324.946 317.108 325.399 317.655 C 325.846 318.208 326.019 318.885 325.919 319.685 C 325.919 319.685 325.819 320.758 325.619 322.905 C 325.419 325.058 325.192 327.858 324.939 331.305 C 324.692 334.758 324.392 338.708 324.039 343.155 C 323.692 347.608 323.369 352.185 323.069 356.885 C 322.469 365.485 322.042 372.435 321.789 377.735 C 321.542 383.035 321.419 387.158 321.419 390.105 C 321.419 393.058 321.496 395.085 321.649 396.185 C 321.796 397.285 321.919 397.985 322.019 398.285 C 322.719 399.885 322.319 401.085 320.819 401.885 C 320.519 402.085 320.069 402.185 319.469 402.185 Z M 352.019 398.135 C 351.219 398.135 350.619 397.935 350.219 397.535 C 350.119 397.435 349.569 396.885 348.569 395.885 C 347.569 394.885 346.296 393.258 344.749 391.005 C 343.196 388.758 341.419 385.835 339.419 382.235 C 337.419 378.635 335.319 374.135 333.119 368.735 C 331.919 365.635 330.569 363.162 329.069 361.315 C 327.569 359.462 326.119 358.135 324.719 357.335 C 322.919 358.935 321.192 360.235 319.539 361.235 C 317.892 362.235 316.469 362.835 315.269 363.035 C 314.169 363.235 313.219 363.035 312.419 362.435 C 311.619 361.835 311.119 360.985 310.919 359.885 C 310.519 357.885 310.942 356.058 312.189 354.405 C 313.442 352.758 315.219 351.635 317.519 351.035 C 319.319 350.435 321.319 350.385 323.519 350.885 C 324.819 349.585 326.092 348.235 327.339 346.835 C 328.592 345.435 329.819 343.935 331.019 342.335 C 335.019 337.135 338.019 332.085 340.019 327.185 C 342.019 322.285 342.869 317.935 342.569 314.135 C 342.369 311.835 341.942 310.385 341.289 309.785 C 340.642 309.185 340.169 308.785 339.869 308.585 C 338.469 307.985 336.419 308.135 333.719 309.035 C 331.019 309.935 327.919 311.485 324.419 313.685 C 322.919 314.585 321.519 315.485 320.219 316.385 C 318.919 317.285 317.769 318.135 316.769 318.935 C 315.669 319.835 314.619 320.685 313.619 321.485 C 313.019 321.985 312.342 322.208 311.589 322.155 C 310.842 322.108 310.219 321.785 309.719 321.185 C 309.219 320.685 308.996 320.058 309.049 319.305 C 309.096 318.558 309.419 317.935 310.019 317.435 C 310.119 317.235 311.269 316.285 313.469 314.585 C 315.669 312.885 318.319 311.035 321.419 309.035 C 330.419 303.435 337.269 301.585 341.969 303.485 C 343.169 303.985 344.419 304.985 345.719 306.485 C 347.019 307.985 347.819 310.385 348.119 313.685 C 348.419 316.785 348.142 319.885 347.289 322.985 C 346.442 326.085 345.346 329.035 343.999 331.835 C 342.646 334.635 341.192 337.235 339.639 339.635 C 338.092 342.035 336.669 344.085 335.369 345.785 C 334.269 347.085 333.169 348.385 332.069 349.685 C 330.969 350.985 329.869 352.235 328.769 353.435 C 332.569 356.035 335.769 360.485 338.369 366.785 C 340.369 371.785 342.292 375.985 344.139 379.385 C 345.992 382.785 347.619 385.512 349.019 387.565 C 350.419 389.612 351.569 391.085 352.469 391.985 C 353.369 392.885 353.819 393.335 353.819 393.335 C 355.019 394.535 355.119 395.835 354.119 397.235 C 353.519 397.835 352.819 398.135 352.019 398.135 ZM 362.769 382.235 C 362.169 382.235 361.719 382.135 361.419 381.935 C 358.419 380.035 356.219 376.835 354.819 372.335 C 353.419 367.835 353.119 362.885 353.919 357.485 C 354.719 352.185 356.496 347.735 359.249 344.135 C 361.996 340.535 365.469 338.185 369.669 337.085 C 373.069 336.185 375.519 336.635 377.019 338.435 C 378.719 340.335 378.669 343.535 376.869 348.035 C 375.969 350.135 374.719 352.408 373.119 354.855 C 371.519 357.308 369.719 359.685 367.719 361.985 C 366.519 363.385 365.142 364.785 363.589 366.185 C 362.042 367.585 360.519 368.635 359.019 369.335 C 359.519 371.335 360.192 373.058 361.039 374.505 C 361.892 375.958 362.869 377.035 363.969 377.735 C 364.569 378.135 364.942 378.658 365.089 379.305 C 365.242 379.958 365.169 380.585 364.869 381.185 C 364.469 381.885 363.769 382.235 362.769 382.235 Z M 373.269 341.585 L 372.819 341.585 C 372.619 341.585 372.369 341.585 372.069 341.585 C 371.769 341.585 371.369 341.685 370.869 341.885 C 367.669 342.685 365.019 344.535 362.919 347.435 C 360.819 350.335 359.419 353.935 358.719 358.235 C 358.419 360.435 358.319 362.385 358.419 364.085 C 358.919 363.785 359.519 363.308 360.219 362.655 C 360.919 362.008 361.719 361.235 362.619 360.335 C 364.119 358.635 365.569 356.835 366.969 354.935 C 368.369 353.035 369.619 351.135 370.719 349.235 C 372.119 346.835 372.942 345.035 373.189 343.835 C 373.442 342.635 373.469 341.885 373.269 341.585 ZM 381.769 390.185 C 380.369 390.185 379.119 389.858 378.019 389.205 C 376.919 388.558 376.119 387.685 375.619 386.585 C 373.819 382.585 376.319 377.035 383.119 369.935 C 383.019 369.735 382.969 369.585 382.969 369.485 C 382.969 369.385 382.919 369.235 382.819 369.035 C 382.119 366.535 381.492 364.062 380.939 361.615 C 380.392 359.162 380.019 356.885 379.819 354.785 C 379.219 349.085 380.669 345.635 384.169 344.435 C 386.969 343.535 389.519 343.635 391.819 344.735 C 392.819 345.235 393.642 345.835 394.289 346.535 C 394.942 347.235 395.492 347.912 395.939 348.565 C 396.392 349.212 396.719 349.785 396.919 350.285 C 397.119 350.785 397.219 351.085 397.219 351.185 C 397.419 351.785 397.392 352.385 397.139 352.985 C 396.892 353.585 396.419 353.985 395.719 354.185 C 395.119 354.385 394.492 354.358 393.839 354.105 C 393.192 353.858 392.769 353.385 392.569 352.685 L 392.119 351.785 C 391.919 351.585 391.742 351.312 391.589 350.965 C 391.442 350.612 391.219 350.285 390.919 349.985 C 389.619 348.685 387.869 348.385 385.669 349.085 C 385.069 349.285 384.719 349.985 384.619 351.185 C 384.519 352.385 384.519 353.435 384.619 354.335 C 384.819 356.035 385.142 357.885 385.589 359.885 C 386.042 361.885 386.569 363.935 387.169 366.035 C 389.469 364.035 392.042 361.908 394.889 359.655 C 397.742 357.408 400.919 355.085 404.419 352.685 C 404.919 352.285 405.492 352.162 406.139 352.315 C 406.792 352.462 407.319 352.785 407.719 353.285 C 408.719 354.485 408.519 355.635 407.119 356.735 C 399.119 362.235 392.919 367.135 388.519 371.435 C 389.019 373.335 389.442 375.135 389.789 376.835 C 390.142 378.535 390.369 380.135 390.469 381.635 C 390.669 383.835 390.096 385.635 388.749 387.035 C 387.396 388.435 385.869 389.385 384.169 389.885 C 383.169 390.085 382.369 390.185 381.769 390.185 Z M 384.469 375.635 C 384.269 375.835 384.119 376.035 384.019 376.235 C 383.919 376.435 383.769 376.635 383.569 376.835 C 382.469 378.235 381.669 379.412 381.169 380.365 C 380.669 381.312 380.342 382.085 380.189 382.685 C 380.042 383.285 379.992 383.735 380.039 384.035 C 380.092 384.335 380.119 384.535 380.119 384.635 C 380.419 385.335 381.369 385.485 382.969 385.085 C 383.169 385.085 383.692 384.862 384.539 384.415 C 385.392 383.962 385.769 383.185 385.669 382.085 C 385.569 381.085 385.419 380.058 385.219 379.005 C 385.019 377.958 384.769 376.835 384.469 375.635 ZM 421.169 383.135 C 420.969 383.135 420.842 383.112 420.789 383.065 C 420.742 383.012 420.669 382.985 420.569 382.985 C 418.369 382.485 417.142 380.635 416.889 377.435 C 416.642 374.235 416.969 369.635 417.869 363.635 C 416.169 366.235 414.442 368.385 412.689 370.085 C 410.942 371.785 409.069 372.585 407.069 372.485 C 405.269 372.285 404.019 371.535 403.319 370.235 C 402.819 369.535 402.519 368.235 402.419 366.335 C 402.319 364.435 403.069 361.285 404.669 356.885 C 405.469 354.585 406.269 352.635 407.069 351.035 C 407.869 349.435 408.269 348.585 408.269 348.485 C 408.569 347.885 409.042 347.462 409.689 347.215 C 410.342 346.962 410.969 346.985 411.569 347.285 C 412.169 347.585 412.596 348.062 412.849 348.715 C 413.096 349.362 413.069 349.985 412.769 350.585 C 412.669 350.585 412.269 351.385 411.569 352.985 C 410.869 354.585 410.119 356.435 409.319 358.535 C 408.219 361.635 407.596 363.835 407.449 365.135 C 407.296 366.435 407.269 367.235 407.369 367.535 C 407.669 367.535 408.246 367.258 409.099 366.705 C 409.946 366.158 411.169 364.785 412.769 362.585 C 413.869 360.885 414.919 359.112 415.919 357.265 C 416.919 355.412 417.769 353.785 418.469 352.385 L 419.669 349.985 C 419.969 349.585 420.319 349.135 420.719 348.635 C 421.119 348.135 421.719 347.885 422.519 347.885 C 423.219 347.885 423.869 348.185 424.469 348.785 C 424.869 349.285 425.069 349.808 425.069 350.355 C 425.069 350.908 424.969 351.585 424.769 352.385 C 424.669 352.885 424.592 353.435 424.539 354.035 C 424.492 354.635 424.369 355.335 424.169 356.135 C 423.769 358.035 423.369 360.185 422.969 362.585 C 422.569 364.985 422.219 367.335 421.919 369.635 C 421.619 372.835 421.542 375.035 421.689 376.235 C 421.842 377.435 421.969 378.135 422.069 378.335 C 422.569 378.535 422.996 378.935 423.349 379.535 C 423.696 380.135 423.769 380.685 423.569 381.185 C 423.269 382.485 422.469 383.135 421.169 383.135 ZM 428.619 387.335 L 428.319 387.335 C 427.819 387.235 427.296 386.985 426.749 386.585 C 426.196 386.185 425.819 385.335 425.619 384.035 C 425.319 382.535 425.292 380.358 425.539 377.505 C 425.792 374.658 426.146 371.558 426.599 368.205 C 427.046 364.858 427.619 361.385 428.319 357.785 C 429.019 354.185 429.669 350.835 430.269 347.735 C 430.869 344.635 431.419 341.985 431.919 339.785 C 432.419 337.585 432.719 336.135 432.819 335.435 C 433.019 334.735 433.392 334.212 433.939 333.865 C 434.492 333.512 435.119 333.435 435.819 333.635 C 437.319 333.935 437.919 334.885 437.619 336.485 C 437.119 338.585 436.542 341.235 435.889 344.435 C 435.242 347.635 434.569 351.062 433.869 354.715 C 433.169 358.362 432.519 362.035 431.919 365.735 C 431.319 369.435 430.869 372.735 430.569 375.635 C 430.869 374.835 431.196 374.035 431.549 373.235 C 431.896 372.435 432.169 371.635 432.369 370.835 C 433.369 368.235 434.396 365.585 435.449 362.885 C 436.496 360.185 437.569 357.735 438.669 355.535 C 439.769 353.135 440.992 351.062 442.339 349.315 C 443.692 347.562 445.269 346.935 447.069 347.435 C 448.069 347.635 448.996 348.235 449.849 349.235 C 450.696 350.235 451.019 351.985 450.819 354.485 C 450.719 355.785 450.519 357.162 450.219 358.615 C 449.919 360.062 449.619 361.535 449.319 363.035 C 449.019 364.135 448.719 365.312 448.419 366.565 C 448.119 367.812 447.969 368.835 447.969 369.635 C 448.169 369.535 448.769 369.085 449.769 368.285 C 451.169 367.085 452.569 365.685 453.969 364.085 C 455.569 362.385 456.969 360.985 458.169 359.885 C 458.669 359.385 459.419 358.862 460.419 358.315 C 461.419 357.762 462.519 357.735 463.719 358.235 C 465.119 358.935 465.896 360.235 466.049 362.135 C 466.196 364.035 466.169 366.285 465.969 368.885 C 465.869 370.285 465.792 371.908 465.739 373.755 C 465.692 375.608 465.919 376.835 466.419 377.435 C 466.819 378.035 466.946 378.658 466.799 379.305 C 466.646 379.958 466.319 380.485 465.819 380.885 C 465.219 381.285 464.592 381.408 463.939 381.255 C 463.292 381.108 462.769 380.785 462.369 380.285 C 461.469 378.985 460.992 377.308 460.939 375.255 C 460.892 373.208 460.969 371.035 461.169 368.735 C 461.169 367.935 461.192 367.085 461.239 366.185 C 461.292 365.285 461.319 364.435 461.319 363.635 C 460.019 364.835 458.769 366.085 457.569 367.385 C 455.769 369.385 453.992 371.162 452.239 372.715 C 450.492 374.262 448.819 375.035 447.219 375.035 C 446.619 375.035 446.019 374.885 445.419 374.585 C 444.719 374.285 444.219 373.862 443.919 373.315 C 443.619 372.762 443.392 372.185 443.239 371.585 C 443.092 370.985 443.042 370.412 443.089 369.865 C 443.142 369.312 443.169 368.885 443.169 368.585 C 443.269 367.585 443.442 366.535 443.689 365.435 C 443.942 364.335 444.219 363.135 444.519 361.835 C 444.719 360.735 444.942 359.612 445.189 358.465 C 445.442 357.312 445.669 356.235 445.869 355.235 C 445.969 353.935 445.969 353.085 445.869 352.685 C 445.569 353.085 445.119 353.762 444.519 354.715 C 443.919 355.662 443.219 357.085 442.419 358.985 C 441.519 360.985 440.592 363.185 439.639 365.585 C 438.692 367.985 437.819 370.335 437.019 372.635 C 436.319 374.435 435.642 376.135 434.989 377.735 C 434.342 379.335 433.769 380.785 433.269 382.085 C 432.569 383.585 431.892 384.835 431.239 385.835 C 430.592 386.835 429.719 387.335 428.619 387.335 ZM 479.719 382.235 C 479.119 382.235 478.669 382.135 478.369 381.935 C 475.369 380.035 473.169 376.835 471.769 372.335 C 470.369 367.835 470.069 362.885 470.869 357.485 C 471.669 352.185 473.446 347.735 476.199 344.135 C 478.946 340.535 482.419 338.185 486.619 337.085 C 490.019 336.185 492.469 336.635 493.969 338.435 C 495.669 340.335 495.619 343.535 493.819 348.035 C 492.919 350.135 491.669 352.408 490.069 354.855 C 488.469 357.308 486.669 359.685 484.669 361.985 C 483.469 363.385 482.092 364.785 480.539 366.185 C 478.992 367.585 477.469 368.635 475.969 369.335 C 476.469 371.335 477.142 373.058 477.989 374.505 C 478.842 375.958 479.819 377.035 480.919 377.735 C 481.519 378.135 481.892 378.658 482.039 379.305 C 482.192 379.958 482.119 380.585 481.819 381.185 C 481.419 381.885 480.719 382.235 479.719 382.235 Z M 490.219 341.585 L 489.769 341.585 C 489.569 341.585 489.319 341.585 489.019 341.585 C 488.719 341.585 488.319 341.685 487.819 341.885 C 484.619 342.685 481.969 344.535 479.869 347.435 C 477.769 350.335 476.369 353.935 475.669 358.235 C 475.369 360.435 475.269 362.385 475.369 364.085 C 475.869 363.785 476.469 363.308 477.169 362.655 C 477.869 362.008 478.669 361.235 479.569 360.335 C 481.069 358.635 482.519 356.835 483.919 354.935 C 485.319 353.035 486.569 351.135 487.669 349.235 C 489.069 346.835 489.892 345.035 490.139 343.835 C 490.392 342.635 490.419 341.885 490.219 341.585 Z" transform="matrix(1, 0, 0, 1, 0, 0)" style="fill: rgb(255, 192, 203); white-space: pre;"/>
</svg>