<?xml version="1.0" encoding="utf-8"?>
<svg viewBox="-340.2279968261719 22.589000701904297 1099.720947265625 550.0540161132812" width="1099.720947265625" height="550.0540161132812" xmlns="http://www.w3.org/2000/svg">
  <g transform="matrix(0.9181430339813232, 0, 0, 0.9375001192092896, -85.78707885742176, 2.163949966430664)">
    <g>
      <g>
        <path d="M385.02 80.1L386.41 80.22L387.78 80.39L389.13 80.61L390.46 80.87L391.77 81.17L393.05 81.52L394.32 81.92L395.56 82.35L396.78 82.82L397.97 83.34L399.14 83.89L400.27 84.48L401.38 85.11L402.46 85.77L403.5 86.47L404.52 87.2L405.5 87.97L406.44 88.77L407.35 89.6L408.23 90.46L409.06 91.34L409.86 92.26L410.62 93.2L411.34 94.18L412.01 95.17L412.64 96.19L413.23 97.24L413.77 98.3L414.26 99.39L414.71 100.5L415.11 101.63L415.46 102.78L415.76 103.94L416 105.13L416.2 106.32L416.34 107.54L416.42 108.76L416.45 110.01L416.45 320.05L541.58 320.05L543.46 320.1L545.29 320.24L547.07 320.48L548.8 320.82L550.48 321.23L552.09 321.73L553.65 322.31L555.15 322.97L556.59 323.7L557.97 324.49L559.28 325.35L560.53 326.28L561.7 327.26L562.81 328.3L563.85 329.38L564.81 330.52L565.7 331.69L566.52 332.91L567.25 334.17L567.91 335.46L568.48 336.77L568.97 338.12L569.38 339.48L569.7 340.87L569.93 342.27L570.07 343.68L570.12 345.1L570.08 346.52L569.95 347.95L569.71 349.37L569.38 350.79L568.95 352.2L568.42 353.59L567.78 354.97L567.04 356.33L566.19 357.66L565.23 358.96L564.17 360.24L562.99 361.48L561.7 362.68L344.68 552.97L343.87 553.65L343.03 554.3L342.16 554.92L341.28 555.5L340.37 556.04L339.45 556.55L338.51 557.03L337.55 557.47L336.57 557.87L335.59 558.24L334.58 558.58L333.57 558.87L332.55 559.14L331.52 559.37L330.48 559.56L329.43 559.72L328.38 559.84L327.32 559.93L326.26 559.98L325.21 560L324.15 559.98L323.09 559.93L322.03 559.84L320.98 559.72L319.93 559.56L318.89 559.37L317.86 559.14L316.84 558.87L315.83 558.58L314.83 558.24L313.84 557.87L312.86 557.47L311.9 557.03L310.96 556.55L310.04 556.04L309.13 555.5L308.25 554.92L307.38 554.3L306.54 553.65L305.73 552.97L88.42 362.68L87.13 361.48L85.96 360.24L84.89 358.96L83.93 357.66L83.09 356.33L82.34 354.97L81.71 353.59L81.18 352.2L80.74 350.79L80.41 349.37L80.18 347.95L80.04 346.52L80 345.1L80.05 343.68L80.19 342.27L80.43 340.87L80.75 339.48L81.15 338.12L81.64 336.77L82.22 335.46L82.87 334.17L83.61 332.91L84.42 331.69L85.31 330.52L86.28 329.38L87.31 328.3L88.42 327.26L89.6 326.28L90.85 325.35L92.16 324.49L93.53 323.7L94.97 322.97L96.47 322.31L98.03 321.73L99.65 321.23L101.32 320.82L103.05 320.48L104.83 320.24L106.66 320.1L108.54 320.05L233.82 320.05L233.82 110.01L233.85 108.76L233.93 107.54L234.07 106.32L234.26 105.13L234.51 103.94L234.81 102.78L235.16 101.63L235.56 100.5L236 99.39L236.5 98.3L237.04 97.24L237.63 96.19L238.26 95.17L238.93 94.18L239.65 93.2L240.41 92.26L241.2 91.34L242.04 90.46L242.91 89.6L243.82 88.77L244.77 87.97L245.75 87.2L246.76 86.47L247.81 85.77L248.89 85.11L249.99 84.48L251.13 83.89L252.3 83.34L253.49 82.82L254.7 82.35L255.95 81.92L257.21 81.52L258.5 81.17L259.81 80.87L261.14 80.61L262.49 80.39L263.86 80.22L265.24 80.1L266.65 80.02L268.06 80L382.21 80L383.62 80.02L385.02 80.1Z" id="" transform="matrix(1, 0, 0, 1, 0, 0)" style="fill: rgb(255, 192, 203);"/>
        <g>
          <path d="M385.02 80.1L386.41 80.22L387.78 80.39L389.13 80.61L390.46 80.87L391.77 81.17L393.05 81.52L394.32 81.92L395.56 82.35L396.78 82.82L397.97 83.34L399.14 83.89L400.27 84.48L401.38 85.11L402.46 85.77L403.5 86.47L404.52 87.2L405.5 87.97L406.44 88.77L407.35 89.6L408.23 90.46L409.06 91.34L409.86 92.26L410.62 93.2L411.34 94.18L412.01 95.17L412.64 96.19L413.23 97.24L413.77 98.3L414.26 99.39L414.71 100.5L415.11 101.63L415.46 102.78L415.76 103.94L416 105.13L416.2 106.32L416.34 107.54L416.42 108.76L416.45 110.01L416.45 320.05L541.58 320.05L543.46 320.1L545.29 320.24L547.07 320.48L548.8 320.82L550.48 321.23L552.09 321.73L553.65 322.31L555.15 322.97L556.59 323.7L557.97 324.49L559.28 325.35L560.53 326.28L561.7 327.26L562.81 328.3L563.85 329.38L564.81 330.52L565.7 331.69L566.52 332.91L567.25 334.17L567.91 335.46L568.48 336.77L568.97 338.12L569.38 339.48L569.7 340.87L569.93 342.27L570.07 343.68L570.12 345.1L570.08 346.52L569.95 347.95L569.71 349.37L569.38 350.79L568.95 352.2L568.42 353.59L567.78 354.97L567.04 356.33L566.19 357.66L565.23 358.96L564.17 360.24L562.99 361.48L561.7 362.68L344.68 552.97L343.87 553.65L343.03 554.3L342.16 554.92L341.28 555.5L340.37 556.04L339.45 556.55L338.51 557.03L337.55 557.47L336.57 557.87L335.59 558.24L334.58 558.58L333.57 558.87L332.55 559.14L331.52 559.37L330.48 559.56L329.43 559.72L328.38 559.84L327.32 559.93L326.26 559.98L325.21 560L324.15 559.98L323.09 559.93L322.03 559.84L320.98 559.72L319.93 559.56L318.89 559.37L317.86 559.14L316.84 558.87L315.83 558.58L314.83 558.24L313.84 557.87L312.86 557.47L311.9 557.03L310.96 556.55L310.04 556.04L309.13 555.5L308.25 554.92L307.38 554.3L306.54 553.65L305.73 552.97L88.42 362.68L87.13 361.48L85.96 360.24L84.89 358.96L83.93 357.66L83.09 356.33L82.34 354.97L81.71 353.59L81.18 352.2L80.74 350.79L80.41 349.37L80.18 347.95L80.04 346.52L80 345.1L80.05 343.68L80.19 342.27L80.43 340.87L80.75 339.48L81.15 338.12L81.64 336.77L82.22 335.46L82.87 334.17L83.61 332.91L84.42 331.69L85.31 330.52L86.28 329.38L87.31 328.3L88.42 327.26L89.6 326.28L90.85 325.35L92.16 324.49L93.53 323.7L94.97 322.97L96.47 322.31L98.03 321.73L99.65 321.23L101.32 320.82L103.05 320.48L104.83 320.24L106.66 320.1L108.54 320.05L233.82 320.05L233.82 110.01L233.85 108.76L233.93 107.54L234.07 106.32L234.26 105.13L234.51 103.94L234.81 102.78L235.16 101.63L235.56 100.5L236 99.39L236.5 98.3L237.04 97.24L237.63 96.19L238.26 95.17L238.93 94.18L239.65 93.2L240.41 92.26L241.2 91.34L242.04 90.46L242.91 89.6L243.82 88.77L244.77 87.97L245.75 87.2L246.76 86.47L247.81 85.77L248.89 85.11L249.99 84.48L251.13 83.89L252.3 83.34L253.49 82.82L254.7 82.35L255.95 81.92L257.21 81.52L258.5 81.17L259.81 80.87L261.14 80.61L262.49 80.39L263.86 80.22L265.24 80.1L266.65 80.02L268.06 80L382.21 80L383.62 80.02L385.02 80.1Z" id="" transform="matrix(1, 0, 0, 1, 0, 0)" style="fill: rgb(255, 192, 203);"/>
        </g>
      </g>
    </g>
  </g>
  <path d="M -234.088 500.312 L -234.428 500.312 C -237.621 500.312 -239.448 498.485 -239.908 494.832 C -241.735 440.992 -241.848 394.112 -240.248 354.192 C -238.655 314.265 -236.261 280.845 -233.068 253.932 C -234.208 257.125 -235.235 260.202 -236.148 263.162 C -237.055 266.129 -238.078 269.095 -239.218 272.062 C -244.698 287.349 -249.605 299.669 -253.938 309.022 C -258.271 318.375 -262.148 325.675 -265.568 330.922 C -268.995 336.169 -272.018 339.762 -274.638 341.702 C -277.265 343.642 -279.605 344.952 -281.658 345.632 C -285.991 347.005 -289.981 346.095 -293.628 342.902 C -296.141 340.622 -297.968 337.825 -299.108 334.512 C -300.248 331.205 -300.761 327.729 -300.648 324.082 C -300.535 320.429 -299.851 316.892 -298.598 313.472 C -297.338 310.052 -295.681 307.085 -293.628 304.572 C -289.528 299.552 -284.281 296.815 -277.888 296.362 C -272.875 296.135 -267.741 297.502 -262.488 300.462 C -260.668 296.129 -258.731 291.339 -256.678 286.092 C -254.625 280.845 -252.341 274.915 -249.828 268.302 C -246.861 260.542 -244.011 252.499 -241.278 244.172 C -238.538 235.845 -235.915 227.632 -233.408 219.532 C -230.895 211.439 -228.498 203.569 -226.218 195.922 C -223.938 188.282 -221.885 181.269 -220.058 174.882 C -219.145 171.229 -218.348 167.975 -217.668 165.122 C -216.981 162.275 -216.295 159.595 -215.608 157.082 C -214.468 153.209 -213.498 150.072 -212.698 147.672 C -211.905 145.279 -211.278 143.282 -210.818 141.682 C -209.678 138.949 -208.825 137.012 -208.258 135.872 C -207.685 134.732 -206.828 133.932 -205.688 133.472 C -203.635 132.559 -201.581 132.902 -199.528 134.502 C -198.161 135.869 -197.591 137.352 -197.818 138.952 C -198.045 140.545 -198.388 141.912 -198.848 143.052 C -199.528 144.652 -200.438 147.562 -201.578 151.782 C -202.718 156.002 -204.201 160.962 -206.028 166.662 C -206.488 168.489 -207.001 170.315 -207.568 172.142 C -208.141 173.969 -208.655 175.792 -209.108 177.612 C -212.301 190.845 -215.381 207.385 -218.348 227.232 C -220.175 240.012 -221.941 255.069 -223.648 272.402 C -225.361 289.742 -226.788 309.475 -227.928 331.602 C -229.068 353.735 -229.755 378.375 -229.988 405.522 C -230.215 432.669 -229.758 462.325 -228.618 494.492 C -228.618 496.092 -229.131 497.462 -230.158 498.602 C -231.185 499.742 -232.495 500.312 -234.088 500.312 Z M -276.518 307.652 C -280.171 307.652 -283.025 309.022 -285.078 311.762 C -286.445 313.355 -287.471 315.235 -288.158 317.402 C -288.845 319.569 -289.245 321.739 -289.358 323.912 C -289.471 326.079 -289.241 328.129 -288.668 330.062 C -288.101 332.002 -287.248 333.429 -286.108 334.342 C -285.648 334.802 -285.191 335.032 -284.738 335.032 C -284.278 334.799 -283.535 334.342 -282.508 333.662 C -281.481 332.975 -280.285 331.775 -278.918 330.062 C -277.551 328.355 -275.898 325.962 -273.958 322.882 C -272.018 319.802 -269.795 315.639 -267.288 310.392 C -270.248 308.565 -273.325 307.652 -276.518 307.652 ZM -196.661 344.612 C -197.574 344.612 -198.941 344.382 -200.761 343.922 C -203.961 343.242 -206.414 342.045 -208.121 340.332 C -209.834 338.619 -210.918 336.852 -211.371 335.032 C -212.284 332.745 -212.628 330.235 -212.401 327.502 C -212.174 324.762 -211.661 322.025 -210.861 319.292 C -210.061 316.552 -208.978 313.869 -207.611 311.242 C -206.244 308.622 -204.988 306.285 -203.841 304.232 C -203.614 303.772 -203.388 303.259 -203.161 302.692 C -202.934 302.119 -202.708 301.605 -202.481 301.152 C -200.654 297.499 -198.258 294.762 -195.291 292.942 C -192.324 291.115 -189.244 290.429 -186.051 290.882 C -181.031 291.569 -177.494 294.762 -175.441 300.462 C -174.988 302.289 -174.588 304.172 -174.241 306.112 C -173.901 308.052 -173.844 310.049 -174.071 312.102 C -172.018 311.189 -169.794 310.275 -167.401 309.362 C -165.008 308.449 -162.441 307.309 -159.701 305.942 C -158.334 305.029 -156.908 304.859 -155.421 305.432 C -153.941 305.999 -152.858 306.969 -152.171 308.342 C -151.491 309.709 -151.378 311.132 -151.831 312.612 C -152.284 314.099 -153.198 315.182 -154.571 315.862 C -158.678 317.689 -162.498 319.345 -166.031 320.832 C -169.571 322.312 -172.938 323.509 -176.131 324.422 C -177.498 329.895 -179.891 334.459 -183.311 338.112 C -187.191 342.445 -191.641 344.612 -196.661 344.612 Z M -200.081 322.372 C -200.534 324.192 -200.934 325.845 -201.281 327.332 C -201.621 328.812 -201.564 330.122 -201.111 331.262 C -200.878 331.489 -200.591 331.775 -200.251 332.122 C -199.911 332.462 -199.171 332.745 -198.031 332.972 C -197.344 333.432 -196.431 333.549 -195.291 333.322 C -194.151 333.089 -192.894 332.175 -191.521 330.582 C -191.068 329.895 -190.554 329.209 -189.981 328.522 C -189.414 327.842 -188.904 327.045 -188.451 326.132 C -193.011 326.132 -196.888 324.879 -200.081 322.372 Z M -193.581 309.022 C -194.034 311.529 -193.804 313.012 -192.891 313.472 C -191.978 314.612 -189.471 315.069 -185.371 314.842 C -185.138 312.789 -185.078 310.849 -185.191 309.022 C -185.311 307.195 -185.598 305.599 -186.051 304.232 C -186.504 303.092 -187.074 302.292 -187.761 301.832 C -188.221 301.832 -188.791 302.175 -189.471 302.862 C -189.931 303.315 -190.274 303.772 -190.501 304.232 C -190.954 304.919 -191.468 305.659 -192.041 306.452 C -192.608 307.252 -193.121 308.109 -193.581 309.022 ZM -150.331 384.302 C -151.698 384.302 -152.611 384.189 -153.071 383.962 C -158.998 383.275 -163.558 380.309 -166.751 375.062 C -172.005 365.255 -170.068 347.919 -160.941 323.052 C -159.341 318.719 -157.688 314.555 -155.981 310.562 C -154.268 306.569 -152.728 303.032 -151.361 299.952 C -149.988 296.872 -148.845 294.419 -147.931 292.592 C -147.025 290.772 -146.571 289.745 -146.571 289.512 C -145.885 288.145 -144.858 287.179 -143.491 286.612 C -142.118 286.039 -140.748 286.095 -139.381 286.782 C -137.781 287.462 -136.755 288.545 -136.301 290.032 C -135.841 291.512 -135.955 292.935 -136.641 294.302 C -136.868 294.535 -138.465 297.845 -141.431 304.232 C -144.398 310.619 -147.365 318.145 -150.331 326.812 C -153.071 334.345 -155.011 340.679 -156.151 345.812 C -157.291 350.945 -157.975 355.165 -158.201 358.472 C -158.428 361.779 -158.371 364.345 -158.031 366.172 C -157.691 367.992 -157.291 369.245 -156.831 369.932 C -155.691 371.759 -153.981 372.785 -151.701 373.012 C -148.735 373.239 -145.768 372.212 -142.801 369.932 C -139.381 366.965 -136.471 362.575 -134.071 356.762 C -131.678 350.942 -129.685 344.669 -128.091 337.942 C -126.491 331.209 -125.291 324.705 -124.491 318.432 C -123.698 312.159 -123.185 307.082 -122.951 303.202 L -122.951 302.522 C -122.951 300.922 -122.381 299.609 -121.241 298.582 C -120.101 297.555 -118.735 297.042 -117.141 297.042 C -115.541 297.269 -114.228 297.895 -113.201 298.922 C -112.175 299.949 -111.775 301.262 -112.001 302.862 L -112.001 303.542 C -112.001 304.689 -112.118 307.485 -112.351 311.932 C -112.578 316.379 -112.578 321.455 -112.351 327.162 C -112.118 334.462 -111.775 340.049 -111.321 343.922 C -110.861 347.802 -110.405 350.542 -109.951 352.142 C -109.498 351.229 -109.155 350.429 -108.921 349.742 C -108.241 347.915 -107.728 345.975 -107.381 343.922 C -107.041 341.869 -106.645 339.702 -106.191 337.422 C -105.278 332.862 -104.251 328.642 -103.111 324.762 C -101.965 320.882 -100.025 318.032 -97.291 316.212 C -95.011 314.612 -92.275 314.155 -89.081 314.842 C -87.255 315.295 -84.915 315.065 -82.061 314.152 C -79.208 313.239 -76.185 311.985 -72.991 310.392 C -69.798 308.792 -66.661 307.022 -63.581 305.082 C -60.501 303.149 -57.708 301.269 -55.201 299.442 C -54.061 298.529 -52.748 298.185 -51.261 298.412 C -49.781 298.639 -48.585 299.439 -47.671 300.812 C -46.531 301.952 -46.131 303.262 -46.471 304.742 C -46.811 306.229 -47.555 307.429 -48.701 308.342 C -48.928 308.569 -50.408 309.652 -53.141 311.592 C -55.881 313.525 -59.305 315.635 -63.411 317.922 C -75.505 324.535 -84.745 327.159 -91.131 325.792 C -92.045 326.705 -92.841 328.642 -93.521 331.602 C -94.208 334.569 -94.781 337.195 -95.241 339.482 C -96.148 344.729 -97.345 349.745 -98.831 354.532 C -100.311 359.325 -103.218 362.635 -107.551 364.462 C -110.291 365.602 -112.918 365.259 -115.431 363.432 C -116.571 362.745 -117.595 361.719 -118.501 360.352 C -119.415 358.985 -120.215 356.705 -120.901 353.512 C -125.235 365.599 -130.138 373.925 -135.611 378.492 C -140.178 382.365 -145.085 384.302 -150.331 384.302 ZM 3.104 412.022 L 2.424 412.022 C -2.823 411.335 -6.759 408.599 -9.386 403.812 C -12.006 399.019 -13.773 393.029 -14.686 385.842 C -15.599 378.655 -15.943 370.729 -15.716 362.062 C -15.489 353.395 -15.146 344.725 -14.686 336.052 C -14.233 331.492 -13.893 326.815 -13.666 322.022 C -13.433 317.235 -13.433 313.245 -13.666 310.052 C -14.119 310.959 -14.689 311.925 -15.376 312.952 C -16.056 313.979 -16.853 315.405 -17.766 317.232 C -19.366 320.425 -20.963 323.905 -22.556 327.672 C -24.156 331.439 -25.753 335.259 -27.346 339.132 C -32.139 350.539 -35.789 358.469 -38.296 362.922 C -40.809 367.369 -43.663 369.592 -46.856 369.592 C -49.363 369.592 -51.073 368.792 -51.986 367.192 C -53.126 366.052 -53.869 364.172 -54.216 361.552 C -54.556 358.925 -54.269 354.305 -53.356 347.692 C -52.903 344.039 -52.276 339.875 -51.476 335.202 C -50.676 330.522 -49.706 325.219 -48.566 319.292 C -47.653 314.499 -46.683 309.762 -45.656 305.082 C -44.629 300.409 -43.716 296.245 -42.916 292.592 C -42.123 288.945 -41.496 285.982 -41.036 283.702 C -40.583 281.415 -40.356 280.272 -40.356 280.272 C -39.896 278.679 -39.039 277.482 -37.786 276.682 C -36.533 275.882 -35.106 275.712 -33.506 276.172 C -32.139 276.625 -30.999 277.479 -30.086 278.732 C -29.173 279.992 -28.946 281.419 -29.406 283.012 C -30.086 286.205 -30.883 289.855 -31.796 293.962 C -32.483 297.389 -33.339 301.325 -34.366 305.772 C -35.393 310.219 -36.363 314.725 -37.276 319.292 C -38.416 324.765 -39.329 329.499 -40.016 333.492 C -40.696 337.485 -41.266 341.079 -41.726 344.272 C -41.039 342.672 -40.353 341.075 -39.666 339.482 C -38.986 337.882 -38.303 336.399 -37.616 335.032 C -35.789 330.465 -33.906 325.902 -31.966 321.342 C -30.033 316.775 -28.039 312.669 -25.986 309.022 C -25.299 307.655 -24.443 306.115 -23.416 304.402 C -22.389 302.689 -21.193 301.035 -19.826 299.442 C -18.453 297.842 -16.913 296.642 -15.206 295.842 C -13.493 295.049 -11.609 294.879 -9.556 295.332 C -6.363 296.245 -4.423 298.355 -3.736 301.662 C -3.056 304.969 -2.716 308.335 -2.716 311.762 C -2.483 314.955 -2.483 318.719 -2.716 323.052 C -2.943 327.385 -3.169 331.949 -3.396 336.742 C -3.849 344.042 -4.193 351.625 -4.426 359.492 C -4.653 367.365 -4.423 374.609 -3.736 381.222 C -2.596 393.769 -0.086 400.272 3.794 400.732 C 5.387 400.959 6.697 401.642 7.724 402.782 C 8.751 403.922 9.151 405.292 8.924 406.892 C 8.464 410.312 6.524 412.022 3.104 412.022 ZM 18.295 402.782 C 16.015 402.782 13.962 401.869 12.135 400.042 C 11.449 399.135 10.822 397.995 10.255 396.622 C 9.682 395.255 9.169 393.202 8.715 390.462 C 8.255 387.729 7.969 384.192 7.855 379.852 C 7.742 375.519 7.912 370.045 8.365 363.432 C 8.825 355.905 9.512 347.235 10.425 337.422 C 11.339 327.615 12.592 316.665 14.185 304.572 C 15.559 294.305 16.929 284.325 18.295 274.632 C 19.662 264.932 20.915 256.319 22.055 248.792 C 23.195 241.265 24.109 235.162 24.795 230.482 C 25.482 225.809 25.825 223.359 25.825 223.132 C 26.052 221.532 26.792 220.275 28.045 219.362 C 29.299 218.449 30.725 218.222 32.325 218.682 C 33.919 218.909 35.172 219.649 36.085 220.902 C 36.999 222.162 37.229 223.589 36.775 225.182 C 36.775 225.182 36.432 227.462 35.745 232.022 C 35.059 236.589 34.145 242.522 33.005 249.822 C 31.865 257.122 30.612 265.562 29.245 275.142 C 27.879 284.722 26.622 294.532 25.475 304.572 C 23.422 319.859 21.942 332.635 21.035 342.902 C 20.122 353.169 19.549 361.609 19.315 368.222 C 19.089 374.835 19.089 379.855 19.315 383.282 C 19.549 386.702 19.779 389.095 20.005 390.462 C 20.919 389.782 22.059 388.642 23.425 387.042 C 24.792 385.449 26.389 383.052 28.215 379.852 C 30.729 375.979 33.239 371.475 35.745 366.342 C 38.252 361.209 40.762 356.019 43.275 350.772 C 48.522 340.505 53.542 330.979 58.335 322.192 C 63.122 313.412 67.912 307.312 72.705 303.892 C 73.845 302.979 75.155 302.692 76.635 303.032 C 78.122 303.372 79.322 304.115 80.235 305.262 C 81.149 306.629 81.489 308.052 81.255 309.532 C 81.029 311.019 80.232 312.219 78.865 313.132 C 77.039 314.499 75.099 316.609 73.045 319.462 C 70.992 322.309 68.882 325.729 66.715 329.722 C 64.549 333.715 62.325 337.935 60.045 342.382 C 57.759 346.835 55.589 351.229 53.535 355.562 C 46.009 370.849 39.679 382.539 34.545 390.632 C 29.412 398.732 23.995 402.782 18.295 402.782 ZM 90.627 344.612 C 89.713 344.612 88.347 344.382 86.527 343.922 C 83.327 343.242 80.873 342.045 79.167 340.332 C 77.453 338.619 76.37 336.852 75.917 335.032 C 75.003 332.745 74.66 330.235 74.887 327.502 C 75.113 324.762 75.627 322.025 76.427 319.292 C 77.227 316.552 78.31 313.869 79.677 311.242 C 81.043 308.622 82.3 306.285 83.447 304.232 C 83.673 303.772 83.9 303.259 84.127 302.692 C 84.353 302.119 84.58 301.605 84.807 301.152 C 86.633 297.499 89.03 294.762 91.997 292.942 C 94.963 291.115 98.043 290.429 101.237 290.882 C 106.257 291.569 109.793 294.762 111.847 300.462 C 112.3 302.289 112.7 304.172 113.047 306.112 C 113.387 308.052 113.443 310.049 113.217 312.102 C 115.27 311.189 117.493 310.275 119.887 309.362 C 122.28 308.449 124.847 307.309 127.587 305.942 C 128.953 305.029 130.38 304.859 131.867 305.432 C 133.347 305.999 134.43 306.969 135.117 308.342 C 135.797 309.709 135.91 311.132 135.457 312.612 C 135.003 314.099 134.09 315.182 132.717 315.862 C 128.61 317.689 124.79 319.345 121.257 320.832 C 117.717 322.312 114.35 323.509 111.157 324.422 C 109.79 329.895 107.397 334.459 103.977 338.112 C 100.097 342.445 95.647 344.612 90.627 344.612 Z M 87.207 322.372 C 86.753 324.192 86.353 325.845 86.007 327.332 C 85.667 328.812 85.723 330.122 86.177 331.262 C 86.41 331.489 86.697 331.775 87.037 332.122 C 87.377 332.462 88.117 332.745 89.257 332.972 C 89.943 333.432 90.857 333.549 91.997 333.322 C 93.137 333.089 94.393 332.175 95.767 330.582 C 96.22 329.895 96.733 329.209 97.307 328.522 C 97.873 327.842 98.383 327.045 98.837 326.132 C 94.277 326.132 90.4 324.879 87.207 322.372 Z M 93.707 309.022 C 93.253 311.529 93.483 313.012 94.397 313.472 C 95.31 314.612 97.817 315.069 101.917 314.842 C 102.15 312.789 102.21 310.849 102.097 309.022 C 101.977 307.195 101.69 305.599 101.237 304.232 C 100.783 303.092 100.213 302.292 99.527 301.832 C 99.067 301.832 98.497 302.175 97.817 302.862 C 97.357 303.315 97.013 303.772 96.787 304.232 C 96.333 304.919 95.82 305.659 95.247 306.452 C 94.68 307.252 94.167 308.109 93.707 309.022 ZM 168.437 357.272 L 167.757 357.272 C 164.79 357.272 162.28 356.132 160.227 353.852 C 159.087 352.712 158.003 350.659 156.977 347.692 C 155.95 344.725 155.55 339.819 155.777 332.972 C 149.617 342.785 143.913 348.719 138.667 350.772 C 136.84 351.225 135.073 351.452 133.367 351.452 C 131.653 351.452 130 350.882 128.407 349.742 C 126.807 348.829 125.15 347.232 123.437 344.952 C 121.73 342.672 121.333 339.135 122.247 334.342 C 122.927 330.235 124.58 326.072 127.207 321.852 C 129.827 317.632 132.05 314.269 133.877 311.762 C 135.703 309.249 138.043 306.452 140.897 303.372 C 143.743 300.292 146.31 298.525 148.597 298.072 C 150.19 297.845 151.613 298.189 152.867 299.102 C 154.12 300.009 154.863 301.262 155.097 302.862 C 155.55 304.229 155.377 305.482 154.577 306.622 C 153.783 307.769 152.817 308.569 151.677 309.022 C 150.99 309.475 149.677 310.729 147.737 312.782 C 145.797 314.835 143.573 317.575 141.067 321.002 C 135.82 328.069 133.197 333.772 133.197 338.112 C 133.197 339.252 133.537 339.935 134.217 340.162 L 134.907 340.162 C 136.727 339.475 138.78 337.649 141.067 334.682 C 143.347 331.722 145.683 328.245 148.077 324.252 C 150.477 320.259 152.76 316.039 154.927 311.592 C 157.093 307.139 158.86 302.975 160.227 299.102 C 160.68 297.729 161.593 296.702 162.967 296.022 C 164.333 295.335 165.7 295.219 167.067 295.672 C 168.44 296.132 169.527 296.989 170.327 298.242 C 171.12 299.495 171.29 300.809 170.837 302.182 C 170.61 304.235 170.267 306.402 169.807 308.682 C 169.353 310.502 168.953 312.725 168.607 315.352 C 168.267 317.979 167.983 320.545 167.757 323.052 C 166.843 331.039 166.613 336.629 167.067 339.822 C 167.527 343.015 167.983 345.069 168.437 345.982 C 169.35 345.522 170.947 343.982 173.227 341.362 C 175.513 338.735 178.593 333.315 182.467 325.102 C 185.207 319.402 187.433 314.212 189.147 309.532 C 190.853 304.859 191.707 302.409 191.707 302.182 C 192.167 300.809 193.08 299.782 194.447 299.102 C 195.813 298.415 197.297 298.299 198.897 298.752 C 202.317 299.892 203.457 302.289 202.317 305.942 C 202.317 306.169 201.403 308.735 199.577 313.642 C 197.757 318.549 195.477 323.965 192.737 329.892 C 188.403 339.019 184.24 345.749 180.247 350.082 C 176.253 354.422 172.317 356.819 168.437 357.272 ZM 257.202 500.312 L 256.862 500.312 C 253.669 500.312 251.842 498.485 251.382 494.832 C 249.556 440.992 249.442 394.112 251.042 354.192 C 252.636 314.265 255.029 280.845 258.222 253.932 C 257.082 257.125 256.056 260.202 255.142 263.162 C 254.236 266.129 253.212 269.095 252.072 272.062 C 246.592 287.349 241.686 299.669 237.352 309.022 C 233.019 318.375 229.142 325.675 225.722 330.922 C 222.296 336.169 219.272 339.762 216.652 341.702 C 214.026 343.642 211.686 344.952 209.632 345.632 C 205.299 347.005 201.309 346.095 197.662 342.902 C 195.149 340.622 193.322 337.825 192.182 334.512 C 191.042 331.205 190.529 327.729 190.642 324.082 C 190.756 320.429 191.439 316.892 192.692 313.472 C 193.952 310.052 195.609 307.085 197.662 304.572 C 201.762 299.552 207.009 296.815 213.402 296.362 C 218.416 296.135 223.549 297.502 228.802 300.462 C 230.622 296.129 232.559 291.339 234.612 286.092 C 236.666 280.845 238.949 274.915 241.462 268.302 C 244.429 260.542 247.279 252.499 250.012 244.172 C 252.752 235.845 255.376 227.632 257.882 219.532 C 260.396 211.439 262.792 203.569 265.072 195.922 C 267.352 188.282 269.406 181.269 271.232 174.882 C 272.146 171.229 272.942 167.975 273.622 165.122 C 274.309 162.275 274.996 159.595 275.682 157.082 C 276.822 153.209 277.792 150.072 278.592 147.672 C 279.386 145.279 280.012 143.282 280.472 141.682 C 281.612 138.949 282.466 137.012 283.032 135.872 C 283.606 134.732 284.462 133.932 285.602 133.472 C 287.656 132.559 289.709 132.902 291.762 134.502 C 293.129 135.869 293.699 137.352 293.472 138.952 C 293.246 140.545 292.902 141.912 292.442 143.052 C 291.762 144.652 290.852 147.562 289.712 151.782 C 288.572 156.002 287.089 160.962 285.262 166.662 C 284.802 168.489 284.289 170.315 283.722 172.142 C 283.149 173.969 282.636 175.792 282.182 177.612 C 278.989 190.845 275.909 207.385 272.942 227.232 C 271.116 240.012 269.349 255.069 267.642 272.402 C 265.929 289.742 264.502 309.475 263.362 331.602 C 262.222 353.735 261.536 378.375 261.302 405.522 C 261.076 432.669 261.532 462.325 262.672 494.492 C 262.672 496.092 262.159 497.462 261.132 498.602 C 260.106 499.742 258.796 500.312 257.202 500.312 Z M 214.772 307.652 C 211.119 307.652 208.266 309.022 206.212 311.762 C 204.846 313.355 203.819 315.235 203.132 317.402 C 202.446 319.569 202.046 321.739 201.932 323.912 C 201.819 326.079 202.049 328.129 202.622 330.062 C 203.189 332.002 204.042 333.429 205.182 334.342 C 205.642 334.802 206.099 335.032 206.552 335.032 C 207.012 334.799 207.756 334.342 208.782 333.662 C 209.809 332.975 211.006 331.775 212.372 330.062 C 213.739 328.355 215.392 325.962 217.332 322.882 C 219.272 319.802 221.496 315.639 224.002 310.392 C 221.042 308.565 217.966 307.652 214.772 307.652 ZM 359.099 364.462 L 357.389 364.462 C 355.562 364.462 354.192 363.775 353.279 362.402 C 352.592 361.489 352.136 360.575 351.909 359.662 C 351.682 358.755 351.682 356.705 351.909 353.512 L 351.909 352.482 C 351.682 349.515 351.456 345.752 351.229 341.192 C 350.996 336.625 350.709 331.775 350.369 326.642 C 350.029 321.509 349.686 316.319 349.339 311.072 C 348.999 305.825 348.716 301.035 348.489 296.702 C 348.262 295.102 348.662 293.732 349.689 292.592 C 350.716 291.452 352.026 290.882 353.619 290.882 C 355.219 290.655 356.589 291.055 357.729 292.082 C 358.869 293.109 359.439 294.422 359.439 296.022 C 359.666 299.215 360.009 304.119 360.469 310.732 C 360.696 310.279 360.922 309.879 361.149 309.532 C 361.376 309.192 361.602 308.795 361.829 308.342 C 365.709 301.269 370.046 296.932 374.839 295.332 C 379.626 293.739 383.959 293.169 387.839 293.622 C 391.492 294.075 393.089 296.129 392.629 299.782 C 392.176 303.435 390.122 305.032 386.469 304.572 C 381.909 304.345 378.259 305.602 375.519 308.342 C 373.012 310.849 370.959 313.985 369.359 317.752 C 367.766 321.512 366.512 325.559 365.599 329.892 C 364.686 334.232 364.059 338.455 363.719 342.562 C 363.372 346.662 363.086 350.082 362.859 352.822 C 363.086 354.649 363.199 356.075 363.199 357.102 C 363.199 358.129 363.199 358.869 363.199 359.322 C 362.972 360.922 362.459 362.062 361.659 362.742 C 360.866 363.429 360.012 364.002 359.099 364.462 ZM 418.081 370.962 C 416.715 370.962 415.688 370.732 415.001 370.272 C 408.161 365.939 403.145 358.639 399.951 348.372 C 396.758 338.105 396.071 326.812 397.891 314.492 C 399.718 302.405 403.768 292.255 410.041 284.042 C 416.315 275.829 424.245 270.469 433.831 267.962 C 441.585 265.909 447.171 266.935 450.591 271.042 C 454.471 275.375 454.358 282.675 450.251 292.942 C 448.198 297.729 445.348 302.919 441.701 308.512 C 438.048 314.099 433.941 319.515 429.381 324.762 C 426.641 327.955 423.505 331.149 419.971 334.342 C 416.431 337.535 412.951 339.932 409.531 341.532 C 410.671 346.092 412.211 350.025 414.151 353.332 C 416.091 356.645 418.315 359.099 420.821 360.692 C 422.188 361.605 423.045 362.802 423.391 364.282 C 423.731 365.769 423.558 367.195 422.871 368.562 C 421.965 370.162 420.368 370.962 418.081 370.962 Z M 442.041 278.222 L 441.011 278.222 C 440.558 278.222 439.988 278.222 439.301 278.222 C 438.615 278.222 437.701 278.452 436.561 278.912 C 429.261 280.732 423.218 284.952 418.431 291.572 C 413.638 298.185 410.441 306.399 408.841 316.212 C 408.161 321.225 407.935 325.672 408.161 329.552 C 409.301 328.865 410.671 327.782 412.271 326.302 C 413.865 324.822 415.688 323.055 417.741 321.002 C 421.161 317.122 424.471 313.015 427.671 308.682 C 430.865 304.349 433.715 300.012 436.221 295.672 C 439.415 290.199 441.298 286.092 441.871 283.352 C 442.438 280.619 442.495 278.909 442.041 278.222 ZM 460.654 389.092 C 457.454 389.092 454.601 388.352 452.094 386.872 C 449.588 385.392 447.764 383.395 446.624 380.882 C 442.518 371.755 448.218 359.095 463.724 342.902 C 463.498 342.442 463.384 342.099 463.384 341.872 C 463.384 341.645 463.271 341.302 463.044 340.842 C 461.451 335.142 460.024 329.499 458.764 323.912 C 457.511 318.319 456.658 313.129 456.204 308.342 C 454.831 295.335 458.138 287.462 466.124 284.722 C 472.511 282.669 478.328 282.899 483.574 285.412 C 485.854 286.552 487.738 287.919 489.224 289.512 C 490.704 291.112 491.958 292.652 492.984 294.132 C 494.011 295.619 494.754 296.932 495.214 298.072 C 495.668 299.212 495.894 299.895 495.894 300.122 C 496.354 301.495 496.298 302.865 495.724 304.232 C 495.158 305.599 494.074 306.512 492.474 306.972 C 491.108 307.425 489.681 307.369 488.194 306.802 C 486.714 306.229 485.744 305.142 485.284 303.542 L 484.264 301.492 C 483.804 301.039 483.404 300.412 483.064 299.612 C 482.724 298.812 482.211 298.069 481.524 297.382 C 478.558 294.422 474.564 293.739 469.544 295.332 C 468.178 295.792 467.381 297.389 467.154 300.122 C 466.921 302.862 466.921 305.259 467.154 307.312 C 467.608 311.192 468.348 315.412 469.374 319.972 C 470.401 324.532 471.598 329.209 472.964 334.002 C 478.211 329.442 484.088 324.595 490.594 319.462 C 497.094 314.329 504.338 309.022 512.324 303.542 C 513.464 302.635 514.774 302.352 516.254 302.692 C 517.741 303.032 518.941 303.772 519.854 304.912 C 522.134 307.652 521.678 310.275 518.484 312.782 C 500.231 325.329 486.084 336.509 476.044 346.322 C 477.191 350.655 478.161 354.762 478.954 358.642 C 479.754 362.522 480.268 366.172 480.494 369.592 C 480.954 374.612 479.644 378.719 476.564 381.912 C 473.484 385.105 470.004 387.272 466.124 388.412 C 463.844 388.865 462.021 389.092 460.654 389.092 Z M 466.804 355.902 C 466.351 356.362 466.011 356.819 465.784 357.272 C 465.558 357.725 465.214 358.182 464.754 358.642 C 462.248 361.835 460.424 364.515 459.284 366.682 C 458.144 368.849 457.401 370.615 457.054 371.982 C 456.714 373.355 456.601 374.382 456.714 375.062 C 456.828 375.749 456.884 376.205 456.884 376.432 C 457.571 378.032 459.738 378.375 463.384 377.462 C 463.844 377.462 465.044 376.949 466.984 375.922 C 468.918 374.895 469.771 373.129 469.544 370.622 C 469.318 368.335 468.978 365.995 468.524 363.602 C 468.064 361.209 467.491 358.642 466.804 355.902 ZM 549.754 373.012 C 549.294 373.012 549.007 372.955 548.894 372.842 C 548.781 372.729 548.611 372.672 548.384 372.672 C 543.364 371.532 540.571 367.312 540.004 360.012 C 539.431 352.712 540.171 342.215 542.224 328.522 C 538.344 334.455 534.407 339.362 530.414 343.242 C 526.427 347.122 522.151 348.945 517.584 348.712 C 513.477 348.259 510.627 346.549 509.034 343.582 C 507.894 341.989 507.207 339.022 506.974 334.682 C 506.747 330.349 508.461 323.165 512.114 313.132 C 513.934 307.885 515.757 303.435 517.584 299.782 C 519.411 296.129 520.324 294.189 520.324 293.962 C 521.011 292.595 522.094 291.625 523.574 291.052 C 525.054 290.485 526.481 290.545 527.854 291.232 C 529.221 291.912 530.191 292.995 530.764 294.482 C 531.331 295.962 531.274 297.385 530.594 298.752 C 530.361 298.752 529.447 300.579 527.854 304.232 C 526.254 307.879 524.541 312.099 522.714 316.892 C 520.207 323.965 518.784 328.985 518.444 331.952 C 518.097 334.919 518.041 336.742 518.274 337.422 C 518.954 337.422 520.264 336.795 522.204 335.542 C 524.144 334.289 526.941 331.152 530.594 326.132 C 533.101 322.252 535.494 318.202 537.774 313.982 C 540.054 309.762 541.994 306.055 543.594 302.862 L 546.334 297.382 C 547.014 296.475 547.811 295.449 548.724 294.302 C 549.637 293.162 551.007 292.592 552.834 292.592 C 554.427 292.592 555.911 293.279 557.284 294.652 C 558.197 295.792 558.654 296.989 558.654 298.242 C 558.654 299.495 558.424 301.035 557.964 302.862 C 557.737 304.002 557.567 305.255 557.454 306.622 C 557.341 307.995 557.054 309.592 556.594 311.412 C 555.681 315.752 554.767 320.659 553.854 326.132 C 552.947 331.605 552.151 336.965 551.464 342.212 C 550.777 349.512 550.607 354.532 550.954 357.272 C 551.294 360.012 551.577 361.609 551.804 362.062 C 552.944 362.515 553.914 363.429 554.714 364.802 C 555.514 366.169 555.684 367.422 555.224 368.562 C 554.544 371.529 552.721 373.012 549.754 373.012 ZM 565.969 382.592 L 565.279 382.592 C 564.139 382.365 562.943 381.795 561.689 380.882 C 560.436 379.969 559.579 378.029 559.119 375.062 C 558.439 371.642 558.383 366.682 558.949 360.182 C 559.523 353.682 560.323 346.609 561.349 338.962 C 562.376 331.322 563.686 323.395 565.279 315.182 C 566.879 306.969 568.363 299.325 569.729 292.252 C 571.096 285.179 572.353 279.132 573.499 274.112 C 574.639 269.099 575.323 265.792 575.549 264.192 C 576.003 262.599 576.859 261.402 578.119 260.602 C 579.373 259.802 580.796 259.629 582.389 260.082 C 585.816 260.769 587.186 262.939 586.499 266.592 C 585.359 271.379 584.046 277.422 582.559 284.722 C 581.079 292.022 579.539 299.835 577.939 308.162 C 576.346 316.489 574.866 324.875 573.499 333.322 C 572.126 341.762 571.099 349.289 570.419 355.902 C 571.099 354.075 571.839 352.252 572.639 350.432 C 573.439 348.605 574.066 346.779 574.519 344.952 C 576.799 339.019 579.139 332.972 581.539 326.812 C 583.933 320.652 586.383 315.065 588.889 310.052 C 591.403 304.572 594.199 299.835 597.279 295.842 C 600.359 291.855 603.953 290.432 608.059 291.572 C 610.339 292.025 612.449 293.392 614.389 295.672 C 616.329 297.959 617.069 301.952 616.609 307.652 C 616.383 310.619 615.926 313.755 615.239 317.062 C 614.559 320.369 613.876 323.735 613.189 327.162 C 612.503 329.669 611.819 332.349 611.139 335.202 C 610.453 338.055 610.109 340.392 610.109 342.212 C 610.569 341.985 611.939 340.959 614.219 339.132 C 617.413 336.399 620.606 333.205 623.799 329.552 C 627.446 325.672 630.639 322.479 633.379 319.972 C 634.519 318.832 636.229 317.635 638.509 316.382 C 640.796 315.122 643.306 315.065 646.039 316.212 C 649.233 317.805 651.003 320.769 651.349 325.102 C 651.689 329.435 651.633 334.569 651.179 340.502 C 650.946 343.695 650.773 347.402 650.659 351.622 C 650.546 355.842 651.059 358.639 652.199 360.012 C 653.113 361.379 653.399 362.802 653.059 364.282 C 652.713 365.769 651.969 366.969 650.829 367.882 C 649.463 368.795 648.039 369.079 646.559 368.732 C 645.073 368.392 643.873 367.652 642.959 366.512 C 640.906 363.545 639.823 359.725 639.709 355.052 C 639.596 350.372 639.769 345.409 640.229 340.162 C 640.229 338.335 640.286 336.395 640.399 334.342 C 640.513 332.289 640.569 330.349 640.569 328.522 C 637.603 331.262 634.749 334.115 632.009 337.082 C 627.903 341.642 623.853 345.692 619.859 349.232 C 615.873 352.765 612.053 354.532 608.399 354.532 C 607.033 354.532 605.663 354.192 604.289 353.512 C 602.696 352.825 601.556 351.855 600.869 350.602 C 600.189 349.342 599.676 348.029 599.329 346.662 C 598.989 345.295 598.876 343.985 598.989 342.732 C 599.103 341.472 599.159 340.502 599.159 339.822 C 599.386 337.542 599.786 335.145 600.359 332.632 C 600.926 330.125 601.553 327.389 602.239 324.422 C 602.699 321.909 603.213 319.342 603.779 316.722 C 604.353 314.095 604.866 311.642 605.319 309.362 C 605.546 306.395 605.546 304.455 605.319 303.542 C 604.633 304.455 603.606 305.995 602.239 308.162 C 600.873 310.329 599.276 313.582 597.449 317.922 C 595.396 322.482 593.286 327.499 591.119 332.972 C 588.953 338.452 586.956 343.815 585.129 349.062 C 583.536 353.169 581.996 357.045 580.509 360.692 C 579.029 364.345 577.719 367.655 576.579 370.622 C 574.979 374.042 573.439 376.892 571.959 379.172 C 570.473 381.452 568.476 382.592 565.969 382.592 ZM 681.757 370.962 C 680.391 370.962 679.364 370.732 678.677 370.272 C 671.837 365.939 666.821 358.639 663.627 348.372 C 660.434 338.105 659.747 326.812 661.567 314.492 C 663.394 302.405 667.444 292.255 673.717 284.042 C 679.991 275.829 687.921 270.469 697.507 267.962 C 705.261 265.909 710.847 266.935 714.267 271.042 C 718.147 275.375 718.034 282.675 713.927 292.942 C 711.874 297.729 709.024 302.919 705.377 308.512 C 701.724 314.099 697.617 319.515 693.057 324.762 C 690.317 327.955 687.181 331.149 683.647 334.342 C 680.107 337.535 676.627 339.932 673.207 341.532 C 674.347 346.092 675.887 350.025 677.827 353.332 C 679.767 356.645 681.991 359.099 684.497 360.692 C 685.864 361.605 686.721 362.802 687.067 364.282 C 687.407 365.769 687.234 367.195 686.547 368.562 C 685.641 370.162 684.044 370.962 681.757 370.962 Z M 705.717 278.222 L 704.687 278.222 C 704.234 278.222 703.664 278.222 702.977 278.222 C 702.291 278.222 701.377 278.452 700.237 278.912 C 692.937 280.732 686.894 284.952 682.107 291.572 C 677.314 298.185 674.117 306.399 672.517 316.212 C 671.837 321.225 671.611 325.672 671.837 329.552 C 672.977 328.865 674.347 327.782 675.947 326.302 C 677.541 324.822 679.364 323.055 681.417 321.002 C 684.837 317.122 688.147 313.015 691.347 308.682 C 694.541 304.349 697.391 300.012 699.897 295.672 C 703.091 290.199 704.974 286.092 705.547 283.352 C 706.114 280.619 706.171 278.909 705.717 278.222 Z" transform="matrix(1, 0, 0, 1, 1.1368683094535245e-13, 0)" style="fill: rgb(169, 169, 169); white-space: pre;"/>
</svg>