<?xml version="1.0" encoding="utf-8"?>
<svg viewBox="263.5159912109375 207.39100646972656 600 600" width="600" height="600" xmlns="http://www.w3.org/2000/svg">
  <g transform="matrix(5, 0, 0, 5.000150203704834, -535.3499755859376, -602.034912109375)">
    <g>
      <g>
        <path d="M 186.156 221.879 L 207.585 243.308 L 221.87 229.022 L 229.014 236.164 L 214.728 250.45 L 229.014 264.735 L 221.87 271.877 L 207.585 257.593 L 207.585 257.593 L 200.441 250.45 L 200.443 250.45 L 171.87 221.879 L 221.87 171.88 L 229.014 179.022 L 186.156 221.879 Z M 257.585 236.164 L 236.156 257.591 L 229.014 250.45 L 243.299 236.164 L 221.87 214.737 L 207.453 229.152 L 200.311 222.01 L 214.728 207.593 L 214.727 207.593 L 236.156 186.164 L 243.299 193.307 L 264.727 214.737 L 271.87 221.879 L 264.727 229.022 L 264.727 229.022 L 257.585 236.164 Z M 250.441 229.022 L 257.585 221.879 L 236.156 200.451 L 229.014 207.593 L 250.441 229.022 Z" id="" style="fill: rgb(222, 239, 245);"/>
      </g>
    </g>
  </g>
  <g id="svg-1" transform="matrix(0.7618929743766785, 0, 0, 0.7619158625602722, 182.5695037841797, 126.43302154541016)">
    <g id="svg-1">
      <g id="svg-1">
        <path d="M265.62 500L406.25 640.63L500 546.88L546.88 593.75L453.13 687.5L546.88 781.25L500 828.12L406.25 734.38L406.25 734.38L359.37 687.5L359.38 687.5L171.87 500L500 171.88L546.88 218.75L265.62 500ZM734.38 593.75L593.75 734.37L546.88 687.5L640.63 593.75L500 453.13L405.39 547.73L358.52 500.86L453.13 406.25L453.12 406.25L593.75 265.62L640.63 312.5L781.25 453.13L828.13 500L781.25 546.88L781.25 546.88L734.38 593.75ZM687.5 546.88L734.38 500L593.75 359.38L546.88 406.25L687.5 546.88Z" id="svg-1" transform="matrix(1, 0, 0, 1, 0, 0)" style="fill: rgb(197, 227, 237);"/>
      </g>
    </g>
  </g>
  <g id="g-1" transform="matrix(0.7618929743766785, 0, 0, 0.7619158625602722, 172.053466796875, 126.43299865722656)">
    <g id="g-1">
      <g id="g-1">
        <path d="M265.62 500L406.25 640.63L500 546.88L546.88 593.75L453.13 687.5L546.88 781.25L500 828.12L406.25 734.38L406.25 734.38L359.37 687.5L359.38 687.5L171.87 500L500 171.88L546.88 218.75L265.62 500ZM734.38 593.75L593.75 734.37L546.88 687.5L640.63 593.75L500 453.13L405.39 547.73L358.52 500.86L453.13 406.25L453.12 406.25L593.75 265.62L640.63 312.5L781.25 453.13L828.13 500L781.25 546.88L781.25 546.88L734.38 593.75ZM687.5 546.88L734.38 500L593.75 359.38L546.88 406.25L687.5 546.88Z" id="g-1" transform="matrix(1, 0, 0, 1, 0, 0)" style="fill: rgb(173, 216, 230);"/>
      </g>
    </g>
  </g>
</svg>