<?xml version="1.0" encoding="UTF-8" standalone="no"?>
<!DOCTYPE svg PUBLIC "-//W3C//DTD SVG 1.1//EN" "http://www.w3.org/Graphics/SVG/1.1/DTD/svg11.dtd">
<svg version="1.1" xmlns="http://www.w3.org/2000/svg" xmlns:xlink="http://www.w3.org/1999/xlink" preserveAspectRatio="xMidYMid meet" viewBox="0 0 640 640" width="640" height="640"><defs><path d="M192.72 320L263.43 390.71L320 334.14L362.42 376.57L305.85 433.14L362.42 489.71L319.99 532.13L150.29 362.42L107.87 319.99L320.01 107.87L362.43 150.3L192.72 320ZM390.71 376.57L320 305.86L263.43 362.42L221.01 320L291.72 249.29L320 221.01L334.15 206.86L334.15 206.86L376.57 164.44L376.57 164.44L419 206.86L419 206.87L532.13 320.01L518 334.14L489.71 362.42L489.7 362.43L433.13 419L376.56 475.57L334.14 433.14L390.71 376.57ZM433.14 334.15L447.28 320L376.57 249.29L362.43 263.43L433.14 334.15Z" id="g3V3h6Fz3L"></path><path d="M328.42 581.74L328.45 581.77L320.22 590L320.19 589.97L320.16 590L311.92 581.76L311.95 581.73L255.4 525.18L263.63 516.95L320.18 573.5L376.75 516.94L384.99 525.17L328.42 581.74Z" id="b1WYqOmLX0"></path><path d="M328.23 58.26L384.79 114.83L376.56 123.06L319.99 66.5L263.44 123.05L255.21 114.82L311.76 58.27L311.73 58.24L319.97 50L320 50.03L320.02 50L328.25 58.23L328.23 58.26Z" id="b47wGpVV2o"></path><path d="M581.76 311.73L590 319.97L589.97 320L590 320.02L581.77 328.25L581.74 328.23L525.17 384.79L516.94 376.56L573.5 319.99L516.95 263.44L525.18 255.21L581.73 311.76L581.76 311.73Z" id="d3xlg4Mw9"></path><path d="M66.5 319.99L123.06 376.56L114.83 384.79L58.26 328.23L58.23 328.25L50 320.02L50.03 320L50 319.97L58.24 311.73L58.27 311.76L114.82 255.21L123.05 263.44L66.5 319.99Z" id="e3LPrH8tD6"></path><path d="M475 165.02L475 171.37L474.98 171.37L474.98 215L468.62 215L468.62 171.37L425 171.37L425 165.02L468.62 165.02L468.62 165L474.98 165L474.98 165.02L475 165.02Z" id="a1HOkpbSOp"></path><path d="M215 165.02L215 171.37L171.38 171.37L171.38 215L165.02 215L165.02 171.37L165 171.37L165 165.02L165.02 165.02L165.02 165L171.38 165L171.38 165.02L215 165.02Z" id="anHQm6Dgu"></path><path d="M475 468.63L475 474.98L474.98 474.98L474.98 475L468.62 475L468.62 474.98L425 474.98L425 468.63L468.62 468.63L468.62 425L474.98 425L474.98 468.63L475 468.63Z" id="a3bPkCABRZ"></path><path d="M215 468.63L215 474.98L171.38 474.98L171.38 475L165.02 475L165.02 474.98L165 474.98L165 468.63L165.02 468.63L165.02 425L171.38 425L171.38 468.63L215 468.63Z" id="b1Ifrji2q0"></path></defs><g><g><g><g><filter id="shadow6634570" x="80.87" y="80.87" width="478.26" height="478.26" filterUnits="userSpaceOnUse" primitiveUnits="userSpaceOnUse"><feFlood></feFlood><feComposite in2="SourceAlpha" operator="in"></feComposite><feGaussianBlur stdDeviation="3.16"></feGaussianBlur><feOffset dx="0" dy="0" result="afterOffset"></feOffset><feFlood flood-color="#a9a9a9" flood-opacity="0.5"></feFlood><feComposite in2="afterOffset" operator="in"></feComposite><feMorphology operator="dilate" radius="2"></feMorphology><feComposite in2="SourceAlpha" operator="out"></feComposite></filter><path d="M192.72 320L263.43 390.71L320 334.14L362.42 376.57L305.85 433.14L362.42 489.71L319.99 532.13L150.29 362.42L107.87 319.99L320.01 107.87L362.43 150.3L192.72 320ZM390.71 376.57L320 305.86L263.43 362.42L221.01 320L291.72 249.29L320 221.01L334.15 206.86L334.15 206.86L376.57 164.44L376.57 164.44L419 206.86L419 206.87L532.13 320.01L518 334.14L489.71 362.42L489.7 362.43L433.13 419L376.56 475.57L334.14 433.14L390.71 376.57ZM433.14 334.15L447.28 320L376.57 249.29L362.43 263.43L433.14 334.15Z" id="d7kWecH18g" fill="white" fill-opacity="1" filter="url(#shadow6634570)"></path></g><use xlink:href="#g3V3h6Fz3L" opacity="1" fill="#a9a9a9" fill-opacity="1"></use><g><use xlink:href="#g3V3h6Fz3L" opacity="1" fill-opacity="0" stroke="#add8e6" stroke-width="5" stroke-opacity="1"></use></g></g><g><g><filter id="shadow15036192" x="228.4" y="489.94" width="183.59" height="127.06" filterUnits="userSpaceOnUse" primitiveUnits="userSpaceOnUse"><feFlood></feFlood><feComposite in2="SourceAlpha" operator="in"></feComposite><feGaussianBlur stdDeviation="3.16"></feGaussianBlur><feOffset dx="0" dy="0" result="afterOffset"></feOffset><feFlood flood-color="#a9a9a9" flood-opacity="0.5"></feFlood><feComposite in2="afterOffset" operator="in"></feComposite><feMorphology operator="dilate" radius="2"></feMorphology><feComposite in2="SourceAlpha" operator="out"></feComposite></filter><path d="M328.42 581.74L328.45 581.77L320.22 590L320.19 589.97L320.16 590L311.92 581.76L311.95 581.73L255.4 525.18L263.63 516.95L320.18 573.5L376.75 516.94L384.99 525.17L328.42 581.74Z" id="a1pMl2YSmV" fill="white" fill-opacity="1" filter="url(#shadow15036192)"></path></g><use xlink:href="#b1WYqOmLX0" opacity="1" fill="#add8e6" fill-opacity="1"></use></g><g><g><filter id="shadow15595985" x="228.21" y="23" width="183.59" height="127.06" filterUnits="userSpaceOnUse" primitiveUnits="userSpaceOnUse"><feFlood></feFlood><feComposite in2="SourceAlpha" operator="in"></feComposite><feGaussianBlur stdDeviation="3.16"></feGaussianBlur><feOffset dx="0" dy="0" result="afterOffset"></feOffset><feFlood flood-color="#a9a9a9" flood-opacity="0.5"></feFlood><feComposite in2="afterOffset" operator="in"></feComposite><feMorphology operator="dilate" radius="2"></feMorphology><feComposite in2="SourceAlpha" operator="out"></feComposite></filter><path d="M328.23 58.26L384.79 114.83L376.56 123.06L319.99 66.5L263.44 123.05L255.21 114.82L311.76 58.27L311.73 58.24L319.97 50L320 50.03L320.02 50L328.25 58.23L328.23 58.26Z" id="e7dtsgs4f" fill="white" fill-opacity="1" filter="url(#shadow15595985)"></path></g><use xlink:href="#b47wGpVV2o" opacity="1" fill="#add8e6" fill-opacity="1"></use></g><g><g><filter id="shadow4341758" x="489.94" y="228.21" width="127.06" height="183.59" filterUnits="userSpaceOnUse" primitiveUnits="userSpaceOnUse"><feFlood></feFlood><feComposite in2="SourceAlpha" operator="in"></feComposite><feGaussianBlur stdDeviation="3.16"></feGaussianBlur><feOffset dx="0" dy="0" result="afterOffset"></feOffset><feFlood flood-color="#a9a9a9" flood-opacity="0.5"></feFlood><feComposite in2="afterOffset" operator="in"></feComposite><feMorphology operator="dilate" radius="2"></feMorphology><feComposite in2="SourceAlpha" operator="out"></feComposite></filter><path d="M581.76 311.73L590 319.97L589.97 320L590 320.02L581.77 328.25L581.74 328.23L525.17 384.79L516.94 376.56L573.5 319.99L516.95 263.44L525.18 255.21L581.73 311.76L581.76 311.73Z" id="aFznUOFLd" fill="white" fill-opacity="1" filter="url(#shadow4341758)"></path></g><use xlink:href="#d3xlg4Mw9" opacity="1" fill="#add8e6" fill-opacity="1"></use></g><g><g><filter id="shadow9372579" x="23" y="228.21" width="127.06" height="183.59" filterUnits="userSpaceOnUse" primitiveUnits="userSpaceOnUse"><feFlood></feFlood><feComposite in2="SourceAlpha" operator="in"></feComposite><feGaussianBlur stdDeviation="3.16"></feGaussianBlur><feOffset dx="0" dy="0" result="afterOffset"></feOffset><feFlood flood-color="#a9a9a9" flood-opacity="0.5"></feFlood><feComposite in2="afterOffset" operator="in"></feComposite><feMorphology operator="dilate" radius="2"></feMorphology><feComposite in2="SourceAlpha" operator="out"></feComposite></filter><path d="M66.5 319.99L123.06 376.56L114.83 384.79L58.26 328.23L58.23 328.25L50 320.02L50.03 320L50 319.97L58.24 311.73L58.27 311.76L114.82 255.21L123.05 263.44L66.5 319.99Z" id="aEM2TIsqW" fill="white" fill-opacity="1" filter="url(#shadow9372579)"></path></g><use xlink:href="#e3LPrH8tD6" opacity="1" fill="#add8e6" fill-opacity="1"></use></g><g><g><filter id="shadow11172019" x="398" y="138" width="104" height="104" filterUnits="userSpaceOnUse" primitiveUnits="userSpaceOnUse"><feFlood></feFlood><feComposite in2="SourceAlpha" operator="in"></feComposite><feGaussianBlur stdDeviation="3.16"></feGaussianBlur><feOffset dx="0" dy="0" result="afterOffset"></feOffset><feFlood flood-color="#a9a9a9" flood-opacity="0.5"></feFlood><feComposite in2="afterOffset" operator="in"></feComposite><feMorphology operator="dilate" radius="2"></feMorphology><feComposite in2="SourceAlpha" operator="out"></feComposite></filter><path d="M475 165.02L475 171.37L474.98 171.37L474.98 215L468.62 215L468.62 171.37L425 171.37L425 165.02L468.62 165.02L468.62 165L474.98 165L474.98 165.02L475 165.02Z" id="a2gCPOmv19" fill="white" fill-opacity="1" filter="url(#shadow11172019)"></path></g><use xlink:href="#a1HOkpbSOp" opacity="1" fill="#a9a9a9" fill-opacity="1"></use></g><g><g><filter id="shadow1258101" x="138" y="138" width="104" height="104" filterUnits="userSpaceOnUse" primitiveUnits="userSpaceOnUse"><feFlood></feFlood><feComposite in2="SourceAlpha" operator="in"></feComposite><feGaussianBlur stdDeviation="3.16"></feGaussianBlur><feOffset dx="0" dy="0" result="afterOffset"></feOffset><feFlood flood-color="#a9a9a9" flood-opacity="0.5"></feFlood><feComposite in2="afterOffset" operator="in"></feComposite><feMorphology operator="dilate" radius="2"></feMorphology><feComposite in2="SourceAlpha" operator="out"></feComposite></filter><path d="M215 165.02L215 171.37L171.38 171.37L171.38 215L165.02 215L165.02 171.37L165 171.37L165 165.02L165.02 165.02L165.02 165L171.38 165L171.38 165.02L215 165.02Z" id="eUdOcTfr5" fill="white" fill-opacity="1" filter="url(#shadow1258101)"></path></g><use xlink:href="#anHQm6Dgu" opacity="1" fill="#a9a9a9" fill-opacity="1"></use></g><g><g><filter id="shadow2236912" x="398" y="398" width="104" height="104" filterUnits="userSpaceOnUse" primitiveUnits="userSpaceOnUse"><feFlood></feFlood><feComposite in2="SourceAlpha" operator="in"></feComposite><feGaussianBlur stdDeviation="3.16"></feGaussianBlur><feOffset dx="0" dy="0" result="afterOffset"></feOffset><feFlood flood-color="#a9a9a9" flood-opacity="0.5"></feFlood><feComposite in2="afterOffset" operator="in"></feComposite><feMorphology operator="dilate" radius="2"></feMorphology><feComposite in2="SourceAlpha" operator="out"></feComposite></filter><path d="M475 468.63L475 474.98L474.98 474.98L474.98 475L468.62 475L468.62 474.98L425 474.98L425 468.63L468.62 468.63L468.62 425L474.98 425L474.98 468.63L475 468.63Z" id="a1aj0sInrq" fill="white" fill-opacity="1" filter="url(#shadow2236912)"></path></g><use xlink:href="#a3bPkCABRZ" opacity="1" fill="#a9a9a9" fill-opacity="1"></use></g><g><g><filter id="shadow5807457" x="138" y="398" width="104" height="104" filterUnits="userSpaceOnUse" primitiveUnits="userSpaceOnUse"><feFlood></feFlood><feComposite in2="SourceAlpha" operator="in"></feComposite><feGaussianBlur stdDeviation="3.16"></feGaussianBlur><feOffset dx="0" dy="0" result="afterOffset"></feOffset><feFlood flood-color="#a9a9a9" flood-opacity="0.5"></feFlood><feComposite in2="afterOffset" operator="in"></feComposite><feMorphology operator="dilate" radius="2"></feMorphology><feComposite in2="SourceAlpha" operator="out"></feComposite></filter><path d="M215 468.63L215 474.98L171.38 474.98L171.38 475L165.02 475L165.02 474.98L165 474.98L165 468.63L165.02 468.63L165.02 425L171.38 425L171.38 468.63L215 468.63Z" id="g3z0LT2aVO" fill="white" fill-opacity="1" filter="url(#shadow5807457)"></path></g><use xlink:href="#b1Ifrji2q0" opacity="1" fill="#a9a9a9" fill-opacity="1"></use></g></g></g></svg>