<?xml version="1.0" encoding="utf-8"?>
<svg viewBox="-100 200 700 300" width="700" height="300" xmlns="http://www.w3.org/2000/svg">
  <path d="M 73.705 357.957 C 73.705 356.307 72.805 354.957 71.005 354.207 C 69.955 353.757 69.055 353.607 68.305 353.457 C 66.805 353.307 66.055 353.907 66.055 355.257 L 66.505 358.407 C 67.105 360.657 68.305 362.007 69.955 362.457 C 72.505 363.207 73.855 362.157 73.855 359.457 C 73.855 359.457 73.705 359.307 73.705 359.157 L 73.705 357.957 ZM 91.655 357.957 C 91.655 356.307 90.755 354.957 88.955 354.207 C 87.905 353.757 87.005 353.607 86.255 353.457 C 84.755 353.307 84.005 353.907 84.005 355.257 L 84.455 358.407 C 85.055 360.657 86.255 362.007 87.905 362.457 C 90.455 363.207 91.805 362.157 91.805 359.457 C 91.805 359.457 91.655 359.307 91.655 359.157 L 91.655 357.957 ZM 109.605 357.957 C 109.605 356.307 108.705 354.957 106.905 354.207 C 105.855 353.757 104.955 353.607 104.205 353.457 C 102.705 353.307 101.955 353.907 101.955 355.257 L 102.405 358.407 C 103.005 360.657 104.205 362.007 105.855 362.457 C 108.405 363.207 109.755 362.157 109.755 359.457 C 109.755 359.457 109.605 359.307 109.605 359.157 L 109.605 357.957 Z" transform="matrix(1, 0, 0, 1, 0, 0)" style="fill: rgb(255, 192, 203); white-space: pre;"/>
  <path d="M 145.955 372.207 C 144.955 372.207 144.205 371.657 143.705 370.557 C 143.505 370.157 143.332 369.607 143.185 368.907 C 143.032 368.207 142.955 367.207 142.955 365.907 C 142.955 364.607 143.078 363.007 143.325 361.107 C 143.578 359.207 143.955 356.807 144.455 353.907 C 144.955 350.907 145.478 348.257 146.025 345.957 C 146.578 343.657 146.905 342.457 147.005 342.357 C 147.205 341.657 147.578 341.134 148.125 340.787 C 148.678 340.434 149.305 340.357 150.005 340.557 C 150.605 340.757 151.078 341.13 151.425 341.677 C 151.778 342.23 151.855 342.857 151.655 343.557 C 151.455 344.657 151.205 345.807 150.905 347.007 C 150.705 348.107 150.432 349.334 150.085 350.687 C 149.732 352.034 149.455 353.407 149.255 354.807 C 148.755 357.407 148.405 359.584 148.205 361.337 C 148.005 363.084 147.905 364.48 147.905 365.527 C 147.905 366.58 147.955 367.357 148.055 367.857 C 148.155 368.357 148.205 368.657 148.205 368.757 C 148.905 370.357 148.455 371.407 146.855 371.907 C 146.455 372.107 146.155 372.207 145.955 372.207 Z M 149.255 336.807 C 148.555 336.807 147.978 336.557 147.525 336.057 C 147.078 335.557 146.855 334.957 146.855 334.257 C 146.855 333.657 147.078 333.134 147.525 332.687 C 147.978 332.234 148.505 331.957 149.105 331.857 C 149.105 331.757 149.132 331.684 149.185 331.637 C 149.232 331.584 149.255 331.457 149.255 331.257 C 149.455 330.557 149.828 330.007 150.375 329.607 C 150.928 329.207 151.555 329.107 152.255 329.307 C 152.955 329.507 153.482 329.884 153.835 330.437 C 154.182 330.984 154.255 331.607 154.055 332.307 C 153.555 334.307 152.778 335.557 151.725 336.057 C 150.678 336.557 149.855 336.807 149.255 336.807 ZM 180.705 389.307 L 180.405 389.307 C 178.105 389.007 176.382 387.807 175.235 385.707 C 174.082 383.607 173.305 380.98 172.905 377.827 C 172.505 374.68 172.355 371.207 172.455 367.407 C 172.555 363.607 172.705 359.807 172.905 356.007 C 173.105 354.007 173.255 351.957 173.355 349.857 C 173.455 347.757 173.455 346.007 173.355 344.607 C 173.155 345.007 172.905 345.434 172.605 345.887 C 172.305 346.334 171.955 346.957 171.555 347.757 C 170.855 349.157 170.155 350.68 169.455 352.327 C 168.755 353.98 168.055 355.657 167.355 357.357 C 165.255 362.357 163.655 365.83 162.555 367.777 C 161.455 369.73 160.205 370.707 158.805 370.707 C 157.705 370.707 156.955 370.357 156.555 369.657 C 156.055 369.157 155.728 368.334 155.575 367.187 C 155.428 366.034 155.555 364.007 155.955 361.107 C 156.155 359.507 156.432 357.684 156.785 355.637 C 157.132 353.584 157.555 351.257 158.055 348.657 C 158.455 346.557 158.878 344.48 159.325 342.427 C 159.778 340.38 160.178 338.557 160.525 336.957 C 160.878 335.357 161.155 334.057 161.355 333.057 C 161.555 332.057 161.655 331.557 161.655 331.557 C 161.855 330.857 162.228 330.33 162.775 329.977 C 163.328 329.63 163.955 329.557 164.655 329.757 C 165.255 329.957 165.755 330.334 166.155 330.887 C 166.555 331.434 166.655 332.057 166.455 332.757 C 166.155 334.157 165.805 335.757 165.405 337.557 C 165.105 339.057 164.728 340.78 164.275 342.727 C 163.828 344.68 163.405 346.657 163.005 348.657 C 162.505 351.057 162.105 353.134 161.805 354.887 C 161.505 356.634 161.255 358.207 161.055 359.607 C 161.355 358.907 161.655 358.207 161.955 357.507 C 162.255 356.807 162.555 356.157 162.855 355.557 C 163.655 353.557 164.478 351.557 165.325 349.557 C 166.178 347.557 167.055 345.757 167.955 344.157 C 168.255 343.557 168.628 342.884 169.075 342.137 C 169.528 341.384 170.055 340.657 170.655 339.957 C 171.255 339.257 171.928 338.734 172.675 338.387 C 173.428 338.034 174.255 337.957 175.155 338.157 C 176.555 338.557 177.405 339.48 177.705 340.927 C 178.005 342.38 178.155 343.857 178.155 345.357 C 178.255 346.757 178.255 348.407 178.155 350.307 C 178.055 352.207 177.955 354.207 177.855 356.307 C 177.655 359.507 177.505 362.83 177.405 366.277 C 177.305 369.73 177.405 372.907 177.705 375.807 C 178.205 381.307 179.305 384.157 181.005 384.357 C 181.705 384.457 182.282 384.757 182.735 385.257 C 183.182 385.757 183.355 386.357 183.255 387.057 C 183.055 388.557 182.205 389.307 180.705 389.307 ZM 224.905 402.357 C 223.805 402.357 223.005 401.807 222.505 400.707 C 222.305 400.307 222.055 399.434 221.755 398.087 C 221.455 396.734 221.155 394.107 220.855 390.207 C 220.555 386.307 220.355 380.68 220.255 373.327 C 220.155 365.98 220.255 356.057 220.555 343.557 C 220.655 337.457 220.805 331.534 221.005 325.787 C 221.205 320.034 221.405 314.907 221.605 310.407 C 221.805 305.907 221.955 302.284 222.055 299.537 C 222.155 296.784 222.205 295.407 222.205 295.407 C 222.405 293.607 223.355 292.707 225.055 292.707 C 225.855 292.807 226.505 293.107 227.005 293.607 C 227.505 294.107 227.755 294.757 227.755 295.557 C 227.755 295.657 227.682 297.057 227.535 299.757 C 227.382 302.457 227.228 306.057 227.075 310.557 C 226.928 315.057 226.755 320.184 226.555 325.937 C 226.355 331.684 226.205 337.607 226.105 343.707 C 225.805 354.707 225.682 363.684 225.735 370.637 C 225.782 377.584 225.905 383.034 226.105 386.987 C 226.305 390.934 226.532 393.73 226.785 395.377 C 227.032 397.03 227.255 398.057 227.455 398.457 C 227.755 399.257 227.782 400.007 227.535 400.707 C 227.282 401.407 226.805 401.907 226.105 402.207 C 225.805 402.307 225.405 402.357 224.905 402.357 Z M 226.105 350.007 C 221.405 350.007 217.155 348.007 213.355 344.007 C 212.855 343.507 212.632 342.857 212.685 342.057 C 212.732 341.257 213.005 340.607 213.505 340.107 C 214.005 339.607 214.655 339.357 215.455 339.357 C 216.255 339.357 216.905 339.657 217.405 340.257 C 221.105 344.257 225.155 345.457 229.555 343.857 C 231.155 343.257 232.805 342.157 234.505 340.557 C 236.205 338.957 237.778 336.807 239.225 334.107 C 240.678 331.407 241.882 328.107 242.835 324.207 C 243.782 320.307 244.405 315.757 244.705 310.557 C 244.905 307.357 244.782 304.757 244.335 302.757 C 243.882 300.757 243.105 299.507 242.005 299.007 C 241.805 298.907 241.405 298.857 240.805 298.857 C 240.205 298.857 239.382 299.034 238.335 299.387 C 237.282 299.734 235.955 300.384 234.355 301.337 C 232.755 302.284 230.805 303.657 228.505 305.457 C 227.105 306.557 225.855 307.657 224.755 308.757 C 223.655 309.857 222.655 310.857 221.755 311.757 C 220.655 312.857 219.705 313.857 218.905 314.757 C 218.405 315.357 217.778 315.68 217.025 315.727 C 216.278 315.78 215.605 315.557 215.005 315.057 C 214.505 314.557 214.232 313.907 214.185 313.107 C 214.132 312.307 214.355 311.657 214.855 311.157 C 214.855 311.057 215.132 310.707 215.685 310.107 C 216.232 309.507 216.978 308.757 217.925 307.857 C 218.878 306.957 219.955 305.934 221.155 304.787 C 222.355 303.634 223.655 302.457 225.055 301.257 C 233.255 294.557 239.605 292.107 244.105 293.907 C 246.505 294.907 248.205 296.907 249.205 299.907 C 250.105 302.507 250.455 306.157 250.255 310.857 C 249.655 321.257 247.605 329.857 244.105 336.657 C 240.805 343.057 236.605 347.157 231.505 348.957 C 229.805 349.657 228.005 350.007 226.105 350.007 ZM 259.505 368.457 L 258.755 368.457 C 257.955 368.457 257.355 368.157 256.955 367.557 C 256.655 367.157 256.455 366.757 256.355 366.357 C 256.255 365.957 256.255 365.057 256.355 363.657 L 256.355 363.207 C 256.255 361.907 256.155 360.257 256.055 358.257 C 255.955 356.257 255.832 354.134 255.685 351.887 C 255.532 349.634 255.378 347.357 255.225 345.057 C 255.078 342.757 254.955 340.657 254.855 338.757 C 254.755 338.057 254.932 337.457 255.385 336.957 C 255.832 336.457 256.405 336.207 257.105 336.207 C 257.805 336.107 258.405 336.28 258.905 336.727 C 259.405 337.18 259.655 337.757 259.655 338.457 C 259.755 339.857 259.905 342.007 260.105 344.907 C 260.205 344.707 260.305 344.534 260.405 344.387 C 260.505 344.234 260.605 344.057 260.705 343.857 C 262.405 340.757 264.305 338.857 266.405 338.157 C 268.505 337.457 270.405 337.207 272.105 337.407 C 273.705 337.607 274.405 338.507 274.205 340.107 C 274.005 341.707 273.105 342.407 271.505 342.207 C 269.505 342.107 267.905 342.657 266.705 343.857 C 265.605 344.957 264.705 346.33 264.005 347.977 C 263.305 349.63 262.755 351.407 262.355 353.307 C 261.955 355.207 261.678 357.057 261.525 358.857 C 261.378 360.657 261.255 362.157 261.155 363.357 C 261.255 364.157 261.305 364.784 261.305 365.237 C 261.305 365.684 261.305 366.007 261.305 366.207 C 261.205 366.907 260.982 367.407 260.635 367.707 C 260.282 368.007 259.905 368.257 259.505 368.457 ZM 284.205 359.757 C 283.805 359.757 283.205 359.657 282.405 359.457 C 281.005 359.157 279.932 358.634 279.185 357.887 C 278.432 357.134 277.955 356.357 277.755 355.557 C 277.355 354.557 277.205 353.457 277.305 352.257 C 277.405 351.057 277.632 349.857 277.985 348.657 C 278.332 347.457 278.805 346.284 279.405 345.137 C 280.005 343.984 280.555 342.957 281.055 342.057 C 281.155 341.857 281.255 341.634 281.355 341.387 C 281.455 341.134 281.555 340.907 281.655 340.707 C 282.455 339.107 283.505 337.907 284.805 337.107 C 286.105 336.307 287.455 336.007 288.855 336.207 C 291.055 336.507 292.605 337.907 293.505 340.407 C 293.705 341.207 293.878 342.034 294.025 342.887 C 294.178 343.734 294.205 344.607 294.105 345.507 C 295.005 345.107 295.978 344.707 297.025 344.307 C 298.078 343.907 299.205 343.407 300.405 342.807 C 301.005 342.407 301.628 342.334 302.275 342.587 C 302.928 342.834 303.405 343.257 303.705 343.857 C 304.005 344.457 304.055 345.08 303.855 345.727 C 303.655 346.38 303.255 346.857 302.655 347.157 C 300.855 347.957 299.178 348.68 297.625 349.327 C 296.078 349.98 294.605 350.507 293.205 350.907 C 292.605 353.307 291.555 355.307 290.055 356.907 C 288.355 358.807 286.405 359.757 284.205 359.757 Z M 282.705 350.007 C 282.505 350.807 282.332 351.534 282.185 352.187 C 282.032 352.834 282.055 353.407 282.255 353.907 C 282.355 354.007 282.482 354.134 282.635 354.287 C 282.782 354.434 283.105 354.557 283.605 354.657 C 283.905 354.857 284.305 354.907 284.805 354.807 C 285.305 354.707 285.855 354.307 286.455 353.607 C 286.655 353.307 286.878 353.007 287.125 352.707 C 287.378 352.407 287.605 352.057 287.805 351.657 C 285.805 351.657 284.105 351.107 282.705 350.007 Z M 285.555 344.157 C 285.355 345.257 285.455 345.907 285.855 346.107 C 286.255 346.607 287.355 346.807 289.155 346.707 C 289.255 345.807 289.278 344.957 289.225 344.157 C 289.178 343.357 289.055 342.657 288.855 342.057 C 288.655 341.557 288.405 341.207 288.105 341.007 C 287.905 341.007 287.655 341.157 287.355 341.457 C 287.155 341.657 287.005 341.857 286.905 342.057 C 286.705 342.357 286.478 342.684 286.225 343.037 C 285.978 343.384 285.755 343.757 285.555 344.157 ZM 292.855 450.057 L 292.405 450.057 L 292.255 450.057 C 289.755 449.857 287.655 449.38 285.955 448.627 C 284.255 447.88 282.832 446.984 281.685 445.937 C 280.532 444.884 279.682 443.734 279.135 442.487 C 278.582 441.234 278.155 440.007 277.855 438.807 C 277.055 435.107 277.332 430.807 278.685 425.907 C 280.032 421.007 281.905 416.007 284.305 410.907 C 286.705 405.807 289.405 400.834 292.405 395.987 C 295.405 391.134 298.105 386.907 300.505 383.307 C 303.105 379.507 305.782 375.807 308.535 372.207 C 311.282 368.607 314.005 365.207 316.705 362.007 C 316.705 357.307 316.655 352.957 316.555 348.957 C 316.455 344.957 316.305 341.507 316.105 338.607 C 316.005 338.807 315.905 339.007 315.805 339.207 C 315.705 339.407 315.605 339.607 315.505 339.807 C 314.205 342.107 313.028 343.934 311.975 345.287 C 310.928 346.634 309.978 347.684 309.125 348.437 C 308.278 349.184 307.555 349.707 306.955 350.007 C 306.355 350.307 305.805 350.507 305.305 350.607 C 303.605 350.807 302.255 350.307 301.255 349.107 C 300.755 348.607 300.282 347.707 299.835 346.407 C 299.382 345.107 299.655 343.457 300.655 341.457 C 301.255 340.257 302.078 339.057 303.125 337.857 C 304.178 336.657 305.382 335.557 306.735 334.557 C 308.082 333.557 309.455 332.707 310.855 332.007 C 312.255 331.307 313.605 330.807 314.905 330.507 C 315.105 330.207 315.232 329.957 315.285 329.757 C 315.332 329.557 315.405 329.357 315.505 329.157 L 315.805 328.557 C 316.305 327.357 317.205 326.907 318.505 327.207 C 319.805 327.407 320.455 328.157 320.455 329.457 C 320.455 329.457 320.505 330.13 320.605 331.477 C 320.705 332.83 320.805 334.707 320.905 337.107 C 321.005 339.507 321.132 342.334 321.285 345.587 C 321.432 348.834 321.505 352.407 321.505 356.307 C 324.705 352.707 327.678 349.657 330.425 347.157 C 333.178 344.657 335.405 342.907 337.105 341.907 C 337.705 341.607 338.328 341.557 338.975 341.757 C 339.628 341.957 340.105 342.357 340.405 342.957 C 340.805 343.557 340.905 344.184 340.705 344.837 C 340.505 345.484 340.105 345.957 339.505 346.257 C 337.805 347.157 335.378 349.157 332.225 352.257 C 329.078 355.357 325.555 359.207 321.655 363.807 C 321.655 366.107 321.632 368.407 321.585 370.707 C 321.532 373.007 321.455 375.357 321.355 377.757 C 320.155 412.357 314.855 434.557 305.455 444.357 C 301.855 448.157 297.655 450.057 292.855 450.057 Z M 292.555 445.107 C 296.055 445.207 299.205 443.807 302.005 440.907 C 306.205 436.507 309.528 428.984 311.975 418.337 C 314.428 407.684 315.905 394.107 316.405 377.607 C 316.505 376.207 316.555 374.884 316.555 373.637 C 316.555 372.384 316.605 371.107 316.705 369.807 C 314.705 372.307 312.678 374.93 310.625 377.677 C 308.578 380.43 306.555 383.257 304.555 386.157 C 296.555 397.857 290.655 408.18 286.855 417.127 C 283.055 426.08 281.655 433.007 282.655 437.907 C 282.755 438.607 282.982 439.357 283.335 440.157 C 283.682 440.957 284.228 441.68 284.975 442.327 C 285.728 442.98 286.705 443.58 287.905 444.127 C 289.105 444.68 290.655 445.007 292.555 445.107 Z M 311.305 337.407 C 309.905 338.207 308.632 339.157 307.485 340.257 C 306.332 341.357 305.505 342.457 305.005 343.557 C 304.705 344.157 304.555 344.607 304.555 344.907 C 304.555 345.207 304.605 345.457 304.705 345.657 C 305.105 345.457 305.805 344.834 306.805 343.787 C 307.805 342.734 309.305 340.607 311.305 337.407 ZM 341.405 368.457 L 340.655 368.457 C 339.855 368.457 339.255 368.157 338.855 367.557 C 338.555 367.157 338.355 366.757 338.255 366.357 C 338.155 365.957 338.155 365.057 338.255 363.657 L 338.255 363.207 C 338.155 361.907 338.055 360.257 337.955 358.257 C 337.855 356.257 337.732 354.134 337.585 351.887 C 337.432 349.634 337.278 347.357 337.125 345.057 C 336.978 342.757 336.855 340.657 336.755 338.757 C 336.655 338.057 336.832 337.457 337.285 336.957 C 337.732 336.457 338.305 336.207 339.005 336.207 C 339.705 336.107 340.305 336.28 340.805 336.727 C 341.305 337.18 341.555 337.757 341.555 338.457 C 341.655 339.857 341.805 342.007 342.005 344.907 C 342.105 344.707 342.205 344.534 342.305 344.387 C 342.405 344.234 342.505 344.057 342.605 343.857 C 344.305 340.757 346.205 338.857 348.305 338.157 C 350.405 337.457 352.305 337.207 354.005 337.407 C 355.605 337.607 356.305 338.507 356.105 340.107 C 355.905 341.707 355.005 342.407 353.405 342.207 C 351.405 342.107 349.805 342.657 348.605 343.857 C 347.505 344.957 346.605 346.33 345.905 347.977 C 345.205 349.63 344.655 351.407 344.255 353.307 C 343.855 355.207 343.578 357.057 343.425 358.857 C 343.278 360.657 343.155 362.157 343.055 363.357 C 343.155 364.157 343.205 364.784 343.205 365.237 C 343.205 365.684 343.205 366.007 343.205 366.207 C 343.105 366.907 342.882 367.407 342.535 367.707 C 342.182 368.007 341.805 368.257 341.405 368.457 ZM 367.605 371.307 C 367.005 371.307 366.555 371.207 366.255 371.007 C 363.255 369.107 361.055 365.907 359.655 361.407 C 358.255 356.907 357.955 351.957 358.755 346.557 C 359.555 341.257 361.332 336.807 364.085 333.207 C 366.832 329.607 370.305 327.257 374.505 326.157 C 377.905 325.257 380.355 325.707 381.855 327.507 C 383.555 329.407 383.505 332.607 381.705 337.107 C 380.805 339.207 379.555 341.48 377.955 343.927 C 376.355 346.38 374.555 348.757 372.555 351.057 C 371.355 352.457 369.978 353.857 368.425 355.257 C 366.878 356.657 365.355 357.707 363.855 358.407 C 364.355 360.407 365.028 362.13 365.875 363.577 C 366.728 365.03 367.705 366.107 368.805 366.807 C 369.405 367.207 369.778 367.73 369.925 368.377 C 370.078 369.03 370.005 369.657 369.705 370.257 C 369.305 370.957 368.605 371.307 367.605 371.307 Z M 378.105 330.657 L 377.655 330.657 C 377.455 330.657 377.205 330.657 376.905 330.657 C 376.605 330.657 376.205 330.757 375.705 330.957 C 372.505 331.757 369.855 333.607 367.755 336.507 C 365.655 339.407 364.255 343.007 363.555 347.307 C 363.255 349.507 363.155 351.457 363.255 353.157 C 363.755 352.857 364.355 352.38 365.055 351.727 C 365.755 351.08 366.555 350.307 367.455 349.407 C 368.955 347.707 370.405 345.907 371.805 344.007 C 373.205 342.107 374.455 340.207 375.555 338.307 C 376.955 335.907 377.778 334.107 378.025 332.907 C 378.278 331.707 378.305 330.957 378.105 330.657 ZM 386.605 379.257 C 385.205 379.257 383.955 378.93 382.855 378.277 C 381.755 377.63 380.955 376.757 380.455 375.657 C 378.655 371.657 381.155 366.107 387.955 359.007 C 387.855 358.807 387.805 358.657 387.805 358.557 C 387.805 358.457 387.755 358.307 387.655 358.107 C 386.955 355.607 386.328 353.134 385.775 350.687 C 385.228 348.234 384.855 345.957 384.655 343.857 C 384.055 338.157 385.505 334.707 389.005 333.507 C 391.805 332.607 394.355 332.707 396.655 333.807 C 397.655 334.307 398.478 334.907 399.125 335.607 C 399.778 336.307 400.328 336.984 400.775 337.637 C 401.228 338.284 401.555 338.857 401.755 339.357 C 401.955 339.857 402.055 340.157 402.055 340.257 C 402.255 340.857 402.228 341.457 401.975 342.057 C 401.728 342.657 401.255 343.057 400.555 343.257 C 399.955 343.457 399.328 343.43 398.675 343.177 C 398.028 342.93 397.605 342.457 397.405 341.757 L 396.955 340.857 C 396.755 340.657 396.578 340.384 396.425 340.037 C 396.278 339.684 396.055 339.357 395.755 339.057 C 394.455 337.757 392.705 337.457 390.505 338.157 C 389.905 338.357 389.555 339.057 389.455 340.257 C 389.355 341.457 389.355 342.507 389.455 343.407 C 389.655 345.107 389.978 346.957 390.425 348.957 C 390.878 350.957 391.405 353.007 392.005 355.107 C 394.305 353.107 396.878 350.98 399.725 348.727 C 402.578 346.48 405.755 344.157 409.255 341.757 C 409.755 341.357 410.328 341.234 410.975 341.387 C 411.628 341.534 412.155 341.857 412.555 342.357 C 413.555 343.557 413.355 344.707 411.955 345.807 C 403.955 351.307 397.755 356.207 393.355 360.507 C 393.855 362.407 394.278 364.207 394.625 365.907 C 394.978 367.607 395.205 369.207 395.305 370.707 C 395.505 372.907 394.932 374.707 393.585 376.107 C 392.232 377.507 390.705 378.457 389.005 378.957 C 388.005 379.157 387.205 379.257 386.605 379.257 Z M 389.305 364.707 C 389.105 364.907 388.955 365.107 388.855 365.307 C 388.755 365.507 388.605 365.707 388.405 365.907 C 387.305 367.307 386.505 368.484 386.005 369.437 C 385.505 370.384 385.178 371.157 385.025 371.757 C 384.878 372.357 384.828 372.807 384.875 373.107 C 384.928 373.407 384.955 373.607 384.955 373.707 C 385.255 374.407 386.205 374.557 387.805 374.157 C 388.005 374.157 388.528 373.934 389.375 373.487 C 390.228 373.034 390.605 372.257 390.505 371.157 C 390.405 370.157 390.255 369.13 390.055 368.077 C 389.855 367.03 389.605 365.907 389.305 364.707 ZM 411.455 379.257 C 410.055 379.257 408.805 378.93 407.705 378.277 C 406.605 377.63 405.805 376.757 405.305 375.657 C 403.505 371.657 406.005 366.107 412.805 359.007 C 412.705 358.807 412.655 358.657 412.655 358.557 C 412.655 358.457 412.605 358.307 412.505 358.107 C 411.805 355.607 411.178 353.134 410.625 350.687 C 410.078 348.234 409.705 345.957 409.505 343.857 C 408.905 338.157 410.355 334.707 413.855 333.507 C 416.655 332.607 419.205 332.707 421.505 333.807 C 422.505 334.307 423.328 334.907 423.975 335.607 C 424.628 336.307 425.178 336.984 425.625 337.637 C 426.078 338.284 426.405 338.857 426.605 339.357 C 426.805 339.857 426.905 340.157 426.905 340.257 C 427.105 340.857 427.078 341.457 426.825 342.057 C 426.578 342.657 426.105 343.057 425.405 343.257 C 424.805 343.457 424.178 343.43 423.525 343.177 C 422.878 342.93 422.455 342.457 422.255 341.757 L 421.805 340.857 C 421.605 340.657 421.428 340.384 421.275 340.037 C 421.128 339.684 420.905 339.357 420.605 339.057 C 419.305 337.757 417.555 337.457 415.355 338.157 C 414.755 338.357 414.405 339.057 414.305 340.257 C 414.205 341.457 414.205 342.507 414.305 343.407 C 414.505 345.107 414.828 346.957 415.275 348.957 C 415.728 350.957 416.255 353.007 416.855 355.107 C 419.155 353.107 421.728 350.98 424.575 348.727 C 427.428 346.48 430.605 344.157 434.105 341.757 C 434.605 341.357 435.178 341.234 435.825 341.387 C 436.478 341.534 437.005 341.857 437.405 342.357 C 438.405 343.557 438.205 344.707 436.805 345.807 C 428.805 351.307 422.605 356.207 418.205 360.507 C 418.705 362.407 419.128 364.207 419.475 365.907 C 419.828 367.607 420.055 369.207 420.155 370.707 C 420.355 372.907 419.782 374.707 418.435 376.107 C 417.082 377.507 415.555 378.457 413.855 378.957 C 412.855 379.157 412.055 379.257 411.455 379.257 Z M 414.155 364.707 C 413.955 364.907 413.805 365.107 413.705 365.307 C 413.605 365.507 413.455 365.707 413.255 365.907 C 412.155 367.307 411.355 368.484 410.855 369.437 C 410.355 370.384 410.028 371.157 409.875 371.757 C 409.728 372.357 409.678 372.807 409.725 373.107 C 409.778 373.407 409.805 373.607 409.805 373.707 C 410.105 374.407 411.055 374.557 412.655 374.157 C 412.855 374.157 413.378 373.934 414.225 373.487 C 415.078 373.034 415.455 372.257 415.355 371.157 C 415.255 370.157 415.105 369.13 414.905 368.077 C 414.705 367.03 414.455 365.907 414.155 364.707 Z" transform="matrix(1, 0, 0, 1, 0, 0)" style="fill: rgb(255, 192, 203); white-space: pre;"/>
</svg>