<?xml version="1.0" encoding="utf-8"?>
<svg viewBox="0 0 500 500" width="500" height="500" xmlns="http://www.w3.org/2000/svg">
  <path d="M 92.303 150.65 C 91.903 150.65 91.603 150.583 91.403 150.45 C 90.47 149.85 90.236 149.017 90.703 147.95 C 90.77 147.817 90.87 147.4 91.003 146.7 C 91.136 146 91.27 144.683 91.403 142.75 C 91.536 140.817 91.67 138.133 91.803 134.7 C 91.936 131.267 92.036 126.717 92.103 121.05 C 92.17 117.983 92.203 115 92.203 112.1 C 92.203 109.2 92.203 106.617 92.203 104.35 C 92.203 102.083 92.203 100.25 92.203 98.85 C 92.203 97.45 92.203 96.75 92.203 96.75 C 92.203 96.217 92.386 95.767 92.753 95.4 C 93.12 95.033 93.57 94.85 94.103 94.85 C 94.636 94.85 95.07 95.033 95.403 95.4 C 95.736 95.767 95.903 96.217 95.903 96.75 C 95.903 96.75 95.903 97.467 95.903 98.9 C 95.903 100.333 95.903 102.2 95.903 104.5 C 95.903 106.8 95.903 109.433 95.903 112.4 C 95.903 115.367 95.87 118.417 95.803 121.55 C 95.67 127.95 95.536 132.983 95.403 136.65 C 95.27 140.317 95.103 143.083 94.903 144.95 C 94.703 146.817 94.52 148.033 94.353 148.6 C 94.186 149.167 94.036 149.55 93.903 149.75 C 93.57 150.35 93.036 150.65 92.303 150.65 ZM 125.703 133.25 C 124.703 133.25 123.836 132.883 123.103 132.15 C 123.103 132.083 123.07 132.05 123.003 132.05 C 121.87 130.65 121.47 129.083 121.803 127.35 C 122.003 126.15 122.503 125.033 123.303 124 C 124.103 122.967 124.953 122.05 125.853 121.25 C 126.753 120.45 127.586 119.817 128.353 119.35 C 129.12 118.883 129.603 118.583 129.803 118.45 C 130.203 118.25 130.62 118.2 131.053 118.3 C 131.486 118.4 131.803 118.65 132.003 119.05 C 132.27 119.45 132.336 119.867 132.203 120.3 C 132.07 120.733 131.803 121.05 131.403 121.25 C 131.003 121.517 130.47 121.883 129.803 122.35 C 129.136 122.817 128.47 123.35 127.803 123.95 C 127.136 124.55 126.536 125.2 126.003 125.9 C 125.47 126.6 125.136 127.283 125.003 127.95 C 124.936 128.617 125.103 129.283 125.503 129.95 C 125.57 129.95 125.703 129.95 125.903 129.95 C 126.103 129.95 126.436 129.85 126.903 129.65 C 127.37 129.45 127.953 129.117 128.653 128.65 C 129.353 128.183 130.236 127.483 131.303 126.55 C 131.97 126.017 132.603 125.45 133.203 124.85 C 133.803 124.25 134.336 123.717 134.803 123.25 C 135.336 122.717 135.803 122.217 136.203 121.75 C 136.536 121.417 136.92 121.233 137.353 121.2 C 137.786 121.167 138.17 121.317 138.503 121.65 C 138.836 121.983 139.02 122.367 139.053 122.8 C 139.086 123.233 138.936 123.617 138.603 123.95 C 138.603 124.017 138.17 124.5 137.303 125.4 C 136.436 126.3 135.37 127.317 134.103 128.45 C 130.503 131.65 127.703 133.25 125.703 133.25 ZM 141.303 140.35 L 140.803 140.35 C 140.27 140.35 139.87 140.15 139.603 139.75 C 139.403 139.483 139.27 139.217 139.203 138.95 C 139.136 138.683 139.136 138.083 139.203 137.15 L 139.203 136.85 C 139.136 135.983 139.07 134.883 139.003 133.55 C 138.936 132.217 138.853 130.8 138.753 129.3 C 138.653 127.8 138.553 126.283 138.453 124.75 C 138.353 123.217 138.27 121.817 138.203 120.55 C 138.136 120.083 138.253 119.683 138.553 119.35 C 138.853 119.017 139.236 118.85 139.703 118.85 C 140.17 118.783 140.57 118.9 140.903 119.2 C 141.236 119.5 141.403 119.883 141.403 120.35 C 141.47 121.283 141.57 122.717 141.703 124.65 C 141.77 124.517 141.836 124.4 141.903 124.3 C 141.97 124.2 142.036 124.083 142.103 123.95 C 143.236 121.883 144.503 120.617 145.903 120.15 C 147.303 119.683 148.57 119.517 149.703 119.65 C 150.77 119.783 151.236 120.383 151.103 121.45 C 150.97 122.517 150.37 122.983 149.303 122.85 C 147.97 122.783 146.903 123.15 146.103 123.95 C 145.37 124.683 144.77 125.6 144.303 126.7 C 143.836 127.8 143.47 128.983 143.203 130.25 C 142.936 131.517 142.753 132.75 142.653 133.95 C 142.553 135.15 142.47 136.15 142.403 136.95 C 142.47 137.483 142.503 137.9 142.503 138.2 C 142.503 138.5 142.503 138.717 142.503 138.85 C 142.436 139.317 142.286 139.65 142.053 139.85 C 141.82 140.05 141.57 140.217 141.303 140.35 ZM 159.603 142.25 C 159.203 142.25 158.903 142.183 158.703 142.05 C 156.703 140.783 155.236 138.65 154.303 135.65 C 153.37 132.65 153.17 129.35 153.703 125.75 C 154.236 122.217 155.42 119.25 157.253 116.85 C 159.086 114.45 161.403 112.883 164.203 112.15 C 166.47 111.55 168.103 111.85 169.103 113.05 C 170.236 114.317 170.203 116.45 169.003 119.45 C 168.403 120.85 167.57 122.367 166.503 124 C 165.436 125.633 164.236 127.217 162.903 128.75 C 162.103 129.683 161.186 130.617 160.153 131.55 C 159.12 132.483 158.103 133.183 157.103 133.65 C 157.436 134.983 157.886 136.133 158.453 137.1 C 159.02 138.067 159.67 138.783 160.403 139.25 C 160.803 139.517 161.053 139.867 161.153 140.3 C 161.253 140.733 161.203 141.15 161.003 141.55 C 160.736 142.017 160.27 142.25 159.603 142.25 Z M 166.603 115.15 L 166.303 115.15 C 166.17 115.15 166.003 115.15 165.803 115.15 C 165.603 115.15 165.336 115.217 165.003 115.35 C 162.87 115.883 161.103 117.117 159.703 119.05 C 158.303 120.983 157.37 123.383 156.903 126.25 C 156.703 127.717 156.636 129.017 156.703 130.15 C 157.036 129.95 157.436 129.633 157.903 129.2 C 158.37 128.767 158.903 128.25 159.503 127.65 C 160.503 126.517 161.47 125.317 162.403 124.05 C 163.336 122.783 164.17 121.517 164.903 120.25 C 165.836 118.65 166.386 117.45 166.553 116.65 C 166.72 115.85 166.736 115.35 166.603 115.15 ZM 183.003 138.25 L 182.803 138.25 C 181.936 138.25 181.203 137.917 180.603 137.25 C 180.27 136.917 179.953 136.317 179.653 135.45 C 179.353 134.583 179.236 133.15 179.303 131.15 C 177.503 134.017 175.836 135.75 174.303 136.35 C 173.77 136.483 173.253 136.55 172.753 136.55 C 172.253 136.55 171.77 136.383 171.303 136.05 C 170.836 135.783 170.353 135.317 169.853 134.65 C 169.353 133.983 169.236 132.95 169.503 131.55 C 169.703 130.35 170.186 129.133 170.953 127.9 C 171.72 126.667 172.37 125.683 172.903 124.95 C 173.436 124.217 174.12 123.4 174.953 122.5 C 175.786 121.6 176.536 121.083 177.203 120.95 C 177.67 120.883 178.086 120.983 178.453 121.25 C 178.82 121.517 179.036 121.883 179.103 122.35 C 179.236 122.75 179.186 123.117 178.953 123.45 C 178.72 123.783 178.436 124.017 178.103 124.15 C 177.903 124.283 177.52 124.65 176.953 125.25 C 176.386 125.85 175.736 126.65 175.003 127.65 C 173.47 129.717 172.703 131.383 172.703 132.65 C 172.703 132.983 172.803 133.183 173.003 133.25 L 173.203 133.25 C 173.736 133.05 174.336 132.517 175.003 131.65 C 175.67 130.783 176.353 129.767 177.053 128.6 C 177.753 127.433 178.42 126.2 179.053 124.9 C 179.686 123.6 180.203 122.383 180.603 121.25 C 180.736 120.85 181.003 120.55 181.403 120.35 C 181.803 120.15 182.203 120.117 182.603 120.25 C 183.003 120.383 183.32 120.633 183.553 121 C 183.786 121.367 183.836 121.75 183.703 122.15 C 183.636 122.75 183.536 123.383 183.403 124.05 C 183.27 124.583 183.153 125.233 183.053 126 C 182.953 126.767 182.87 127.517 182.803 128.25 C 182.536 130.583 182.47 132.217 182.603 133.15 C 182.736 134.083 182.87 134.683 183.003 134.95 C 183.27 134.817 183.736 134.367 184.403 133.6 C 185.07 132.833 185.97 131.25 187.103 128.85 C 187.903 127.183 188.553 125.667 189.053 124.3 C 189.553 122.933 189.803 122.217 189.803 122.15 C 189.936 121.75 190.203 121.45 190.603 121.25 C 191.003 121.05 191.436 121.017 191.903 121.15 C 192.903 121.483 193.236 122.183 192.903 123.25 C 192.903 123.317 192.636 124.067 192.103 125.5 C 191.57 126.933 190.903 128.517 190.103 130.25 C 188.836 132.917 187.62 134.883 186.453 136.15 C 185.286 137.417 184.136 138.117 183.003 138.25 ZM 219.103 103.05 C 220.103 103.05 220.67 103.583 220.803 104.65 C 220.803 105.117 220.653 105.517 220.353 105.85 C 220.053 106.183 219.67 106.35 219.203 106.35 C 215.203 106.483 211.353 106.717 207.653 107.05 C 203.953 107.383 200.436 107.783 197.103 108.25 C 196.77 112.583 196.42 117.05 196.053 121.65 C 195.686 126.25 195.353 130.717 195.053 135.05 C 194.753 139.383 194.486 143.533 194.253 147.5 C 194.02 151.467 193.82 155.017 193.653 158.15 C 193.486 161.283 193.403 163.883 193.403 165.95 C 193.403 168.017 193.47 169.383 193.603 170.05 C 193.736 170.517 193.67 170.933 193.403 171.3 C 193.136 171.667 192.77 171.917 192.303 172.05 L 192.003 172.05 C 191.136 172.05 190.603 171.617 190.403 170.75 C 190.203 169.95 190.12 168.333 190.153 165.9 C 190.186 163.467 190.286 160.517 190.453 157.05 C 190.62 153.583 190.82 149.767 191.053 145.6 C 191.286 141.433 191.57 137.183 191.903 132.85 C 192.236 128.517 192.57 124.267 192.903 120.1 C 193.236 115.933 193.536 112.15 193.803 108.75 C 190.336 109.283 187.203 109.817 184.403 110.35 C 181.603 110.883 179.203 111.367 177.203 111.8 C 175.203 112.233 173.636 112.6 172.503 112.9 C 171.37 113.2 170.803 113.35 170.803 113.35 C 170.736 113.417 170.603 113.45 170.403 113.45 C 169.536 113.45 169.003 113.05 168.803 112.25 C 168.47 111.183 168.836 110.517 169.903 110.25 C 169.97 110.25 170.586 110.083 171.753 109.75 C 172.92 109.417 174.553 109.033 176.653 108.6 C 178.753 108.167 181.286 107.667 184.253 107.1 C 187.22 106.533 190.503 105.983 194.103 105.45 C 194.303 102.983 194.47 100.9 194.603 99.2 C 194.736 97.5 194.87 96.283 195.003 95.55 C 195.003 95.083 195.17 94.7 195.503 94.4 C 195.836 94.1 196.236 93.983 196.703 94.05 C 197.17 94.117 197.553 94.317 197.853 94.65 C 198.153 94.983 198.27 95.383 198.203 95.85 C 198.07 97.317 197.936 98.8 197.803 100.3 C 197.67 101.8 197.536 103.35 197.403 104.95 C 200.67 104.483 204.12 104.083 207.753 103.75 C 211.386 103.417 215.17 103.183 219.103 103.05 ZM 206.603 142.25 C 206.203 142.25 205.903 142.183 205.703 142.05 C 203.703 140.783 202.236 138.65 201.303 135.65 C 200.37 132.65 200.17 129.35 200.703 125.75 C 201.236 122.217 202.42 119.25 204.253 116.85 C 206.086 114.45 208.403 112.883 211.203 112.15 C 213.47 111.55 215.103 111.85 216.103 113.05 C 217.236 114.317 217.203 116.45 216.003 119.45 C 215.403 120.85 214.57 122.367 213.503 124 C 212.436 125.633 211.236 127.217 209.903 128.75 C 209.103 129.683 208.186 130.617 207.153 131.55 C 206.12 132.483 205.103 133.183 204.103 133.65 C 204.436 134.983 204.886 136.133 205.453 137.1 C 206.02 138.067 206.67 138.783 207.403 139.25 C 207.803 139.517 208.053 139.867 208.153 140.3 C 208.253 140.733 208.203 141.15 208.003 141.55 C 207.736 142.017 207.27 142.25 206.603 142.25 Z M 213.603 115.15 L 213.303 115.15 C 213.17 115.15 213.003 115.15 212.803 115.15 C 212.603 115.15 212.336 115.217 212.003 115.35 C 209.87 115.883 208.103 117.117 206.703 119.05 C 205.303 120.983 204.37 123.383 203.903 126.25 C 203.703 127.717 203.636 129.017 203.703 130.15 C 204.036 129.95 204.436 129.633 204.903 129.2 C 205.37 128.767 205.903 128.25 206.503 127.65 C 207.503 126.517 208.47 125.317 209.403 124.05 C 210.336 122.783 211.17 121.517 211.903 120.25 C 212.836 118.65 213.386 117.45 213.553 116.65 C 213.72 115.85 213.736 115.35 213.603 115.15 Z" transform="matrix(1, 0, 0, 1, -25.335933685302738, 24.90333557128907)" style="fill: rgb(169, 169, 169); white-space: pre;"/>
  <path d="M 104.603 228.25 L 104.403 228.25 C 103.536 228.25 102.803 227.917 102.203 227.25 C 101.87 226.917 101.553 226.317 101.253 225.45 C 100.953 224.583 100.836 223.15 100.903 221.15 C 99.103 224.017 97.436 225.75 95.903 226.35 C 95.37 226.483 94.853 226.55 94.353 226.55 C 93.853 226.55 93.37 226.383 92.903 226.05 C 92.436 225.783 91.953 225.317 91.453 224.65 C 90.953 223.983 90.836 222.95 91.103 221.55 C 91.303 220.35 91.786 219.133 92.553 217.9 C 93.32 216.667 93.97 215.683 94.503 214.95 C 95.036 214.217 95.72 213.4 96.553 212.5 C 97.386 211.6 98.136 211.083 98.803 210.95 C 99.27 210.883 99.686 210.983 100.053 211.25 C 100.42 211.517 100.636 211.883 100.703 212.35 C 100.836 212.75 100.786 213.117 100.553 213.45 C 100.32 213.783 100.036 214.017 99.703 214.15 C 99.503 214.283 99.12 214.65 98.553 215.25 C 97.986 215.85 97.336 216.65 96.603 217.65 C 95.07 219.717 94.303 221.383 94.303 222.65 C 94.303 222.983 94.403 223.183 94.603 223.25 L 94.803 223.25 C 95.336 223.05 95.936 222.517 96.603 221.65 C 97.27 220.783 97.953 219.767 98.653 218.6 C 99.353 217.433 100.02 216.2 100.653 214.9 C 101.286 213.6 101.803 212.383 102.203 211.25 C 102.336 210.85 102.603 210.55 103.003 210.35 C 103.403 210.15 103.803 210.117 104.203 210.25 C 104.603 210.383 104.92 210.633 105.153 211 C 105.386 211.367 105.436 211.75 105.303 212.15 C 105.236 212.75 105.136 213.383 105.003 214.05 C 104.87 214.583 104.753 215.233 104.653 216 C 104.553 216.767 104.47 217.517 104.403 218.25 C 104.136 220.583 104.07 222.217 104.203 223.15 C 104.336 224.083 104.47 224.683 104.603 224.95 C 104.87 224.817 105.336 224.367 106.003 223.6 C 106.67 222.833 107.57 221.25 108.703 218.85 C 109.503 217.183 110.153 215.667 110.653 214.3 C 111.153 212.933 111.403 212.217 111.403 212.15 C 111.536 211.75 111.803 211.45 112.203 211.25 C 112.603 211.05 113.036 211.017 113.503 211.15 C 114.503 211.483 114.836 212.183 114.503 213.25 C 114.503 213.317 114.236 214.067 113.703 215.5 C 113.17 216.933 112.503 218.517 111.703 220.25 C 110.436 222.917 109.22 224.883 108.053 226.15 C 106.886 227.417 105.736 228.117 104.603 228.25 ZM 130.403 244.25 L 130.203 244.25 C 128.67 244.05 127.52 243.25 126.753 241.85 C 125.986 240.45 125.47 238.7 125.203 236.6 C 124.936 234.5 124.836 232.183 124.903 229.65 C 124.97 227.117 125.07 224.583 125.203 222.05 C 125.336 220.717 125.436 219.35 125.503 217.95 C 125.57 216.55 125.57 215.383 125.503 214.45 C 125.37 214.717 125.203 215 125.003 215.3 C 124.803 215.6 124.57 216.017 124.303 216.55 C 123.836 217.483 123.37 218.5 122.903 219.6 C 122.436 220.7 121.97 221.817 121.503 222.95 C 120.103 226.283 119.036 228.6 118.303 229.9 C 117.57 231.2 116.736 231.85 115.803 231.85 C 115.07 231.85 114.57 231.617 114.303 231.15 C 113.97 230.817 113.753 230.267 113.653 229.5 C 113.553 228.733 113.636 227.383 113.903 225.45 C 114.036 224.383 114.22 223.167 114.453 221.8 C 114.686 220.433 114.97 218.883 115.303 217.15 C 115.57 215.75 115.853 214.367 116.153 213 C 116.453 211.633 116.72 210.417 116.953 209.35 C 117.186 208.283 117.37 207.417 117.503 206.75 C 117.636 206.083 117.703 205.75 117.703 205.75 C 117.836 205.283 118.086 204.933 118.453 204.7 C 118.82 204.467 119.236 204.417 119.703 204.55 C 120.103 204.683 120.436 204.933 120.703 205.3 C 120.97 205.667 121.036 206.083 120.903 206.55 C 120.703 207.483 120.47 208.55 120.203 209.75 C 120.003 210.75 119.753 211.9 119.453 213.2 C 119.153 214.5 118.87 215.817 118.603 217.15 C 118.27 218.75 118.003 220.133 117.803 221.3 C 117.603 222.467 117.436 223.517 117.303 224.45 C 117.503 223.983 117.703 223.517 117.903 223.05 C 118.103 222.583 118.303 222.15 118.503 221.75 C 119.036 220.417 119.586 219.083 120.153 217.75 C 120.72 216.417 121.303 215.217 121.903 214.15 C 122.103 213.75 122.353 213.3 122.653 212.8 C 122.953 212.3 123.303 211.817 123.703 211.35 C 124.103 210.883 124.553 210.533 125.053 210.3 C 125.553 210.067 126.103 210.017 126.703 210.15 C 127.636 210.417 128.203 211.033 128.403 212 C 128.603 212.967 128.703 213.95 128.703 214.95 C 128.77 215.883 128.77 216.983 128.703 218.25 C 128.636 219.517 128.57 220.85 128.503 222.25 C 128.37 224.383 128.27 226.6 128.203 228.9 C 128.136 231.2 128.203 233.317 128.403 235.25 C 128.736 238.917 129.47 240.817 130.603 240.95 C 131.07 241.017 131.453 241.217 131.753 241.55 C 132.053 241.883 132.17 242.283 132.103 242.75 C 131.97 243.75 131.403 244.25 130.403 244.25 ZM 151.803 270.05 L 151.703 270.05 C 150.77 270.05 150.236 269.517 150.103 268.45 C 149.57 252.717 149.536 239.017 150.003 227.35 C 150.47 215.683 151.17 205.917 152.103 198.05 C 151.77 198.983 151.47 199.883 151.203 200.75 C 150.936 201.617 150.636 202.483 150.303 203.35 C 148.703 207.817 147.27 211.417 146.003 214.15 C 144.736 216.883 143.603 219.017 142.603 220.55 C 141.603 222.083 140.72 223.133 139.953 223.7 C 139.186 224.267 138.503 224.65 137.903 224.85 C 136.636 225.25 135.47 224.983 134.403 224.05 C 133.67 223.383 133.136 222.567 132.803 221.6 C 132.47 220.633 132.32 219.617 132.353 218.55 C 132.386 217.483 132.586 216.45 132.953 215.45 C 133.32 214.45 133.803 213.583 134.403 212.85 C 135.603 211.383 137.136 210.583 139.003 210.45 C 140.47 210.383 141.97 210.783 143.503 211.65 C 144.036 210.383 144.603 208.983 145.203 207.45 C 145.803 205.917 146.47 204.183 147.203 202.25 C 148.07 199.983 148.903 197.633 149.703 195.2 C 150.503 192.767 151.27 190.367 152.003 188 C 152.736 185.633 153.436 183.333 154.103 181.1 C 154.77 178.867 155.37 176.817 155.903 174.95 C 156.17 173.883 156.403 172.933 156.603 172.1 C 156.803 171.267 157.003 170.483 157.203 169.75 C 157.536 168.617 157.82 167.7 158.053 167 C 158.286 166.3 158.47 165.717 158.603 165.25 C 158.936 164.45 159.186 163.883 159.353 163.55 C 159.52 163.217 159.77 162.983 160.103 162.85 C 160.703 162.583 161.303 162.683 161.903 163.15 C 162.303 163.55 162.47 163.983 162.403 164.45 C 162.336 164.917 162.236 165.317 162.103 165.65 C 161.903 166.117 161.636 166.967 161.303 168.2 C 160.97 169.433 160.536 170.883 160.003 172.55 C 159.87 173.083 159.72 173.617 159.553 174.15 C 159.386 174.683 159.236 175.217 159.103 175.75 C 158.17 179.617 157.27 184.45 156.403 190.25 C 155.87 193.983 155.353 198.383 154.853 203.45 C 154.353 208.517 153.936 214.283 153.603 220.75 C 153.27 227.217 153.07 234.417 153.003 242.35 C 152.936 250.283 153.07 258.95 153.403 268.35 C 153.403 268.817 153.253 269.217 152.953 269.55 C 152.653 269.883 152.27 270.05 151.803 270.05 Z M 139.403 213.75 C 138.336 213.75 137.503 214.15 136.903 214.95 C 136.503 215.417 136.203 215.967 136.003 216.6 C 135.803 217.233 135.686 217.867 135.653 218.5 C 135.62 219.133 135.686 219.733 135.853 220.3 C 136.02 220.867 136.27 221.283 136.603 221.55 C 136.736 221.683 136.87 221.75 137.003 221.75 C 137.136 221.683 137.353 221.55 137.653 221.35 C 137.953 221.15 138.303 220.8 138.703 220.3 C 139.103 219.8 139.586 219.1 140.153 218.2 C 140.72 217.3 141.37 216.083 142.103 214.55 C 141.236 214.017 140.336 213.75 139.403 213.75 ZM 193.103 200.55 C 194.57 201.483 195.553 202.883 196.053 204.75 C 196.553 206.617 196.47 208.617 195.803 210.75 C 195.07 213.283 193.77 215.383 191.903 217.05 C 189.77 218.983 187.27 219.95 184.403 219.95 C 183.87 219.95 183.47 219.917 183.203 219.85 C 182.803 225.783 182.42 232.567 182.053 240.2 C 181.686 247.833 181.336 256.417 181.003 265.95 C 181.003 267.017 180.47 267.55 179.403 267.55 C 178.936 267.55 178.553 267.383 178.253 267.05 C 177.953 266.717 177.803 266.317 177.803 265.85 C 178.336 251.583 178.87 239.4 179.403 229.3 C 179.936 219.2 180.503 211.117 181.103 205.05 C 181.503 200.983 181.903 198.017 182.303 196.15 C 182.436 195.217 182.62 194.55 182.853 194.15 C 183.086 193.75 183.37 193.483 183.703 193.35 C 184.236 193.017 184.803 193.017 185.403 193.35 C 185.736 193.55 185.97 193.867 186.103 194.3 C 186.236 194.733 186.17 195.15 185.903 195.55 C 185.903 195.617 185.836 195.717 185.703 195.85 C 185.636 195.983 185.57 196.25 185.503 196.65 C 185.436 197.05 185.336 197.617 185.203 198.35 C 185.07 199.083 184.936 200.067 184.803 201.3 C 184.67 202.533 184.503 204.05 184.303 205.85 C 186.303 201.85 188.47 199.85 190.803 199.85 C 191.67 199.85 192.436 200.083 193.103 200.55 Z M 192.703 209.85 C 193.103 208.383 193.186 207.067 192.953 205.9 C 192.72 204.733 192.203 203.883 191.403 203.35 C 191.27 203.217 191.07 203.15 190.803 203.15 C 190.27 203.15 189.586 203.667 188.753 204.7 C 187.92 205.733 186.936 207.583 185.803 210.25 C 185.336 211.45 184.92 212.617 184.553 213.75 C 184.186 214.883 183.903 215.85 183.703 216.65 L 184.403 216.65 C 186.736 216.65 188.57 215.917 189.903 214.45 C 191.236 212.983 192.17 211.45 192.703 209.85 ZM 201.903 230.35 L 201.403 230.35 C 200.87 230.35 200.47 230.15 200.203 229.75 C 200.003 229.483 199.87 229.217 199.803 228.95 C 199.736 228.683 199.736 228.083 199.803 227.15 L 199.803 226.85 C 199.736 225.983 199.67 224.883 199.603 223.55 C 199.536 222.217 199.453 220.8 199.353 219.3 C 199.253 217.8 199.153 216.283 199.053 214.75 C 198.953 213.217 198.87 211.817 198.803 210.55 C 198.736 210.083 198.853 209.683 199.153 209.35 C 199.453 209.017 199.836 208.85 200.303 208.85 C 200.77 208.783 201.17 208.9 201.503 209.2 C 201.836 209.5 202.003 209.883 202.003 210.35 C 202.07 211.283 202.17 212.717 202.303 214.65 C 202.37 214.517 202.436 214.4 202.503 214.3 C 202.57 214.2 202.636 214.083 202.703 213.95 C 203.836 211.883 205.103 210.617 206.503 210.15 C 207.903 209.683 209.17 209.517 210.303 209.65 C 211.37 209.783 211.836 210.383 211.703 211.45 C 211.57 212.517 210.97 212.983 209.903 212.85 C 208.57 212.783 207.503 213.15 206.703 213.95 C 205.97 214.683 205.37 215.6 204.903 216.7 C 204.436 217.8 204.07 218.983 203.803 220.25 C 203.536 221.517 203.353 222.75 203.253 223.95 C 203.153 225.15 203.07 226.15 203.003 226.95 C 203.07 227.483 203.103 227.9 203.103 228.2 C 203.103 228.5 203.103 228.717 203.103 228.85 C 203.036 229.317 202.886 229.65 202.653 229.85 C 202.42 230.05 202.17 230.217 201.903 230.35 ZM 220.203 232.25 C 219.803 232.25 219.503 232.183 219.303 232.05 C 217.303 230.783 215.836 228.65 214.903 225.65 C 213.97 222.65 213.77 219.35 214.303 215.75 C 214.836 212.217 216.02 209.25 217.853 206.85 C 219.686 204.45 222.003 202.883 224.803 202.15 C 227.07 201.55 228.703 201.85 229.703 203.05 C 230.836 204.317 230.803 206.45 229.603 209.45 C 229.003 210.85 228.17 212.367 227.103 214 C 226.036 215.633 224.836 217.217 223.503 218.75 C 222.703 219.683 221.786 220.617 220.753 221.55 C 219.72 222.483 218.703 223.183 217.703 223.65 C 218.036 224.983 218.486 226.133 219.053 227.1 C 219.62 228.067 220.27 228.783 221.003 229.25 C 221.403 229.517 221.653 229.867 221.753 230.3 C 221.853 230.733 221.803 231.15 221.603 231.55 C 221.336 232.017 220.87 232.25 220.203 232.25 Z M 227.203 205.15 L 226.903 205.15 C 226.77 205.15 226.603 205.15 226.403 205.15 C 226.203 205.15 225.936 205.217 225.603 205.35 C 223.47 205.883 221.703 207.117 220.303 209.05 C 218.903 210.983 217.97 213.383 217.503 216.25 C 217.303 217.717 217.236 219.017 217.303 220.15 C 217.636 219.95 218.036 219.633 218.503 219.2 C 218.97 218.767 219.503 218.25 220.103 217.65 C 221.103 216.517 222.07 215.317 223.003 214.05 C 223.936 212.783 224.77 211.517 225.503 210.25 C 226.436 208.65 226.986 207.45 227.153 206.65 C 227.32 205.85 227.336 205.35 227.203 205.15 ZM 259.303 193.05 C 260.303 193.05 260.87 193.583 261.003 194.65 C 261.003 195.117 260.853 195.517 260.553 195.85 C 260.253 196.183 259.87 196.35 259.403 196.35 C 255.403 196.483 251.553 196.717 247.853 197.05 C 244.153 197.383 240.636 197.783 237.303 198.25 C 236.97 202.583 236.62 207.05 236.253 211.65 C 235.886 216.25 235.553 220.717 235.253 225.05 C 234.953 229.383 234.686 233.533 234.453 237.5 C 234.22 241.467 234.02 245.017 233.853 248.15 C 233.686 251.283 233.603 253.883 233.603 255.95 C 233.603 258.017 233.67 259.383 233.803 260.05 C 233.936 260.517 233.87 260.933 233.603 261.3 C 233.336 261.667 232.97 261.917 232.503 262.05 L 232.203 262.05 C 231.336 262.05 230.803 261.617 230.603 260.75 C 230.403 259.95 230.32 258.333 230.353 255.9 C 230.386 253.467 230.486 250.517 230.653 247.05 C 230.82 243.583 231.02 239.767 231.253 235.6 C 231.486 231.433 231.77 227.183 232.103 222.85 C 232.436 218.517 232.77 214.267 233.103 210.1 C 233.436 205.933 233.736 202.15 234.003 198.75 C 230.536 199.283 227.403 199.817 224.603 200.35 C 221.803 200.883 219.403 201.367 217.403 201.8 C 215.403 202.233 213.836 202.6 212.703 202.9 C 211.57 203.2 211.003 203.35 211.003 203.35 C 210.936 203.417 210.803 203.45 210.603 203.45 C 209.736 203.45 209.203 203.05 209.003 202.25 C 208.67 201.183 209.036 200.517 210.103 200.25 C 210.17 200.25 210.786 200.083 211.953 199.75 C 213.12 199.417 214.753 199.033 216.853 198.6 C 218.953 198.167 221.486 197.667 224.453 197.1 C 227.42 196.533 230.703 195.983 234.303 195.45 C 234.503 192.983 234.67 190.9 234.803 189.2 C 234.936 187.5 235.07 186.283 235.203 185.55 C 235.203 185.083 235.37 184.7 235.703 184.4 C 236.036 184.1 236.436 183.983 236.903 184.05 C 237.37 184.117 237.753 184.317 238.053 184.65 C 238.353 184.983 238.47 185.383 238.403 185.85 C 238.27 187.317 238.136 188.8 238.003 190.3 C 237.87 191.8 237.736 193.35 237.603 194.95 C 240.87 194.483 244.32 194.083 247.953 193.75 C 251.586 193.417 255.37 193.183 259.303 193.05 ZM 267.903 193.05 C 268.903 193.05 269.47 193.583 269.603 194.65 C 269.603 195.117 269.453 195.517 269.153 195.85 C 268.853 196.183 268.47 196.35 268.003 196.35 C 264.003 196.483 260.153 196.717 256.453 197.05 C 252.753 197.383 249.236 197.783 245.903 198.25 C 245.57 202.583 245.22 207.05 244.853 211.65 C 244.486 216.25 244.153 220.717 243.853 225.05 C 243.553 229.383 243.286 233.533 243.053 237.5 C 242.82 241.467 242.62 245.017 242.453 248.15 C 242.286 251.283 242.203 253.883 242.203 255.95 C 242.203 258.017 242.27 259.383 242.403 260.05 C 242.536 260.517 242.47 260.933 242.203 261.3 C 241.936 261.667 241.57 261.917 241.103 262.05 L 240.803 262.05 C 239.936 262.05 239.403 261.617 239.203 260.75 C 239.003 259.95 238.92 258.333 238.953 255.9 C 238.986 253.467 239.086 250.517 239.253 247.05 C 239.42 243.583 239.62 239.767 239.853 235.6 C 240.086 231.433 240.37 227.183 240.703 222.85 C 241.036 218.517 241.37 214.267 241.703 210.1 C 242.036 205.933 242.336 202.15 242.603 198.75 C 239.136 199.283 236.003 199.817 233.203 200.35 C 230.403 200.883 228.003 201.367 226.003 201.8 C 224.003 202.233 222.436 202.6 221.303 202.9 C 220.17 203.2 219.603 203.35 219.603 203.35 C 219.536 203.417 219.403 203.45 219.203 203.45 C 218.336 203.45 217.803 203.05 217.603 202.25 C 217.27 201.183 217.636 200.517 218.703 200.25 C 218.77 200.25 219.386 200.083 220.553 199.75 C 221.72 199.417 223.353 199.033 225.453 198.6 C 227.553 198.167 230.086 197.667 233.053 197.1 C 236.02 196.533 239.303 195.983 242.903 195.45 C 243.103 192.983 243.27 190.9 243.403 189.2 C 243.536 187.5 243.67 186.283 243.803 185.55 C 243.803 185.083 243.97 184.7 244.303 184.4 C 244.636 184.1 245.036 183.983 245.503 184.05 C 245.97 184.117 246.353 184.317 246.653 184.65 C 246.953 184.983 247.07 185.383 247.003 185.85 C 246.87 187.317 246.736 188.8 246.603 190.3 C 246.47 191.8 246.336 193.35 246.203 194.95 C 249.47 194.483 252.92 194.083 256.553 193.75 C 260.186 193.417 263.97 193.183 267.903 193.05 ZM 249.303 232.85 C 248.636 232.85 248.136 232.483 247.803 231.75 C 247.67 231.483 247.553 231.117 247.453 230.65 C 247.353 230.183 247.303 229.517 247.303 228.65 C 247.303 227.783 247.386 226.717 247.553 225.45 C 247.72 224.183 247.97 222.583 248.303 220.65 C 248.636 218.65 248.986 216.883 249.353 215.35 C 249.72 213.817 249.936 213.017 250.003 212.95 C 250.136 212.483 250.386 212.133 250.753 211.9 C 251.12 211.667 251.536 211.617 252.003 211.75 C 252.403 211.883 252.72 212.133 252.953 212.5 C 253.186 212.867 253.236 213.283 253.103 213.75 C 252.97 214.483 252.803 215.25 252.603 216.05 C 252.47 216.783 252.286 217.6 252.053 218.5 C 251.82 219.4 251.636 220.317 251.503 221.25 C 251.17 222.983 250.936 224.433 250.803 225.6 C 250.67 226.767 250.603 227.7 250.603 228.4 C 250.603 229.1 250.636 229.617 250.703 229.95 C 250.77 230.283 250.803 230.483 250.803 230.55 C 251.27 231.617 250.97 232.317 249.903 232.65 C 249.636 232.783 249.436 232.85 249.303 232.85 Z M 251.503 209.25 C 251.036 209.25 250.653 209.083 250.353 208.75 C 250.053 208.417 249.903 208.017 249.903 207.55 C 249.903 207.15 250.053 206.8 250.353 206.5 C 250.653 206.2 251.003 206.017 251.403 205.95 C 251.403 205.883 251.42 205.833 251.453 205.8 C 251.486 205.767 251.503 205.683 251.503 205.55 C 251.636 205.083 251.886 204.717 252.253 204.45 C 252.62 204.183 253.036 204.117 253.503 204.25 C 253.97 204.383 254.32 204.633 254.553 205 C 254.786 205.367 254.836 205.783 254.703 206.25 C 254.37 207.583 253.853 208.417 253.153 208.75 C 252.453 209.083 251.903 209.25 251.503 209.25 ZM 284.203 194.55 C 284.67 194.55 285.053 194.717 285.353 195.05 C 285.653 195.383 285.803 195.783 285.803 196.25 C 285.803 196.65 285.653 197.017 285.353 197.35 C 285.053 197.683 284.67 197.85 284.203 197.85 L 284.103 197.85 C 279.503 197.717 275.436 197.717 271.903 197.85 C 268.37 197.983 265.203 198.217 262.403 198.55 C 261.67 201.75 260.92 205.533 260.153 209.9 C 259.386 214.267 258.67 219.25 258.003 224.85 C 257.336 230.45 256.77 236.717 256.303 243.65 C 255.836 250.583 255.536 258.283 255.403 266.75 C 255.403 267.217 255.236 267.6 254.903 267.9 C 254.57 268.2 254.203 268.35 253.803 268.35 L 253.703 268.35 C 253.236 268.35 252.853 268.183 252.553 267.85 C 252.253 267.517 252.103 267.117 252.103 266.65 C 252.636 239.25 254.903 216.717 258.903 199.05 C 257.436 199.25 256.103 199.467 254.903 199.7 C 253.703 199.933 252.636 200.183 251.703 200.45 C 250.236 200.85 249.02 201.233 248.053 201.6 C 247.086 201.967 246.303 202.317 245.703 202.65 C 244.97 202.983 244.403 203.317 244.003 203.65 L 241.703 201.35 C 241.836 201.217 242.503 200.75 243.703 199.95 C 244.903 199.15 247.103 198.317 250.303 197.45 C 252.97 196.717 256.136 196.083 259.803 195.55 C 261.203 189.883 262.736 185.117 264.403 181.25 C 266.07 177.383 267.77 174.617 269.503 172.95 C 270.57 171.95 271.636 171.45 272.703 171.45 C 273.903 171.517 274.836 172.033 275.503 173 C 276.17 173.967 276.67 175.1 277.003 176.4 C 277.336 177.7 277.536 179 277.603 180.3 C 277.67 181.6 277.703 182.583 277.703 183.25 C 277.703 183.917 277.686 184.517 277.653 185.05 C 277.62 185.583 277.57 186.083 277.503 186.55 C 277.436 186.883 277.286 187.4 277.053 188.1 C 276.82 188.8 276.27 189.15 275.403 189.15 C 274.336 189.15 273.803 188.617 273.803 187.55 C 273.803 187.017 273.936 186.617 274.203 186.35 C 274.336 185.95 274.42 185.267 274.453 184.3 C 274.486 183.333 274.47 182.267 274.403 181.1 C 274.336 179.933 274.203 178.817 274.003 177.75 C 273.803 176.683 273.503 175.85 273.103 175.25 C 272.903 174.917 272.736 174.75 272.603 174.75 C 272.403 174.817 272.003 175.167 271.403 175.8 C 270.803 176.433 270.07 177.5 269.203 179 C 268.336 180.5 267.403 182.533 266.403 185.1 C 265.403 187.667 264.403 190.883 263.403 194.75 C 263.336 194.817 263.303 194.883 263.303 194.95 C 263.303 195.017 263.27 195.083 263.203 195.15 C 269.27 194.55 276.27 194.35 284.203 194.55 ZM 273.603 281.45 L 273.003 281.45 C 271.003 281.45 269.636 280.417 268.903 278.35 C 267.903 275.483 268.236 270.85 269.903 264.45 C 270.636 261.517 271.62 258.383 272.853 255.05 C 274.086 251.717 275.503 248.35 277.103 244.95 C 279.036 240.683 281.07 236.75 283.203 233.15 C 283.336 229.483 283.436 226.183 283.503 223.25 C 283.57 220.317 283.536 217.917 283.403 216.05 C 283.27 216.383 283.103 216.717 282.903 217.05 C 282.703 217.383 282.536 217.717 282.403 218.05 C 280.536 222.05 278.753 225.383 277.053 228.05 C 275.353 230.717 273.536 232.083 271.603 232.15 C 270.47 232.15 269.603 231.717 269.003 230.85 C 268.803 230.583 268.603 230.2 268.403 229.7 C 268.203 229.2 268.086 228.517 268.053 227.65 C 268.02 226.783 268.07 225.65 268.203 224.25 C 268.336 222.85 268.636 221.117 269.103 219.05 C 269.57 216.917 270.053 215.05 270.553 213.45 C 271.053 211.85 271.303 210.983 271.303 210.85 C 271.436 210.45 271.703 210.15 272.103 209.95 C 272.503 209.75 272.936 209.717 273.403 209.85 C 273.803 209.983 274.103 210.25 274.303 210.65 C 274.503 211.05 274.536 211.45 274.403 211.85 C 274.403 211.917 274.153 212.767 273.653 214.4 C 273.153 216.033 272.67 217.917 272.203 220.05 C 271.47 223.383 271.153 225.65 271.253 226.85 C 271.353 228.05 271.47 228.717 271.603 228.85 C 271.736 228.85 272.086 228.65 272.653 228.25 C 273.22 227.85 274.036 226.817 275.103 225.15 C 275.836 223.883 276.586 222.5 277.353 221 C 278.12 219.5 278.836 218.05 279.503 216.65 C 280.703 214.117 281.586 212.367 282.153 211.4 C 282.72 210.433 283.37 209.883 284.103 209.75 C 284.703 209.617 285.27 209.817 285.803 210.35 C 285.87 210.483 285.97 210.65 286.103 210.85 C 286.236 211.05 286.353 211.467 286.453 212.1 C 286.553 212.733 286.636 213.633 286.703 214.8 C 286.77 215.967 286.803 217.55 286.803 219.55 C 286.803 220.75 286.786 222.017 286.753 223.35 C 286.72 224.683 286.703 226.05 286.703 227.45 C 286.97 227.05 287.22 226.65 287.453 226.25 C 287.686 225.85 287.97 225.483 288.303 225.15 C 292.903 218.55 297.336 213.85 301.603 211.05 C 302.536 210.45 303.303 210.617 303.903 211.55 C 304.17 211.883 304.253 212.283 304.153 212.75 C 304.053 213.217 303.803 213.55 303.403 213.75 C 300.67 215.55 297.853 218.183 294.953 221.65 C 292.053 225.117 289.203 229.25 286.403 234.05 C 286.403 234.583 286.386 235.1 286.353 235.6 C 286.32 236.1 286.27 236.617 286.203 237.15 C 286.07 239.617 285.853 242.5 285.553 245.8 C 285.253 249.1 284.87 252.467 284.403 255.9 C 283.936 259.333 283.37 262.683 282.703 265.95 C 282.036 269.217 281.203 272.05 280.203 274.45 C 278.336 278.85 276.136 281.183 273.603 281.45 Z M 282.703 241.05 L 282.703 240.75 C 282.236 241.683 281.786 242.6 281.353 243.5 C 280.92 244.4 280.47 245.317 280.003 246.25 C 278.47 249.65 277.103 252.967 275.903 256.2 C 274.703 259.433 273.753 262.433 273.053 265.2 C 272.353 267.967 271.903 270.4 271.703 272.5 C 271.503 274.6 271.603 276.183 272.003 277.25 C 272.136 277.783 272.303 278.083 272.503 278.15 C 272.703 278.217 272.936 278.25 273.203 278.25 C 273.736 278.183 274.203 277.933 274.603 277.5 C 275.003 277.067 275.37 276.617 275.703 276.15 C 277.303 273.617 278.703 269.35 279.903 263.35 C 281.103 257.35 282.036 249.917 282.703 241.05 ZM 349.103 193.05 C 350.103 193.05 350.67 193.583 350.803 194.65 C 350.803 195.117 350.653 195.517 350.353 195.85 C 350.053 196.183 349.67 196.35 349.203 196.35 C 345.203 196.483 341.353 196.717 337.653 197.05 C 333.953 197.383 330.436 197.783 327.103 198.25 C 326.77 202.583 326.42 207.05 326.053 211.65 C 325.686 216.25 325.353 220.717 325.053 225.05 C 324.753 229.383 324.486 233.533 324.253 237.5 C 324.02 241.467 323.82 245.017 323.653 248.15 C 323.486 251.283 323.403 253.883 323.403 255.95 C 323.403 258.017 323.47 259.383 323.603 260.05 C 323.736 260.517 323.67 260.933 323.403 261.3 C 323.136 261.667 322.77 261.917 322.303 262.05 L 322.003 262.05 C 321.136 262.05 320.603 261.617 320.403 260.75 C 320.203 259.95 320.12 258.333 320.153 255.9 C 320.186 253.467 320.286 250.517 320.453 247.05 C 320.62 243.583 320.82 239.767 321.053 235.6 C 321.286 231.433 321.57 227.183 321.903 222.85 C 322.236 218.517 322.57 214.267 322.903 210.1 C 323.236 205.933 323.536 202.15 323.803 198.75 C 320.336 199.283 317.203 199.817 314.403 200.35 C 311.603 200.883 309.203 201.367 307.203 201.8 C 305.203 202.233 303.636 202.6 302.503 202.9 C 301.37 203.2 300.803 203.35 300.803 203.35 C 300.736 203.417 300.603 203.45 300.403 203.45 C 299.536 203.45 299.003 203.05 298.803 202.25 C 298.47 201.183 298.836 200.517 299.903 200.25 C 299.97 200.25 300.586 200.083 301.753 199.75 C 302.92 199.417 304.553 199.033 306.653 198.6 C 308.753 198.167 311.286 197.667 314.253 197.1 C 317.22 196.533 320.503 195.983 324.103 195.45 C 324.303 192.983 324.47 190.9 324.603 189.2 C 324.736 187.5 324.87 186.283 325.003 185.55 C 325.003 185.083 325.17 184.7 325.503 184.4 C 325.836 184.1 326.236 183.983 326.703 184.05 C 327.17 184.117 327.553 184.317 327.853 184.65 C 328.153 184.983 328.27 185.383 328.203 185.85 C 328.07 187.317 327.936 188.8 327.803 190.3 C 327.67 191.8 327.536 193.35 327.403 194.95 C 330.67 194.483 334.12 194.083 337.753 193.75 C 341.386 193.417 345.17 193.183 349.103 193.05 ZM 331.003 233.15 L 330.703 233.15 C 329.903 233.017 329.386 232.567 329.153 231.8 C 328.92 231.033 328.77 230.417 328.703 229.95 C 328.703 229.75 328.686 229.4 328.653 228.9 C 328.62 228.4 328.67 227.6 328.803 226.5 C 328.936 225.4 329.136 223.9 329.403 222 C 329.67 220.1 330.07 217.617 330.603 214.55 C 331.136 211.483 331.853 207.717 332.753 203.25 C 333.653 198.783 334.77 193.483 336.103 187.35 C 337.103 182.817 338.07 178.417 339.003 174.15 C 339.936 169.883 340.786 166.1 341.553 162.8 C 342.32 159.5 342.936 156.85 343.403 154.85 C 343.87 152.85 344.103 151.817 344.103 151.75 C 344.236 151.283 344.486 150.933 344.853 150.7 C 345.22 150.467 345.636 150.417 346.103 150.55 C 346.57 150.683 346.92 150.933 347.153 151.3 C 347.386 151.667 347.436 152.05 347.303 152.45 C 346.636 155.317 345.836 158.783 344.903 162.85 C 343.97 166.917 342.986 171.267 341.953 175.9 C 340.92 180.533 339.886 185.3 338.853 190.2 C 337.82 195.1 336.853 199.783 335.953 204.25 C 335.053 208.717 334.27 212.817 333.603 216.55 C 332.936 220.283 332.47 223.317 332.203 225.65 C 332.803 224.117 333.453 222.55 334.153 220.95 C 334.853 219.35 335.62 217.933 336.453 216.7 C 337.286 215.467 338.186 214.483 339.153 213.75 C 340.12 213.017 341.203 212.75 342.403 212.95 C 343.47 213.15 344.32 213.517 344.953 214.05 C 345.586 214.583 346.086 215.2 346.453 215.9 C 346.82 216.6 347.07 217.35 347.203 218.15 C 347.336 218.95 347.47 219.683 347.603 220.35 C 347.736 221.017 347.853 221.683 347.953 222.35 C 348.053 223.017 348.236 223.45 348.503 223.65 C 348.836 223.85 349.27 223.883 349.803 223.75 C 351.003 223.617 352.37 223.017 353.903 221.95 C 355.436 220.883 356.936 219.65 358.403 218.25 C 359.87 216.85 361.236 215.45 362.503 214.05 C 363.77 212.65 364.736 211.517 365.403 210.65 C 365.736 210.317 366.12 210.1 366.553 210 C 366.986 209.9 367.37 210.017 367.703 210.35 C 368.036 210.683 368.236 211.067 368.303 211.5 C 368.37 211.933 368.27 212.317 368.003 212.65 C 367.936 212.717 367.336 213.417 366.203 214.75 C 365.07 216.083 363.67 217.617 362.003 219.35 C 359.67 221.683 357.52 223.483 355.553 224.75 C 353.586 226.017 351.836 226.783 350.303 227.05 C 348.77 227.25 347.536 226.983 346.603 226.25 C 345.736 225.583 345.186 224.767 344.953 223.8 C 344.72 222.833 344.536 221.817 344.403 220.75 C 344.203 219.217 343.953 218.1 343.653 217.4 C 343.353 216.7 342.77 216.283 341.903 216.15 C 341.103 216.017 340.07 217.017 338.803 219.15 C 338.07 220.283 337.403 221.583 336.803 223.05 C 336.203 224.517 335.636 225.883 335.103 227.15 C 334.77 227.883 334.486 228.55 334.253 229.15 C 334.02 229.75 333.77 230.317 333.503 230.85 C 333.303 231.25 333.02 231.733 332.653 232.3 C 332.286 232.867 331.736 233.15 331.003 233.15 ZM 367.003 232.85 C 366.336 232.85 365.836 232.483 365.503 231.75 C 365.37 231.483 365.253 231.117 365.153 230.65 C 365.053 230.183 365.003 229.517 365.003 228.65 C 365.003 227.783 365.086 226.717 365.253 225.45 C 365.42 224.183 365.67 222.583 366.003 220.65 C 366.336 218.65 366.686 216.883 367.053 215.35 C 367.42 213.817 367.636 213.017 367.703 212.95 C 367.836 212.483 368.086 212.133 368.453 211.9 C 368.82 211.667 369.236 211.617 369.703 211.75 C 370.103 211.883 370.42 212.133 370.653 212.5 C 370.886 212.867 370.936 213.283 370.803 213.75 C 370.67 214.483 370.503 215.25 370.303 216.05 C 370.17 216.783 369.986 217.6 369.753 218.5 C 369.52 219.4 369.336 220.317 369.203 221.25 C 368.87 222.983 368.636 224.433 368.503 225.6 C 368.37 226.767 368.303 227.7 368.303 228.4 C 368.303 229.1 368.336 229.617 368.403 229.95 C 368.47 230.283 368.503 230.483 368.503 230.55 C 368.97 231.617 368.67 232.317 367.603 232.65 C 367.336 232.783 367.136 232.85 367.003 232.85 Z M 369.203 209.25 C 368.736 209.25 368.353 209.083 368.053 208.75 C 367.753 208.417 367.603 208.017 367.603 207.55 C 367.603 207.15 367.753 206.8 368.053 206.5 C 368.353 206.2 368.703 206.017 369.103 205.95 C 369.103 205.883 369.12 205.833 369.153 205.8 C 369.186 205.767 369.203 205.683 369.203 205.55 C 369.336 205.083 369.586 204.717 369.953 204.45 C 370.32 204.183 370.736 204.117 371.203 204.25 C 371.67 204.383 372.02 204.633 372.253 205 C 372.486 205.367 372.536 205.783 372.403 206.25 C 372.07 207.583 371.553 208.417 370.853 208.75 C 370.153 209.083 369.603 209.25 369.203 209.25 ZM 391.003 244.25 L 390.803 244.25 C 389.27 244.05 388.12 243.25 387.353 241.85 C 386.586 240.45 386.07 238.7 385.803 236.6 C 385.536 234.5 385.436 232.183 385.503 229.65 C 385.57 227.117 385.67 224.583 385.803 222.05 C 385.936 220.717 386.036 219.35 386.103 217.95 C 386.17 216.55 386.17 215.383 386.103 214.45 C 385.97 214.717 385.803 215 385.603 215.3 C 385.403 215.6 385.17 216.017 384.903 216.55 C 384.436 217.483 383.97 218.5 383.503 219.6 C 383.036 220.7 382.57 221.817 382.103 222.95 C 380.703 226.283 379.636 228.6 378.903 229.9 C 378.17 231.2 377.336 231.85 376.403 231.85 C 375.67 231.85 375.17 231.617 374.903 231.15 C 374.57 230.817 374.353 230.267 374.253 229.5 C 374.153 228.733 374.236 227.383 374.503 225.45 C 374.636 224.383 374.82 223.167 375.053 221.8 C 375.286 220.433 375.57 218.883 375.903 217.15 C 376.17 215.75 376.453 214.367 376.753 213 C 377.053 211.633 377.32 210.417 377.553 209.35 C 377.786 208.283 377.97 207.417 378.103 206.75 C 378.236 206.083 378.303 205.75 378.303 205.75 C 378.436 205.283 378.686 204.933 379.053 204.7 C 379.42 204.467 379.836 204.417 380.303 204.55 C 380.703 204.683 381.036 204.933 381.303 205.3 C 381.57 205.667 381.636 206.083 381.503 206.55 C 381.303 207.483 381.07 208.55 380.803 209.75 C 380.603 210.75 380.353 211.9 380.053 213.2 C 379.753 214.5 379.47 215.817 379.203 217.15 C 378.87 218.75 378.603 220.133 378.403 221.3 C 378.203 222.467 378.036 223.517 377.903 224.45 C 378.103 223.983 378.303 223.517 378.503 223.05 C 378.703 222.583 378.903 222.15 379.103 221.75 C 379.636 220.417 380.186 219.083 380.753 217.75 C 381.32 216.417 381.903 215.217 382.503 214.15 C 382.703 213.75 382.953 213.3 383.253 212.8 C 383.553 212.3 383.903 211.817 384.303 211.35 C 384.703 210.883 385.153 210.533 385.653 210.3 C 386.153 210.067 386.703 210.017 387.303 210.15 C 388.236 210.417 388.803 211.033 389.003 212 C 389.203 212.967 389.303 213.95 389.303 214.95 C 389.37 215.883 389.37 216.983 389.303 218.25 C 389.236 219.517 389.17 220.85 389.103 222.25 C 388.97 224.383 388.87 226.6 388.803 228.9 C 388.736 231.2 388.803 233.317 389.003 235.25 C 389.336 238.917 390.07 240.817 391.203 240.95 C 391.67 241.017 392.053 241.217 392.353 241.55 C 392.653 241.883 392.77 242.283 392.703 242.75 C 392.57 243.75 392.003 244.25 391.003 244.25 ZM 388.603 284.75 L 388.303 284.75 L 388.203 284.75 C 386.536 284.617 385.136 284.3 384.003 283.8 C 382.87 283.3 381.92 282.7 381.153 282 C 380.386 281.3 379.82 280.533 379.453 279.7 C 379.086 278.867 378.803 278.05 378.603 277.25 C 378.07 274.783 378.253 271.917 379.153 268.65 C 380.053 265.383 381.303 262.05 382.903 258.65 C 384.503 255.25 386.303 251.933 388.303 248.7 C 390.303 245.467 392.103 242.65 393.703 240.25 C 395.436 237.717 397.22 235.25 399.053 232.85 C 400.886 230.45 402.703 228.183 404.503 226.05 C 404.503 222.917 404.47 220.017 404.403 217.35 C 404.336 214.683 404.236 212.383 404.103 210.45 C 404.036 210.583 403.97 210.717 403.903 210.85 C 403.836 210.983 403.77 211.117 403.703 211.25 C 402.836 212.783 402.053 214 401.353 214.9 C 400.653 215.8 400.02 216.5 399.453 217 C 398.886 217.5 398.403 217.85 398.003 218.05 C 397.603 218.25 397.236 218.383 396.903 218.45 C 395.77 218.583 394.87 218.25 394.203 217.45 C 393.87 217.117 393.553 216.517 393.253 215.65 C 392.953 214.783 393.136 213.683 393.803 212.35 C 394.203 211.55 394.753 210.75 395.453 209.95 C 396.153 209.15 396.953 208.417 397.853 207.75 C 398.753 207.083 399.67 206.517 400.603 206.05 C 401.536 205.583 402.436 205.25 403.303 205.05 C 403.436 204.85 403.52 204.683 403.553 204.55 C 403.586 204.417 403.636 204.283 403.703 204.15 L 403.903 203.75 C 404.236 202.95 404.836 202.65 405.703 202.85 C 406.57 202.983 407.003 203.483 407.003 204.35 C 407.003 204.35 407.036 204.8 407.103 205.7 C 407.17 206.6 407.236 207.85 407.303 209.45 C 407.37 211.05 407.453 212.933 407.553 215.1 C 407.653 217.267 407.703 219.65 407.703 222.25 C 409.836 219.85 411.82 217.817 413.653 216.15 C 415.486 214.483 416.97 213.317 418.103 212.65 C 418.503 212.45 418.92 212.417 419.353 212.55 C 419.786 212.683 420.103 212.95 420.303 213.35 C 420.57 213.75 420.636 214.167 420.503 214.6 C 420.37 215.033 420.103 215.35 419.703 215.55 C 418.57 216.15 416.953 217.483 414.853 219.55 C 412.753 221.617 410.403 224.183 407.803 227.25 C 407.803 228.783 407.786 230.317 407.753 231.85 C 407.72 233.383 407.67 234.95 407.603 236.55 C 406.803 259.617 403.27 274.417 397.003 280.95 C 394.603 283.483 391.803 284.75 388.603 284.75 Z M 388.403 281.45 C 390.736 281.517 392.836 280.583 394.703 278.65 C 397.503 275.717 399.72 270.7 401.353 263.6 C 402.986 256.5 403.97 247.45 404.303 236.45 C 404.37 235.517 404.403 234.633 404.403 233.8 C 404.403 232.967 404.436 232.117 404.503 231.25 C 403.17 232.917 401.82 234.667 400.453 236.5 C 399.086 238.333 397.736 240.217 396.403 242.15 C 391.07 249.95 387.136 256.833 384.603 262.8 C 382.07 268.767 381.136 273.383 381.803 276.65 C 381.87 277.117 382.02 277.617 382.253 278.15 C 382.486 278.683 382.853 279.167 383.353 279.6 C 383.853 280.033 384.503 280.433 385.303 280.8 C 386.103 281.167 387.136 281.383 388.403 281.45 Z M 400.903 209.65 C 399.97 210.183 399.12 210.817 398.353 211.55 C 397.586 212.283 397.036 213.017 396.703 213.75 C 396.503 214.15 396.403 214.45 396.403 214.65 C 396.403 214.85 396.436 215.017 396.503 215.15 C 396.77 215.017 397.236 214.6 397.903 213.9 C 398.57 213.2 399.57 211.783 400.903 209.65 ZM 419.903 237.55 C 418.97 237.55 418.136 237.333 417.403 236.9 C 416.67 236.467 416.136 235.883 415.803 235.15 C 414.603 232.483 416.27 228.783 420.803 224.05 C 420.736 223.917 420.703 223.817 420.703 223.75 C 420.703 223.683 420.67 223.583 420.603 223.45 C 420.136 221.783 419.72 220.133 419.353 218.5 C 418.986 216.867 418.736 215.35 418.603 213.95 C 418.203 210.15 419.17 207.85 421.503 207.05 C 423.37 206.45 425.07 206.517 426.603 207.25 C 427.27 207.583 427.82 207.983 428.253 208.45 C 428.686 208.917 429.053 209.367 429.353 209.8 C 429.653 210.233 429.87 210.617 430.003 210.95 C 430.136 211.283 430.203 211.483 430.203 211.55 C 430.336 211.95 430.32 212.35 430.153 212.75 C 429.986 213.15 429.67 213.417 429.203 213.55 C 428.803 213.683 428.386 213.667 427.953 213.5 C 427.52 213.333 427.236 213.017 427.103 212.55 L 426.803 211.95 C 426.67 211.817 426.553 211.633 426.453 211.4 C 426.353 211.167 426.203 210.95 426.003 210.75 C 425.136 209.883 423.97 209.683 422.503 210.15 C 422.103 210.283 421.87 210.75 421.803 211.55 C 421.736 212.35 421.736 213.05 421.803 213.65 C 421.936 214.783 422.153 216.017 422.453 217.35 C 422.753 218.683 423.103 220.05 423.503 221.45 C 425.036 220.117 426.753 218.7 428.653 217.2 C 430.553 215.7 432.67 214.15 435.003 212.55 C 435.336 212.283 435.72 212.2 436.153 212.3 C 436.586 212.4 436.936 212.617 437.203 212.95 C 437.87 213.75 437.736 214.517 436.803 215.25 C 431.47 218.917 427.336 222.183 424.403 225.05 C 424.736 226.317 425.02 227.517 425.253 228.65 C 425.486 229.783 425.636 230.85 425.703 231.85 C 425.836 233.317 425.453 234.517 424.553 235.45 C 423.653 236.383 422.636 237.017 421.503 237.35 C 420.836 237.483 420.303 237.55 419.903 237.55 Z M 421.703 227.85 C 421.57 227.983 421.47 228.117 421.403 228.25 C 421.336 228.383 421.236 228.517 421.103 228.65 C 420.37 229.583 419.836 230.367 419.503 231 C 419.17 231.633 418.953 232.15 418.853 232.55 C 418.753 232.95 418.72 233.25 418.753 233.45 C 418.786 233.65 418.803 233.783 418.803 233.85 C 419.003 234.317 419.636 234.417 420.703 234.15 C 420.836 234.15 421.186 234 421.753 233.7 C 422.32 233.4 422.57 232.883 422.503 232.15 C 422.436 231.483 422.336 230.8 422.203 230.1 C 422.07 229.4 421.903 228.65 421.703 227.85 Z" transform="matrix(1, 0, 0, 1, -25.335933685302738, 24.90333557128907)" style="fill: rgb(169, 169, 169); white-space: pre;"/>
  <path d="M 60.459 356.699 C 59.992 356.699 59.476 356.599 58.909 356.399 C 58.342 356.199 57.759 355.766 57.159 355.099 C 55.559 353.232 54.659 349.099 54.459 342.699 C 54.392 340.299 54.459 337.582 54.659 334.549 C 54.859 331.516 55.126 328.199 55.459 324.599 C 55.726 321.532 56.059 318.566 56.459 315.699 C 56.859 312.832 57.209 310.282 57.509 308.049 C 57.809 305.816 58.076 304.016 58.309 302.649 C 58.542 301.282 58.659 300.599 58.659 300.599 C 58.792 300.066 59.042 299.666 59.409 299.399 C 59.776 299.132 60.226 299.032 60.759 299.099 C 61.292 299.232 61.709 299.499 62.009 299.899 C 62.309 300.299 62.392 300.766 62.259 301.299 C 62.259 301.299 62.142 301.966 61.909 303.299 C 61.676 304.632 61.409 306.399 61.109 308.599 C 60.809 310.799 60.459 313.316 60.059 316.149 C 59.659 318.982 59.326 321.899 59.059 324.899 C 58.526 330.299 58.226 334.732 58.159 338.199 C 58.092 341.666 58.159 344.432 58.359 346.499 C 58.559 348.566 58.826 350.066 59.159 350.999 C 59.492 351.932 59.759 352.532 59.959 352.799 C 60.159 352.932 60.326 352.999 60.459 352.999 C 62.459 352.999 64.342 352.399 66.109 351.199 C 67.876 349.999 69.392 348.666 70.659 347.199 C 71.926 345.732 72.942 344.382 73.709 343.149 C 74.476 341.916 74.859 341.299 74.859 341.299 C 75.059 340.832 75.392 340.516 75.859 340.349 C 76.326 340.182 76.792 340.232 77.259 340.499 C 77.726 340.699 78.042 341.032 78.209 341.499 C 78.376 341.966 78.326 342.432 78.059 342.899 C 77.992 343.032 77.526 343.832 76.659 345.299 C 75.792 346.766 74.576 348.349 73.009 350.049 C 71.442 351.749 69.609 353.282 67.509 354.649 C 65.409 356.016 63.059 356.699 60.459 356.699 ZM 85.059 351.499 C 84.659 351.499 84.359 351.432 84.159 351.299 C 82.159 350.032 80.692 347.899 79.759 344.899 C 78.826 341.899 78.626 338.599 79.159 334.999 C 79.692 331.466 80.876 328.499 82.709 326.099 C 84.542 323.699 86.859 322.132 89.659 321.399 C 91.926 320.799 93.559 321.099 94.559 322.299 C 95.692 323.566 95.659 325.699 94.459 328.699 C 93.859 330.099 93.026 331.616 91.959 333.249 C 90.892 334.882 89.692 336.466 88.359 337.999 C 87.559 338.932 86.642 339.866 85.609 340.799 C 84.576 341.732 83.559 342.432 82.559 342.899 C 82.892 344.232 83.342 345.382 83.909 346.349 C 84.476 347.316 85.126 348.032 85.859 348.499 C 86.259 348.766 86.509 349.116 86.609 349.549 C 86.709 349.982 86.659 350.399 86.459 350.799 C 86.192 351.266 85.726 351.499 85.059 351.499 Z M 92.059 324.399 L 91.759 324.399 C 91.626 324.399 91.459 324.399 91.259 324.399 C 91.059 324.399 90.792 324.466 90.459 324.599 C 88.326 325.132 86.559 326.366 85.159 328.299 C 83.759 330.232 82.826 332.632 82.359 335.499 C 82.159 336.966 82.092 338.266 82.159 339.399 C 82.492 339.199 82.892 338.882 83.359 338.449 C 83.826 338.016 84.359 337.499 84.959 336.899 C 85.959 335.766 86.926 334.566 87.859 333.299 C 88.792 332.032 89.626 330.766 90.359 329.499 C 91.292 327.899 91.842 326.699 92.009 325.899 C 92.176 325.099 92.192 324.599 92.059 324.399 ZM 124.159 312.299 C 125.159 312.299 125.726 312.832 125.859 313.899 C 125.859 314.366 125.709 314.766 125.409 315.099 C 125.109 315.432 124.726 315.599 124.259 315.599 C 120.259 315.732 116.409 315.966 112.709 316.299 C 109.009 316.632 105.492 317.032 102.159 317.499 C 101.826 321.832 101.476 326.299 101.109 330.899 C 100.742 335.499 100.409 339.966 100.109 344.299 C 99.809 348.632 99.542 352.782 99.309 356.749 C 99.076 360.716 98.876 364.266 98.709 367.399 C 98.542 370.532 98.459 373.132 98.459 375.199 C 98.459 377.266 98.526 378.632 98.659 379.299 C 98.792 379.766 98.726 380.182 98.459 380.549 C 98.192 380.916 97.826 381.166 97.359 381.299 L 97.059 381.299 C 96.192 381.299 95.659 380.866 95.459 379.999 C 95.259 379.199 95.176 377.582 95.209 375.149 C 95.242 372.716 95.342 369.766 95.509 366.299 C 95.676 362.832 95.876 359.016 96.109 354.849 C 96.342 350.682 96.626 346.432 96.959 342.099 C 97.292 337.766 97.626 333.516 97.959 329.349 C 98.292 325.182 98.592 321.399 98.859 317.999 C 95.392 318.532 92.259 319.066 89.459 319.599 C 86.659 320.132 84.259 320.616 82.259 321.049 C 80.259 321.482 78.692 321.849 77.559 322.149 C 76.426 322.449 75.859 322.599 75.859 322.599 C 75.792 322.666 75.659 322.699 75.459 322.699 C 74.592 322.699 74.059 322.299 73.859 321.499 C 73.526 320.432 73.892 319.766 74.959 319.499 C 75.026 319.499 75.642 319.332 76.809 318.999 C 77.976 318.666 79.609 318.282 81.709 317.849 C 83.809 317.416 86.342 316.916 89.309 316.349 C 92.276 315.782 95.559 315.232 99.159 314.699 C 99.359 312.232 99.526 310.149 99.659 308.449 C 99.792 306.749 99.926 305.532 100.059 304.799 C 100.059 304.332 100.226 303.949 100.559 303.649 C 100.892 303.349 101.292 303.232 101.759 303.299 C 102.226 303.366 102.609 303.566 102.909 303.899 C 103.209 304.232 103.326 304.632 103.259 305.099 C 103.126 306.566 102.992 308.049 102.859 309.549 C 102.726 311.049 102.592 312.599 102.459 314.199 C 105.726 313.732 109.176 313.332 112.809 312.999 C 116.442 312.666 120.226 312.432 124.159 312.299 ZM 126.677 356.799 C 125.743 356.799 124.91 356.582 124.177 356.149 C 123.443 355.716 122.91 355.132 122.577 354.399 C 121.377 351.732 123.043 348.032 127.577 343.299 C 127.51 343.166 127.477 343.066 127.477 342.999 C 127.477 342.932 127.443 342.832 127.377 342.699 C 126.91 341.032 126.493 339.382 126.127 337.749 C 125.76 336.116 125.51 334.599 125.377 333.199 C 124.977 329.399 125.943 327.099 128.277 326.299 C 130.143 325.699 131.843 325.766 133.377 326.499 C 134.043 326.832 134.593 327.232 135.027 327.699 C 135.46 328.166 135.827 328.616 136.127 329.049 C 136.427 329.482 136.643 329.866 136.777 330.199 C 136.91 330.532 136.977 330.732 136.977 330.799 C 137.11 331.199 137.093 331.599 136.927 331.999 C 136.76 332.399 136.443 332.666 135.977 332.799 C 135.577 332.932 135.16 332.916 134.727 332.749 C 134.293 332.582 134.01 332.266 133.877 331.799 L 133.577 331.199 C 133.443 331.066 133.327 330.882 133.227 330.649 C 133.127 330.416 132.977 330.199 132.777 329.999 C 131.91 329.132 130.743 328.932 129.277 329.399 C 128.877 329.532 128.643 329.999 128.577 330.799 C 128.51 331.599 128.51 332.299 128.577 332.899 C 128.71 334.032 128.927 335.266 129.227 336.599 C 129.527 337.932 129.877 339.299 130.277 340.699 C 131.81 339.366 133.527 337.949 135.427 336.449 C 137.327 334.949 139.443 333.399 141.777 331.799 C 142.11 331.532 142.493 331.449 142.927 331.549 C 143.36 331.649 143.71 331.866 143.977 332.199 C 144.643 332.999 144.51 333.766 143.577 334.499 C 138.243 338.166 134.11 341.432 131.177 344.299 C 131.51 345.566 131.793 346.766 132.027 347.899 C 132.26 349.032 132.41 350.099 132.477 351.099 C 132.61 352.566 132.227 353.766 131.327 354.699 C 130.427 355.632 129.41 356.266 128.277 356.599 C 127.61 356.732 127.077 356.799 126.677 356.799 Z M 128.477 347.099 C 128.343 347.232 128.243 347.366 128.177 347.499 C 128.11 347.632 128.01 347.766 127.877 347.899 C 127.143 348.832 126.61 349.616 126.277 350.249 C 125.943 350.882 125.727 351.399 125.627 351.799 C 125.527 352.199 125.493 352.499 125.527 352.699 C 125.56 352.899 125.577 353.032 125.577 353.099 C 125.777 353.566 126.41 353.666 127.477 353.399 C 127.61 353.399 127.96 353.249 128.527 352.949 C 129.093 352.649 129.343 352.132 129.277 351.399 C 129.21 350.732 129.11 350.049 128.977 349.349 C 128.843 348.649 128.677 347.899 128.477 347.099 ZM 181.977 328.799 C 182.643 329.466 183.143 330.499 183.477 331.899 C 183.81 333.299 183.443 335.299 182.377 337.899 C 181.643 339.632 180.71 341.366 179.577 343.099 C 178.443 344.832 177.177 346.432 175.777 347.899 C 175.31 348.432 174.743 348.999 174.077 349.599 C 173.41 350.199 172.677 350.749 171.877 351.249 C 171.077 351.749 170.243 352.182 169.377 352.549 C 168.51 352.916 167.643 353.099 166.777 353.099 C 166.443 353.099 166.06 353.066 165.627 352.999 C 165.193 352.932 164.743 352.766 164.277 352.499 C 163.943 354.632 163.693 356.349 163.527 357.649 C 163.36 358.949 163.277 359.766 163.277 360.099 C 163.343 360.566 163.243 360.949 162.977 361.249 C 162.71 361.549 162.377 361.766 161.977 361.899 L 161.677 361.899 C 160.743 361.899 160.21 361.432 160.077 360.499 C 160.077 360.432 160.06 360.299 160.027 360.099 C 159.993 359.899 160.027 359.416 160.127 358.649 C 160.227 357.882 160.377 356.732 160.577 355.199 C 160.777 353.666 161.077 351.532 161.477 348.799 C 161.277 347.866 161.41 346.732 161.877 345.399 C 162.277 342.532 162.76 339.116 163.327 335.149 C 163.893 331.182 164.577 326.466 165.377 320.999 C 166.043 316.266 166.71 311.632 167.377 307.099 C 168.043 302.566 168.643 298.532 169.177 294.999 C 169.71 291.466 170.143 288.599 170.477 286.399 C 170.81 284.199 170.977 283.099 170.977 283.099 C 171.11 282.032 171.71 281.566 172.777 281.699 C 173.843 281.832 174.31 282.432 174.177 283.499 C 173.577 287.632 172.927 292.016 172.227 296.649 C 171.527 301.282 170.843 305.949 170.177 310.649 C 169.51 315.349 168.843 319.982 168.177 324.549 C 167.51 329.116 166.91 333.399 166.377 337.399 C 166.977 336.599 167.727 335.632 168.627 334.499 C 169.527 333.366 170.527 332.282 171.627 331.249 C 172.727 330.216 173.877 329.332 175.077 328.599 C 176.277 327.866 177.477 327.499 178.677 327.499 C 180.01 327.499 181.11 327.932 181.977 328.799 Z M 179.377 336.699 C 179.91 335.366 180.193 334.199 180.227 333.199 C 180.26 332.199 180.077 331.532 179.677 331.199 C 179.41 330.932 179.077 330.799 178.677 330.799 C 177.81 330.799 176.71 331.282 175.377 332.249 C 174.043 333.216 172.643 334.566 171.177 336.299 C 169.643 338.232 168.36 340.082 167.327 341.849 C 166.293 343.616 165.543 345.066 165.077 346.199 C 165.01 346.532 164.96 346.899 164.927 347.299 C 164.893 347.699 164.843 348.066 164.777 348.399 C 165.11 349.066 165.443 349.466 165.777 349.599 C 166.11 349.732 166.443 349.799 166.777 349.799 C 167.643 349.799 168.66 349.416 169.827 348.649 C 170.993 347.882 172.177 346.882 173.377 345.649 C 174.577 344.416 175.71 343.016 176.777 341.449 C 177.843 339.882 178.71 338.299 179.377 336.699 ZM 196.277 352.099 C 196.143 352.099 196.06 352.082 196.027 352.049 C 195.993 352.016 195.943 351.999 195.877 351.999 C 194.41 351.666 193.593 350.432 193.427 348.299 C 193.26 346.166 193.477 343.099 194.077 339.099 C 192.943 340.832 191.793 342.266 190.627 343.399 C 189.46 344.532 188.21 345.066 186.877 344.999 C 185.677 344.866 184.843 344.366 184.377 343.499 C 184.043 343.032 183.843 342.166 183.777 340.899 C 183.71 339.632 184.21 337.532 185.277 334.599 C 185.81 333.066 186.343 331.766 186.877 330.699 C 187.41 329.632 187.677 329.066 187.677 328.999 C 187.877 328.599 188.193 328.316 188.627 328.149 C 189.06 327.982 189.477 327.999 189.877 328.199 C 190.277 328.399 190.56 328.716 190.727 329.149 C 190.893 329.582 190.877 329.999 190.677 330.399 C 190.61 330.399 190.343 330.932 189.877 331.999 C 189.41 333.066 188.91 334.299 188.377 335.699 C 187.643 337.766 187.227 339.232 187.127 340.099 C 187.027 340.966 187.01 341.499 187.077 341.699 C 187.277 341.699 187.66 341.516 188.227 341.149 C 188.793 340.782 189.61 339.866 190.677 338.399 C 191.41 337.266 192.11 336.082 192.777 334.849 C 193.443 333.616 194.01 332.532 194.477 331.599 L 195.277 329.999 C 195.477 329.732 195.71 329.432 195.977 329.099 C 196.243 328.766 196.643 328.599 197.177 328.599 C 197.643 328.599 198.077 328.799 198.477 329.199 C 198.743 329.532 198.877 329.882 198.877 330.249 C 198.877 330.616 198.81 331.066 198.677 331.599 C 198.61 331.932 198.56 332.299 198.527 332.699 C 198.493 333.099 198.41 333.566 198.277 334.099 C 198.01 335.366 197.743 336.799 197.477 338.399 C 197.21 339.999 196.977 341.566 196.777 343.099 C 196.577 345.232 196.527 346.699 196.627 347.499 C 196.727 348.299 196.81 348.766 196.877 348.899 C 197.21 349.032 197.493 349.299 197.727 349.699 C 197.96 350.099 198.01 350.466 197.877 350.799 C 197.677 351.666 197.143 352.099 196.277 352.099 ZM 201.277 352.099 C 200.61 352.099 200.11 351.732 199.777 350.999 C 199.643 350.732 199.527 350.366 199.427 349.899 C 199.327 349.432 199.277 348.766 199.277 347.899 C 199.277 347.032 199.36 345.966 199.527 344.699 C 199.693 343.432 199.943 341.832 200.277 339.899 C 200.61 337.899 200.96 336.132 201.327 334.599 C 201.693 333.066 201.91 332.266 201.977 332.199 C 202.11 331.732 202.36 331.382 202.727 331.149 C 203.093 330.916 203.51 330.866 203.977 330.999 C 204.377 331.132 204.693 331.382 204.927 331.749 C 205.16 332.116 205.21 332.532 205.077 332.999 C 204.943 333.732 204.777 334.499 204.577 335.299 C 204.443 336.032 204.26 336.849 204.027 337.749 C 203.793 338.649 203.61 339.566 203.477 340.499 C 203.143 342.232 202.91 343.682 202.777 344.849 C 202.643 346.016 202.577 346.949 202.577 347.649 C 202.577 348.349 202.61 348.866 202.677 349.199 C 202.743 349.532 202.777 349.732 202.777 349.799 C 203.243 350.866 202.943 351.566 201.877 351.899 C 201.61 352.032 201.41 352.099 201.277 352.099 Z M 203.477 328.499 C 203.01 328.499 202.627 328.332 202.327 327.999 C 202.027 327.666 201.877 327.266 201.877 326.799 C 201.877 326.399 202.027 326.049 202.327 325.749 C 202.627 325.449 202.977 325.266 203.377 325.199 C 203.377 325.132 203.393 325.082 203.427 325.049 C 203.46 325.016 203.477 324.932 203.477 324.799 C 203.61 324.332 203.86 323.966 204.227 323.699 C 204.593 323.432 205.01 323.366 205.477 323.499 C 205.943 323.632 206.293 323.882 206.527 324.249 C 206.76 324.616 206.81 325.032 206.677 325.499 C 206.343 326.832 205.827 327.666 205.127 327.999 C 204.427 328.332 203.877 328.499 203.477 328.499 ZM 210.577 360.799 C 209.91 360.799 209.31 360.532 208.777 359.999 C 208.577 359.732 208.393 359.399 208.227 358.999 C 208.06 358.599 207.91 357.999 207.777 357.199 C 207.643 356.399 207.56 355.366 207.527 354.099 C 207.493 352.832 207.543 351.232 207.677 349.299 C 207.81 347.099 208.01 344.566 208.277 341.699 C 208.543 338.832 208.91 335.632 209.377 332.099 C 209.777 329.099 210.177 326.182 210.577 323.349 C 210.977 320.516 211.343 317.999 211.677 315.799 C 212.01 313.599 212.277 311.816 212.477 310.449 C 212.677 309.082 212.777 308.366 212.777 308.299 C 212.843 307.832 213.06 307.466 213.427 307.199 C 213.793 306.932 214.21 306.866 214.677 306.999 C 215.143 307.066 215.51 307.282 215.777 307.649 C 216.043 308.016 216.11 308.432 215.977 308.899 C 215.977 308.899 215.877 309.566 215.677 310.899 C 215.477 312.232 215.21 313.966 214.877 316.099 C 214.543 318.232 214.177 320.699 213.777 323.499 C 213.377 326.299 213.01 329.166 212.677 332.099 C 212.077 336.566 211.643 340.299 211.377 343.299 C 211.11 346.299 210.943 348.766 210.877 350.699 C 210.81 352.632 210.81 354.099 210.877 355.099 C 210.943 356.099 211.01 356.799 211.077 357.199 C 211.343 356.999 211.677 356.666 212.077 356.199 C 212.477 355.732 212.943 355.032 213.477 354.099 C 214.21 352.966 214.943 351.649 215.677 350.149 C 216.41 348.649 217.143 347.132 217.877 345.599 C 219.41 342.599 220.877 339.816 222.277 337.249 C 223.677 334.682 225.077 332.899 226.477 331.899 C 226.81 331.632 227.193 331.549 227.627 331.649 C 228.06 331.749 228.41 331.966 228.677 332.299 C 228.943 332.699 229.043 333.116 228.977 333.549 C 228.91 333.982 228.677 334.332 228.277 334.599 C 227.743 334.999 227.177 335.616 226.577 336.449 C 225.977 337.282 225.36 338.282 224.727 339.449 C 224.093 340.616 223.443 341.849 222.777 343.149 C 222.11 344.449 221.477 345.732 220.877 346.999 C 218.677 351.466 216.827 354.882 215.327 357.249 C 213.827 359.616 212.243 360.799 210.577 360.799 ZM 245.777 389.299 L 245.677 389.299 C 244.743 389.299 244.21 388.766 244.077 387.699 C 243.543 371.966 243.51 358.266 243.977 346.599 C 244.443 334.932 245.143 325.166 246.077 317.299 C 245.743 318.232 245.443 319.132 245.177 319.999 C 244.91 320.866 244.61 321.732 244.277 322.599 C 242.677 327.066 241.243 330.666 239.977 333.399 C 238.71 336.132 237.577 338.266 236.577 339.799 C 235.577 341.332 234.693 342.382 233.927 342.949 C 233.16 343.516 232.477 343.899 231.877 344.099 C 230.61 344.499 229.443 344.232 228.377 343.299 C 227.643 342.632 227.11 341.816 226.777 340.849 C 226.443 339.882 226.293 338.866 226.327 337.799 C 226.36 336.732 226.56 335.699 226.927 334.699 C 227.293 333.699 227.777 332.832 228.377 332.099 C 229.577 330.632 231.11 329.832 232.977 329.699 C 234.443 329.632 235.943 330.032 237.477 330.899 C 238.01 329.632 238.577 328.232 239.177 326.699 C 239.777 325.166 240.443 323.432 241.177 321.499 C 242.043 319.232 242.877 316.882 243.677 314.449 C 244.477 312.016 245.243 309.616 245.977 307.249 C 246.71 304.882 247.41 302.582 248.077 300.349 C 248.743 298.116 249.343 296.066 249.877 294.199 C 250.143 293.132 250.377 292.182 250.577 291.349 C 250.777 290.516 250.977 289.732 251.177 288.999 C 251.51 287.866 251.793 286.949 252.027 286.249 C 252.26 285.549 252.443 284.966 252.577 284.499 C 252.91 283.699 253.16 283.132 253.327 282.799 C 253.493 282.466 253.743 282.232 254.077 282.099 C 254.677 281.832 255.277 281.932 255.877 282.399 C 256.277 282.799 256.443 283.232 256.377 283.699 C 256.31 284.166 256.21 284.566 256.077 284.899 C 255.877 285.366 255.61 286.216 255.277 287.449 C 254.943 288.682 254.51 290.132 253.977 291.799 C 253.843 292.332 253.693 292.866 253.527 293.399 C 253.36 293.932 253.21 294.466 253.077 294.999 C 252.143 298.866 251.243 303.699 250.377 309.499 C 249.843 313.232 249.327 317.632 248.827 322.699 C 248.327 327.766 247.91 333.532 247.577 339.999 C 247.243 346.466 247.043 353.666 246.977 361.599 C 246.91 369.532 247.043 378.199 247.377 387.599 C 247.377 388.066 247.227 388.466 246.927 388.799 C 246.627 389.132 246.243 389.299 245.777 389.299 Z M 233.377 332.999 C 232.31 332.999 231.477 333.399 230.877 334.199 C 230.477 334.666 230.177 335.216 229.977 335.849 C 229.777 336.482 229.66 337.116 229.627 337.749 C 229.593 338.382 229.66 338.982 229.827 339.549 C 229.993 340.116 230.243 340.532 230.577 340.799 C 230.71 340.932 230.843 340.999 230.977 340.999 C 231.11 340.932 231.327 340.799 231.627 340.599 C 231.927 340.399 232.277 340.049 232.677 339.549 C 233.077 339.049 233.56 338.349 234.127 337.449 C 234.693 336.549 235.343 335.332 236.077 333.799 C 235.21 333.266 234.31 332.999 233.377 332.999 ZM 301.377 312.299 C 302.377 312.299 302.943 312.832 303.077 313.899 C 303.077 314.366 302.927 314.766 302.627 315.099 C 302.327 315.432 301.943 315.599 301.477 315.599 C 297.477 315.732 293.627 315.966 289.927 316.299 C 286.227 316.632 282.71 317.032 279.377 317.499 C 279.043 321.832 278.693 326.299 278.327 330.899 C 277.96 335.499 277.627 339.966 277.327 344.299 C 277.027 348.632 276.76 352.782 276.527 356.749 C 276.293 360.716 276.093 364.266 275.927 367.399 C 275.76 370.532 275.677 373.132 275.677 375.199 C 275.677 377.266 275.743 378.632 275.877 379.299 C 276.01 379.766 275.943 380.182 275.677 380.549 C 275.41 380.916 275.043 381.166 274.577 381.299 L 274.277 381.299 C 273.41 381.299 272.877 380.866 272.677 379.999 C 272.477 379.199 272.393 377.582 272.427 375.149 C 272.46 372.716 272.56 369.766 272.727 366.299 C 272.893 362.832 273.093 359.016 273.327 354.849 C 273.56 350.682 273.843 346.432 274.177 342.099 C 274.51 337.766 274.843 333.516 275.177 329.349 C 275.51 325.182 275.81 321.399 276.077 317.999 C 272.61 318.532 269.477 319.066 266.677 319.599 C 263.877 320.132 261.477 320.616 259.477 321.049 C 257.477 321.482 255.91 321.849 254.777 322.149 C 253.643 322.449 253.077 322.599 253.077 322.599 C 253.01 322.666 252.877 322.699 252.677 322.699 C 251.81 322.699 251.277 322.299 251.077 321.499 C 250.743 320.432 251.11 319.766 252.177 319.499 C 252.243 319.499 252.86 319.332 254.027 318.999 C 255.193 318.666 256.827 318.282 258.927 317.849 C 261.027 317.416 263.56 316.916 266.527 316.349 C 269.493 315.782 272.777 315.232 276.377 314.699 C 276.577 312.232 276.743 310.149 276.877 308.449 C 277.01 306.749 277.143 305.532 277.277 304.799 C 277.277 304.332 277.443 303.949 277.777 303.649 C 278.11 303.349 278.51 303.232 278.977 303.299 C 279.443 303.366 279.827 303.566 280.127 303.899 C 280.427 304.232 280.543 304.632 280.477 305.099 C 280.343 306.566 280.21 308.049 280.077 309.549 C 279.943 311.049 279.81 312.599 279.677 314.199 C 282.943 313.732 286.393 313.332 290.027 312.999 C 293.66 312.666 297.443 312.432 301.377 312.299 ZM 287.877 343.799 C 287.61 343.799 287.21 343.732 286.677 343.599 C 285.743 343.399 285.027 343.049 284.527 342.549 C 284.027 342.049 283.71 341.532 283.577 340.999 C 283.31 340.332 283.21 339.599 283.277 338.799 C 283.343 337.999 283.493 337.199 283.727 336.399 C 283.96 335.599 284.277 334.816 284.677 334.049 C 285.077 333.282 285.443 332.599 285.777 331.999 C 285.843 331.866 285.91 331.716 285.977 331.549 C 286.043 331.382 286.11 331.232 286.177 331.099 C 286.71 330.032 287.41 329.232 288.277 328.699 C 289.143 328.166 290.043 327.966 290.977 328.099 C 292.443 328.299 293.477 329.232 294.077 330.899 C 294.21 331.432 294.327 331.982 294.427 332.549 C 294.527 333.116 294.543 333.699 294.477 334.299 C 295.077 334.032 295.727 333.766 296.427 333.499 C 297.127 333.232 297.877 332.899 298.677 332.499 C 299.077 332.232 299.493 332.182 299.927 332.349 C 300.36 332.516 300.677 332.799 300.877 333.199 C 301.077 333.599 301.11 334.016 300.977 334.449 C 300.843 334.882 300.577 335.199 300.177 335.399 C 298.977 335.932 297.86 336.416 296.827 336.849 C 295.793 337.282 294.81 337.632 293.877 337.899 C 293.477 339.499 292.777 340.832 291.777 341.899 C 290.643 343.166 289.343 343.799 287.877 343.799 Z M 286.877 337.299 C 286.743 337.832 286.627 338.316 286.527 338.749 C 286.427 339.182 286.443 339.566 286.577 339.899 C 286.643 339.966 286.727 340.049 286.827 340.149 C 286.927 340.249 287.143 340.332 287.477 340.399 C 287.677 340.532 287.943 340.566 288.277 340.499 C 288.61 340.432 288.977 340.166 289.377 339.699 C 289.51 339.499 289.66 339.299 289.827 339.099 C 289.993 338.899 290.143 338.666 290.277 338.399 C 288.943 338.399 287.81 338.032 286.877 337.299 Z M 288.777 333.399 C 288.643 334.132 288.71 334.566 288.977 334.699 C 289.243 335.032 289.977 335.166 291.177 335.099 C 291.243 334.499 291.26 333.932 291.227 333.399 C 291.193 332.866 291.11 332.399 290.977 331.999 C 290.843 331.666 290.677 331.432 290.477 331.299 C 290.343 331.299 290.177 331.399 289.977 331.599 C 289.843 331.732 289.743 331.866 289.677 331.999 C 289.543 332.199 289.393 332.416 289.227 332.649 C 289.06 332.882 288.91 333.132 288.777 333.399 ZM 294.477 403.999 L 294.177 403.999 L 294.077 403.999 C 292.41 403.866 291.01 403.549 289.877 403.049 C 288.743 402.549 287.793 401.949 287.027 401.249 C 286.26 400.549 285.693 399.782 285.327 398.949 C 284.96 398.116 284.677 397.299 284.477 396.499 C 283.943 394.032 284.127 391.166 285.027 387.899 C 285.927 384.632 287.177 381.299 288.777 377.899 C 290.377 374.499 292.177 371.182 294.177 367.949 C 296.177 364.716 297.977 361.899 299.577 359.499 C 301.31 356.966 303.093 354.499 304.927 352.099 C 306.76 349.699 308.577 347.432 310.377 345.299 C 310.377 342.166 310.343 339.266 310.277 336.599 C 310.21 333.932 310.11 331.632 309.977 329.699 C 309.91 329.832 309.843 329.966 309.777 330.099 C 309.71 330.232 309.643 330.366 309.577 330.499 C 308.71 332.032 307.927 333.249 307.227 334.149 C 306.527 335.049 305.893 335.749 305.327 336.249 C 304.76 336.749 304.277 337.099 303.877 337.299 C 303.477 337.499 303.11 337.632 302.777 337.699 C 301.643 337.832 300.743 337.499 300.077 336.699 C 299.743 336.366 299.427 335.766 299.127 334.899 C 298.827 334.032 299.01 332.932 299.677 331.599 C 300.077 330.799 300.627 329.999 301.327 329.199 C 302.027 328.399 302.827 327.666 303.727 326.999 C 304.627 326.332 305.543 325.766 306.477 325.299 C 307.41 324.832 308.31 324.499 309.177 324.299 C 309.31 324.099 309.393 323.932 309.427 323.799 C 309.46 323.666 309.51 323.532 309.577 323.399 L 309.777 322.999 C 310.11 322.199 310.71 321.899 311.577 322.099 C 312.443 322.232 312.877 322.732 312.877 323.599 C 312.877 323.599 312.91 324.049 312.977 324.949 C 313.043 325.849 313.11 327.099 313.177 328.699 C 313.243 330.299 313.327 332.182 313.427 334.349 C 313.527 336.516 313.577 338.899 313.577 341.499 C 315.71 339.099 317.693 337.066 319.527 335.399 C 321.36 333.732 322.843 332.566 323.977 331.899 C 324.377 331.699 324.793 331.666 325.227 331.799 C 325.66 331.932 325.977 332.199 326.177 332.599 C 326.443 332.999 326.51 333.416 326.377 333.849 C 326.243 334.282 325.977 334.599 325.577 334.799 C 324.443 335.399 322.827 336.732 320.727 338.799 C 318.627 340.866 316.277 343.432 313.677 346.499 C 313.677 348.032 313.66 349.566 313.627 351.099 C 313.593 352.632 313.543 354.199 313.477 355.799 C 312.677 378.866 309.143 393.666 302.877 400.199 C 300.477 402.732 297.677 403.999 294.477 403.999 Z M 294.277 400.699 C 296.61 400.766 298.71 399.832 300.577 397.899 C 303.377 394.966 305.593 389.949 307.227 382.849 C 308.86 375.749 309.843 366.699 310.177 355.699 C 310.243 354.766 310.277 353.882 310.277 353.049 C 310.277 352.216 310.31 351.366 310.377 350.499 C 309.043 352.166 307.693 353.916 306.327 355.749 C 304.96 357.582 303.61 359.466 302.277 361.399 C 296.943 369.199 293.01 376.082 290.477 382.049 C 287.943 388.016 287.01 392.632 287.677 395.899 C 287.743 396.366 287.893 396.866 288.127 397.399 C 288.36 397.932 288.727 398.416 289.227 398.849 C 289.727 399.282 290.377 399.682 291.177 400.049 C 291.977 400.416 293.01 400.632 294.277 400.699 Z M 306.777 328.899 C 305.843 329.432 304.993 330.066 304.227 330.799 C 303.46 331.532 302.91 332.266 302.577 332.999 C 302.377 333.399 302.277 333.699 302.277 333.899 C 302.277 334.099 302.31 334.266 302.377 334.399 C 302.643 334.266 303.11 333.849 303.777 333.149 C 304.443 332.449 305.443 331.032 306.777 328.899 ZM 330.277 351.499 C 329.877 351.499 329.577 351.432 329.377 351.299 C 327.377 350.032 325.91 347.899 324.977 344.899 C 324.043 341.899 323.843 338.599 324.377 334.999 C 324.91 331.466 326.093 328.499 327.927 326.099 C 329.76 323.699 332.077 322.132 334.877 321.399 C 337.143 320.799 338.777 321.099 339.777 322.299 C 340.91 323.566 340.877 325.699 339.677 328.699 C 339.077 330.099 338.243 331.616 337.177 333.249 C 336.11 334.882 334.91 336.466 333.577 337.999 C 332.777 338.932 331.86 339.866 330.827 340.799 C 329.793 341.732 328.777 342.432 327.777 342.899 C 328.11 344.232 328.56 345.382 329.127 346.349 C 329.693 347.316 330.343 348.032 331.077 348.499 C 331.477 348.766 331.727 349.116 331.827 349.549 C 331.927 349.982 331.877 350.399 331.677 350.799 C 331.41 351.266 330.943 351.499 330.277 351.499 Z M 337.277 324.399 L 336.977 324.399 C 336.843 324.399 336.677 324.399 336.477 324.399 C 336.277 324.399 336.01 324.466 335.677 324.599 C 333.543 325.132 331.777 326.366 330.377 328.299 C 328.977 330.232 328.043 332.632 327.577 335.499 C 327.377 336.966 327.31 338.266 327.377 339.399 C 327.71 339.199 328.11 338.882 328.577 338.449 C 329.043 338.016 329.577 337.499 330.177 336.899 C 331.177 335.766 332.143 334.566 333.077 333.299 C 334.01 332.032 334.843 330.766 335.577 329.499 C 336.51 327.899 337.06 326.699 337.227 325.899 C 337.393 325.099 337.41 324.599 337.277 324.399 ZM 369.377 312.299 C 370.377 312.299 370.943 312.832 371.077 313.899 C 371.077 314.366 370.927 314.766 370.627 315.099 C 370.327 315.432 369.943 315.599 369.477 315.599 C 365.477 315.732 361.627 315.966 357.927 316.299 C 354.227 316.632 350.71 317.032 347.377 317.499 C 347.043 321.832 346.693 326.299 346.327 330.899 C 345.96 335.499 345.627 339.966 345.327 344.299 C 345.027 348.632 344.76 352.782 344.527 356.749 C 344.293 360.716 344.093 364.266 343.927 367.399 C 343.76 370.532 343.677 373.132 343.677 375.199 C 343.677 377.266 343.743 378.632 343.877 379.299 C 344.01 379.766 343.943 380.182 343.677 380.549 C 343.41 380.916 343.043 381.166 342.577 381.299 L 342.277 381.299 C 341.41 381.299 340.877 380.866 340.677 379.999 C 340.477 379.199 340.393 377.582 340.427 375.149 C 340.46 372.716 340.56 369.766 340.727 366.299 C 340.893 362.832 341.093 359.016 341.327 354.849 C 341.56 350.682 341.843 346.432 342.177 342.099 C 342.51 337.766 342.843 333.516 343.177 329.349 C 343.51 325.182 343.81 321.399 344.077 317.999 C 340.61 318.532 337.477 319.066 334.677 319.599 C 331.877 320.132 329.477 320.616 327.477 321.049 C 325.477 321.482 323.91 321.849 322.777 322.149 C 321.643 322.449 321.077 322.599 321.077 322.599 C 321.01 322.666 320.877 322.699 320.677 322.699 C 319.81 322.699 319.277 322.299 319.077 321.499 C 318.743 320.432 319.11 319.766 320.177 319.499 C 320.243 319.499 320.86 319.332 322.027 318.999 C 323.193 318.666 324.827 318.282 326.927 317.849 C 329.027 317.416 331.56 316.916 334.527 316.349 C 337.493 315.782 340.777 315.232 344.377 314.699 C 344.577 312.232 344.743 310.149 344.877 308.449 C 345.01 306.749 345.143 305.532 345.277 304.799 C 345.277 304.332 345.443 303.949 345.777 303.649 C 346.11 303.349 346.51 303.232 346.977 303.299 C 347.443 303.366 347.827 303.566 348.127 303.899 C 348.427 304.232 348.543 304.632 348.477 305.099 C 348.343 306.566 348.21 308.049 348.077 309.549 C 347.943 311.049 347.81 312.599 347.677 314.199 C 350.943 313.732 354.393 313.332 358.027 312.999 C 361.66 312.666 365.443 312.432 369.377 312.299 ZM 351.277 352.399 L 350.977 352.399 C 350.177 352.266 349.66 351.816 349.427 351.049 C 349.193 350.282 349.043 349.666 348.977 349.199 C 348.977 348.999 348.96 348.649 348.927 348.149 C 348.893 347.649 348.943 346.849 349.077 345.749 C 349.21 344.649 349.41 343.149 349.677 341.249 C 349.943 339.349 350.343 336.866 350.877 333.799 C 351.41 330.732 352.127 326.966 353.027 322.499 C 353.927 318.032 355.043 312.732 356.377 306.599 C 357.377 302.066 358.343 297.666 359.277 293.399 C 360.21 289.132 361.06 285.349 361.827 282.049 C 362.593 278.749 363.21 276.099 363.677 274.099 C 364.143 272.099 364.377 271.066 364.377 270.999 C 364.51 270.532 364.76 270.182 365.127 269.949 C 365.493 269.716 365.91 269.666 366.377 269.799 C 366.843 269.932 367.193 270.182 367.427 270.549 C 367.66 270.916 367.71 271.299 367.577 271.699 C 366.91 274.566 366.11 278.032 365.177 282.099 C 364.243 286.166 363.26 290.516 362.227 295.149 C 361.193 299.782 360.16 304.549 359.127 309.449 C 358.093 314.349 357.127 319.032 356.227 323.499 C 355.327 327.966 354.543 332.066 353.877 335.799 C 353.21 339.532 352.743 342.566 352.477 344.899 C 353.077 343.366 353.727 341.799 354.427 340.199 C 355.127 338.599 355.893 337.182 356.727 335.949 C 357.56 334.716 358.46 333.732 359.427 332.999 C 360.393 332.266 361.477 331.999 362.677 332.199 C 363.743 332.399 364.593 332.766 365.227 333.299 C 365.86 333.832 366.36 334.449 366.727 335.149 C 367.093 335.849 367.343 336.599 367.477 337.399 C 367.61 338.199 367.743 338.932 367.877 339.599 C 368.01 340.266 368.127 340.932 368.227 341.599 C 368.327 342.266 368.51 342.699 368.777 342.899 C 369.11 343.099 369.543 343.132 370.077 342.999 C 371.277 342.866 372.643 342.266 374.177 341.199 C 375.71 340.132 377.21 338.899 378.677 337.499 C 380.143 336.099 381.51 334.699 382.777 333.299 C 384.043 331.899 385.01 330.766 385.677 329.899 C 386.01 329.566 386.393 329.349 386.827 329.249 C 387.26 329.149 387.643 329.266 387.977 329.599 C 388.31 329.932 388.51 330.316 388.577 330.749 C 388.643 331.182 388.543 331.566 388.277 331.899 C 388.21 331.966 387.61 332.666 386.477 333.999 C 385.343 335.332 383.943 336.866 382.277 338.599 C 379.943 340.932 377.793 342.732 375.827 343.999 C 373.86 345.266 372.11 346.032 370.577 346.299 C 369.043 346.499 367.81 346.232 366.877 345.499 C 366.01 344.832 365.46 344.016 365.227 343.049 C 364.993 342.082 364.81 341.066 364.677 339.999 C 364.477 338.466 364.227 337.349 363.927 336.649 C 363.627 335.949 363.043 335.532 362.177 335.399 C 361.377 335.266 360.343 336.266 359.077 338.399 C 358.343 339.532 357.677 340.832 357.077 342.299 C 356.477 343.766 355.91 345.132 355.377 346.399 C 355.043 347.132 354.76 347.799 354.527 348.399 C 354.293 348.999 354.043 349.566 353.777 350.099 C 353.577 350.499 353.293 350.982 352.927 351.549 C 352.56 352.116 352.01 352.399 351.277 352.399 ZM 393.377 351.499 C 392.977 351.499 392.677 351.432 392.477 351.299 C 390.477 350.032 389.01 347.899 388.077 344.899 C 387.143 341.899 386.943 338.599 387.477 334.999 C 388.01 331.466 389.193 328.499 391.027 326.099 C 392.86 323.699 395.177 322.132 397.977 321.399 C 400.243 320.799 401.877 321.099 402.877 322.299 C 404.01 323.566 403.977 325.699 402.777 328.699 C 402.177 330.099 401.343 331.616 400.277 333.249 C 399.21 334.882 398.01 336.466 396.677 337.999 C 395.877 338.932 394.96 339.866 393.927 340.799 C 392.893 341.732 391.877 342.432 390.877 342.899 C 391.21 344.232 391.66 345.382 392.227 346.349 C 392.793 347.316 393.443 348.032 394.177 348.499 C 394.577 348.766 394.827 349.116 394.927 349.549 C 395.027 349.982 394.977 350.399 394.777 350.799 C 394.51 351.266 394.043 351.499 393.377 351.499 Z M 400.377 324.399 L 400.077 324.399 C 399.943 324.399 399.777 324.399 399.577 324.399 C 399.377 324.399 399.11 324.466 398.777 324.599 C 396.643 325.132 394.877 326.366 393.477 328.299 C 392.077 330.232 391.143 332.632 390.677 335.499 C 390.477 336.966 390.41 338.266 390.477 339.399 C 390.81 339.199 391.21 338.882 391.677 338.449 C 392.143 338.016 392.677 337.499 393.277 336.899 C 394.277 335.766 395.243 334.566 396.177 333.299 C 397.11 332.032 397.943 330.766 398.677 329.499 C 399.61 327.899 400.16 326.699 400.327 325.899 C 400.493 325.099 400.51 324.599 400.377 324.399 ZM 408.777 349.599 L 408.277 349.599 C 407.743 349.599 407.343 349.399 407.077 348.999 C 406.877 348.732 406.743 348.466 406.677 348.199 C 406.61 347.932 406.61 347.332 406.677 346.399 L 406.677 346.099 C 406.61 345.232 406.543 344.132 406.477 342.799 C 406.41 341.466 406.327 340.049 406.227 338.549 C 406.127 337.049 406.027 335.532 405.927 333.999 C 405.827 332.466 405.743 331.066 405.677 329.799 C 405.61 329.332 405.727 328.932 406.027 328.599 C 406.327 328.266 406.71 328.099 407.177 328.099 C 407.643 328.032 408.043 328.149 408.377 328.449 C 408.71 328.749 408.877 329.132 408.877 329.599 C 408.943 330.532 409.043 331.966 409.177 333.899 C 409.243 333.766 409.31 333.649 409.377 333.549 C 409.443 333.449 409.51 333.332 409.577 333.199 C 410.71 331.132 411.977 329.866 413.377 329.399 C 414.777 328.932 416.043 328.766 417.177 328.899 C 418.243 329.032 418.71 329.632 418.577 330.699 C 418.443 331.766 417.843 332.232 416.777 332.099 C 415.443 332.032 414.377 332.399 413.577 333.199 C 412.843 333.932 412.243 334.849 411.777 335.949 C 411.31 337.049 410.943 338.232 410.677 339.499 C 410.41 340.766 410.227 341.999 410.127 343.199 C 410.027 344.399 409.943 345.399 409.877 346.199 C 409.943 346.732 409.977 347.149 409.977 347.449 C 409.977 347.749 409.977 347.966 409.977 348.099 C 409.91 348.566 409.76 348.899 409.527 349.099 C 409.293 349.299 409.043 349.466 408.777 349.599 Z" transform="matrix(1, 0, 0, 1, 0, 7.105427357601002e-15)" style="fill: rgb(255, 192, 203); white-space: pre;"/>
  <ellipse transform="matrix(-0.9701570272445679, -0.2425370067358017, 0.24253398180007935, -0.970146119594574, 876.5538330078125, 552.394775390625)" cx="514.321" cy="186.071" rx="3.934" ry="3.934" style="fill: rgb(169, 169, 169);"/>
  <ellipse transform="matrix(-0.9701570272445679, -0.24254100024700165, 0.24253398180007935, -0.970142126083374, 887.0505981445312, 645.9078979492188)" cx="514.321" cy="186.071" rx="3.934" ry="3.934" style="fill: rgb(255, 192, 203);"/>
  <path d="M 112.143 306.269 C 112.793 306.919 113.963 307.039 114.733 307.039 C 117.793 307.039 118.053 305.349 122.603 297.289 C 123.063 296.519 123.903 295.349 123.903 294.499 C 123.903 293.129 121.303 293.199 121.243 293.199 C 118.573 293.199 116.753 297.229 115.133 299.499 C 113.823 301.319 112.073 303.399 111.683 305.419 C 111.683 305.739 111.883 306.069 112.143 306.269 Z" transform="matrix(1, 0, 0, 1, 0, 7.105427357601002e-15)" style="fill: rgb(255, 192, 203); white-space: pre;"/>
</svg>