<?xml version="1.0" encoding="utf-8"?>
<svg viewBox="0 0 500 500" width="500" height="500" xmlns="http://www.w3.org/2000/svg">
  <path d="M 186.667 175.553 C 186.267 175.553 185.967 175.486 185.767 175.353 C 184.834 174.753 184.6 173.92 185.067 172.853 C 185.134 172.72 185.234 172.303 185.367 171.603 C 185.5 170.903 185.634 169.586 185.767 167.653 C 185.9 165.72 186.034 163.036 186.167 159.603 C 186.3 156.17 186.4 151.62 186.467 145.953 C 186.534 142.886 186.567 139.903 186.567 137.003 C 186.567 134.103 186.567 131.52 186.567 129.253 C 186.567 126.986 186.567 125.153 186.567 123.753 C 186.567 122.353 186.567 121.653 186.567 121.653 C 186.567 121.12 186.75 120.67 187.117 120.303 C 187.484 119.936 187.934 119.753 188.467 119.753 C 189 119.753 189.434 119.936 189.767 120.303 C 190.1 120.67 190.267 121.12 190.267 121.653 C 190.267 121.653 190.267 122.37 190.267 123.803 C 190.267 125.236 190.267 127.103 190.267 129.403 C 190.267 131.703 190.267 134.336 190.267 137.303 C 190.267 140.27 190.234 143.32 190.167 146.453 C 190.034 152.853 189.9 157.886 189.767 161.553 C 189.634 165.22 189.467 167.986 189.267 169.853 C 189.067 171.72 188.884 172.936 188.717 173.503 C 188.55 174.07 188.4 174.453 188.267 174.653 C 187.934 175.253 187.4 175.553 186.667 175.553 Z M 220.067 158.153 C 219.067 158.153 218.2 157.786 217.467 157.053 C 217.467 156.986 217.434 156.953 217.367 156.953 C 216.234 155.553 215.834 153.986 216.167 152.253 C 216.367 151.053 216.867 149.936 217.667 148.903 C 218.467 147.87 219.317 146.953 220.217 146.153 C 221.117 145.353 221.95 144.72 222.717 144.253 C 223.484 143.786 223.967 143.486 224.167 143.353 C 224.567 143.153 224.984 143.103 225.417 143.203 C 225.85 143.303 226.167 143.553 226.367 143.953 C 226.634 144.353 226.7 144.77 226.567 145.203 C 226.434 145.636 226.167 145.953 225.767 146.153 C 225.367 146.42 224.834 146.786 224.167 147.253 C 223.5 147.72 222.834 148.253 222.167 148.853 C 221.5 149.453 220.9 150.103 220.367 150.803 C 219.834 151.503 219.5 152.186 219.367 152.853 C 219.3 153.52 219.467 154.186 219.867 154.853 C 219.934 154.853 220.067 154.853 220.267 154.853 C 220.467 154.853 220.8 154.753 221.267 154.553 C 221.734 154.353 222.317 154.02 223.017 153.553 C 223.717 153.086 224.6 152.386 225.667 151.453 C 226.334 150.92 226.967 150.353 227.567 149.753 C 228.167 149.153 228.7 148.62 229.167 148.153 C 229.7 147.62 230.167 147.12 230.567 146.653 C 230.9 146.32 231.284 146.136 231.717 146.103 C 232.15 146.07 232.534 146.22 232.867 146.553 C 233.2 146.886 233.384 147.27 233.417 147.703 C 233.45 148.136 233.3 148.52 232.967 148.853 C 232.967 148.92 232.534 149.403 231.667 150.303 C 230.8 151.203 229.734 152.22 228.467 153.353 C 224.867 156.553 222.067 158.153 220.067 158.153 Z M 235.667 165.253 L 235.167 165.253 C 234.634 165.253 234.234 165.053 233.967 164.653 C 233.767 164.386 233.634 164.12 233.567 163.853 C 233.5 163.586 233.5 162.986 233.567 162.053 L 233.567 161.753 C 233.5 160.886 233.434 159.786 233.367 158.453 C 233.3 157.12 233.217 155.703 233.117 154.203 C 233.017 152.703 232.917 151.186 232.817 149.653 C 232.717 148.12 232.634 146.72 232.567 145.453 C 232.5 144.986 232.617 144.586 232.917 144.253 C 233.217 143.92 233.6 143.753 234.067 143.753 C 234.534 143.686 234.934 143.803 235.267 144.103 C 235.6 144.403 235.767 144.786 235.767 145.253 C 235.834 146.186 235.934 147.62 236.067 149.553 C 236.134 149.42 236.2 149.303 236.267 149.203 C 236.334 149.103 236.4 148.986 236.467 148.853 C 237.6 146.786 238.867 145.52 240.267 145.053 C 241.667 144.586 242.934 144.42 244.067 144.553 C 245.134 144.686 245.6 145.286 245.467 146.353 C 245.334 147.42 244.734 147.886 243.667 147.753 C 242.334 147.686 241.267 148.053 240.467 148.853 C 239.734 149.586 239.134 150.503 238.667 151.603 C 238.2 152.703 237.834 153.886 237.567 155.153 C 237.3 156.42 237.117 157.653 237.017 158.853 C 236.917 160.053 236.834 161.053 236.767 161.853 C 236.834 162.386 236.867 162.803 236.867 163.103 C 236.867 163.403 236.867 163.62 236.867 163.753 C 236.8 164.22 236.65 164.553 236.417 164.753 C 236.184 164.953 235.934 165.12 235.667 165.253 Z M 253.967 167.153 C 253.567 167.153 253.267 167.086 253.067 166.953 C 251.067 165.686 249.6 163.553 248.667 160.553 C 247.734 157.553 247.534 154.253 248.067 150.653 C 248.6 147.12 249.784 144.153 251.617 141.753 C 253.45 139.353 255.767 137.786 258.567 137.053 C 260.834 136.453 262.467 136.753 263.467 137.953 C 264.6 139.22 264.567 141.353 263.367 144.353 C 262.767 145.753 261.934 147.27 260.867 148.903 C 259.8 150.536 258.6 152.12 257.267 153.653 C 256.467 154.586 255.55 155.52 254.517 156.453 C 253.484 157.386 252.467 158.086 251.467 158.553 C 251.8 159.886 252.25 161.036 252.817 162.003 C 253.384 162.97 254.034 163.686 254.767 164.153 C 255.167 164.42 255.417 164.77 255.517 165.203 C 255.617 165.636 255.567 166.053 255.367 166.453 C 255.1 166.92 254.634 167.153 253.967 167.153 Z M 260.967 140.053 L 260.667 140.053 C 260.534 140.053 260.367 140.053 260.167 140.053 C 259.967 140.053 259.7 140.12 259.367 140.253 C 257.234 140.786 255.467 142.02 254.067 143.953 C 252.667 145.886 251.734 148.286 251.267 151.153 C 251.067 152.62 251 153.92 251.067 155.053 C 251.4 154.853 251.8 154.536 252.267 154.103 C 252.734 153.67 253.267 153.153 253.867 152.553 C 254.867 151.42 255.834 150.22 256.767 148.953 C 257.7 147.686 258.534 146.42 259.267 145.153 C 260.2 143.553 260.75 142.353 260.917 141.553 C 261.084 140.753 261.1 140.253 260.967 140.053 Z M 277.367 163.153 L 277.167 163.153 C 276.3 163.153 275.567 162.82 274.967 162.153 C 274.634 161.82 274.317 161.22 274.017 160.353 C 273.717 159.486 273.6 158.053 273.667 156.053 C 271.867 158.92 270.2 160.653 268.667 161.253 C 268.134 161.386 267.617 161.453 267.117 161.453 C 266.617 161.453 266.134 161.286 265.667 160.953 C 265.2 160.686 264.717 160.22 264.217 159.553 C 263.717 158.886 263.6 157.853 263.867 156.453 C 264.067 155.253 264.55 154.036 265.317 152.803 C 266.084 151.57 266.734 150.586 267.267 149.853 C 267.8 149.12 268.484 148.303 269.317 147.403 C 270.15 146.503 270.9 145.986 271.567 145.853 C 272.034 145.786 272.45 145.886 272.817 146.153 C 273.184 146.42 273.4 146.786 273.467 147.253 C 273.6 147.653 273.55 148.02 273.317 148.353 C 273.084 148.686 272.8 148.92 272.467 149.053 C 272.267 149.186 271.884 149.553 271.317 150.153 C 270.75 150.753 270.1 151.553 269.367 152.553 C 267.834 154.62 267.067 156.286 267.067 157.553 C 267.067 157.886 267.167 158.086 267.367 158.153 L 267.567 158.153 C 268.1 157.953 268.7 157.42 269.367 156.553 C 270.034 155.686 270.717 154.67 271.417 153.503 C 272.117 152.336 272.784 151.103 273.417 149.803 C 274.05 148.503 274.567 147.286 274.967 146.153 C 275.1 145.753 275.367 145.453 275.767 145.253 C 276.167 145.053 276.567 145.02 276.967 145.153 C 277.367 145.286 277.684 145.536 277.917 145.903 C 278.15 146.27 278.2 146.653 278.067 147.053 C 278 147.653 277.9 148.286 277.767 148.953 C 277.634 149.486 277.517 150.136 277.417 150.903 C 277.317 151.67 277.234 152.42 277.167 153.153 C 276.9 155.486 276.834 157.12 276.967 158.053 C 277.1 158.986 277.234 159.586 277.367 159.853 C 277.634 159.72 278.1 159.27 278.767 158.503 C 279.434 157.736 280.334 156.153 281.467 153.753 C 282.267 152.086 282.917 150.57 283.417 149.203 C 283.917 147.836 284.167 147.12 284.167 147.053 C 284.3 146.653 284.567 146.353 284.967 146.153 C 285.367 145.953 285.8 145.92 286.267 146.053 C 287.267 146.386 287.6 147.086 287.267 148.153 C 287.267 148.22 287 148.97 286.467 150.403 C 285.934 151.836 285.267 153.42 284.467 155.153 C 283.2 157.82 281.984 159.786 280.817 161.053 C 279.65 162.32 278.5 163.02 277.367 163.153 Z M 313.467 127.953 C 314.467 127.953 315.034 128.486 315.167 129.553 C 315.167 130.02 315.017 130.42 314.717 130.753 C 314.417 131.086 314.034 131.253 313.567 131.253 C 309.567 131.386 305.717 131.62 302.017 131.953 C 298.317 132.286 294.8 132.686 291.467 133.153 C 291.134 137.486 290.784 141.953 290.417 146.553 C 290.05 151.153 289.717 155.62 289.417 159.953 C 289.117 164.286 288.85 168.436 288.617 172.403 C 288.384 176.37 288.184 179.92 288.017 183.053 C 287.85 186.186 287.767 188.786 287.767 190.853 C 287.767 192.92 287.834 194.286 287.967 194.953 C 288.1 195.42 288.034 195.836 287.767 196.203 C 287.5 196.57 287.134 196.82 286.667 196.953 L 286.367 196.953 C 285.5 196.953 284.967 196.52 284.767 195.653 C 284.567 194.853 284.484 193.236 284.517 190.803 C 284.55 188.37 284.65 185.42 284.817 181.953 C 284.984 178.486 285.184 174.67 285.417 170.503 C 285.65 166.336 285.934 162.086 286.267 157.753 C 286.6 153.42 286.934 149.17 287.267 145.003 C 287.6 140.836 287.9 137.053 288.167 133.653 C 284.7 134.186 281.567 134.72 278.767 135.253 C 275.967 135.786 273.567 136.27 271.567 136.703 C 269.567 137.136 268 137.503 266.867 137.803 C 265.734 138.103 265.167 138.253 265.167 138.253 C 265.1 138.32 264.967 138.353 264.767 138.353 C 263.9 138.353 263.367 137.953 263.167 137.153 C 262.834 136.086 263.2 135.42 264.267 135.153 C 264.334 135.153 264.95 134.986 266.117 134.653 C 267.284 134.32 268.917 133.936 271.017 133.503 C 273.117 133.07 275.65 132.57 278.617 132.003 C 281.584 131.436 284.867 130.886 288.467 130.353 C 288.667 127.886 288.834 125.803 288.967 124.103 C 289.1 122.403 289.234 121.186 289.367 120.453 C 289.367 119.986 289.534 119.603 289.867 119.303 C 290.2 119.003 290.6 118.886 291.067 118.953 C 291.534 119.02 291.917 119.22 292.217 119.553 C 292.517 119.886 292.634 120.286 292.567 120.753 C 292.434 122.22 292.3 123.703 292.167 125.203 C 292.034 126.703 291.9 128.253 291.767 129.853 C 295.034 129.386 298.484 128.986 302.117 128.653 C 305.75 128.32 309.534 128.086 313.467 127.953 Z M 300.967 167.153 C 300.567 167.153 300.267 167.086 300.067 166.953 C 298.067 165.686 296.6 163.553 295.667 160.553 C 294.734 157.553 294.534 154.253 295.067 150.653 C 295.6 147.12 296.784 144.153 298.617 141.753 C 300.45 139.353 302.767 137.786 305.567 137.053 C 307.834 136.453 309.467 136.753 310.467 137.953 C 311.6 139.22 311.567 141.353 310.367 144.353 C 309.767 145.753 308.934 147.27 307.867 148.903 C 306.8 150.536 305.6 152.12 304.267 153.653 C 303.467 154.586 302.55 155.52 301.517 156.453 C 300.484 157.386 299.467 158.086 298.467 158.553 C 298.8 159.886 299.25 161.036 299.817 162.003 C 300.384 162.97 301.034 163.686 301.767 164.153 C 302.167 164.42 302.417 164.77 302.517 165.203 C 302.617 165.636 302.567 166.053 302.367 166.453 C 302.1 166.92 301.634 167.153 300.967 167.153 Z M 307.967 140.053 L 307.667 140.053 C 307.534 140.053 307.367 140.053 307.167 140.053 C 306.967 140.053 306.7 140.12 306.367 140.253 C 304.234 140.786 302.467 142.02 301.067 143.953 C 299.667 145.886 298.734 148.286 298.267 151.153 C 298.067 152.62 298 153.92 298.067 155.053 C 298.4 154.853 298.8 154.536 299.267 154.103 C 299.734 153.67 300.267 153.153 300.867 152.553 C 301.867 151.42 302.834 150.22 303.767 148.953 C 304.7 147.686 305.534 146.42 306.267 145.153 C 307.2 143.553 307.75 142.353 307.917 141.553 C 308.084 140.753 308.1 140.253 307.967 140.053 Z" style="fill: rgb(169, 169, 169); white-space: pre;" transform="matrix(1, 0, 0, 1, 0, 0)"/>
  <path d="M 90.311 253.153 L 90.111 253.153 C 89.244 253.153 88.511 252.82 87.911 252.153 C 87.578 251.82 87.261 251.22 86.961 250.353 C 86.661 249.486 86.544 248.053 86.611 246.053 C 84.811 248.92 83.144 250.653 81.611 251.253 C 81.078 251.386 80.561 251.453 80.061 251.453 C 79.561 251.453 79.078 251.286 78.611 250.953 C 78.144 250.686 77.661 250.22 77.161 249.553 C 76.661 248.886 76.544 247.853 76.811 246.453 C 77.011 245.253 77.494 244.036 78.261 242.803 C 79.028 241.57 79.678 240.586 80.211 239.853 C 80.744 239.12 81.428 238.303 82.261 237.403 C 83.094 236.503 83.844 235.986 84.511 235.853 C 84.978 235.786 85.394 235.886 85.761 236.153 C 86.128 236.42 86.344 236.786 86.411 237.253 C 86.544 237.653 86.494 238.02 86.261 238.353 C 86.028 238.686 85.744 238.92 85.411 239.053 C 85.211 239.186 84.828 239.553 84.261 240.153 C 83.694 240.753 83.044 241.553 82.311 242.553 C 80.778 244.62 80.011 246.286 80.011 247.553 C 80.011 247.886 80.111 248.086 80.311 248.153 L 80.511 248.153 C 81.044 247.953 81.644 247.42 82.311 246.553 C 82.978 245.686 83.661 244.67 84.361 243.503 C 85.061 242.336 85.728 241.103 86.361 239.803 C 86.994 238.503 87.511 237.286 87.911 236.153 C 88.044 235.753 88.311 235.453 88.711 235.253 C 89.111 235.053 89.511 235.02 89.911 235.153 C 90.311 235.286 90.628 235.536 90.861 235.903 C 91.094 236.27 91.144 236.653 91.011 237.053 C 90.944 237.653 90.844 238.286 90.711 238.953 C 90.578 239.486 90.461 240.136 90.361 240.903 C 90.261 241.67 90.178 242.42 90.111 243.153 C 89.844 245.486 89.778 247.12 89.911 248.053 C 90.044 248.986 90.178 249.586 90.311 249.853 C 90.578 249.72 91.044 249.27 91.711 248.503 C 92.378 247.736 93.278 246.153 94.411 243.753 C 95.211 242.086 95.861 240.57 96.361 239.203 C 96.861 237.836 97.111 237.12 97.111 237.053 C 97.244 236.653 97.511 236.353 97.911 236.153 C 98.311 235.953 98.744 235.92 99.211 236.053 C 100.211 236.386 100.544 237.086 100.211 238.153 C 100.211 238.22 99.944 238.97 99.411 240.403 C 98.878 241.836 98.211 243.42 97.411 245.153 C 96.144 247.82 94.928 249.786 93.761 251.053 C 92.594 252.32 91.444 253.02 90.311 253.153 Z M 116.111 269.153 L 115.911 269.153 C 114.378 268.953 113.228 268.153 112.461 266.753 C 111.694 265.353 111.178 263.603 110.911 261.503 C 110.644 259.403 110.544 257.086 110.611 254.553 C 110.678 252.02 110.778 249.486 110.911 246.953 C 111.044 245.62 111.144 244.253 111.211 242.853 C 111.278 241.453 111.278 240.286 111.211 239.353 C 111.078 239.62 110.911 239.903 110.711 240.203 C 110.511 240.503 110.278 240.92 110.011 241.453 C 109.544 242.386 109.078 243.403 108.611 244.503 C 108.144 245.603 107.678 246.72 107.211 247.853 C 105.811 251.186 104.744 253.503 104.011 254.803 C 103.278 256.103 102.444 256.753 101.511 256.753 C 100.778 256.753 100.278 256.52 100.011 256.053 C 99.678 255.72 99.461 255.17 99.361 254.403 C 99.261 253.636 99.344 252.286 99.611 250.353 C 99.744 249.286 99.928 248.07 100.161 246.703 C 100.394 245.336 100.678 243.786 101.011 242.053 C 101.278 240.653 101.561 239.27 101.861 237.903 C 102.161 236.536 102.428 235.32 102.661 234.253 C 102.894 233.186 103.078 232.32 103.211 231.653 C 103.344 230.986 103.411 230.653 103.411 230.653 C 103.544 230.186 103.794 229.836 104.161 229.603 C 104.528 229.37 104.944 229.32 105.411 229.453 C 105.811 229.586 106.144 229.836 106.411 230.203 C 106.678 230.57 106.744 230.986 106.611 231.453 C 106.411 232.386 106.178 233.453 105.911 234.653 C 105.711 235.653 105.461 236.803 105.161 238.103 C 104.861 239.403 104.578 240.72 104.311 242.053 C 103.978 243.653 103.711 245.036 103.511 246.203 C 103.311 247.37 103.144 248.42 103.011 249.353 C 103.211 248.886 103.411 248.42 103.611 247.953 C 103.811 247.486 104.011 247.053 104.211 246.653 C 104.744 245.32 105.294 243.986 105.861 242.653 C 106.428 241.32 107.011 240.12 107.611 239.053 C 107.811 238.653 108.061 238.203 108.361 237.703 C 108.661 237.203 109.011 236.72 109.411 236.253 C 109.811 235.786 110.261 235.436 110.761 235.203 C 111.261 234.97 111.811 234.92 112.411 235.053 C 113.344 235.32 113.911 235.936 114.111 236.903 C 114.311 237.87 114.411 238.853 114.411 239.853 C 114.478 240.786 114.478 241.886 114.411 243.153 C 114.344 244.42 114.278 245.753 114.211 247.153 C 114.078 249.286 113.978 251.503 113.911 253.803 C 113.844 256.103 113.911 258.22 114.111 260.153 C 114.444 263.82 115.178 265.72 116.311 265.853 C 116.778 265.92 117.161 266.12 117.461 266.453 C 117.761 266.786 117.878 267.186 117.811 267.653 C 117.678 268.653 117.111 269.153 116.111 269.153 Z M 137.511 294.953 L 137.411 294.953 C 136.478 294.953 135.944 294.42 135.811 293.353 C 135.278 277.62 135.244 263.92 135.711 252.253 C 136.178 240.586 136.878 230.82 137.811 222.953 C 137.478 223.886 137.178 224.786 136.911 225.653 C 136.644 226.52 136.344 227.386 136.011 228.253 C 134.411 232.72 132.978 236.32 131.711 239.053 C 130.444 241.786 129.311 243.92 128.311 245.453 C 127.311 246.986 126.428 248.036 125.661 248.603 C 124.894 249.17 124.211 249.553 123.611 249.753 C 122.344 250.153 121.178 249.886 120.111 248.953 C 119.378 248.286 118.844 247.47 118.511 246.503 C 118.178 245.536 118.028 244.52 118.061 243.453 C 118.094 242.386 118.294 241.353 118.661 240.353 C 119.028 239.353 119.511 238.486 120.111 237.753 C 121.311 236.286 122.844 235.486 124.711 235.353 C 126.178 235.286 127.678 235.686 129.211 236.553 C 129.744 235.286 130.311 233.886 130.911 232.353 C 131.511 230.82 132.178 229.086 132.911 227.153 C 133.778 224.886 134.611 222.536 135.411 220.103 C 136.211 217.67 136.978 215.27 137.711 212.903 C 138.444 210.536 139.144 208.236 139.811 206.003 C 140.478 203.77 141.078 201.72 141.611 199.853 C 141.878 198.786 142.111 197.836 142.311 197.003 C 142.511 196.17 142.711 195.386 142.911 194.653 C 143.244 193.52 143.528 192.603 143.761 191.903 C 143.994 191.203 144.178 190.62 144.311 190.153 C 144.644 189.353 144.894 188.786 145.061 188.453 C 145.228 188.12 145.478 187.886 145.811 187.753 C 146.411 187.486 147.011 187.586 147.611 188.053 C 148.011 188.453 148.178 188.886 148.111 189.353 C 148.044 189.82 147.944 190.22 147.811 190.553 C 147.611 191.02 147.344 191.87 147.011 193.103 C 146.678 194.336 146.244 195.786 145.711 197.453 C 145.578 197.986 145.428 198.52 145.261 199.053 C 145.094 199.586 144.944 200.12 144.811 200.653 C 143.878 204.52 142.978 209.353 142.111 215.153 C 141.578 218.886 141.061 223.286 140.561 228.353 C 140.061 233.42 139.644 239.186 139.311 245.653 C 138.978 252.12 138.778 259.32 138.711 267.253 C 138.644 275.186 138.778 283.853 139.111 293.253 C 139.111 293.72 138.961 294.12 138.661 294.453 C 138.361 294.786 137.978 294.953 137.511 294.953 Z M 125.111 238.653 C 124.044 238.653 123.211 239.053 122.611 239.853 C 122.211 240.32 121.911 240.87 121.711 241.503 C 121.511 242.136 121.394 242.77 121.361 243.403 C 121.328 244.036 121.394 244.636 121.561 245.203 C 121.728 245.77 121.978 246.186 122.311 246.453 C 122.444 246.586 122.578 246.653 122.711 246.653 C 122.844 246.586 123.061 246.453 123.361 246.253 C 123.661 246.053 124.011 245.703 124.411 245.203 C 124.811 244.703 125.294 244.003 125.861 243.103 C 126.428 242.203 127.078 240.986 127.811 239.453 C 126.944 238.92 126.044 238.653 125.111 238.653 Z M 178.811 225.453 C 180.278 226.386 181.261 227.786 181.761 229.653 C 182.261 231.52 182.178 233.52 181.511 235.653 C 180.778 238.186 179.478 240.286 177.611 241.953 C 175.478 243.886 172.978 244.853 170.111 244.853 C 169.578 244.853 169.178 244.82 168.911 244.753 C 168.511 250.686 168.128 257.47 167.761 265.103 C 167.394 272.736 167.044 281.32 166.711 290.853 C 166.711 291.92 166.178 292.453 165.111 292.453 C 164.644 292.453 164.261 292.286 163.961 291.953 C 163.661 291.62 163.511 291.22 163.511 290.753 C 164.044 276.486 164.578 264.303 165.111 254.203 C 165.644 244.103 166.211 236.02 166.811 229.953 C 167.211 225.886 167.611 222.92 168.011 221.053 C 168.144 220.12 168.328 219.453 168.561 219.053 C 168.794 218.653 169.078 218.386 169.411 218.253 C 169.944 217.92 170.511 217.92 171.111 218.253 C 171.444 218.453 171.678 218.77 171.811 219.203 C 171.944 219.636 171.878 220.053 171.611 220.453 C 171.611 220.52 171.544 220.62 171.411 220.753 C 171.344 220.886 171.278 221.153 171.211 221.553 C 171.144 221.953 171.044 222.52 170.911 223.253 C 170.778 223.986 170.644 224.97 170.511 226.203 C 170.378 227.436 170.211 228.953 170.011 230.753 C 172.011 226.753 174.178 224.753 176.511 224.753 C 177.378 224.753 178.144 224.986 178.811 225.453 Z M 178.411 234.753 C 178.811 233.286 178.894 231.97 178.661 230.803 C 178.428 229.636 177.911 228.786 177.111 228.253 C 176.978 228.12 176.778 228.053 176.511 228.053 C 175.978 228.053 175.294 228.57 174.461 229.603 C 173.628 230.636 172.644 232.486 171.511 235.153 C 171.044 236.353 170.628 237.52 170.261 238.653 C 169.894 239.786 169.611 240.753 169.411 241.553 L 170.111 241.553 C 172.444 241.553 174.278 240.82 175.611 239.353 C 176.944 237.886 177.878 236.353 178.411 234.753 Z M 187.611 255.253 L 187.111 255.253 C 186.578 255.253 186.178 255.053 185.911 254.653 C 185.711 254.386 185.578 254.12 185.511 253.853 C 185.444 253.586 185.444 252.986 185.511 252.053 L 185.511 251.753 C 185.444 250.886 185.378 249.786 185.311 248.453 C 185.244 247.12 185.161 245.703 185.061 244.203 C 184.961 242.703 184.861 241.186 184.761 239.653 C 184.661 238.12 184.578 236.72 184.511 235.453 C 184.444 234.986 184.561 234.586 184.861 234.253 C 185.161 233.92 185.544 233.753 186.011 233.753 C 186.478 233.686 186.878 233.803 187.211 234.103 C 187.544 234.403 187.711 234.786 187.711 235.253 C 187.778 236.186 187.878 237.62 188.011 239.553 C 188.078 239.42 188.144 239.303 188.211 239.203 C 188.278 239.103 188.344 238.986 188.411 238.853 C 189.544 236.786 190.811 235.52 192.211 235.053 C 193.611 234.586 194.878 234.42 196.011 234.553 C 197.078 234.686 197.544 235.286 197.411 236.353 C 197.278 237.42 196.678 237.886 195.611 237.753 C 194.278 237.686 193.211 238.053 192.411 238.853 C 191.678 239.586 191.078 240.503 190.611 241.603 C 190.144 242.703 189.778 243.886 189.511 245.153 C 189.244 246.42 189.061 247.653 188.961 248.853 C 188.861 250.053 188.778 251.053 188.711 251.853 C 188.778 252.386 188.811 252.803 188.811 253.103 C 188.811 253.403 188.811 253.62 188.811 253.753 C 188.744 254.22 188.594 254.553 188.361 254.753 C 188.128 254.953 187.878 255.12 187.611 255.253 Z M 205.911 257.153 C 205.511 257.153 205.211 257.086 205.011 256.953 C 203.011 255.686 201.544 253.553 200.611 250.553 C 199.678 247.553 199.478 244.253 200.011 240.653 C 200.544 237.12 201.728 234.153 203.561 231.753 C 205.394 229.353 207.711 227.786 210.511 227.053 C 212.778 226.453 214.411 226.753 215.411 227.953 C 216.544 229.22 216.511 231.353 215.311 234.353 C 214.711 235.753 213.878 237.27 212.811 238.903 C 211.744 240.536 210.544 242.12 209.211 243.653 C 208.411 244.586 207.494 245.52 206.461 246.453 C 205.428 247.386 204.411 248.086 203.411 248.553 C 203.744 249.886 204.194 251.036 204.761 252.003 C 205.328 252.97 205.978 253.686 206.711 254.153 C 207.111 254.42 207.361 254.77 207.461 255.203 C 207.561 255.636 207.511 256.053 207.311 256.453 C 207.044 256.92 206.578 257.153 205.911 257.153 Z M 212.911 230.053 L 212.611 230.053 C 212.478 230.053 212.311 230.053 212.111 230.053 C 211.911 230.053 211.644 230.12 211.311 230.253 C 209.178 230.786 207.411 232.02 206.011 233.953 C 204.611 235.886 203.678 238.286 203.211 241.153 C 203.011 242.62 202.944 243.92 203.011 245.053 C 203.344 244.853 203.744 244.536 204.211 244.103 C 204.678 243.67 205.211 243.153 205.811 242.553 C 206.811 241.42 207.778 240.22 208.711 238.953 C 209.644 237.686 210.478 236.42 211.211 235.153 C 212.144 233.553 212.694 232.353 212.861 231.553 C 213.028 230.753 213.044 230.253 212.911 230.053 Z M 245.011 217.953 C 246.011 217.953 246.578 218.486 246.711 219.553 C 246.711 220.02 246.561 220.42 246.261 220.753 C 245.961 221.086 245.578 221.253 245.111 221.253 C 241.111 221.386 237.261 221.62 233.561 221.953 C 229.861 222.286 226.344 222.686 223.011 223.153 C 222.678 227.486 222.328 231.953 221.961 236.553 C 221.594 241.153 221.261 245.62 220.961 249.953 C 220.661 254.286 220.394 258.436 220.161 262.403 C 219.928 266.37 219.728 269.92 219.561 273.053 C 219.394 276.186 219.311 278.786 219.311 280.853 C 219.311 282.92 219.378 284.286 219.511 284.953 C 219.644 285.42 219.578 285.836 219.311 286.203 C 219.044 286.57 218.678 286.82 218.211 286.953 L 217.911 286.953 C 217.044 286.953 216.511 286.52 216.311 285.653 C 216.111 284.853 216.028 283.236 216.061 280.803 C 216.094 278.37 216.194 275.42 216.361 271.953 C 216.528 268.486 216.728 264.67 216.961 260.503 C 217.194 256.336 217.478 252.086 217.811 247.753 C 218.144 243.42 218.478 239.17 218.811 235.003 C 219.144 230.836 219.444 227.053 219.711 223.653 C 216.244 224.186 213.111 224.72 210.311 225.253 C 207.511 225.786 205.111 226.27 203.111 226.703 C 201.111 227.136 199.544 227.503 198.411 227.803 C 197.278 228.103 196.711 228.253 196.711 228.253 C 196.644 228.32 196.511 228.353 196.311 228.353 C 195.444 228.353 194.911 227.953 194.711 227.153 C 194.378 226.086 194.744 225.42 195.811 225.153 C 195.878 225.153 196.494 224.986 197.661 224.653 C 198.828 224.32 200.461 223.936 202.561 223.503 C 204.661 223.07 207.194 222.57 210.161 222.003 C 213.128 221.436 216.411 220.886 220.011 220.353 C 220.211 217.886 220.378 215.803 220.511 214.103 C 220.644 212.403 220.778 211.186 220.911 210.453 C 220.911 209.986 221.078 209.603 221.411 209.303 C 221.744 209.003 222.144 208.886 222.611 208.953 C 223.078 209.02 223.461 209.22 223.761 209.553 C 224.061 209.886 224.178 210.286 224.111 210.753 C 223.978 212.22 223.844 213.703 223.711 215.203 C 223.578 216.703 223.444 218.253 223.311 219.853 C 226.578 219.386 230.028 218.986 233.661 218.653 C 237.294 218.32 241.078 218.086 245.011 217.953 Z M 253.611 217.953 C 254.611 217.953 255.178 218.486 255.311 219.553 C 255.311 220.02 255.161 220.42 254.861 220.753 C 254.561 221.086 254.178 221.253 253.711 221.253 C 249.711 221.386 245.861 221.62 242.161 221.953 C 238.461 222.286 234.944 222.686 231.611 223.153 C 231.278 227.486 230.928 231.953 230.561 236.553 C 230.194 241.153 229.861 245.62 229.561 249.953 C 229.261 254.286 228.994 258.436 228.761 262.403 C 228.528 266.37 228.328 269.92 228.161 273.053 C 227.994 276.186 227.911 278.786 227.911 280.853 C 227.911 282.92 227.978 284.286 228.111 284.953 C 228.244 285.42 228.178 285.836 227.911 286.203 C 227.644 286.57 227.278 286.82 226.811 286.953 L 226.511 286.953 C 225.644 286.953 225.111 286.52 224.911 285.653 C 224.711 284.853 224.628 283.236 224.661 280.803 C 224.694 278.37 224.794 275.42 224.961 271.953 C 225.128 268.486 225.328 264.67 225.561 260.503 C 225.794 256.336 226.078 252.086 226.411 247.753 C 226.744 243.42 227.078 239.17 227.411 235.003 C 227.744 230.836 228.044 227.053 228.311 223.653 C 224.844 224.186 221.711 224.72 218.911 225.253 C 216.111 225.786 213.711 226.27 211.711 226.703 C 209.711 227.136 208.144 227.503 207.011 227.803 C 205.878 228.103 205.311 228.253 205.311 228.253 C 205.244 228.32 205.111 228.353 204.911 228.353 C 204.044 228.353 203.511 227.953 203.311 227.153 C 202.978 226.086 203.344 225.42 204.411 225.153 C 204.478 225.153 205.094 224.986 206.261 224.653 C 207.428 224.32 209.061 223.936 211.161 223.503 C 213.261 223.07 215.794 222.57 218.761 222.003 C 221.728 221.436 225.011 220.886 228.611 220.353 C 228.811 217.886 228.978 215.803 229.111 214.103 C 229.244 212.403 229.378 211.186 229.511 210.453 C 229.511 209.986 229.678 209.603 230.011 209.303 C 230.344 209.003 230.744 208.886 231.211 208.953 C 231.678 209.02 232.061 209.22 232.361 209.553 C 232.661 209.886 232.778 210.286 232.711 210.753 C 232.578 212.22 232.444 213.703 232.311 215.203 C 232.178 216.703 232.044 218.253 231.911 219.853 C 235.178 219.386 238.628 218.986 242.261 218.653 C 245.894 218.32 249.678 218.086 253.611 217.953 Z M 235.011 257.753 C 234.344 257.753 233.844 257.386 233.511 256.653 C 233.378 256.386 233.261 256.02 233.161 255.553 C 233.061 255.086 233.011 254.42 233.011 253.553 C 233.011 252.686 233.094 251.62 233.261 250.353 C 233.428 249.086 233.678 247.486 234.011 245.553 C 234.344 243.553 234.694 241.786 235.061 240.253 C 235.428 238.72 235.644 237.92 235.711 237.853 C 235.844 237.386 236.094 237.036 236.461 236.803 C 236.828 236.57 237.244 236.52 237.711 236.653 C 238.111 236.786 238.428 237.036 238.661 237.403 C 238.894 237.77 238.944 238.186 238.811 238.653 C 238.678 239.386 238.511 240.153 238.311 240.953 C 238.178 241.686 237.994 242.503 237.761 243.403 C 237.528 244.303 237.344 245.22 237.211 246.153 C 236.878 247.886 236.644 249.336 236.511 250.503 C 236.378 251.67 236.311 252.603 236.311 253.303 C 236.311 254.003 236.344 254.52 236.411 254.853 C 236.478 255.186 236.511 255.386 236.511 255.453 C 236.978 256.52 236.678 257.22 235.611 257.553 C 235.344 257.686 235.144 257.753 235.011 257.753 Z M 237.211 234.153 C 236.744 234.153 236.361 233.986 236.061 233.653 C 235.761 233.32 235.611 232.92 235.611 232.453 C 235.611 232.053 235.761 231.703 236.061 231.403 C 236.361 231.103 236.711 230.92 237.111 230.853 C 237.111 230.786 237.128 230.736 237.161 230.703 C 237.194 230.67 237.211 230.586 237.211 230.453 C 237.344 229.986 237.594 229.62 237.961 229.353 C 238.328 229.086 238.744 229.02 239.211 229.153 C 239.678 229.286 240.028 229.536 240.261 229.903 C 240.494 230.27 240.544 230.686 240.411 231.153 C 240.078 232.486 239.561 233.32 238.861 233.653 C 238.161 233.986 237.611 234.153 237.211 234.153 Z M 269.911 219.453 C 270.378 219.453 270.761 219.62 271.061 219.953 C 271.361 220.286 271.511 220.686 271.511 221.153 C 271.511 221.553 271.361 221.92 271.061 222.253 C 270.761 222.586 270.378 222.753 269.911 222.753 L 269.811 222.753 C 265.211 222.62 261.144 222.62 257.611 222.753 C 254.078 222.886 250.911 223.12 248.111 223.453 C 247.378 226.653 246.628 230.436 245.861 234.803 C 245.094 239.17 244.378 244.153 243.711 249.753 C 243.044 255.353 242.478 261.62 242.011 268.553 C 241.544 275.486 241.244 283.186 241.111 291.653 C 241.111 292.12 240.944 292.503 240.611 292.803 C 240.278 293.103 239.911 293.253 239.511 293.253 L 239.411 293.253 C 238.944 293.253 238.561 293.086 238.261 292.753 C 237.961 292.42 237.811 292.02 237.811 291.553 C 238.344 264.153 240.611 241.62 244.611 223.953 C 243.144 224.153 241.811 224.37 240.611 224.603 C 239.411 224.836 238.344 225.086 237.411 225.353 C 235.944 225.753 234.728 226.136 233.761 226.503 C 232.794 226.87 232.011 227.22 231.411 227.553 C 230.678 227.886 230.111 228.22 229.711 228.553 L 227.411 226.253 C 227.544 226.12 228.211 225.653 229.411 224.853 C 230.611 224.053 232.811 223.22 236.011 222.353 C 238.678 221.62 241.844 220.986 245.511 220.453 C 246.911 214.786 248.444 210.02 250.111 206.153 C 251.778 202.286 253.478 199.52 255.211 197.853 C 256.278 196.853 257.344 196.353 258.411 196.353 C 259.611 196.42 260.544 196.936 261.211 197.903 C 261.878 198.87 262.378 200.003 262.711 201.303 C 263.044 202.603 263.244 203.903 263.311 205.203 C 263.378 206.503 263.411 207.486 263.411 208.153 C 263.411 208.82 263.394 209.42 263.361 209.953 C 263.328 210.486 263.278 210.986 263.211 211.453 C 263.144 211.786 262.994 212.303 262.761 213.003 C 262.528 213.703 261.978 214.053 261.111 214.053 C 260.044 214.053 259.511 213.52 259.511 212.453 C 259.511 211.92 259.644 211.52 259.911 211.253 C 260.044 210.853 260.128 210.17 260.161 209.203 C 260.194 208.236 260.178 207.17 260.111 206.003 C 260.044 204.836 259.911 203.72 259.711 202.653 C 259.511 201.586 259.211 200.753 258.811 200.153 C 258.611 199.82 258.444 199.653 258.311 199.653 C 258.111 199.72 257.711 200.07 257.111 200.703 C 256.511 201.336 255.778 202.403 254.911 203.903 C 254.044 205.403 253.111 207.436 252.111 210.003 C 251.111 212.57 250.111 215.786 249.111 219.653 C 249.044 219.72 249.011 219.786 249.011 219.853 C 249.011 219.92 248.978 219.986 248.911 220.053 C 254.978 219.453 261.978 219.253 269.911 219.453 Z M 259.311 306.353 L 258.711 306.353 C 256.711 306.353 255.344 305.32 254.611 303.253 C 253.611 300.386 253.944 295.753 255.611 289.353 C 256.344 286.42 257.328 283.286 258.561 279.953 C 259.794 276.62 261.211 273.253 262.811 269.853 C 264.744 265.586 266.778 261.653 268.911 258.053 C 269.044 254.386 269.144 251.086 269.211 248.153 C 269.278 245.22 269.244 242.82 269.111 240.953 C 268.978 241.286 268.811 241.62 268.611 241.953 C 268.411 242.286 268.244 242.62 268.111 242.953 C 266.244 246.953 264.461 250.286 262.761 252.953 C 261.061 255.62 259.244 256.986 257.311 257.053 C 256.178 257.053 255.311 256.62 254.711 255.753 C 254.511 255.486 254.311 255.103 254.111 254.603 C 253.911 254.103 253.794 253.42 253.761 252.553 C 253.728 251.686 253.778 250.553 253.911 249.153 C 254.044 247.753 254.344 246.02 254.811 243.953 C 255.278 241.82 255.761 239.953 256.261 238.353 C 256.761 236.753 257.011 235.886 257.011 235.753 C 257.144 235.353 257.411 235.053 257.811 234.853 C 258.211 234.653 258.644 234.62 259.111 234.753 C 259.511 234.886 259.811 235.153 260.011 235.553 C 260.211 235.953 260.244 236.353 260.111 236.753 C 260.111 236.82 259.861 237.67 259.361 239.303 C 258.861 240.936 258.378 242.82 257.911 244.953 C 257.178 248.286 256.861 250.553 256.961 251.753 C 257.061 252.953 257.178 253.62 257.311 253.753 C 257.444 253.753 257.794 253.553 258.361 253.153 C 258.928 252.753 259.744 251.72 260.811 250.053 C 261.544 248.786 262.294 247.403 263.061 245.903 C 263.828 244.403 264.544 242.953 265.211 241.553 C 266.411 239.02 267.294 237.27 267.861 236.303 C 268.428 235.336 269.078 234.786 269.811 234.653 C 270.411 234.52 270.978 234.72 271.511 235.253 C 271.578 235.386 271.678 235.553 271.811 235.753 C 271.944 235.953 272.061 236.37 272.161 237.003 C 272.261 237.636 272.344 238.536 272.411 239.703 C 272.478 240.87 272.511 242.453 272.511 244.453 C 272.511 245.653 272.494 246.92 272.461 248.253 C 272.428 249.586 272.411 250.953 272.411 252.353 C 272.678 251.953 272.928 251.553 273.161 251.153 C 273.394 250.753 273.678 250.386 274.011 250.053 C 278.611 243.453 283.044 238.753 287.311 235.953 C 288.244 235.353 289.011 235.52 289.611 236.453 C 289.878 236.786 289.961 237.186 289.861 237.653 C 289.761 238.12 289.511 238.453 289.111 238.653 C 286.378 240.453 283.561 243.086 280.661 246.553 C 277.761 250.02 274.911 254.153 272.111 258.953 C 272.111 259.486 272.094 260.003 272.061 260.503 C 272.028 261.003 271.978 261.52 271.911 262.053 C 271.778 264.52 271.561 267.403 271.261 270.703 C 270.961 274.003 270.578 277.37 270.111 280.803 C 269.644 284.236 269.078 287.586 268.411 290.853 C 267.744 294.12 266.911 296.953 265.911 299.353 C 264.044 303.753 261.844 306.086 259.311 306.353 Z M 268.411 265.953 L 268.411 265.653 C 267.944 266.586 267.494 267.503 267.061 268.403 C 266.628 269.303 266.178 270.22 265.711 271.153 C 264.178 274.553 262.811 277.87 261.611 281.103 C 260.411 284.336 259.461 287.336 258.761 290.103 C 258.061 292.87 257.611 295.303 257.411 297.403 C 257.211 299.503 257.311 301.086 257.711 302.153 C 257.844 302.686 258.011 302.986 258.211 303.053 C 258.411 303.12 258.644 303.153 258.911 303.153 C 259.444 303.086 259.911 302.836 260.311 302.403 C 260.711 301.97 261.078 301.52 261.411 301.053 C 263.011 298.52 264.411 294.253 265.611 288.253 C 266.811 282.253 267.744 274.82 268.411 265.953 Z M 334.811 217.953 C 335.811 217.953 336.378 218.486 336.511 219.553 C 336.511 220.02 336.361 220.42 336.061 220.753 C 335.761 221.086 335.378 221.253 334.911 221.253 C 330.911 221.386 327.061 221.62 323.361 221.953 C 319.661 222.286 316.144 222.686 312.811 223.153 C 312.478 227.486 312.128 231.953 311.761 236.553 C 311.394 241.153 311.061 245.62 310.761 249.953 C 310.461 254.286 310.194 258.436 309.961 262.403 C 309.728 266.37 309.528 269.92 309.361 273.053 C 309.194 276.186 309.111 278.786 309.111 280.853 C 309.111 282.92 309.178 284.286 309.311 284.953 C 309.444 285.42 309.378 285.836 309.111 286.203 C 308.844 286.57 308.478 286.82 308.011 286.953 L 307.711 286.953 C 306.844 286.953 306.311 286.52 306.111 285.653 C 305.911 284.853 305.828 283.236 305.861 280.803 C 305.894 278.37 305.994 275.42 306.161 271.953 C 306.328 268.486 306.528 264.67 306.761 260.503 C 306.994 256.336 307.278 252.086 307.611 247.753 C 307.944 243.42 308.278 239.17 308.611 235.003 C 308.944 230.836 309.244 227.053 309.511 223.653 C 306.044 224.186 302.911 224.72 300.111 225.253 C 297.311 225.786 294.911 226.27 292.911 226.703 C 290.911 227.136 289.344 227.503 288.211 227.803 C 287.078 228.103 286.511 228.253 286.511 228.253 C 286.444 228.32 286.311 228.353 286.111 228.353 C 285.244 228.353 284.711 227.953 284.511 227.153 C 284.178 226.086 284.544 225.42 285.611 225.153 C 285.678 225.153 286.294 224.986 287.461 224.653 C 288.628 224.32 290.261 223.936 292.361 223.503 C 294.461 223.07 296.994 222.57 299.961 222.003 C 302.928 221.436 306.211 220.886 309.811 220.353 C 310.011 217.886 310.178 215.803 310.311 214.103 C 310.444 212.403 310.578 211.186 310.711 210.453 C 310.711 209.986 310.878 209.603 311.211 209.303 C 311.544 209.003 311.944 208.886 312.411 208.953 C 312.878 209.02 313.261 209.22 313.561 209.553 C 313.861 209.886 313.978 210.286 313.911 210.753 C 313.778 212.22 313.644 213.703 313.511 215.203 C 313.378 216.703 313.244 218.253 313.111 219.853 C 316.378 219.386 319.828 218.986 323.461 218.653 C 327.094 218.32 330.878 218.086 334.811 217.953 Z M 316.711 258.053 L 316.411 258.053 C 315.611 257.92 315.094 257.47 314.861 256.703 C 314.628 255.936 314.478 255.32 314.411 254.853 C 314.411 254.653 314.394 254.303 314.361 253.803 C 314.328 253.303 314.378 252.503 314.511 251.403 C 314.644 250.303 314.844 248.803 315.111 246.903 C 315.378 245.003 315.778 242.52 316.311 239.453 C 316.844 236.386 317.561 232.62 318.461 228.153 C 319.361 223.686 320.478 218.386 321.811 212.253 C 322.811 207.72 323.778 203.32 324.711 199.053 C 325.644 194.786 326.494 191.003 327.261 187.703 C 328.028 184.403 328.644 181.753 329.111 179.753 C 329.578 177.753 329.811 176.72 329.811 176.653 C 329.944 176.186 330.194 175.836 330.561 175.603 C 330.928 175.37 331.344 175.32 331.811 175.453 C 332.278 175.586 332.628 175.836 332.861 176.203 C 333.094 176.57 333.144 176.953 333.011 177.353 C 332.344 180.22 331.544 183.686 330.611 187.753 C 329.678 191.82 328.694 196.17 327.661 200.803 C 326.628 205.436 325.594 210.203 324.561 215.103 C 323.528 220.003 322.561 224.686 321.661 229.153 C 320.761 233.62 319.978 237.72 319.311 241.453 C 318.644 245.186 318.178 248.22 317.911 250.553 C 318.511 249.02 319.161 247.453 319.861 245.853 C 320.561 244.253 321.328 242.836 322.161 241.603 C 322.994 240.37 323.894 239.386 324.861 238.653 C 325.828 237.92 326.911 237.653 328.111 237.853 C 329.178 238.053 330.028 238.42 330.661 238.953 C 331.294 239.486 331.794 240.103 332.161 240.803 C 332.528 241.503 332.778 242.253 332.911 243.053 C 333.044 243.853 333.178 244.586 333.311 245.253 C 333.444 245.92 333.561 246.586 333.661 247.253 C 333.761 247.92 333.944 248.353 334.211 248.553 C 334.544 248.753 334.978 248.786 335.511 248.653 C 336.711 248.52 338.078 247.92 339.611 246.853 C 341.144 245.786 342.644 244.553 344.111 243.153 C 345.578 241.753 346.944 240.353 348.211 238.953 C 349.478 237.553 350.444 236.42 351.111 235.553 C 351.444 235.22 351.828 235.003 352.261 234.903 C 352.694 234.803 353.078 234.92 353.411 235.253 C 353.744 235.586 353.944 235.97 354.011 236.403 C 354.078 236.836 353.978 237.22 353.711 237.553 C 353.644 237.62 353.044 238.32 351.911 239.653 C 350.778 240.986 349.378 242.52 347.711 244.253 C 345.378 246.586 343.228 248.386 341.261 249.653 C 339.294 250.92 337.544 251.686 336.011 251.953 C 334.478 252.153 333.244 251.886 332.311 251.153 C 331.444 250.486 330.894 249.67 330.661 248.703 C 330.428 247.736 330.244 246.72 330.111 245.653 C 329.911 244.12 329.661 243.003 329.361 242.303 C 329.061 241.603 328.478 241.186 327.611 241.053 C 326.811 240.92 325.778 241.92 324.511 244.053 C 323.778 245.186 323.111 246.486 322.511 247.953 C 321.911 249.42 321.344 250.786 320.811 252.053 C 320.478 252.786 320.194 253.453 319.961 254.053 C 319.728 254.653 319.478 255.22 319.211 255.753 C 319.011 256.153 318.728 256.636 318.361 257.203 C 317.994 257.77 317.444 258.053 316.711 258.053 Z M 352.711 257.753 C 352.044 257.753 351.544 257.386 351.211 256.653 C 351.078 256.386 350.961 256.02 350.861 255.553 C 350.761 255.086 350.711 254.42 350.711 253.553 C 350.711 252.686 350.794 251.62 350.961 250.353 C 351.128 249.086 351.378 247.486 351.711 245.553 C 352.044 243.553 352.394 241.786 352.761 240.253 C 353.128 238.72 353.344 237.92 353.411 237.853 C 353.544 237.386 353.794 237.036 354.161 236.803 C 354.528 236.57 354.944 236.52 355.411 236.653 C 355.811 236.786 356.128 237.036 356.361 237.403 C 356.594 237.77 356.644 238.186 356.511 238.653 C 356.378 239.386 356.211 240.153 356.011 240.953 C 355.878 241.686 355.694 242.503 355.461 243.403 C 355.228 244.303 355.044 245.22 354.911 246.153 C 354.578 247.886 354.344 249.336 354.211 250.503 C 354.078 251.67 354.011 252.603 354.011 253.303 C 354.011 254.003 354.044 254.52 354.111 254.853 C 354.178 255.186 354.211 255.386 354.211 255.453 C 354.678 256.52 354.378 257.22 353.311 257.553 C 353.044 257.686 352.844 257.753 352.711 257.753 Z M 354.911 234.153 C 354.444 234.153 354.061 233.986 353.761 233.653 C 353.461 233.32 353.311 232.92 353.311 232.453 C 353.311 232.053 353.461 231.703 353.761 231.403 C 354.061 231.103 354.411 230.92 354.811 230.853 C 354.811 230.786 354.828 230.736 354.861 230.703 C 354.894 230.67 354.911 230.586 354.911 230.453 C 355.044 229.986 355.294 229.62 355.661 229.353 C 356.028 229.086 356.444 229.02 356.911 229.153 C 357.378 229.286 357.728 229.536 357.961 229.903 C 358.194 230.27 358.244 230.686 358.111 231.153 C 357.778 232.486 357.261 233.32 356.561 233.653 C 355.861 233.986 355.311 234.153 354.911 234.153 Z M 376.711 269.153 L 376.511 269.153 C 374.978 268.953 373.828 268.153 373.061 266.753 C 372.294 265.353 371.778 263.603 371.511 261.503 C 371.244 259.403 371.144 257.086 371.211 254.553 C 371.278 252.02 371.378 249.486 371.511 246.953 C 371.644 245.62 371.744 244.253 371.811 242.853 C 371.878 241.453 371.878 240.286 371.811 239.353 C 371.678 239.62 371.511 239.903 371.311 240.203 C 371.111 240.503 370.878 240.92 370.611 241.453 C 370.144 242.386 369.678 243.403 369.211 244.503 C 368.744 245.603 368.278 246.72 367.811 247.853 C 366.411 251.186 365.344 253.503 364.611 254.803 C 363.878 256.103 363.044 256.753 362.111 256.753 C 361.378 256.753 360.878 256.52 360.611 256.053 C 360.278 255.72 360.061 255.17 359.961 254.403 C 359.861 253.636 359.944 252.286 360.211 250.353 C 360.344 249.286 360.528 248.07 360.761 246.703 C 360.994 245.336 361.278 243.786 361.611 242.053 C 361.878 240.653 362.161 239.27 362.461 237.903 C 362.761 236.536 363.028 235.32 363.261 234.253 C 363.494 233.186 363.678 232.32 363.811 231.653 C 363.944 230.986 364.011 230.653 364.011 230.653 C 364.144 230.186 364.394 229.836 364.761 229.603 C 365.128 229.37 365.544 229.32 366.011 229.453 C 366.411 229.586 366.744 229.836 367.011 230.203 C 367.278 230.57 367.344 230.986 367.211 231.453 C 367.011 232.386 366.778 233.453 366.511 234.653 C 366.311 235.653 366.061 236.803 365.761 238.103 C 365.461 239.403 365.178 240.72 364.911 242.053 C 364.578 243.653 364.311 245.036 364.111 246.203 C 363.911 247.37 363.744 248.42 363.611 249.353 C 363.811 248.886 364.011 248.42 364.211 247.953 C 364.411 247.486 364.611 247.053 364.811 246.653 C 365.344 245.32 365.894 243.986 366.461 242.653 C 367.028 241.32 367.611 240.12 368.211 239.053 C 368.411 238.653 368.661 238.203 368.961 237.703 C 369.261 237.203 369.611 236.72 370.011 236.253 C 370.411 235.786 370.861 235.436 371.361 235.203 C 371.861 234.97 372.411 234.92 373.011 235.053 C 373.944 235.32 374.511 235.936 374.711 236.903 C 374.911 237.87 375.011 238.853 375.011 239.853 C 375.078 240.786 375.078 241.886 375.011 243.153 C 374.944 244.42 374.878 245.753 374.811 247.153 C 374.678 249.286 374.578 251.503 374.511 253.803 C 374.444 256.103 374.511 258.22 374.711 260.153 C 375.044 263.82 375.778 265.72 376.911 265.853 C 377.378 265.92 377.761 266.12 378.061 266.453 C 378.361 266.786 378.478 267.186 378.411 267.653 C 378.278 268.653 377.711 269.153 376.711 269.153 Z M 374.311 309.653 L 374.011 309.653 L 373.911 309.653 C 372.244 309.52 370.844 309.203 369.711 308.703 C 368.578 308.203 367.628 307.603 366.861 306.903 C 366.094 306.203 365.528 305.436 365.161 304.603 C 364.794 303.77 364.511 302.953 364.311 302.153 C 363.778 299.686 363.961 296.82 364.861 293.553 C 365.761 290.286 367.011 286.953 368.611 283.553 C 370.211 280.153 372.011 276.836 374.011 273.603 C 376.011 270.37 377.811 267.553 379.411 265.153 C 381.144 262.62 382.928 260.153 384.761 257.753 C 386.594 255.353 388.411 253.086 390.211 250.953 C 390.211 247.82 390.178 244.92 390.111 242.253 C 390.044 239.586 389.944 237.286 389.811 235.353 C 389.744 235.486 389.678 235.62 389.611 235.753 C 389.544 235.886 389.478 236.02 389.411 236.153 C 388.544 237.686 387.761 238.903 387.061 239.803 C 386.361 240.703 385.728 241.403 385.161 241.903 C 384.594 242.403 384.111 242.753 383.711 242.953 C 383.311 243.153 382.944 243.286 382.611 243.353 C 381.478 243.486 380.578 243.153 379.911 242.353 C 379.578 242.02 379.261 241.42 378.961 240.553 C 378.661 239.686 378.844 238.586 379.511 237.253 C 379.911 236.453 380.461 235.653 381.161 234.853 C 381.861 234.053 382.661 233.32 383.561 232.653 C 384.461 231.986 385.378 231.42 386.311 230.953 C 387.244 230.486 388.144 230.153 389.011 229.953 C 389.144 229.753 389.228 229.586 389.261 229.453 C 389.294 229.32 389.344 229.186 389.411 229.053 L 389.611 228.653 C 389.944 227.853 390.544 227.553 391.411 227.753 C 392.278 227.886 392.711 228.386 392.711 229.253 C 392.711 229.253 392.744 229.703 392.811 230.603 C 392.878 231.503 392.944 232.753 393.011 234.353 C 393.078 235.953 393.161 237.836 393.261 240.003 C 393.361 242.17 393.411 244.553 393.411 247.153 C 395.544 244.753 397.528 242.72 399.361 241.053 C 401.194 239.386 402.678 238.22 403.811 237.553 C 404.211 237.353 404.628 237.32 405.061 237.453 C 405.494 237.586 405.811 237.853 406.011 238.253 C 406.278 238.653 406.344 239.07 406.211 239.503 C 406.078 239.936 405.811 240.253 405.411 240.453 C 404.278 241.053 402.661 242.386 400.561 244.453 C 398.461 246.52 396.111 249.086 393.511 252.153 C 393.511 253.686 393.494 255.22 393.461 256.753 C 393.428 258.286 393.378 259.853 393.311 261.453 C 392.511 284.52 388.978 299.32 382.711 305.853 C 380.311 308.386 377.511 309.653 374.311 309.653 Z M 374.111 306.353 C 376.444 306.42 378.544 305.486 380.411 303.553 C 383.211 300.62 385.428 295.603 387.061 288.503 C 388.694 281.403 389.678 272.353 390.011 261.353 C 390.078 260.42 390.111 259.536 390.111 258.703 C 390.111 257.87 390.144 257.02 390.211 256.153 C 388.878 257.82 387.528 259.57 386.161 261.403 C 384.794 263.236 383.444 265.12 382.111 267.053 C 376.778 274.853 372.844 281.736 370.311 287.703 C 367.778 293.67 366.844 298.286 367.511 301.553 C 367.578 302.02 367.728 302.52 367.961 303.053 C 368.194 303.586 368.561 304.07 369.061 304.503 C 369.561 304.936 370.211 305.336 371.011 305.703 C 371.811 306.07 372.844 306.286 374.111 306.353 Z M 386.611 234.553 C 385.678 235.086 384.828 235.72 384.061 236.453 C 383.294 237.186 382.744 237.92 382.411 238.653 C 382.211 239.053 382.111 239.353 382.111 239.553 C 382.111 239.753 382.144 239.92 382.211 240.053 C 382.478 239.92 382.944 239.503 383.611 238.803 C 384.278 238.103 385.278 236.686 386.611 234.553 Z M 405.611 262.453 C 404.678 262.453 403.844 262.236 403.111 261.803 C 402.378 261.37 401.844 260.786 401.511 260.053 C 400.311 257.386 401.978 253.686 406.511 248.953 C 406.444 248.82 406.411 248.72 406.411 248.653 C 406.411 248.586 406.378 248.486 406.311 248.353 C 405.844 246.686 405.428 245.036 405.061 243.403 C 404.694 241.77 404.444 240.253 404.311 238.853 C 403.911 235.053 404.878 232.753 407.211 231.953 C 409.078 231.353 410.778 231.42 412.311 232.153 C 412.978 232.486 413.528 232.886 413.961 233.353 C 414.394 233.82 414.761 234.27 415.061 234.703 C 415.361 235.136 415.578 235.52 415.711 235.853 C 415.844 236.186 415.911 236.386 415.911 236.453 C 416.044 236.853 416.028 237.253 415.861 237.653 C 415.694 238.053 415.378 238.32 414.911 238.453 C 414.511 238.586 414.094 238.57 413.661 238.403 C 413.228 238.236 412.944 237.92 412.811 237.453 L 412.511 236.853 C 412.378 236.72 412.261 236.536 412.161 236.303 C 412.061 236.07 411.911 235.853 411.711 235.653 C 410.844 234.786 409.678 234.586 408.211 235.053 C 407.811 235.186 407.578 235.653 407.511 236.453 C 407.444 237.253 407.444 237.953 407.511 238.553 C 407.644 239.686 407.861 240.92 408.161 242.253 C 408.461 243.586 408.811 244.953 409.211 246.353 C 410.744 245.02 412.461 243.603 414.361 242.103 C 416.261 240.603 418.378 239.053 420.711 237.453 C 421.044 237.186 421.428 237.103 421.861 237.203 C 422.294 237.303 422.644 237.52 422.911 237.853 C 423.578 238.653 423.444 239.42 422.511 240.153 C 417.178 243.82 413.044 247.086 410.111 249.953 C 410.444 251.22 410.728 252.42 410.961 253.553 C 411.194 254.686 411.344 255.753 411.411 256.753 C 411.544 258.22 411.161 259.42 410.261 260.353 C 409.361 261.286 408.344 261.92 407.211 262.253 C 406.544 262.386 406.011 262.453 405.611 262.453 Z M 407.411 252.753 C 407.278 252.886 407.178 253.02 407.111 253.153 C 407.044 253.286 406.944 253.42 406.811 253.553 C 406.078 254.486 405.544 255.27 405.211 255.903 C 404.878 256.536 404.661 257.053 404.561 257.453 C 404.461 257.853 404.428 258.153 404.461 258.353 C 404.494 258.553 404.511 258.686 404.511 258.753 C 404.711 259.22 405.344 259.32 406.411 259.053 C 406.544 259.053 406.894 258.903 407.461 258.603 C 408.028 258.303 408.278 257.786 408.211 257.053 C 408.144 256.386 408.044 255.703 407.911 255.003 C 407.778 254.303 407.611 253.553 407.411 252.753 Z" style="fill: rgb(169, 169, 169); white-space: pre;" transform="matrix(1, 0, 0, 1, 0, 0)"/>
  <path d="M 73.943 356.699 C 73.476 356.699 72.96 356.599 72.393 356.399 C 71.826 356.199 71.243 355.766 70.643 355.099 C 69.043 353.232 68.143 349.099 67.943 342.699 C 67.876 340.299 67.943 337.582 68.143 334.549 C 68.343 331.516 68.61 328.199 68.943 324.599 C 69.21 321.532 69.543 318.566 69.943 315.699 C 70.343 312.832 70.693 310.282 70.993 308.049 C 71.293 305.816 71.56 304.016 71.793 302.649 C 72.026 301.282 72.143 300.599 72.143 300.599 C 72.276 300.066 72.526 299.666 72.893 299.399 C 73.26 299.132 73.71 299.032 74.243 299.099 C 74.776 299.232 75.193 299.499 75.493 299.899 C 75.793 300.299 75.876 300.766 75.743 301.299 C 75.743 301.299 75.626 301.966 75.393 303.299 C 75.16 304.632 74.893 306.399 74.593 308.599 C 74.293 310.799 73.943 313.316 73.543 316.149 C 73.143 318.982 72.81 321.899 72.543 324.899 C 72.01 330.299 71.71 334.732 71.643 338.199 C 71.576 341.666 71.643 344.432 71.843 346.499 C 72.043 348.566 72.31 350.066 72.643 350.999 C 72.976 351.932 73.243 352.532 73.443 352.799 C 73.643 352.932 73.81 352.999 73.943 352.999 C 75.943 352.999 77.826 352.399 79.593 351.199 C 81.36 349.999 82.876 348.666 84.143 347.199 C 85.41 345.732 86.426 344.382 87.193 343.149 C 87.96 341.916 88.343 341.299 88.343 341.299 C 88.543 340.832 88.876 340.516 89.343 340.349 C 89.81 340.182 90.276 340.232 90.743 340.499 C 91.21 340.699 91.526 341.032 91.693 341.499 C 91.86 341.966 91.81 342.432 91.543 342.899 C 91.476 343.032 91.01 343.832 90.143 345.299 C 89.276 346.766 88.06 348.349 86.493 350.049 C 84.926 351.749 83.093 353.282 80.993 354.649 C 78.893 356.016 76.543 356.699 73.943 356.699 Z M 98.543 351.499 C 98.143 351.499 97.843 351.432 97.643 351.299 C 95.643 350.032 94.176 347.899 93.243 344.899 C 92.31 341.899 92.11 338.599 92.643 334.999 C 93.176 331.466 94.36 328.499 96.193 326.099 C 98.026 323.699 100.343 322.132 103.143 321.399 C 105.41 320.799 107.043 321.099 108.043 322.299 C 109.176 323.566 109.143 325.699 107.943 328.699 C 107.343 330.099 106.51 331.616 105.443 333.249 C 104.376 334.882 103.176 336.466 101.843 337.999 C 101.043 338.932 100.126 339.866 99.093 340.799 C 98.06 341.732 97.043 342.432 96.043 342.899 C 96.376 344.232 96.826 345.382 97.393 346.349 C 97.96 347.316 98.61 348.032 99.343 348.499 C 99.743 348.766 99.993 349.116 100.093 349.549 C 100.193 349.982 100.143 350.399 99.943 350.799 C 99.676 351.266 99.21 351.499 98.543 351.499 Z M 105.543 324.399 L 105.243 324.399 C 105.11 324.399 104.943 324.399 104.743 324.399 C 104.543 324.399 104.276 324.466 103.943 324.599 C 101.81 325.132 100.043 326.366 98.643 328.299 C 97.243 330.232 96.31 332.632 95.843 335.499 C 95.643 336.966 95.576 338.266 95.643 339.399 C 95.976 339.199 96.376 338.882 96.843 338.449 C 97.31 338.016 97.843 337.499 98.443 336.899 C 99.443 335.766 100.41 334.566 101.343 333.299 C 102.276 332.032 103.11 330.766 103.843 329.499 C 104.776 327.899 105.326 326.699 105.493 325.899 C 105.66 325.099 105.676 324.599 105.543 324.399 Z M 137.643 312.299 C 138.643 312.299 139.21 312.832 139.343 313.899 C 139.343 314.366 139.193 314.766 138.893 315.099 C 138.593 315.432 138.21 315.599 137.743 315.599 C 133.743 315.732 129.893 315.966 126.193 316.299 C 122.493 316.632 118.976 317.032 115.643 317.499 C 115.31 321.832 114.96 326.299 114.593 330.899 C 114.226 335.499 113.893 339.966 113.593 344.299 C 113.293 348.632 113.026 352.782 112.793 356.749 C 112.56 360.716 112.36 364.266 112.193 367.399 C 112.026 370.532 111.943 373.132 111.943 375.199 C 111.943 377.266 112.01 378.632 112.143 379.299 C 112.276 379.766 112.21 380.182 111.943 380.549 C 111.676 380.916 111.31 381.166 110.843 381.299 L 110.543 381.299 C 109.676 381.299 109.143 380.866 108.943 379.999 C 108.743 379.199 108.66 377.582 108.693 375.149 C 108.726 372.716 108.826 369.766 108.993 366.299 C 109.16 362.832 109.36 359.016 109.593 354.849 C 109.826 350.682 110.11 346.432 110.443 342.099 C 110.776 337.766 111.11 333.516 111.443 329.349 C 111.776 325.182 112.076 321.399 112.343 317.999 C 108.876 318.532 105.743 319.066 102.943 319.599 C 100.143 320.132 97.743 320.616 95.743 321.049 C 93.743 321.482 92.176 321.849 91.043 322.149 C 89.91 322.449 89.343 322.599 89.343 322.599 C 89.276 322.666 89.143 322.699 88.943 322.699 C 88.076 322.699 87.543 322.299 87.343 321.499 C 87.01 320.432 87.376 319.766 88.443 319.499 C 88.51 319.499 89.126 319.332 90.293 318.999 C 91.46 318.666 93.093 318.282 95.193 317.849 C 97.293 317.416 99.826 316.916 102.793 316.349 C 105.76 315.782 109.043 315.232 112.643 314.699 C 112.843 312.232 113.01 310.149 113.143 308.449 C 113.276 306.749 113.41 305.532 113.543 304.799 C 113.543 304.332 113.71 303.949 114.043 303.649 C 114.376 303.349 114.776 303.232 115.243 303.299 C 115.71 303.366 116.093 303.566 116.393 303.899 C 116.693 304.232 116.81 304.632 116.743 305.099 C 116.61 306.566 116.476 308.049 116.343 309.549 C 116.21 311.049 116.076 312.599 115.943 314.199 C 119.21 313.732 122.66 313.332 126.293 312.999 C 129.926 312.666 133.71 312.432 137.643 312.299 Z M 140.161 356.799 C 139.227 356.799 138.394 356.582 137.661 356.149 C 136.927 355.716 136.394 355.132 136.061 354.399 C 134.861 351.732 136.527 348.032 141.061 343.299 C 140.994 343.166 140.961 343.066 140.961 342.999 C 140.961 342.932 140.927 342.832 140.861 342.699 C 140.394 341.032 139.977 339.382 139.611 337.749 C 139.244 336.116 138.994 334.599 138.861 333.199 C 138.461 329.399 139.427 327.099 141.761 326.299 C 143.627 325.699 145.327 325.766 146.861 326.499 C 147.527 326.832 148.077 327.232 148.511 327.699 C 148.944 328.166 149.311 328.616 149.611 329.049 C 149.911 329.482 150.127 329.866 150.261 330.199 C 150.394 330.532 150.461 330.732 150.461 330.799 C 150.594 331.199 150.577 331.599 150.411 331.999 C 150.244 332.399 149.927 332.666 149.461 332.799 C 149.061 332.932 148.644 332.916 148.211 332.749 C 147.777 332.582 147.494 332.266 147.361 331.799 L 147.061 331.199 C 146.927 331.066 146.811 330.882 146.711 330.649 C 146.611 330.416 146.461 330.199 146.261 329.999 C 145.394 329.132 144.227 328.932 142.761 329.399 C 142.361 329.532 142.127 329.999 142.061 330.799 C 141.994 331.599 141.994 332.299 142.061 332.899 C 142.194 334.032 142.411 335.266 142.711 336.599 C 143.011 337.932 143.361 339.299 143.761 340.699 C 145.294 339.366 147.011 337.949 148.911 336.449 C 150.811 334.949 152.927 333.399 155.261 331.799 C 155.594 331.532 155.977 331.449 156.411 331.549 C 156.844 331.649 157.194 331.866 157.461 332.199 C 158.127 332.999 157.994 333.766 157.061 334.499 C 151.727 338.166 147.594 341.432 144.661 344.299 C 144.994 345.566 145.277 346.766 145.511 347.899 C 145.744 349.032 145.894 350.099 145.961 351.099 C 146.094 352.566 145.711 353.766 144.811 354.699 C 143.911 355.632 142.894 356.266 141.761 356.599 C 141.094 356.732 140.561 356.799 140.161 356.799 Z M 141.961 347.099 C 141.827 347.232 141.727 347.366 141.661 347.499 C 141.594 347.632 141.494 347.766 141.361 347.899 C 140.627 348.832 140.094 349.616 139.761 350.249 C 139.427 350.882 139.211 351.399 139.111 351.799 C 139.011 352.199 138.977 352.499 139.011 352.699 C 139.044 352.899 139.061 353.032 139.061 353.099 C 139.261 353.566 139.894 353.666 140.961 353.399 C 141.094 353.399 141.444 353.249 142.011 352.949 C 142.577 352.649 142.827 352.132 142.761 351.399 C 142.694 350.732 142.594 350.049 142.461 349.349 C 142.327 348.649 142.161 347.899 141.961 347.099 Z M 195.461 328.799 C 196.127 329.466 196.627 330.499 196.961 331.899 C 197.294 333.299 196.927 335.299 195.861 337.899 C 195.127 339.632 194.194 341.366 193.061 343.099 C 191.927 344.832 190.661 346.432 189.261 347.899 C 188.794 348.432 188.227 348.999 187.561 349.599 C 186.894 350.199 186.161 350.749 185.361 351.249 C 184.561 351.749 183.727 352.182 182.861 352.549 C 181.994 352.916 181.127 353.099 180.261 353.099 C 179.927 353.099 179.544 353.066 179.111 352.999 C 178.677 352.932 178.227 352.766 177.761 352.499 C 177.427 354.632 177.177 356.349 177.011 357.649 C 176.844 358.949 176.761 359.766 176.761 360.099 C 176.827 360.566 176.727 360.949 176.461 361.249 C 176.194 361.549 175.861 361.766 175.461 361.899 L 175.161 361.899 C 174.227 361.899 173.694 361.432 173.561 360.499 C 173.561 360.432 173.544 360.299 173.511 360.099 C 173.477 359.899 173.511 359.416 173.611 358.649 C 173.711 357.882 173.861 356.732 174.061 355.199 C 174.261 353.666 174.561 351.532 174.961 348.799 C 174.761 347.866 174.894 346.732 175.361 345.399 C 175.761 342.532 176.244 339.116 176.811 335.149 C 177.377 331.182 178.061 326.466 178.861 320.999 C 179.527 316.266 180.194 311.632 180.861 307.099 C 181.527 302.566 182.127 298.532 182.661 294.999 C 183.194 291.466 183.627 288.599 183.961 286.399 C 184.294 284.199 184.461 283.099 184.461 283.099 C 184.594 282.032 185.194 281.566 186.261 281.699 C 187.327 281.832 187.794 282.432 187.661 283.499 C 187.061 287.632 186.411 292.016 185.711 296.649 C 185.011 301.282 184.327 305.949 183.661 310.649 C 182.994 315.349 182.327 319.982 181.661 324.549 C 180.994 329.116 180.394 333.399 179.861 337.399 C 180.461 336.599 181.211 335.632 182.111 334.499 C 183.011 333.366 184.011 332.282 185.111 331.249 C 186.211 330.216 187.361 329.332 188.561 328.599 C 189.761 327.866 190.961 327.499 192.161 327.499 C 193.494 327.499 194.594 327.932 195.461 328.799 Z M 192.861 336.699 C 193.394 335.366 193.677 334.199 193.711 333.199 C 193.744 332.199 193.561 331.532 193.161 331.199 C 192.894 330.932 192.561 330.799 192.161 330.799 C 191.294 330.799 190.194 331.282 188.861 332.249 C 187.527 333.216 186.127 334.566 184.661 336.299 C 183.127 338.232 181.844 340.082 180.811 341.849 C 179.777 343.616 179.027 345.066 178.561 346.199 C 178.494 346.532 178.444 346.899 178.411 347.299 C 178.377 347.699 178.327 348.066 178.261 348.399 C 178.594 349.066 178.927 349.466 179.261 349.599 C 179.594 349.732 179.927 349.799 180.261 349.799 C 181.127 349.799 182.144 349.416 183.311 348.649 C 184.477 347.882 185.661 346.882 186.861 345.649 C 188.061 344.416 189.194 343.016 190.261 341.449 C 191.327 339.882 192.194 338.299 192.861 336.699 Z M 209.761 352.099 C 209.627 352.099 209.544 352.082 209.511 352.049 C 209.477 352.016 209.427 351.999 209.361 351.999 C 207.894 351.666 207.077 350.432 206.911 348.299 C 206.744 346.166 206.961 343.099 207.561 339.099 C 206.427 340.832 205.277 342.266 204.111 343.399 C 202.944 344.532 201.694 345.066 200.361 344.999 C 199.161 344.866 198.327 344.366 197.861 343.499 C 197.527 343.032 197.327 342.166 197.261 340.899 C 197.194 339.632 197.694 337.532 198.761 334.599 C 199.294 333.066 199.827 331.766 200.361 330.699 C 200.894 329.632 201.161 329.066 201.161 328.999 C 201.361 328.599 201.677 328.316 202.111 328.149 C 202.544 327.982 202.961 327.999 203.361 328.199 C 203.761 328.399 204.044 328.716 204.211 329.149 C 204.377 329.582 204.361 329.999 204.161 330.399 C 204.094 330.399 203.827 330.932 203.361 331.999 C 202.894 333.066 202.394 334.299 201.861 335.699 C 201.127 337.766 200.711 339.232 200.611 340.099 C 200.511 340.966 200.494 341.499 200.561 341.699 C 200.761 341.699 201.144 341.516 201.711 341.149 C 202.277 340.782 203.094 339.866 204.161 338.399 C 204.894 337.266 205.594 336.082 206.261 334.849 C 206.927 333.616 207.494 332.532 207.961 331.599 L 208.761 329.999 C 208.961 329.732 209.194 329.432 209.461 329.099 C 209.727 328.766 210.127 328.599 210.661 328.599 C 211.127 328.599 211.561 328.799 211.961 329.199 C 212.227 329.532 212.361 329.882 212.361 330.249 C 212.361 330.616 212.294 331.066 212.161 331.599 C 212.094 331.932 212.044 332.299 212.011 332.699 C 211.977 333.099 211.894 333.566 211.761 334.099 C 211.494 335.366 211.227 336.799 210.961 338.399 C 210.694 339.999 210.461 341.566 210.261 343.099 C 210.061 345.232 210.011 346.699 210.111 347.499 C 210.211 348.299 210.294 348.766 210.361 348.899 C 210.694 349.032 210.977 349.299 211.211 349.699 C 211.444 350.099 211.494 350.466 211.361 350.799 C 211.161 351.666 210.627 352.099 209.761 352.099 Z M 214.761 352.099 C 214.094 352.099 213.594 351.732 213.261 350.999 C 213.127 350.732 213.011 350.366 212.911 349.899 C 212.811 349.432 212.761 348.766 212.761 347.899 C 212.761 347.032 212.844 345.966 213.011 344.699 C 213.177 343.432 213.427 341.832 213.761 339.899 C 214.094 337.899 214.444 336.132 214.811 334.599 C 215.177 333.066 215.394 332.266 215.461 332.199 C 215.594 331.732 215.844 331.382 216.211 331.149 C 216.577 330.916 216.994 330.866 217.461 330.999 C 217.861 331.132 218.177 331.382 218.411 331.749 C 218.644 332.116 218.694 332.532 218.561 332.999 C 218.427 333.732 218.261 334.499 218.061 335.299 C 217.927 336.032 217.744 336.849 217.511 337.749 C 217.277 338.649 217.094 339.566 216.961 340.499 C 216.627 342.232 216.394 343.682 216.261 344.849 C 216.127 346.016 216.061 346.949 216.061 347.649 C 216.061 348.349 216.094 348.866 216.161 349.199 C 216.227 349.532 216.261 349.732 216.261 349.799 C 216.727 350.866 216.427 351.566 215.361 351.899 C 215.094 352.032 214.894 352.099 214.761 352.099 Z M 216.961 328.499 C 216.494 328.499 216.111 328.332 215.811 327.999 C 215.511 327.666 215.361 327.266 215.361 326.799 C 215.361 326.399 215.511 326.049 215.811 325.749 C 216.111 325.449 216.461 325.266 216.861 325.199 C 216.861 325.132 216.877 325.082 216.911 325.049 C 216.944 325.016 216.961 324.932 216.961 324.799 C 217.094 324.332 217.344 323.966 217.711 323.699 C 218.077 323.432 218.494 323.366 218.961 323.499 C 219.427 323.632 219.777 323.882 220.011 324.249 C 220.244 324.616 220.294 325.032 220.161 325.499 C 219.827 326.832 219.311 327.666 218.611 327.999 C 217.911 328.332 217.361 328.499 216.961 328.499 Z M 224.061 360.799 C 223.394 360.799 222.794 360.532 222.261 359.999 C 222.061 359.732 221.877 359.399 221.711 358.999 C 221.544 358.599 221.394 357.999 221.261 357.199 C 221.127 356.399 221.044 355.366 221.011 354.099 C 220.977 352.832 221.027 351.232 221.161 349.299 C 221.294 347.099 221.494 344.566 221.761 341.699 C 222.027 338.832 222.394 335.632 222.861 332.099 C 223.261 329.099 223.661 326.182 224.061 323.349 C 224.461 320.516 224.827 317.999 225.161 315.799 C 225.494 313.599 225.761 311.816 225.961 310.449 C 226.161 309.082 226.261 308.366 226.261 308.299 C 226.327 307.832 226.544 307.466 226.911 307.199 C 227.277 306.932 227.694 306.866 228.161 306.999 C 228.627 307.066 228.994 307.282 229.261 307.649 C 229.527 308.016 229.594 308.432 229.461 308.899 C 229.461 308.899 229.361 309.566 229.161 310.899 C 228.961 312.232 228.694 313.966 228.361 316.099 C 228.027 318.232 227.661 320.699 227.261 323.499 C 226.861 326.299 226.494 329.166 226.161 332.099 C 225.561 336.566 225.127 340.299 224.861 343.299 C 224.594 346.299 224.427 348.766 224.361 350.699 C 224.294 352.632 224.294 354.099 224.361 355.099 C 224.427 356.099 224.494 356.799 224.561 357.199 C 224.827 356.999 225.161 356.666 225.561 356.199 C 225.961 355.732 226.427 355.032 226.961 354.099 C 227.694 352.966 228.427 351.649 229.161 350.149 C 229.894 348.649 230.627 347.132 231.361 345.599 C 232.894 342.599 234.361 339.816 235.761 337.249 C 237.161 334.682 238.561 332.899 239.961 331.899 C 240.294 331.632 240.677 331.549 241.111 331.649 C 241.544 331.749 241.894 331.966 242.161 332.299 C 242.427 332.699 242.527 333.116 242.461 333.549 C 242.394 333.982 242.161 334.332 241.761 334.599 C 241.227 334.999 240.661 335.616 240.061 336.449 C 239.461 337.282 238.844 338.282 238.211 339.449 C 237.577 340.616 236.927 341.849 236.261 343.149 C 235.594 344.449 234.961 345.732 234.361 346.999 C 232.161 351.466 230.311 354.882 228.811 357.249 C 227.311 359.616 225.727 360.799 224.061 360.799 Z M 259.26 389.299 L 259.161 389.299 C 258.227 389.299 257.694 388.766 257.561 387.699 C 257.027 371.966 256.994 358.266 257.461 346.599 C 257.927 334.932 258.627 325.166 259.561 317.299 C 259.227 318.232 258.927 319.132 258.661 319.999 C 258.394 320.866 258.094 321.732 257.76 322.599 C 256.161 327.066 254.727 330.666 253.461 333.399 C 252.194 336.132 251.061 338.266 250.061 339.799 C 249.061 341.332 248.177 342.382 247.411 342.949 C 246.644 343.516 245.961 343.899 245.361 344.099 C 244.094 344.499 242.927 344.232 241.861 343.299 C 241.127 342.632 240.594 341.816 240.261 340.849 C 239.927 339.882 239.777 338.866 239.811 337.799 C 239.844 336.732 240.044 335.699 240.411 334.699 C 240.777 333.699 241.261 332.832 241.861 332.099 C 243.061 330.632 244.594 329.832 246.461 329.699 C 247.927 329.632 249.427 330.032 250.961 330.899 C 251.494 329.632 252.061 328.232 252.661 326.699 C 253.261 325.166 253.927 323.432 254.661 321.499 C 255.527 319.232 256.361 316.882 257.161 314.449 C 257.961 312.016 258.727 309.616 259.461 307.249 C 260.194 304.882 260.894 302.582 261.561 300.349 C 262.227 298.116 262.827 296.066 263.361 294.199 C 263.627 293.132 263.861 292.182 264.061 291.349 C 264.26 290.516 264.461 289.732 264.661 288.999 C 264.994 287.866 265.277 286.949 265.51 286.249 C 265.744 285.549 265.927 284.966 266.061 284.499 C 266.394 283.699 266.644 283.132 266.811 282.799 C 266.977 282.466 267.227 282.232 267.561 282.099 C 268.161 281.832 268.76 281.932 269.361 282.399 C 269.761 282.799 269.927 283.232 269.861 283.699 C 269.794 284.166 269.694 284.566 269.561 284.899 C 269.361 285.366 269.094 286.216 268.76 287.449 C 268.427 288.682 267.994 290.132 267.461 291.799 C 267.327 292.332 267.177 292.866 267.01 293.399 C 266.844 293.932 266.694 294.466 266.561 294.999 C 265.627 298.866 264.727 303.699 263.861 309.499 C 263.327 313.232 262.811 317.632 262.311 322.699 C 261.811 327.766 261.394 333.532 261.061 339.999 C 260.727 346.466 260.527 353.666 260.461 361.599 C 260.394 369.532 260.527 378.199 260.861 387.599 C 260.861 388.066 260.711 388.466 260.411 388.799 C 260.111 389.132 259.727 389.299 259.26 389.299 Z M 246.861 332.999 C 245.794 332.999 244.961 333.399 244.361 334.199 C 243.961 334.666 243.661 335.216 243.461 335.849 C 243.261 336.482 243.144 337.116 243.111 337.749 C 243.077 338.382 243.144 338.982 243.311 339.549 C 243.477 340.116 243.727 340.532 244.061 340.799 C 244.194 340.932 244.327 340.999 244.461 340.999 C 244.594 340.932 244.811 340.799 245.111 340.599 C 245.411 340.399 245.761 340.049 246.161 339.549 C 246.561 339.049 247.044 338.349 247.611 337.449 C 248.177 336.549 248.827 335.332 249.561 333.799 C 248.694 333.266 247.794 332.999 246.861 332.999 Z M 314.861 312.299 C 315.861 312.299 316.427 312.832 316.561 313.899 C 316.561 314.366 316.411 314.766 316.111 315.099 C 315.811 315.432 315.427 315.599 314.961 315.599 C 310.961 315.732 307.111 315.966 303.411 316.299 C 299.711 316.632 296.194 317.032 292.861 317.499 C 292.527 321.832 292.177 326.299 291.811 330.899 C 291.444 335.499 291.111 339.966 290.811 344.299 C 290.511 348.632 290.244 352.782 290.011 356.749 C 289.777 360.716 289.577 364.266 289.411 367.399 C 289.244 370.532 289.161 373.132 289.161 375.199 C 289.161 377.266 289.227 378.632 289.361 379.299 C 289.494 379.766 289.427 380.182 289.161 380.549 C 288.894 380.916 288.527 381.166 288.061 381.299 L 287.761 381.299 C 286.894 381.299 286.361 380.866 286.161 379.999 C 285.961 379.199 285.877 377.582 285.911 375.149 C 285.944 372.716 286.044 369.766 286.211 366.299 C 286.377 362.832 286.577 359.016 286.811 354.849 C 287.044 350.682 287.327 346.432 287.661 342.099 C 287.994 337.766 288.327 333.516 288.661 329.349 C 288.994 325.182 289.294 321.399 289.561 317.999 C 286.094 318.532 282.961 319.066 280.161 319.599 C 277.361 320.132 274.961 320.616 272.961 321.049 C 270.961 321.482 269.394 321.849 268.26 322.149 C 267.127 322.449 266.561 322.599 266.561 322.599 C 266.494 322.666 266.361 322.699 266.161 322.699 C 265.294 322.699 264.76 322.299 264.561 321.499 C 264.227 320.432 264.594 319.766 265.661 319.499 C 265.727 319.499 266.344 319.332 267.51 318.999 C 268.677 318.666 270.311 318.282 272.411 317.849 C 274.511 317.416 277.044 316.916 280.011 316.349 C 282.977 315.782 286.261 315.232 289.861 314.699 C 290.061 312.232 290.227 310.149 290.361 308.449 C 290.494 306.749 290.627 305.532 290.761 304.799 C 290.761 304.332 290.927 303.949 291.261 303.649 C 291.594 303.349 291.994 303.232 292.461 303.299 C 292.927 303.366 293.311 303.566 293.611 303.899 C 293.911 304.232 294.027 304.632 293.961 305.099 C 293.827 306.566 293.694 308.049 293.561 309.549 C 293.427 311.049 293.294 312.599 293.161 314.199 C 296.427 313.732 299.877 313.332 303.511 312.999 C 307.144 312.666 310.927 312.432 314.861 312.299 Z M 301.361 343.799 C 301.094 343.799 300.694 343.732 300.161 343.599 C 299.227 343.399 298.511 343.049 298.011 342.549 C 297.511 342.049 297.194 341.532 297.061 340.999 C 296.794 340.332 296.694 339.599 296.761 338.799 C 296.827 337.999 296.977 337.199 297.211 336.399 C 297.444 335.599 297.761 334.816 298.161 334.049 C 298.561 333.282 298.927 332.599 299.261 331.999 C 299.327 331.866 299.394 331.716 299.461 331.549 C 299.527 331.382 299.594 331.232 299.661 331.099 C 300.194 330.032 300.894 329.232 301.761 328.699 C 302.627 328.166 303.527 327.966 304.461 328.099 C 305.927 328.299 306.961 329.232 307.561 330.899 C 307.694 331.432 307.811 331.982 307.911 332.549 C 308.011 333.116 308.027 333.699 307.961 334.299 C 308.561 334.032 309.211 333.766 309.911 333.499 C 310.611 333.232 311.361 332.899 312.161 332.499 C 312.561 332.232 312.977 332.182 313.411 332.349 C 313.844 332.516 314.161 332.799 314.361 333.199 C 314.561 333.599 314.594 334.016 314.461 334.449 C 314.327 334.882 314.061 335.199 313.661 335.399 C 312.461 335.932 311.344 336.416 310.311 336.849 C 309.277 337.282 308.294 337.632 307.361 337.899 C 306.961 339.499 306.261 340.832 305.261 341.899 C 304.127 343.166 302.827 343.799 301.361 343.799 Z M 300.361 337.299 C 300.227 337.832 300.111 338.316 300.011 338.749 C 299.911 339.182 299.927 339.566 300.061 339.899 C 300.127 339.966 300.211 340.049 300.311 340.149 C 300.411 340.249 300.627 340.332 300.961 340.399 C 301.161 340.532 301.427 340.566 301.761 340.499 C 302.094 340.432 302.461 340.166 302.861 339.699 C 302.994 339.499 303.144 339.299 303.311 339.099 C 303.477 338.899 303.627 338.666 303.761 338.399 C 302.427 338.399 301.294 338.032 300.361 337.299 Z M 302.261 333.399 C 302.127 334.132 302.194 334.566 302.461 334.699 C 302.727 335.032 303.461 335.166 304.661 335.099 C 304.727 334.499 304.744 333.932 304.711 333.399 C 304.677 332.866 304.594 332.399 304.461 331.999 C 304.327 331.666 304.161 331.432 303.961 331.299 C 303.827 331.299 303.661 331.399 303.461 331.599 C 303.327 331.732 303.227 331.866 303.161 331.999 C 303.027 332.199 302.877 332.416 302.711 332.649 C 302.544 332.882 302.394 333.132 302.261 333.399 Z M 307.961 403.999 L 307.661 403.999 L 307.561 403.999 C 305.894 403.866 304.494 403.549 303.361 403.049 C 302.227 402.549 301.277 401.949 300.511 401.249 C 299.744 400.549 299.177 399.782 298.811 398.949 C 298.444 398.116 298.161 397.299 297.961 396.499 C 297.427 394.032 297.611 391.166 298.511 387.899 C 299.411 384.632 300.661 381.299 302.261 377.899 C 303.861 374.499 305.661 371.182 307.661 367.949 C 309.661 364.716 311.461 361.899 313.061 359.499 C 314.794 356.966 316.577 354.499 318.411 352.099 C 320.244 349.699 322.061 347.432 323.861 345.299 C 323.861 342.166 323.827 339.266 323.761 336.599 C 323.694 333.932 323.594 331.632 323.461 329.699 C 323.394 329.832 323.327 329.966 323.261 330.099 C 323.194 330.232 323.127 330.366 323.061 330.499 C 322.194 332.032 321.411 333.249 320.711 334.149 C 320.011 335.049 319.377 335.749 318.811 336.249 C 318.244 336.749 317.761 337.099 317.361 337.299 C 316.961 337.499 316.594 337.632 316.261 337.699 C 315.127 337.832 314.227 337.499 313.561 336.699 C 313.227 336.366 312.911 335.766 312.611 334.899 C 312.311 334.032 312.494 332.932 313.161 331.599 C 313.561 330.799 314.111 329.999 314.811 329.199 C 315.511 328.399 316.311 327.666 317.211 326.999 C 318.111 326.332 319.027 325.766 319.961 325.299 C 320.894 324.832 321.794 324.499 322.661 324.299 C 322.794 324.099 322.877 323.932 322.911 323.799 C 322.944 323.666 322.994 323.532 323.061 323.399 L 323.261 322.999 C 323.594 322.199 324.194 321.899 325.061 322.099 C 325.927 322.232 326.361 322.732 326.361 323.599 C 326.361 323.599 326.394 324.049 326.461 324.949 C 326.527 325.849 326.594 327.099 326.661 328.699 C 326.727 330.299 326.811 332.182 326.911 334.349 C 327.011 336.516 327.061 338.899 327.061 341.499 C 329.194 339.099 331.177 337.066 333.011 335.399 C 334.844 333.732 336.327 332.566 337.461 331.899 C 337.861 331.699 338.277 331.666 338.711 331.799 C 339.144 331.932 339.461 332.199 339.661 332.599 C 339.927 332.999 339.994 333.416 339.861 333.849 C 339.727 334.282 339.461 334.599 339.061 334.799 C 337.927 335.399 336.311 336.732 334.211 338.799 C 332.111 340.866 329.761 343.432 327.161 346.499 C 327.161 348.032 327.144 349.566 327.111 351.099 C 327.077 352.632 327.027 354.199 326.961 355.799 C 326.161 378.866 322.627 393.666 316.361 400.199 C 313.961 402.732 311.161 403.999 307.961 403.999 Z M 307.761 400.699 C 310.094 400.766 312.194 399.832 314.061 397.899 C 316.861 394.966 319.077 389.949 320.711 382.849 C 322.344 375.749 323.327 366.699 323.661 355.699 C 323.727 354.766 323.761 353.882 323.761 353.049 C 323.761 352.216 323.794 351.366 323.861 350.499 C 322.527 352.166 321.177 353.916 319.811 355.749 C 318.444 357.582 317.094 359.466 315.761 361.399 C 310.427 369.199 306.494 376.082 303.961 382.049 C 301.427 388.016 300.494 392.632 301.161 395.899 C 301.227 396.366 301.377 396.866 301.611 397.399 C 301.844 397.932 302.211 398.416 302.711 398.849 C 303.211 399.282 303.861 399.682 304.661 400.049 C 305.461 400.416 306.494 400.632 307.761 400.699 Z M 320.261 328.899 C 319.327 329.432 318.477 330.066 317.711 330.799 C 316.944 331.532 316.394 332.266 316.061 332.999 C 315.861 333.399 315.761 333.699 315.761 333.899 C 315.761 334.099 315.794 334.266 315.861 334.399 C 316.127 334.266 316.594 333.849 317.261 333.149 C 317.927 332.449 318.927 331.032 320.261 328.899 Z M 343.761 351.499 C 343.361 351.499 343.061 351.432 342.861 351.299 C 340.861 350.032 339.394 347.899 338.461 344.899 C 337.527 341.899 337.327 338.599 337.861 334.999 C 338.394 331.466 339.577 328.499 341.411 326.099 C 343.244 323.699 345.561 322.132 348.361 321.399 C 350.627 320.799 352.261 321.099 353.261 322.299 C 354.394 323.566 354.361 325.699 353.161 328.699 C 352.561 330.099 351.727 331.616 350.661 333.249 C 349.594 334.882 348.394 336.466 347.061 337.999 C 346.261 338.932 345.344 339.866 344.311 340.799 C 343.277 341.732 342.261 342.432 341.261 342.899 C 341.594 344.232 342.044 345.382 342.611 346.349 C 343.177 347.316 343.827 348.032 344.561 348.499 C 344.961 348.766 345.211 349.116 345.311 349.549 C 345.411 349.982 345.361 350.399 345.161 350.799 C 344.894 351.266 344.427 351.499 343.761 351.499 Z M 350.761 324.399 L 350.461 324.399 C 350.327 324.399 350.161 324.399 349.961 324.399 C 349.761 324.399 349.494 324.466 349.161 324.599 C 347.027 325.132 345.261 326.366 343.861 328.299 C 342.461 330.232 341.527 332.632 341.061 335.499 C 340.861 336.966 340.794 338.266 340.861 339.399 C 341.194 339.199 341.594 338.882 342.061 338.449 C 342.527 338.016 343.061 337.499 343.661 336.899 C 344.661 335.766 345.627 334.566 346.561 333.299 C 347.494 332.032 348.327 330.766 349.061 329.499 C 349.994 327.899 350.544 326.699 350.711 325.899 C 350.877 325.099 350.894 324.599 350.761 324.399 Z M 382.861 312.299 C 383.861 312.299 384.427 312.832 384.561 313.899 C 384.561 314.366 384.411 314.766 384.111 315.099 C 383.811 315.432 383.427 315.599 382.961 315.599 C 378.961 315.732 375.111 315.966 371.411 316.299 C 367.711 316.632 364.194 317.032 360.861 317.499 C 360.527 321.832 360.177 326.299 359.811 330.899 C 359.444 335.499 359.111 339.966 358.811 344.299 C 358.511 348.632 358.244 352.782 358.011 356.749 C 357.777 360.716 357.577 364.266 357.411 367.399 C 357.244 370.532 357.161 373.132 357.161 375.199 C 357.161 377.266 357.227 378.632 357.361 379.299 C 357.494 379.766 357.427 380.182 357.161 380.549 C 356.894 380.916 356.527 381.166 356.061 381.299 L 355.761 381.299 C 354.894 381.299 354.361 380.866 354.161 379.999 C 353.961 379.199 353.877 377.582 353.911 375.149 C 353.944 372.716 354.044 369.766 354.211 366.299 C 354.377 362.832 354.577 359.016 354.811 354.849 C 355.044 350.682 355.327 346.432 355.661 342.099 C 355.994 337.766 356.327 333.516 356.661 329.349 C 356.994 325.182 357.294 321.399 357.561 317.999 C 354.094 318.532 350.961 319.066 348.161 319.599 C 345.361 320.132 342.961 320.616 340.961 321.049 C 338.961 321.482 337.394 321.849 336.261 322.149 C 335.127 322.449 334.561 322.599 334.561 322.599 C 334.494 322.666 334.361 322.699 334.161 322.699 C 333.294 322.699 332.761 322.299 332.561 321.499 C 332.227 320.432 332.594 319.766 333.661 319.499 C 333.727 319.499 334.344 319.332 335.511 318.999 C 336.677 318.666 338.311 318.282 340.411 317.849 C 342.511 317.416 345.044 316.916 348.011 316.349 C 350.977 315.782 354.261 315.232 357.861 314.699 C 358.061 312.232 358.227 310.149 358.361 308.449 C 358.494 306.749 358.627 305.532 358.761 304.799 C 358.761 304.332 358.927 303.949 359.261 303.649 C 359.594 303.349 359.994 303.232 360.461 303.299 C 360.927 303.366 361.311 303.566 361.611 303.899 C 361.911 304.232 362.027 304.632 361.961 305.099 C 361.827 306.566 361.694 308.049 361.561 309.549 C 361.427 311.049 361.294 312.599 361.161 314.199 C 364.427 313.732 367.877 313.332 371.511 312.999 C 375.144 312.666 378.927 312.432 382.861 312.299 Z M 364.761 352.399 L 364.461 352.399 C 363.661 352.266 363.144 351.816 362.911 351.049 C 362.677 350.282 362.527 349.666 362.461 349.199 C 362.461 348.999 362.444 348.649 362.411 348.149 C 362.377 347.649 362.427 346.849 362.561 345.749 C 362.694 344.649 362.894 343.149 363.161 341.249 C 363.427 339.349 363.827 336.866 364.361 333.799 C 364.894 330.732 365.611 326.966 366.511 322.499 C 367.411 318.032 368.527 312.732 369.861 306.599 C 370.861 302.066 371.827 297.666 372.761 293.399 C 373.694 289.132 374.544 285.349 375.311 282.049 C 376.077 278.749 376.694 276.099 377.161 274.099 C 377.627 272.099 377.861 271.066 377.861 270.999 C 377.994 270.532 378.244 270.182 378.611 269.949 C 378.977 269.716 379.394 269.666 379.861 269.799 C 380.327 269.932 380.677 270.182 380.911 270.549 C 381.144 270.916 381.194 271.299 381.061 271.699 C 380.394 274.566 379.594 278.032 378.661 282.099 C 377.727 286.166 376.744 290.516 375.711 295.149 C 374.677 299.782 373.644 304.549 372.611 309.449 C 371.577 314.349 370.611 319.032 369.711 323.499 C 368.811 327.966 368.027 332.066 367.361 335.799 C 366.694 339.532 366.227 342.566 365.961 344.899 C 366.561 343.366 367.211 341.799 367.911 340.199 C 368.611 338.599 369.377 337.182 370.211 335.949 C 371.044 334.716 371.944 333.732 372.911 332.999 C 373.877 332.266 374.961 331.999 376.161 332.199 C 377.227 332.399 378.077 332.766 378.711 333.299 C 379.344 333.832 379.844 334.449 380.211 335.149 C 380.577 335.849 380.827 336.599 380.961 337.399 C 381.094 338.199 381.227 338.932 381.361 339.599 C 381.494 340.266 381.611 340.932 381.711 341.599 C 381.811 342.266 381.994 342.699 382.261 342.899 C 382.594 343.099 383.027 343.132 383.561 342.999 C 384.761 342.866 386.127 342.266 387.661 341.199 C 389.194 340.132 390.694 338.899 392.161 337.499 C 393.627 336.099 394.994 334.699 396.261 333.299 C 397.527 331.899 398.494 330.766 399.161 329.899 C 399.494 329.566 399.877 329.349 400.311 329.249 C 400.744 329.149 401.127 329.266 401.461 329.599 C 401.794 329.932 401.994 330.316 402.061 330.749 C 402.127 331.182 402.027 331.566 401.761 331.899 C 401.694 331.966 401.094 332.666 399.961 333.999 C 398.827 335.332 397.427 336.866 395.761 338.599 C 393.427 340.932 391.277 342.732 389.311 343.999 C 387.344 345.266 385.594 346.032 384.061 346.299 C 382.527 346.499 381.294 346.232 380.361 345.499 C 379.494 344.832 378.944 344.016 378.711 343.049 C 378.477 342.082 378.294 341.066 378.161 339.999 C 377.961 338.466 377.711 337.349 377.411 336.649 C 377.111 335.949 376.527 335.532 375.661 335.399 C 374.861 335.266 373.827 336.266 372.561 338.399 C 371.827 339.532 371.161 340.832 370.561 342.299 C 369.961 343.766 369.394 345.132 368.861 346.399 C 368.527 347.132 368.244 347.799 368.011 348.399 C 367.777 348.999 367.527 349.566 367.261 350.099 C 367.061 350.499 366.777 350.982 366.411 351.549 C 366.044 352.116 365.494 352.399 364.761 352.399 Z M 406.861 351.499 C 406.461 351.499 406.161 351.432 405.961 351.299 C 403.961 350.032 402.494 347.899 401.561 344.899 C 400.627 341.899 400.427 338.599 400.961 334.999 C 401.494 331.466 402.677 328.499 404.511 326.099 C 406.344 323.699 408.661 322.132 411.461 321.399 C 413.727 320.799 415.361 321.099 416.361 322.299 C 417.494 323.566 417.461 325.699 416.261 328.699 C 415.661 330.099 414.827 331.616 413.761 333.249 C 412.694 334.882 411.494 336.466 410.161 337.999 C 409.361 338.932 408.444 339.866 407.411 340.799 C 406.377 341.732 405.361 342.432 404.361 342.899 C 404.694 344.232 405.144 345.382 405.711 346.349 C 406.277 347.316 406.927 348.032 407.661 348.499 C 408.061 348.766 408.311 349.116 408.411 349.549 C 408.511 349.982 408.461 350.399 408.261 350.799 C 407.994 351.266 407.527 351.499 406.861 351.499 Z M 413.861 324.399 L 413.561 324.399 C 413.427 324.399 413.261 324.399 413.061 324.399 C 412.861 324.399 412.594 324.466 412.261 324.599 C 410.127 325.132 408.361 326.366 406.961 328.299 C 405.561 330.232 404.627 332.632 404.161 335.499 C 403.961 336.966 403.894 338.266 403.961 339.399 C 404.294 339.199 404.694 338.882 405.161 338.449 C 405.627 338.016 406.161 337.499 406.761 336.899 C 407.761 335.766 408.727 334.566 409.661 333.299 C 410.594 332.032 411.427 330.766 412.161 329.499 C 413.094 327.899 413.644 326.699 413.811 325.899 C 413.977 325.099 413.994 324.599 413.861 324.399 Z M 422.261 349.599 L 421.761 349.599 C 421.227 349.599 420.827 349.399 420.561 348.999 C 420.361 348.732 420.227 348.466 420.161 348.199 C 420.094 347.932 420.094 347.332 420.161 346.399 L 420.161 346.099 C 420.094 345.232 420.027 344.132 419.961 342.799 C 419.894 341.466 419.811 340.049 419.711 338.549 C 419.611 337.049 419.511 335.532 419.411 333.999 C 419.311 332.466 419.227 331.066 419.161 329.799 C 419.094 329.332 419.211 328.932 419.511 328.599 C 419.811 328.266 420.194 328.099 420.661 328.099 C 421.127 328.032 421.527 328.149 421.861 328.449 C 422.194 328.749 422.361 329.132 422.361 329.599 C 422.427 330.532 422.527 331.966 422.661 333.899 C 422.727 333.766 422.794 333.649 422.861 333.549 C 422.927 333.449 422.994 333.332 423.061 333.199 C 424.194 331.132 425.461 329.866 426.861 329.399 C 428.261 328.932 429.527 328.766 430.661 328.899 C 431.727 329.032 432.194 329.632 432.061 330.699 C 431.927 331.766 431.327 332.232 430.261 332.099 C 428.927 332.032 427.861 332.399 427.061 333.199 C 426.327 333.932 425.727 334.849 425.261 335.949 C 424.794 337.049 424.427 338.232 424.161 339.499 C 423.894 340.766 423.711 341.999 423.611 343.199 C 423.511 344.399 423.427 345.399 423.361 346.199 C 423.427 346.732 423.461 347.149 423.461 347.449 C 423.461 347.749 423.461 347.966 423.461 348.099 C 423.394 348.566 423.244 348.899 423.011 349.099 C 422.777 349.299 422.527 349.466 422.261 349.599 Z" style="fill: rgb(255, 192, 203); white-space: pre;" transform="matrix(1, 0, 0, 1, 0, 0)"/>
  <ellipse transform="matrix(-0.9701570272445679, -0.2425370067358017, 0.24253398180007935, -0.970146119594574, 876.5538330078125, 552.394775390625)" cx="514.321" cy="186.071" rx="3.934" ry="3.934" style="fill: rgb(169, 169, 169);"/>
  <ellipse transform="matrix(-0.9701570272445679, -0.24254100024700165, 0.24253398180007935, -0.970142126083374, 887.0505981445312, 645.9078979492188)" cx="514.321" cy="186.071" rx="3.934" ry="3.934" style="fill: rgb(255, 192, 203);"/>
  <path d="M 137.906 320.582 C 138.556 321.232 139.726 321.352 140.496 321.352 C 143.556 321.352 143.816 319.662 148.366 311.602 C 148.826 310.832 149.666 309.662 149.666 308.812 C 149.666 307.442 147.066 307.512 147.006 307.512 C 144.336 307.512 142.516 311.542 140.896 313.812 C 139.586 315.632 137.836 317.712 137.446 319.732 C 137.446 320.052 137.646 320.382 137.906 320.582 Z" style="fill: rgb(255, 192, 203); white-space: pre;" transform="matrix(1, 0, 0, 1, 0, 0)"/>
</svg>