<?xml version="1.0" encoding="utf-8"?>
<svg viewBox="313.30999755859375 300 900 400" width="900" height="400" xmlns="http://www.w3.org/2000/svg">
  <g transform="matrix(3, 0, 0, 3, 108.3900146484375, -158.2445526123047)">
    <g>
      <g>
        <path d="M 186.156 221.879 L 207.585 243.308 L 221.87 229.022 L 229.014 236.164 L 214.728 250.45 L 229.014 264.735 L 221.87 271.877 L 207.585 257.593 L 207.585 257.593 L 200.441 250.45 L 200.443 250.45 L 171.87 221.879 L 221.87 171.88 L 229.014 179.022 L 186.156 221.879 Z M 257.585 236.164 L 236.156 257.591 L 229.014 250.45 L 243.299 236.164 L 221.87 214.737 L 207.453 229.152 L 200.311 222.01 L 214.728 207.593 L 214.727 207.593 L 236.156 186.164 L 243.299 193.307 L 264.727 214.737 L 271.87 221.879 L 264.727 229.022 L 264.727 229.022 L 257.585 236.164 Z M 250.441 229.022 L 257.585 221.879 L 236.156 200.451 L 229.014 207.593 L 250.441 229.022 Z" id="" style="fill: rgb(197, 227, 237);"/>
      </g>
    </g>
  </g>
  <g id="svg-1" transform="matrix(0.45713600516319275, 0, 0, 0.45713600516319275, 534.947998046875, 278.8229675292969)">
    <g id="svg-1">
      <g id="svg-1">
        <path d="M265.62 500L406.25 640.63L500 546.88L546.88 593.75L453.13 687.5L546.88 781.25L500 828.12L406.25 734.38L406.25 734.38L359.37 687.5L359.38 687.5L171.87 500L500 171.88L546.88 218.75L265.62 500ZM734.38 593.75L593.75 734.37L546.88 687.5L640.63 593.75L500 453.13L405.39 547.73L358.52 500.86L453.13 406.25L453.12 406.25L593.75 265.62L640.63 312.5L781.25 453.13L828.13 500L781.25 546.88L781.25 546.88L734.38 593.75ZM687.5 546.88L734.38 500L593.75 359.38L546.88 406.25L687.5 546.88Z" id="svg-1" transform="matrix(1, 0, 0, 1, 0, 0)" style="fill: rgb(222, 239, 245);"/>
      </g>
    </g>
  </g>
  <g id="g-1" transform="matrix(0.45713600516319275, 0, 0, 0.45713600516319275, 525.4320068359375, 278.8229675292969)">
    <g id="g-1">
      <g id="g-1">
        <path d="M265.62 500L406.25 640.63L500 546.88L546.88 593.75L453.13 687.5L546.88 781.25L500 828.12L406.25 734.38L406.25 734.38L359.37 687.5L359.38 687.5L171.87 500L500 171.88L546.88 218.75L265.62 500ZM734.38 593.75L593.75 734.37L546.88 687.5L640.63 593.75L500 453.13L405.39 547.73L358.52 500.86L453.13 406.25L453.12 406.25L593.75 265.62L640.63 312.5L781.25 453.13L828.13 500L781.25 546.88L781.25 546.88L734.38 593.75ZM687.5 546.88L734.38 500L593.75 359.38L546.88 406.25L687.5 546.88Z" id="g-1" transform="matrix(1, 0, 0, 1, 0, 0)" style="fill: rgb(246, 251, 252);"/>
      </g>
    </g>
  </g>
  <path d="M 400.271 573.776 L 399.761 573.776 C 398.414 573.776 397.361 573.313 396.601 572.386 C 395.848 571.459 395.471 570.323 395.471 568.976 L 405.581 432.156 C 405.581 430.809 406.044 429.713 406.971 428.866 C 407.898 428.026 409.038 427.689 410.391 427.856 C 411.738 428.023 412.831 428.529 413.671 429.376 C 414.518 430.216 414.858 431.313 414.691 432.666 L 404.821 569.476 C 404.488 572.344 402.971 573.776 400.271 573.776 Z M 400.271 430.896 C 398.078 430.896 396.561 429.799 395.721 427.606 C 395.381 426.426 395.464 425.246 395.971 424.066 C 396.478 422.886 397.404 422.126 398.751 421.786 C 398.751 421.786 399.511 421.533 401.031 421.026 C 402.551 420.519 404.574 419.889 407.101 419.136 C 409.628 418.376 412.534 417.533 415.821 416.606 C 419.114 415.679 422.531 414.709 426.071 413.696 C 432.811 412.009 438.414 410.703 442.881 409.776 C 447.354 408.849 451.024 408.176 453.891 407.756 C 456.751 407.329 458.941 407.203 460.461 407.376 C 461.981 407.543 463.161 407.709 464.001 407.876 C 465.348 408.216 466.361 408.889 467.041 409.896 C 467.714 410.909 467.881 412.093 467.541 413.446 C 467.208 414.793 466.491 415.759 465.391 416.346 C 464.298 416.939 463.161 417.066 461.981 416.726 C 461.641 416.726 460.881 416.686 459.701 416.606 C 458.521 416.519 456.708 416.686 454.261 417.106 C 451.821 417.526 448.534 418.159 444.401 419.006 C 440.274 419.846 435.008 421.109 428.601 422.796 C 425.054 423.643 421.681 424.529 418.481 425.456 C 415.274 426.383 412.408 427.226 409.881 427.986 C 407.354 428.746 405.331 429.376 403.811 429.876 C 402.291 430.383 401.531 430.636 401.531 430.636 C 401.198 430.809 400.778 430.896 400.271 430.896 Z M 392.681 470.086 L 392.181 470.086 C 389.481 470.086 387.964 468.656 387.631 465.796 C 387.291 464.443 387.541 463.303 388.381 462.376 C 389.228 461.449 390.324 460.903 391.671 460.736 L 437.701 455.926 C 439.048 455.593 440.184 455.846 441.111 456.686 C 442.038 457.533 442.588 458.629 442.761 459.976 C 442.928 461.323 442.631 462.459 441.871 463.386 C 441.111 464.313 440.058 464.863 438.711 465.036 L 392.681 470.086 Z M 453.367 535.336 L 452.107 535.336 C 450.754 535.336 449.741 534.833 449.067 533.826 C 448.561 533.146 448.224 532.469 448.057 531.797 C 447.891 531.123 447.891 529.606 448.057 527.246 L 448.057 526.486 C 447.891 524.293 447.721 521.513 447.547 518.146 C 447.381 514.773 447.171 511.189 446.917 507.396 C 446.664 503.603 446.411 499.766 446.157 495.886 C 445.904 492.006 445.694 488.466 445.527 485.266 C 445.361 484.086 445.657 483.073 446.417 482.226 C 447.171 481.386 448.141 480.966 449.327 480.966 C 450.507 480.799 451.517 481.093 452.357 481.846 C 453.197 482.606 453.617 483.576 453.617 484.756 C 453.791 487.116 454.044 490.743 454.377 495.636 C 454.551 495.296 454.721 494.999 454.887 494.746 C 455.054 494.493 455.221 494.199 455.387 493.866 C 458.254 488.639 461.457 485.436 464.997 484.256 C 468.544 483.076 471.751 482.653 474.617 482.986 C 477.311 483.326 478.491 484.843 478.157 487.536 C 477.817 490.236 476.297 491.419 473.597 491.086 C 470.231 490.913 467.534 491.839 465.507 493.866 C 463.654 495.719 462.137 498.036 460.957 500.816 C 459.777 503.603 458.851 506.596 458.177 509.796 C 457.504 513.003 457.041 516.123 456.787 519.156 C 456.534 522.189 456.321 524.716 456.147 526.736 C 456.321 528.089 456.407 529.146 456.407 529.906 C 456.407 530.659 456.407 531.206 456.407 531.547 C 456.234 532.726 455.854 533.569 455.267 534.076 C 454.674 534.583 454.041 535.003 453.367 535.336 Z M 496.859 540.146 C 495.846 540.146 495.086 539.976 494.579 539.636 C 489.519 536.436 485.809 531.043 483.449 523.456 C 481.089 515.87 480.586 507.523 481.939 498.416 C 483.286 489.483 486.276 481.979 490.909 475.906 C 495.549 469.839 501.409 465.879 508.489 464.026 C 514.222 462.506 518.352 463.263 520.879 466.296 C 523.746 469.503 523.662 474.899 520.629 482.486 C 519.109 486.026 517.002 489.859 514.309 493.986 C 511.609 498.119 508.572 502.126 505.199 506.006 C 503.179 508.366 500.862 510.726 498.249 513.086 C 495.636 515.446 493.062 517.216 490.529 518.396 C 491.376 521.769 492.516 524.676 493.949 527.116 C 495.382 529.563 497.026 531.376 498.879 532.556 C 499.892 533.229 500.526 534.116 500.779 535.216 C 501.032 536.309 500.906 537.363 500.399 538.376 C 499.726 539.556 498.546 540.146 496.859 540.146 Z M 514.559 471.606 L 513.799 471.606 C 513.466 471.606 513.046 471.606 512.539 471.606 C 512.032 471.606 511.356 471.776 510.509 472.116 C 505.116 473.463 500.649 476.583 497.109 481.476 C 493.569 486.363 491.209 492.429 490.029 499.676 C 489.522 503.389 489.352 506.679 489.519 509.546 C 490.366 509.039 491.379 508.236 492.559 507.136 C 493.739 506.043 495.086 504.736 496.599 503.216 C 499.132 500.356 501.579 497.323 503.939 494.116 C 506.299 490.916 508.406 487.713 510.259 484.506 C 512.619 480.459 514.009 477.426 514.429 475.406 C 514.856 473.379 514.899 472.113 514.559 471.606 Z M 569.927 635.736 L 569.677 635.736 C 567.317 635.736 565.971 634.389 565.637 631.696 C 564.284 591.903 564.197 557.256 565.378 527.756 C 566.558 498.249 568.327 473.549 570.687 453.656 C 569.847 456.016 569.091 458.289 568.417 460.476 C 567.744 462.669 566.984 464.863 566.137 467.056 C 562.091 478.349 558.467 487.453 555.267 494.366 C 552.061 501.279 549.194 506.676 546.667 510.556 C 544.134 514.436 541.901 517.094 539.967 518.526 C 538.027 519.953 536.297 520.919 534.777 521.426 C 531.577 522.439 528.627 521.766 525.927 519.406 C 524.074 517.719 522.724 515.653 521.877 513.206 C 521.037 510.766 520.661 508.196 520.748 505.496 C 520.827 502.796 521.331 500.183 522.257 497.656 C 523.184 495.129 524.407 492.939 525.927 491.086 C 528.961 487.373 532.837 485.349 537.558 485.016 C 541.271 484.843 545.064 485.853 548.938 488.046 C 550.291 484.846 551.724 481.306 553.237 477.426 C 554.757 473.546 556.444 469.163 558.297 464.276 C 560.491 458.543 562.597 452.599 564.618 446.446 C 566.644 440.293 568.584 434.223 570.437 428.236 C 572.291 422.249 574.061 416.433 575.748 410.786 C 577.434 405.139 578.951 399.956 580.297 395.236 C 580.977 392.536 581.567 390.133 582.067 388.026 C 582.574 385.919 583.081 383.939 583.587 382.086 C 584.434 379.219 585.151 376.899 585.737 375.126 C 586.331 373.359 586.794 371.886 587.128 370.706 C 587.974 368.679 588.607 367.246 589.027 366.406 C 589.447 365.559 590.081 364.969 590.927 364.636 C 592.441 363.956 593.957 364.206 595.477 365.386 C 596.491 366.399 596.911 367.496 596.737 368.676 C 596.571 369.856 596.317 370.869 595.977 371.716 C 595.471 372.896 594.797 375.046 593.957 378.166 C 593.118 381.279 592.021 384.946 590.667 389.166 C 590.334 390.513 589.954 391.859 589.527 393.206 C 589.107 394.559 588.731 395.909 588.397 397.256 C 586.037 407.036 583.761 419.259 581.567 433.926 C 580.221 443.366 578.914 454.493 577.647 467.306 C 576.381 480.119 575.327 494.703 574.487 511.056 C 573.641 527.417 573.134 545.626 572.967 565.686 C 572.801 585.753 573.137 607.673 573.977 631.446 C 573.977 632.626 573.597 633.636 572.837 634.476 C 572.084 635.316 571.114 635.736 569.927 635.736 Z M 538.577 493.356 C 535.877 493.356 533.767 494.369 532.248 496.396 C 531.241 497.576 530.484 498.966 529.977 500.566 C 529.471 502.166 529.174 503.766 529.087 505.366 C 529.007 506.973 529.177 508.493 529.597 509.926 C 530.017 511.359 530.647 512.413 531.487 513.086 C 531.827 513.419 532.167 513.586 532.507 513.586 C 532.841 513.419 533.387 513.083 534.147 512.576 C 534.907 512.069 535.794 511.186 536.808 509.926 C 537.814 508.659 539.034 506.889 540.467 504.616 C 541.901 502.336 543.544 499.256 545.397 495.376 C 543.211 494.029 540.938 493.356 538.577 493.356 Z M 600.019 540.146 C 599.006 540.146 598.246 539.976 597.739 539.636 C 592.679 536.436 588.969 531.043 586.609 523.456 C 584.249 515.87 583.746 507.523 585.099 498.416 C 586.446 489.483 589.436 481.979 594.069 475.906 C 598.709 469.839 604.569 465.879 611.649 464.026 C 617.382 462.506 621.512 463.263 624.039 466.296 C 626.906 469.503 626.822 474.899 623.789 482.486 C 622.269 486.026 620.162 489.859 617.469 493.986 C 614.769 498.119 611.732 502.126 608.359 506.006 C 606.339 508.366 604.022 510.726 601.409 513.086 C 598.796 515.446 596.222 517.216 593.689 518.396 C 594.536 521.769 595.676 524.676 597.109 527.116 C 598.542 529.563 600.186 531.376 602.039 532.556 C 603.052 533.229 603.686 534.116 603.939 535.216 C 604.192 536.309 604.066 537.363 603.559 538.376 C 602.886 539.556 601.706 540.146 600.019 540.146 Z M 617.719 471.606 L 616.959 471.606 C 616.626 471.606 616.206 471.606 615.699 471.606 C 615.192 471.606 614.516 471.776 613.669 472.116 C 608.276 473.463 603.809 476.583 600.269 481.476 C 596.729 486.363 594.369 492.429 593.189 499.676 C 592.682 503.389 592.512 506.679 592.679 509.546 C 593.526 509.039 594.539 508.236 595.719 507.136 C 596.899 506.043 598.246 504.736 599.759 503.216 C 602.292 500.356 604.739 497.323 607.099 494.116 C 609.459 490.916 611.566 487.713 613.419 484.506 C 615.779 480.459 617.169 477.426 617.589 475.406 C 618.016 473.379 618.059 472.113 617.719 471.606 Z M 636.167 535.336 L 634.907 535.336 C 633.554 535.336 632.541 534.833 631.867 533.826 C 631.361 533.146 631.024 532.469 630.857 531.797 C 630.691 531.123 630.691 529.606 630.857 527.246 L 630.857 526.486 C 630.691 524.293 630.521 521.513 630.347 518.146 C 630.181 514.773 629.971 511.189 629.717 507.396 C 629.464 503.603 629.211 499.766 628.957 495.886 C 628.704 492.006 628.494 488.466 628.327 485.266 C 628.161 484.086 628.457 483.073 629.217 482.226 C 629.971 481.386 630.941 480.966 632.127 480.966 C 633.307 480.799 634.317 481.093 635.157 481.846 C 635.997 482.606 636.417 483.576 636.417 484.756 C 636.591 487.116 636.844 490.743 637.177 495.636 C 637.351 495.296 637.521 494.999 637.687 494.746 C 637.854 494.493 638.021 494.199 638.187 493.866 C 641.054 488.639 644.257 485.436 647.797 484.256 C 651.344 483.076 654.551 482.653 657.417 482.986 C 660.111 483.326 661.291 484.843 660.957 487.536 C 660.617 490.236 659.097 491.419 656.397 491.086 C 653.031 490.913 650.334 491.839 648.307 493.866 C 646.454 495.719 644.937 498.036 643.757 500.816 C 642.577 503.603 641.651 506.596 640.977 509.796 C 640.304 513.003 639.841 516.123 639.587 519.156 C 639.334 522.189 639.121 524.716 638.947 526.736 C 639.121 528.089 639.207 529.146 639.207 529.906 C 639.207 530.659 639.207 531.206 639.207 531.547 C 639.034 532.726 638.654 533.569 638.067 534.076 C 637.474 534.583 636.841 535.003 636.167 535.336 Z M 664.229 541.667 C 662.543 541.667 661.279 540.736 660.439 538.876 C 660.099 538.203 659.803 537.276 659.549 536.096 C 659.296 534.917 659.169 533.229 659.169 531.036 C 659.169 528.849 659.379 526.153 659.799 522.946 C 660.226 519.746 660.859 515.699 661.699 510.806 C 662.546 505.746 663.433 501.279 664.359 497.406 C 665.286 493.526 665.833 491.503 665.999 491.336 C 666.339 490.156 666.973 489.269 667.899 488.676 C 668.826 488.089 669.879 487.963 671.059 488.296 C 672.073 488.636 672.873 489.269 673.459 490.196 C 674.053 491.123 674.179 492.176 673.839 493.356 C 673.499 495.209 673.079 497.149 672.579 499.176 C 672.239 501.029 671.773 503.093 671.179 505.366 C 670.593 507.646 670.129 509.966 669.789 512.326 C 668.949 516.706 668.359 520.373 668.019 523.326 C 667.686 526.279 667.519 528.639 667.519 530.406 C 667.519 532.179 667.603 533.486 667.769 534.326 C 667.936 535.173 668.019 535.679 668.019 535.846 C 669.199 538.547 668.443 540.316 665.749 541.156 C 665.076 541.496 664.569 541.667 664.229 541.667 Z M 669.789 481.976 C 668.609 481.976 667.643 481.556 666.889 480.716 C 666.129 479.869 665.749 478.856 665.749 477.676 C 665.749 476.663 666.129 475.779 666.889 475.026 C 667.643 474.266 668.526 473.803 669.539 473.636 C 669.539 473.463 669.583 473.336 669.669 473.256 C 669.749 473.169 669.789 472.956 669.789 472.616 C 670.129 471.436 670.763 470.509 671.689 469.836 C 672.616 469.163 673.669 468.996 674.849 469.336 C 676.029 469.669 676.916 470.299 677.509 471.226 C 678.096 472.153 678.223 473.206 677.889 474.386 C 677.043 477.759 675.736 479.869 673.969 480.716 C 672.196 481.556 670.803 481.976 669.789 481.976 Z M 690.012 517.386 C 687.485 517.386 685.295 516.459 683.442 514.606 C 683.442 514.433 683.355 514.346 683.182 514.346 C 680.315 510.806 679.305 506.846 680.152 502.466 C 680.658 499.426 681.922 496.599 683.942 493.986 C 685.968 491.373 688.118 489.056 690.392 487.036 C 692.672 485.009 694.778 483.406 696.712 482.226 C 698.652 481.046 699.875 480.289 700.382 479.956 C 701.395 479.449 702.448 479.323 703.542 479.576 C 704.642 479.829 705.442 480.463 705.942 481.476 C 706.622 482.483 706.792 483.536 706.452 484.636 C 706.112 485.729 705.438 486.529 704.432 487.036 C 703.418 487.709 702.068 488.636 700.382 489.816 C 698.695 490.996 697.008 492.346 695.322 493.866 C 693.635 495.379 692.118 497.023 690.772 498.796 C 689.425 500.563 688.582 502.289 688.242 503.976 C 688.075 505.663 688.498 507.349 689.512 509.036 C 689.678 509.036 690.015 509.036 690.522 509.036 C 691.028 509.036 691.872 508.783 693.052 508.276 C 694.232 507.769 695.705 506.926 697.472 505.746 C 699.245 504.566 701.478 502.796 704.172 500.436 C 705.858 499.089 707.462 497.656 708.982 496.136 C 710.502 494.623 711.852 493.276 713.032 492.096 C 714.378 490.743 715.558 489.476 716.572 488.296 C 717.412 487.456 718.378 486.993 719.472 486.906 C 720.572 486.826 721.542 487.206 722.382 488.046 C 723.228 488.893 723.692 489.863 723.772 490.956 C 723.858 492.049 723.482 493.019 722.642 493.866 C 722.642 494.033 721.545 495.253 719.352 497.526 C 717.158 499.806 714.462 502.379 711.262 505.246 C 702.155 513.339 695.072 517.386 690.012 517.386 Z M 714.281 628.156 L 714.031 628.156 C 712.851 627.983 711.881 627.519 711.121 626.766 C 710.361 626.006 710.064 625.036 710.231 623.856 C 712.424 583.389 715.124 547.983 718.331 517.636 C 721.531 487.289 724.564 461.999 727.431 441.766 C 730.298 421.533 732.741 406.316 734.761 396.116 C 736.788 385.916 737.801 380.733 737.801 380.566 C 738.134 379.553 738.768 378.709 739.701 378.036 C 740.628 377.363 741.594 377.193 742.601 377.526 C 743.781 377.866 744.711 378.499 745.391 379.426 C 746.064 380.353 746.231 381.406 745.891 382.586 C 745.891 382.753 744.881 387.896 742.861 398.016 C 740.834 408.129 738.388 423.219 735.521 443.286 C 732.654 463.346 729.621 488.426 726.421 518.526 C 723.214 548.62 720.518 583.813 718.331 624.106 C 718.331 626.806 716.981 628.156 714.281 628.156 Z M 764.861 525.226 L 764.611 525.226 C 760.391 525.226 756.808 523.793 753.861 520.926 C 750.908 518.059 747.998 514.769 745.131 511.056 C 744.291 510.216 743.534 509.289 742.861 508.276 C 742.188 507.269 741.428 506.343 740.581 505.496 C 738.894 503.303 736.954 501.786 734.761 500.946 C 733.754 501.786 732.744 502.629 731.731 503.476 C 730.718 504.316 729.791 505.073 728.951 505.746 C 725.238 508.106 722.371 509.203 720.351 509.036 C 717.651 508.703 716.048 507.269 715.541 504.736 C 715.208 503.049 715.588 501.449 716.681 499.936 C 717.781 498.416 719.088 497.066 720.601 495.886 C 720.601 495.213 720.684 494.623 720.851 494.116 C 721.024 493.949 721.741 492.306 723.001 489.186 C 724.268 486.066 725.998 482.566 728.191 478.686 C 732.404 471.099 735.861 466.169 738.561 463.896 C 741.254 461.616 743.444 460.309 745.131 459.976 C 747.998 459.469 750.528 460.143 752.721 461.996 C 754.068 463.349 755.081 465.163 755.761 467.436 C 756.434 469.709 755.841 472.869 753.981 476.916 C 752.468 480.289 750.448 483.579 747.921 486.786 C 745.388 489.986 743.024 492.683 740.831 494.876 C 743.024 496.223 745.048 497.993 746.901 500.186 C 747.748 501.026 748.551 501.953 749.311 502.966 C 750.064 503.979 750.864 504.993 751.711 506.006 C 754.071 508.873 756.261 511.443 758.281 513.716 C 760.308 515.99 762.418 517.043 764.611 516.876 C 769.838 516.876 777.591 509.543 787.871 494.876 C 788.544 494.029 789.431 493.483 790.531 493.236 C 791.624 492.983 792.594 493.193 793.441 493.866 C 794.448 494.539 795.078 495.466 795.331 496.646 C 795.584 497.826 795.374 498.836 794.701 499.676 C 788.634 508.443 783.241 514.849 778.521 518.896 C 773.794 522.943 769.241 525.053 764.861 525.226 Z M 747.411 468.316 L 747.161 468.066 C 746.314 468.233 745.384 468.823 744.371 469.836 C 743.531 470.683 742.394 471.989 740.961 473.756 C 739.528 475.529 737.884 478.103 736.031 481.476 C 733.838 485.516 732.068 489.056 730.721 492.096 L 731.981 492.096 C 732.488 491.756 732.951 491.333 733.371 490.826 C 733.798 490.319 734.261 489.816 734.761 489.316 C 738.134 485.769 740.961 482.396 743.241 479.196 C 745.514 475.989 746.904 473.293 747.411 471.106 C 747.578 470.599 747.704 470.093 747.791 469.586 C 747.878 469.079 747.751 468.656 747.411 468.316 Z M 884.204 583.386 L 883.444 583.386 C 882.097 583.219 881.044 582.629 880.284 581.616 C 879.524 580.609 879.231 579.429 879.404 578.076 C 879.404 578.076 879.657 576.179 880.164 572.386 C 880.664 568.594 881.254 563.62 881.934 557.466 C 882.607 551.313 883.281 544.273 883.954 536.346 C 884.628 528.426 885.217 520.25 885.724 511.816 C 886.737 496.643 887.157 484.253 886.984 474.646 C 886.818 465.033 886.441 457.403 885.854 451.756 C 885.261 446.109 884.501 442.063 883.574 439.616 C 882.648 437.169 881.847 435.526 881.174 434.686 C 880.834 434.346 880.581 434.176 880.414 434.176 C 880.248 434.176 879.531 434.556 878.264 435.316 C 876.998 436.076 875.354 438.436 873.334 442.396 C 871.308 446.363 868.948 452.559 866.254 460.986 C 863.554 469.419 860.688 481.389 857.654 496.896 C 856.134 504.989 854.741 513 853.474 520.926 C 852.214 528.846 851.161 535.883 850.314 542.036 C 849.474 548.196 848.844 553.214 848.424 557.086 C 847.998 560.966 847.784 562.99 847.784 563.156 C 847.618 564.509 847.027 565.563 846.014 566.316 C 845.008 567.076 843.828 567.373 842.474 567.206 C 841.128 567.039 840.074 566.49 839.314 565.556 C 838.554 564.629 838.261 563.493 838.434 562.146 C 838.434 562.146 838.644 560.206 839.064 556.326 C 839.484 552.453 840.157 547.353 841.084 541.026 C 842.011 534.706 843.107 527.543 844.374 519.536 C 845.641 511.523 847.031 503.386 848.544 495.126 C 852.424 475.573 856.388 460.146 860.434 448.846 C 866.334 432.833 872.994 424.826 880.414 424.826 C 881.427 424.826 882.651 425.076 884.084 425.576 C 885.511 426.083 886.901 427.096 888.254 428.616 C 892.467 433.676 895.081 444.886 896.094 462.246 C 896.427 468.826 896.511 476.289 896.344 484.636 C 896.177 492.983 895.758 502.213 895.084 512.326 C 894.578 520.926 893.944 529.229 893.184 537.236 C 892.424 545.243 891.708 552.366 891.034 558.606 C 890.361 564.846 889.814 569.863 889.394 573.656 C 888.967 577.449 888.754 579.346 888.754 579.346 C 888.421 582.039 886.904 583.386 884.204 583.386 Z M 837.674 484.506 L 836.914 484.506 C 834.214 484.506 832.698 483.243 832.364 480.716 C 832.024 479.363 832.234 478.183 832.994 477.176 C 833.754 476.163 834.808 475.573 836.154 475.406 L 901.404 465.286 C 902.751 465.119 903.931 465.413 904.944 466.166 C 905.958 466.926 906.547 467.983 906.714 469.336 C 907.054 470.683 906.844 471.819 906.084 472.746 C 905.324 473.673 904.271 474.306 902.924 474.646 L 837.674 484.506 Z M 918.334 517.386 C 915.807 517.386 913.617 516.459 911.764 514.606 C 911.764 514.433 911.677 514.346 911.504 514.346 C 908.637 510.806 907.627 506.846 908.474 502.466 C 908.981 499.426 910.244 496.599 912.264 493.986 C 914.291 491.373 916.441 489.056 918.714 487.036 C 920.994 485.009 923.101 483.406 925.034 482.226 C 926.974 481.046 928.197 480.289 928.704 479.956 C 929.717 479.449 930.771 479.323 931.864 479.576 C 932.964 479.829 933.764 480.463 934.264 481.476 C 934.944 482.483 935.114 483.536 934.774 484.636 C 934.434 485.729 933.761 486.529 932.754 487.036 C 931.741 487.709 930.391 488.636 928.704 489.816 C 927.017 490.996 925.331 492.346 923.644 493.866 C 921.957 495.379 920.441 497.023 919.094 498.796 C 917.747 500.563 916.904 502.289 916.564 503.976 C 916.397 505.663 916.821 507.349 917.834 509.036 C 918.001 509.036 918.337 509.036 918.844 509.036 C 919.351 509.036 920.194 508.783 921.374 508.276 C 922.554 507.769 924.027 506.926 925.794 505.746 C 927.567 504.566 929.801 502.796 932.494 500.436 C 934.181 499.089 935.784 497.656 937.304 496.136 C 938.824 494.623 940.174 493.276 941.354 492.096 C 942.701 490.743 943.881 489.476 944.894 488.296 C 945.734 487.456 946.701 486.993 947.794 486.906 C 948.894 486.826 949.864 487.206 950.704 488.046 C 951.551 488.893 952.014 489.863 952.094 490.956 C 952.181 492.049 951.804 493.019 950.964 493.866 C 950.964 494.033 949.867 495.253 947.674 497.526 C 945.481 499.806 942.784 502.379 939.584 505.246 C 930.477 513.339 923.394 517.386 918.334 517.386 Z M 959.043 520.667 C 958.37 520.667 957.356 520.5 956.003 520.167 C 953.643 519.659 951.833 518.773 950.573 517.506 C 949.306 516.246 948.503 514.939 948.163 513.586 C 947.49 511.899 947.236 510.046 947.403 508.026 C 947.576 506.006 947.956 503.983 948.543 501.956 C 949.136 499.936 949.94 497.956 950.953 496.016 C 951.96 494.076 952.886 492.346 953.733 490.826 C 953.9 490.493 954.066 490.113 954.233 489.686 C 954.406 489.266 954.576 488.889 954.743 488.556 C 956.09 485.856 957.86 483.833 960.053 482.486 C 962.246 481.133 964.523 480.626 966.883 480.966 C 970.59 481.473 973.203 483.833 974.723 488.046 C 975.056 489.393 975.35 490.783 975.603 492.216 C 975.856 493.649 975.9 495.126 975.733 496.646 C 977.253 495.973 978.896 495.299 980.663 494.626 C 982.436 493.946 984.333 493.103 986.353 492.096 C 987.366 491.423 988.42 491.296 989.513 491.716 C 990.613 492.136 991.413 492.853 991.913 493.866 C 992.42 494.873 992.506 495.926 992.173 497.026 C 991.833 498.119 991.156 498.919 990.143 499.426 C 987.11 500.773 984.286 501.996 981.673 503.096 C 979.06 504.189 976.573 505.073 974.213 505.746 C 973.2 509.793 971.43 513.167 968.903 515.866 C 966.036 519.066 962.75 520.667 959.043 520.667 Z M 956.513 504.236 C 956.173 505.583 955.876 506.803 955.623 507.896 C 955.37 508.996 955.413 509.966 955.753 510.806 C 955.92 510.973 956.13 511.183 956.383 511.436 C 956.636 511.689 957.186 511.903 958.033 512.076 C 958.54 512.409 959.213 512.493 960.053 512.326 C 960.893 512.159 961.82 511.486 962.833 510.306 C 963.173 509.799 963.553 509.293 963.973 508.786 C 964.393 508.279 964.773 507.689 965.113 507.016 C 961.74 507.016 958.873 506.089 956.513 504.236 Z M 961.313 494.366 C 960.98 496.226 961.15 497.323 961.823 497.656 C 962.496 498.503 964.35 498.839 967.383 498.666 C 967.556 497.153 967.6 495.719 967.513 494.366 C 967.426 493.019 967.217 491.839 966.883 490.826 C 966.543 489.986 966.12 489.396 965.613 489.056 C 965.28 489.056 964.86 489.309 964.353 489.816 C 964.013 490.156 963.76 490.493 963.593 490.826 C 963.253 491.333 962.873 491.883 962.453 492.476 C 962.033 493.063 961.653 493.693 961.313 494.366 Z M 996.204 535.336 L 994.944 535.336 C 993.591 535.336 992.578 534.833 991.904 533.826 C 991.398 533.146 991.061 532.469 990.894 531.797 C 990.728 531.123 990.728 529.606 990.894 527.246 L 990.894 526.486 C 990.728 524.293 990.558 521.513 990.384 518.146 C 990.218 514.773 990.008 511.189 989.754 507.396 C 989.501 503.603 989.248 499.766 988.994 495.886 C 988.741 492.006 988.531 488.466 988.364 485.266 C 988.198 484.086 988.494 483.073 989.254 482.226 C 990.008 481.386 990.978 480.966 992.164 480.966 C 993.344 480.799 994.354 481.093 995.194 481.846 C 996.034 482.606 996.454 483.576 996.454 484.756 C 996.628 487.116 996.881 490.743 997.214 495.636 C 997.388 495.296 997.558 494.999 997.724 494.746 C 997.891 494.493 998.058 494.199 998.224 493.866 C 1001.091 488.639 1004.294 485.436 1007.834 484.256 C 1011.381 483.076 1014.588 482.653 1017.454 482.986 C 1020.148 483.326 1021.328 484.843 1020.994 487.536 C 1020.654 490.236 1019.134 491.419 1016.434 491.086 C 1013.068 490.913 1010.371 491.839 1008.344 493.866 C 1006.491 495.719 1004.974 498.036 1003.794 500.816 C 1002.614 503.603 1001.688 506.596 1001.014 509.796 C 1000.341 513.003 999.878 516.123 999.624 519.156 C 999.371 522.189 999.158 524.716 998.984 526.736 C 999.158 528.089 999.244 529.146 999.244 529.906 C 999.244 530.659 999.244 531.206 999.244 531.547 C 999.071 532.726 998.691 533.569 998.104 534.076 C 997.511 534.583 996.878 535.003 996.204 535.336 Z M 1070.036 635.736 L 1069.786 635.736 C 1067.426 635.736 1066.079 634.389 1065.746 631.696 C 1064.393 591.903 1064.306 557.256 1065.486 527.756 C 1066.666 498.249 1068.436 473.549 1070.796 453.656 C 1069.956 456.016 1069.199 458.289 1068.526 460.476 C 1067.853 462.669 1067.093 464.863 1066.246 467.056 C 1062.199 478.349 1058.576 487.453 1055.376 494.366 C 1052.169 501.279 1049.303 506.676 1046.776 510.556 C 1044.243 514.436 1042.009 517.094 1040.076 518.526 C 1038.136 519.953 1036.406 520.919 1034.886 521.426 C 1031.686 522.439 1028.736 521.766 1026.036 519.406 C 1024.183 517.719 1022.833 515.653 1021.986 513.206 C 1021.146 510.766 1020.769 508.196 1020.856 505.496 C 1020.936 502.796 1021.439 500.183 1022.366 497.656 C 1023.293 495.129 1024.516 492.939 1026.036 491.086 C 1029.069 487.373 1032.946 485.349 1037.666 485.016 C 1041.379 484.843 1045.173 485.853 1049.046 488.046 C 1050.399 484.846 1051.833 481.306 1053.346 477.426 C 1054.866 473.546 1056.553 469.163 1058.406 464.276 C 1060.599 458.543 1062.706 452.599 1064.726 446.446 C 1066.753 440.293 1068.693 434.223 1070.546 428.236 C 1072.399 422.249 1074.169 416.433 1075.856 410.786 C 1077.543 405.139 1079.059 399.956 1080.406 395.236 C 1081.086 392.536 1081.676 390.133 1082.176 388.026 C 1082.683 385.919 1083.189 383.939 1083.696 382.086 C 1084.543 379.219 1085.259 376.899 1085.846 375.126 C 1086.439 373.359 1086.903 371.886 1087.236 370.706 C 1088.083 368.679 1088.716 367.246 1089.136 366.406 C 1089.556 365.559 1090.189 364.969 1091.036 364.636 C 1092.549 363.956 1094.066 364.206 1095.586 365.386 C 1096.599 366.399 1097.019 367.496 1096.846 368.676 C 1096.679 369.856 1096.426 370.869 1096.086 371.716 C 1095.579 372.896 1094.906 375.046 1094.066 378.166 C 1093.226 381.279 1092.129 384.946 1090.776 389.166 C 1090.443 390.513 1090.063 391.859 1089.636 393.206 C 1089.216 394.559 1088.839 395.909 1088.506 397.256 C 1086.146 407.036 1083.869 419.259 1081.676 433.926 C 1080.329 443.366 1079.023 454.493 1077.756 467.306 C 1076.489 480.119 1075.436 494.703 1074.596 511.056 C 1073.749 527.417 1073.243 545.626 1073.076 565.686 C 1072.909 585.753 1073.246 607.673 1074.086 631.446 C 1074.086 632.626 1073.706 633.636 1072.946 634.476 C 1072.193 635.316 1071.223 635.736 1070.036 635.736 Z M 1038.686 493.356 C 1035.986 493.356 1033.876 494.369 1032.356 496.396 C 1031.349 497.576 1030.593 498.966 1030.086 500.566 C 1029.579 502.166 1029.283 503.766 1029.196 505.366 C 1029.116 506.973 1029.286 508.493 1029.706 509.926 C 1030.126 511.359 1030.756 512.413 1031.596 513.086 C 1031.936 513.419 1032.276 513.586 1032.616 513.586 C 1032.949 513.419 1033.496 513.083 1034.256 512.576 C 1035.016 512.069 1035.903 511.186 1036.916 509.926 C 1037.923 508.659 1039.143 506.889 1040.576 504.616 C 1042.009 502.336 1043.653 499.256 1045.506 495.376 C 1043.319 494.029 1041.046 493.356 1038.686 493.356 Z M 1113.778 530.026 L 1113.278 530.026 C 1111.084 530.026 1109.228 529.183 1107.708 527.496 C 1106.868 526.656 1106.068 525.139 1105.308 522.946 C 1104.548 520.753 1104.254 517.129 1104.428 512.076 C 1099.874 519.323 1095.658 523.706 1091.778 525.226 C 1090.431 525.559 1089.124 525.726 1087.858 525.726 C 1086.591 525.726 1085.368 525.306 1084.188 524.466 C 1083.008 523.793 1081.788 522.613 1080.528 520.926 C 1079.261 519.24 1078.964 516.626 1079.638 513.086 C 1080.144 510.053 1081.368 506.976 1083.308 503.856 C 1085.248 500.736 1086.891 498.249 1088.238 496.396 C 1089.584 494.536 1091.314 492.469 1093.428 490.196 C 1095.534 487.923 1097.431 486.616 1099.118 486.276 C 1100.298 486.109 1101.351 486.363 1102.278 487.036 C 1103.204 487.709 1103.751 488.636 1103.918 489.816 C 1104.258 490.829 1104.131 491.756 1103.538 492.596 C 1102.951 493.443 1102.234 494.033 1101.388 494.366 C 1100.881 494.706 1099.911 495.636 1098.478 497.156 C 1097.044 498.669 1095.401 500.689 1093.548 503.216 C 1089.668 508.443 1087.728 512.659 1087.728 515.866 C 1087.728 516.706 1087.981 517.214 1088.488 517.386 L 1088.998 517.386 C 1090.344 516.879 1091.861 515.529 1093.548 513.336 C 1095.234 511.143 1096.964 508.573 1098.738 505.626 C 1100.504 502.673 1102.188 499.553 1103.788 496.266 C 1105.394 492.979 1106.701 489.903 1107.708 487.036 C 1108.048 486.023 1108.724 485.263 1109.738 484.756 C 1110.744 484.249 1111.754 484.166 1112.768 484.506 C 1113.781 484.846 1114.581 485.479 1115.168 486.406 C 1115.761 487.333 1115.888 488.303 1115.548 489.316 C 1115.381 490.829 1115.131 492.429 1114.798 494.116 C 1114.458 495.463 1114.161 497.106 1113.908 499.046 C 1113.654 500.986 1113.444 502.883 1113.278 504.736 C 1112.604 510.636 1112.434 514.766 1112.768 517.126 C 1113.108 519.486 1113.444 521.006 1113.778 521.686 C 1114.458 521.346 1115.638 520.206 1117.318 518.266 C 1119.004 516.326 1121.281 512.323 1124.148 506.256 C 1126.174 502.043 1127.818 498.206 1129.078 494.746 C 1130.344 491.293 1130.978 489.483 1130.978 489.316 C 1131.318 488.303 1131.991 487.543 1132.998 487.036 C 1134.011 486.529 1135.108 486.446 1136.288 486.786 C 1138.821 487.626 1139.664 489.396 1138.818 492.096 C 1138.818 492.263 1138.144 494.159 1136.798 497.786 C 1135.444 501.406 1133.758 505.409 1131.738 509.796 C 1128.531 516.543 1125.454 521.516 1122.508 524.716 C 1119.554 527.923 1116.644 529.693 1113.778 530.026 Z" style="fill: rgb(169, 169, 169); text-transform: capitalize; white-space: pre;" transform="matrix(1, 0, 0, 1, 0, 0)"/>
  <path d="M 627.675 646.358 L 627.605 646.358 C 626.905 646.358 626.505 645.958 626.405 645.158 C 626.005 633.358 625.978 623.081 626.325 614.328 C 626.678 605.581 627.205 598.258 627.905 592.358 C 627.652 593.058 627.428 593.735 627.235 594.388 C 627.028 595.035 626.802 595.685 626.555 596.338 C 625.355 599.685 624.278 602.385 623.325 604.438 C 622.378 606.485 621.528 608.085 620.775 609.238 C 620.028 610.385 619.368 611.171 618.795 611.598 C 618.215 612.018 617.702 612.305 617.255 612.458 C 616.302 612.758 615.428 612.558 614.635 611.858 C 614.082 611.358 613.682 610.745 613.435 610.018 C 613.182 609.298 613.068 608.538 613.095 607.738 C 613.122 606.931 613.272 606.155 613.545 605.408 C 613.818 604.655 614.182 604.005 614.635 603.458 C 615.535 602.358 616.682 601.758 618.075 601.658 C 619.182 601.611 620.308 601.911 621.455 602.558 C 621.855 601.605 622.282 600.555 622.735 599.408 C 623.182 598.261 623.682 596.961 624.235 595.508 C 624.882 593.808 625.505 592.045 626.105 590.218 C 626.705 588.391 627.278 586.591 627.825 584.818 C 628.378 583.045 628.905 581.321 629.405 579.648 C 629.905 577.975 630.355 576.435 630.755 575.028 C 630.955 574.235 631.132 573.525 631.285 572.898 C 631.432 572.271 631.582 571.685 631.735 571.138 C 631.982 570.285 632.192 569.595 632.365 569.068 C 632.538 568.541 632.678 568.105 632.785 567.758 C 633.032 567.158 633.218 566.735 633.345 566.488 C 633.472 566.235 633.658 566.058 633.905 565.958 C 634.352 565.758 634.802 565.831 635.255 566.178 C 635.555 566.485 635.678 566.811 635.625 567.158 C 635.578 567.505 635.505 567.805 635.405 568.058 C 635.252 568.411 635.052 569.048 634.805 569.968 C 634.552 570.895 634.225 571.985 633.825 573.238 C 633.725 573.638 633.615 574.035 633.495 574.428 C 633.368 574.828 633.255 575.231 633.155 575.638 C 632.455 578.538 631.778 582.161 631.125 586.508 C 630.732 589.308 630.345 592.608 629.965 596.408 C 629.592 600.208 629.278 604.535 629.025 609.388 C 628.778 614.235 628.628 619.631 628.575 625.578 C 628.528 631.531 628.628 638.031 628.875 645.078 C 628.875 645.431 628.765 645.731 628.545 645.978 C 628.318 646.231 628.028 646.358 627.675 646.358 Z M 618.375 604.128 C 617.575 604.128 616.952 604.428 616.505 605.028 C 616.205 605.381 615.978 605.795 615.825 606.268 C 615.678 606.748 615.592 607.225 615.565 607.698 C 615.545 608.171 615.595 608.621 615.715 609.048 C 615.842 609.475 616.028 609.788 616.275 609.988 C 616.375 610.088 616.478 610.138 616.585 610.138 C 616.685 610.085 616.845 609.985 617.065 609.838 C 617.292 609.685 617.555 609.421 617.855 609.048 C 618.155 608.675 618.518 608.148 618.945 607.468 C 619.365 606.795 619.852 605.885 620.405 604.738 C 619.758 604.331 619.082 604.128 618.375 604.128 ZM 637.31 618.008 C 637.01 618.008 636.783 617.958 636.63 617.858 C 635.13 616.905 634.03 615.305 633.33 613.058 C 632.63 610.811 632.48 608.335 632.88 605.628 C 633.28 602.981 634.167 600.758 635.54 598.958 C 636.92 597.158 638.66 595.985 640.76 595.438 C 642.453 594.985 643.677 595.208 644.43 596.108 C 645.277 597.055 645.253 598.655 644.36 600.908 C 643.907 601.961 643.28 603.098 642.48 604.318 C 641.68 605.545 640.78 606.735 639.78 607.888 C 639.18 608.588 638.493 609.288 637.72 609.988 C 636.94 610.681 636.177 611.205 635.43 611.558 C 635.677 612.558 636.013 613.421 636.44 614.148 C 636.867 614.868 637.353 615.405 637.9 615.758 C 638.207 615.958 638.397 616.221 638.47 616.548 C 638.543 616.875 638.507 617.185 638.36 617.478 C 638.16 617.831 637.81 618.008 637.31 618.008 Z M 642.55 597.688 L 642.33 597.688 C 642.23 597.688 642.103 597.688 641.95 597.688 C 641.803 597.688 641.607 597.738 641.36 597.838 C 639.753 598.238 638.427 599.161 637.38 600.608 C 636.327 602.055 635.627 603.855 635.28 606.008 C 635.127 607.108 635.077 608.085 635.13 608.938 C 635.377 608.785 635.677 608.545 636.03 608.218 C 636.377 607.898 636.777 607.511 637.23 607.058 C 637.983 606.205 638.707 605.305 639.4 604.358 C 640.1 603.411 640.727 602.461 641.28 601.508 C 641.98 600.308 642.393 599.408 642.52 598.808 C 642.64 598.208 642.65 597.835 642.55 597.688 ZM 647.305 621.978 C 646.605 621.978 645.982 621.818 645.435 621.498 C 644.882 621.171 644.478 620.731 644.225 620.178 C 643.325 618.178 644.578 615.405 647.985 611.858 C 647.932 611.758 647.905 611.685 647.905 611.638 C 647.905 611.585 647.878 611.508 647.825 611.408 C 647.478 610.155 647.168 608.918 646.895 607.698 C 646.622 606.471 646.432 605.331 646.325 604.278 C 646.032 601.431 646.758 599.708 648.505 599.108 C 649.905 598.661 651.178 598.711 652.325 599.258 C 652.825 599.505 653.238 599.805 653.565 600.158 C 653.892 600.511 654.168 600.848 654.395 601.168 C 654.622 601.495 654.785 601.781 654.885 602.028 C 654.978 602.281 655.025 602.435 655.025 602.488 C 655.125 602.788 655.115 603.085 654.995 603.378 C 654.868 603.685 654.628 603.888 654.275 603.988 C 653.975 604.081 653.665 604.068 653.345 603.948 C 653.018 603.821 652.805 603.585 652.705 603.238 L 652.485 602.778 C 652.378 602.678 652.288 602.541 652.215 602.368 C 652.142 602.195 652.028 602.031 651.875 601.878 C 651.228 601.231 650.355 601.085 649.255 601.438 C 648.955 601.538 648.782 601.888 648.735 602.488 C 648.682 603.081 648.682 603.605 648.735 604.058 C 648.828 604.911 648.988 605.835 649.215 606.828 C 649.442 607.828 649.705 608.855 650.005 609.908 C 651.158 608.908 652.445 607.845 653.865 606.718 C 655.292 605.591 656.882 604.431 658.635 603.238 C 658.882 603.038 659.168 602.975 659.495 603.048 C 659.822 603.121 660.082 603.281 660.275 603.528 C 660.775 604.135 660.678 604.711 659.985 605.258 C 655.985 608.011 652.885 610.461 650.685 612.608 C 650.932 613.561 651.142 614.461 651.315 615.308 C 651.488 616.155 651.602 616.955 651.655 617.708 C 651.755 618.808 651.468 619.708 650.795 620.408 C 650.115 621.108 649.352 621.581 648.505 621.828 C 648.005 621.928 647.605 621.978 647.305 621.978 Z M 648.655 614.708 C 648.555 614.808 648.478 614.908 648.425 615.008 C 648.378 615.108 648.305 615.208 648.205 615.308 C 647.652 616.008 647.252 616.595 647.005 617.068 C 646.758 617.548 646.595 617.938 646.515 618.238 C 646.442 618.531 646.418 618.755 646.445 618.908 C 646.472 619.055 646.485 619.155 646.485 619.208 C 646.632 619.561 647.105 619.635 647.905 619.428 C 648.005 619.428 648.268 619.318 648.695 619.098 C 649.122 618.871 649.308 618.481 649.255 617.928 C 649.202 617.428 649.125 616.918 649.025 616.398 C 648.925 615.871 648.802 615.308 648.655 614.708 ZM 659.03 618.458 C 658.53 618.458 658.153 618.181 657.9 617.628 C 657.807 617.428 657.72 617.155 657.64 616.808 C 657.567 616.461 657.53 615.961 657.53 615.308 C 657.53 614.655 657.593 613.855 657.72 612.908 C 657.84 611.961 658.027 610.761 658.28 609.308 C 658.527 607.808 658.79 606.485 659.07 605.338 C 659.343 604.185 659.507 603.581 659.56 603.528 C 659.653 603.181 659.84 602.921 660.12 602.748 C 660.393 602.575 660.703 602.535 661.05 602.628 C 661.357 602.728 661.597 602.918 661.77 603.198 C 661.943 603.471 661.98 603.781 661.88 604.128 C 661.78 604.681 661.657 605.258 661.51 605.858 C 661.403 606.411 661.263 607.025 661.09 607.698 C 660.917 608.371 660.78 609.058 660.68 609.758 C 660.427 611.058 660.253 612.145 660.16 613.018 C 660.053 613.891 660 614.591 660 615.118 C 660 615.645 660.027 616.035 660.08 616.288 C 660.133 616.535 660.16 616.681 660.16 616.728 C 660.507 617.528 660.28 618.055 659.48 618.308 C 659.28 618.408 659.13 618.458 659.03 618.458 Z M 660.68 600.758 C 660.333 600.758 660.047 600.631 659.82 600.378 C 659.593 600.131 659.48 599.835 659.48 599.488 C 659.48 599.181 659.593 598.918 659.82 598.698 C 660.047 598.471 660.307 598.331 660.6 598.278 C 660.6 598.231 660.613 598.195 660.64 598.168 C 660.667 598.148 660.68 598.088 660.68 597.988 C 660.78 597.635 660.967 597.358 661.24 597.158 C 661.52 596.958 661.833 596.908 662.18 597.008 C 662.527 597.108 662.79 597.295 662.97 597.568 C 663.143 597.848 663.18 598.161 663.08 598.508 C 662.827 599.508 662.44 600.131 661.92 600.378 C 661.393 600.631 660.98 600.758 660.68 600.758 ZM 659.96 657.388 L 659.73 657.388 L 659.65 657.388 C 658.403 657.281 657.357 657.041 656.51 656.668 C 655.657 656.295 654.943 655.845 654.37 655.318 C 653.797 654.798 653.37 654.225 653.09 653.598 C 652.817 652.971 652.603 652.358 652.45 651.758 C 652.05 649.905 652.19 647.755 652.87 645.308 C 653.543 642.855 654.48 640.355 655.68 637.808 C 656.88 635.255 658.23 632.768 659.73 630.348 C 661.23 627.921 662.58 625.808 663.78 624.008 C 665.08 622.108 666.417 620.258 667.79 618.458 C 669.17 616.658 670.533 614.958 671.88 613.358 C 671.88 611.011 671.853 608.835 671.8 606.828 C 671.753 604.835 671.68 603.111 671.58 601.658 C 671.527 601.758 671.477 601.858 671.43 601.958 C 671.383 602.058 671.333 602.158 671.28 602.258 C 670.633 603.411 670.047 604.325 669.52 604.998 C 668.993 605.671 668.517 606.195 668.09 606.568 C 667.67 606.948 667.307 607.211 667 607.358 C 666.7 607.505 666.427 607.605 666.18 607.658 C 665.327 607.758 664.653 607.508 664.16 606.908 C 663.907 606.655 663.667 606.205 663.44 605.558 C 663.213 604.911 663.35 604.088 663.85 603.088 C 664.15 602.488 664.563 601.885 665.09 601.278 C 665.617 600.678 666.217 600.128 666.89 599.628 C 667.563 599.135 668.25 598.711 668.95 598.358 C 669.65 598.011 670.327 597.761 670.98 597.608 C 671.08 597.461 671.143 597.335 671.17 597.228 C 671.19 597.135 671.227 597.038 671.28 596.938 L 671.43 596.638 C 671.677 596.031 672.127 595.805 672.78 595.958 C 673.433 596.058 673.76 596.435 673.76 597.088 C 673.76 597.088 673.783 597.425 673.83 598.098 C 673.877 598.771 673.927 599.708 673.98 600.908 C 674.027 602.108 674.09 603.521 674.17 605.148 C 674.243 606.768 674.28 608.555 674.28 610.508 C 675.88 608.708 677.367 607.185 678.74 605.938 C 680.113 604.685 681.227 603.808 682.08 603.308 C 682.38 603.161 682.693 603.138 683.02 603.238 C 683.34 603.331 683.577 603.531 683.73 603.838 C 683.93 604.131 683.98 604.441 683.88 604.768 C 683.78 605.095 683.58 605.335 683.28 605.488 C 682.427 605.935 681.213 606.935 679.64 608.488 C 678.067 610.035 676.307 611.958 674.36 614.258 C 674.36 615.405 674.347 616.555 674.32 617.708 C 674.293 618.855 674.253 620.028 674.2 621.228 C 673.6 638.528 670.95 649.631 666.25 654.538 C 664.457 656.438 662.36 657.388 659.96 657.388 Z M 659.81 654.908 C 661.557 654.955 663.13 654.255 664.53 652.808 C 666.63 650.608 668.293 646.845 669.52 641.518 C 670.747 636.198 671.483 629.411 671.73 621.158 C 671.777 620.458 671.8 619.795 671.8 619.168 C 671.8 618.548 671.827 617.911 671.88 617.258 C 670.88 618.505 669.867 619.818 668.84 621.198 C 667.813 622.571 666.8 623.985 665.8 625.438 C 661.807 631.285 658.86 636.445 656.96 640.918 C 655.053 645.398 654.35 648.861 654.85 651.308 C 654.903 651.655 655.017 652.028 655.19 652.428 C 655.363 652.835 655.64 653.198 656.02 653.518 C 656.393 653.845 656.88 654.145 657.48 654.418 C 658.08 654.691 658.857 654.855 659.81 654.908 Z M 669.18 601.058 C 668.48 601.458 667.843 601.935 667.27 602.488 C 666.69 603.035 666.277 603.581 666.03 604.128 C 665.877 604.435 665.8 604.661 665.8 604.808 C 665.8 604.955 665.827 605.081 665.88 605.188 C 666.08 605.081 666.43 604.768 666.93 604.248 C 667.43 603.721 668.18 602.658 669.18 601.058 ZM 694.775 627.008 L 694.635 627.008 C 693.482 626.861 692.618 626.261 692.045 625.208 C 691.465 624.155 691.078 622.841 690.885 621.268 C 690.678 619.695 690.602 617.958 690.655 616.058 C 690.708 614.158 690.785 612.258 690.885 610.358 C 690.978 609.358 691.052 608.331 691.105 607.278 C 691.152 606.231 691.152 605.358 691.105 604.658 C 691.005 604.858 690.882 605.071 690.735 605.298 C 690.582 605.518 690.405 605.831 690.205 606.238 C 689.852 606.931 689.502 607.691 689.155 608.518 C 688.802 609.345 688.452 610.181 688.105 611.028 C 687.052 613.535 686.252 615.275 685.705 616.248 C 685.152 617.221 684.525 617.708 683.825 617.708 C 683.278 617.708 682.905 617.531 682.705 617.178 C 682.452 616.931 682.288 616.521 682.215 615.948 C 682.142 615.375 682.205 614.361 682.405 612.908 C 682.505 612.108 682.642 611.195 682.815 610.168 C 682.988 609.148 683.202 607.988 683.455 606.688 C 683.655 605.635 683.868 604.595 684.095 603.568 C 684.315 602.541 684.515 601.631 684.695 600.838 C 684.868 600.031 685.005 599.381 685.105 598.888 C 685.205 598.388 685.255 598.138 685.255 598.138 C 685.355 597.785 685.542 597.521 685.815 597.348 C 686.095 597.175 686.408 597.135 686.755 597.228 C 687.055 597.335 687.305 597.525 687.505 597.798 C 687.705 598.071 687.755 598.385 687.655 598.738 C 687.508 599.431 687.332 600.228 687.125 601.128 C 686.978 601.881 686.792 602.745 686.565 603.718 C 686.345 604.698 686.132 605.688 685.925 606.688 C 685.678 607.888 685.482 608.925 685.335 609.798 C 685.182 610.671 685.055 611.458 684.955 612.158 C 685.102 611.811 685.252 611.461 685.405 611.108 C 685.552 610.761 685.702 610.438 685.855 610.138 C 686.255 609.138 686.668 608.138 687.095 607.138 C 687.522 606.131 687.958 605.231 688.405 604.438 C 688.552 604.138 688.738 603.798 688.965 603.418 C 689.192 603.045 689.455 602.685 689.755 602.338 C 690.055 601.985 690.392 601.721 690.765 601.548 C 691.138 601.368 691.552 601.331 692.005 601.438 C 692.705 601.638 693.128 602.098 693.275 602.818 C 693.428 603.545 693.505 604.281 693.505 605.028 C 693.552 605.735 693.552 606.561 693.505 607.508 C 693.452 608.461 693.402 609.461 693.355 610.508 C 693.255 612.108 693.182 613.771 693.135 615.498 C 693.082 617.218 693.128 618.805 693.275 620.258 C 693.528 623.005 694.078 624.431 694.925 624.538 C 695.278 624.585 695.568 624.731 695.795 624.978 C 696.022 625.231 696.108 625.531 696.055 625.878 C 695.955 626.631 695.528 627.008 694.775 627.008 ZM 701.71 618.008 C 701.41 618.008 701.183 617.958 701.03 617.858 C 699.53 616.905 698.43 615.305 697.73 613.058 C 697.03 610.811 696.88 608.335 697.28 605.628 C 697.68 602.981 698.567 600.758 699.94 598.958 C 701.32 597.158 703.06 595.985 705.16 595.438 C 706.853 594.985 708.077 595.208 708.83 596.108 C 709.677 597.055 709.653 598.655 708.76 600.908 C 708.307 601.961 707.68 603.098 706.88 604.318 C 706.08 605.545 705.18 606.735 704.18 607.888 C 703.58 608.588 702.893 609.288 702.12 609.988 C 701.34 610.681 700.577 611.205 699.83 611.558 C 700.077 612.558 700.413 613.421 700.84 614.148 C 701.267 614.868 701.753 615.405 702.3 615.758 C 702.607 615.958 702.797 616.221 702.87 616.548 C 702.943 616.875 702.907 617.185 702.76 617.478 C 702.56 617.831 702.21 618.008 701.71 618.008 Z M 706.95 597.688 L 706.73 597.688 C 706.63 597.688 706.503 597.688 706.35 597.688 C 706.203 597.688 706.007 597.738 705.76 597.838 C 704.153 598.238 702.827 599.161 701.78 600.608 C 700.727 602.055 700.027 603.855 699.68 606.008 C 699.527 607.108 699.477 608.085 699.53 608.938 C 699.777 608.785 700.077 608.545 700.43 608.218 C 700.777 607.898 701.177 607.511 701.63 607.058 C 702.383 606.205 703.107 605.305 703.8 604.358 C 704.5 603.411 705.127 602.461 705.68 601.508 C 706.38 600.308 706.793 599.408 706.92 598.808 C 707.04 598.208 707.05 597.835 706.95 597.688 ZM 713.135 616.578 L 712.755 616.578 C 712.355 616.578 712.055 616.431 711.855 616.138 C 711.708 615.931 711.608 615.731 711.555 615.538 C 711.502 615.331 711.502 614.881 711.555 614.188 L 711.555 613.958 C 711.502 613.311 711.452 612.488 711.405 611.488 C 711.352 610.488 711.288 609.425 711.215 608.298 C 711.142 607.171 711.068 606.031 710.995 604.878 C 710.922 603.731 710.858 602.685 710.805 601.738 C 710.752 601.385 710.838 601.085 711.065 600.838 C 711.292 600.585 711.582 600.458 711.935 600.458 C 712.282 600.405 712.578 600.491 712.825 600.718 C 713.078 600.945 713.205 601.235 713.205 601.588 C 713.252 602.281 713.325 603.355 713.425 604.808 C 713.478 604.708 713.528 604.621 713.575 604.548 C 713.628 604.475 713.682 604.385 713.735 604.278 C 714.582 602.731 715.532 601.785 716.585 601.438 C 717.632 601.085 718.578 600.958 719.425 601.058 C 720.232 601.158 720.582 601.608 720.475 602.408 C 720.375 603.208 719.928 603.558 719.135 603.458 C 718.135 603.405 717.332 603.678 716.725 604.278 C 716.178 604.831 715.732 605.521 715.385 606.348 C 715.032 607.168 714.755 608.055 714.555 609.008 C 714.355 609.955 714.218 610.878 714.145 611.778 C 714.065 612.678 714.002 613.431 713.955 614.038 C 714.002 614.431 714.025 614.741 714.025 614.968 C 714.025 615.195 714.025 615.358 714.025 615.458 C 713.978 615.805 713.868 616.055 713.695 616.208 C 713.515 616.355 713.328 616.478 713.135 616.578 Z" transform="matrix(1, 0, 0, 1, 0, 0)" style="fill: rgb(173, 216, 230); text-transform: lowercase; white-space: pre;"/>
  <path d="M 744.915 596.738 C 744.965 596.788 745.665 596.808 747.035 596.808 L 747.695 596.808 L 749.525 596.808 C 749.625 598.278 749.745 599.548 749.895 600.618 C 750.035 601.788 750.185 602.358 750.335 602.308 C 751.015 602.258 751.525 601.838 751.875 601.058 C 752.215 600.278 752.705 599.698 753.335 599.298 C 753.235 598.668 753.285 597.788 753.485 596.668 C 754.995 596.618 756.365 596.518 757.585 596.368 C 758.755 596.278 759.345 596.128 759.345 595.938 C 759.295 595.298 758.875 594.808 758.095 594.468 C 757.315 594.078 756.725 593.568 756.335 592.928 C 755.805 593.028 755.045 593.008 754.065 592.858 C 754.065 592.468 754.095 592.098 754.145 591.758 L 754.145 591.468 C 754.145 590.828 754.065 590.268 753.925 589.778 C 753.825 589.148 753.575 588.638 753.185 588.238 C 753.095 588.148 752.455 588.048 751.285 587.948 C 750.745 587.898 750.335 587.878 750.035 587.878 C 749.695 587.878 749.475 587.898 749.385 587.948 L 749.385 590.738 L 749.385 592.128 C 749.185 592.078 749.015 592.048 748.865 592.048 L 748.425 592.048 C 747.845 592.048 747.305 592.098 746.815 592.198 C 746.185 592.348 745.665 592.588 745.275 592.928 C 745.185 593.078 745.085 593.708 744.985 594.838 C 744.885 595.418 744.835 595.888 744.835 596.228 C 744.835 596.518 744.865 596.688 744.915 596.738 Z" transform="matrix(1, 0, 0, 1, 0, 0)" style="fill: rgb(173, 216, 230); text-transform: lowercase; white-space: pre;"/>
  <path d="M 790.644 646.358 L 790.574 646.358 C 789.874 646.358 789.474 645.958 789.374 645.158 C 788.974 633.358 788.947 623.081 789.294 614.328 C 789.647 605.581 790.174 598.258 790.874 592.358 C 790.621 593.058 790.397 593.735 790.204 594.388 C 789.997 595.035 789.771 595.685 789.524 596.338 C 788.324 599.685 787.247 602.385 786.294 604.438 C 785.347 606.485 784.497 608.085 783.744 609.238 C 782.997 610.385 782.337 611.171 781.764 611.598 C 781.184 612.018 780.671 612.305 780.224 612.458 C 779.271 612.758 778.397 612.558 777.604 611.858 C 777.051 611.358 776.651 610.745 776.404 610.018 C 776.151 609.298 776.037 608.538 776.064 607.738 C 776.091 606.931 776.241 606.155 776.514 605.408 C 776.787 604.655 777.151 604.005 777.604 603.458 C 778.504 602.358 779.651 601.758 781.044 601.658 C 782.151 601.611 783.277 601.911 784.424 602.558 C 784.824 601.605 785.251 600.555 785.704 599.408 C 786.151 598.261 786.651 596.961 787.204 595.508 C 787.851 593.808 788.474 592.045 789.074 590.218 C 789.674 588.391 790.247 586.591 790.794 584.818 C 791.347 583.045 791.874 581.321 792.374 579.648 C 792.874 577.975 793.324 576.435 793.724 575.028 C 793.924 574.235 794.101 573.525 794.254 572.898 C 794.401 572.271 794.551 571.685 794.704 571.138 C 794.951 570.285 795.161 569.595 795.334 569.068 C 795.507 568.541 795.647 568.105 795.754 567.758 C 796.001 567.158 796.187 566.735 796.314 566.488 C 796.441 566.235 796.627 566.058 796.874 565.958 C 797.321 565.758 797.771 565.831 798.224 566.178 C 798.524 566.485 798.647 566.811 798.594 567.158 C 798.547 567.505 798.474 567.805 798.374 568.058 C 798.221 568.411 798.021 569.048 797.774 569.968 C 797.521 570.895 797.194 571.985 796.794 573.238 C 796.694 573.638 796.584 574.035 796.464 574.428 C 796.337 574.828 796.224 575.231 796.124 575.638 C 795.424 578.538 794.747 582.161 794.094 586.508 C 793.701 589.308 793.314 592.608 792.934 596.408 C 792.561 600.208 792.247 604.535 791.994 609.388 C 791.747 614.235 791.597 619.631 791.544 625.578 C 791.497 631.531 791.597 638.031 791.844 645.078 C 791.844 645.431 791.734 645.731 791.514 645.978 C 791.287 646.231 790.997 646.358 790.644 646.358 Z M 781.344 604.128 C 780.544 604.128 779.921 604.428 779.474 605.028 C 779.174 605.381 778.947 605.795 778.794 606.268 C 778.647 606.748 778.561 607.225 778.534 607.698 C 778.514 608.171 778.564 608.621 778.684 609.048 C 778.811 609.475 778.997 609.788 779.244 609.988 C 779.344 610.088 779.447 610.138 779.554 610.138 C 779.654 610.085 779.814 609.985 780.034 609.838 C 780.261 609.685 780.524 609.421 780.824 609.048 C 781.124 608.675 781.487 608.148 781.914 607.468 C 782.334 606.795 782.821 605.885 783.374 604.738 C 782.727 604.331 782.051 604.128 781.344 604.128 ZM 800.279 618.008 C 799.979 618.008 799.752 617.958 799.599 617.858 C 798.099 616.905 796.999 615.305 796.299 613.058 C 795.599 610.811 795.449 608.335 795.849 605.628 C 796.249 602.981 797.136 600.758 798.509 598.958 C 799.889 597.158 801.629 595.985 803.729 595.438 C 805.422 594.985 806.646 595.208 807.399 596.108 C 808.246 597.055 808.222 598.655 807.329 600.908 C 806.876 601.961 806.249 603.098 805.449 604.318 C 804.649 605.545 803.749 606.735 802.749 607.888 C 802.149 608.588 801.462 609.288 800.689 609.988 C 799.909 610.681 799.146 611.205 798.399 611.558 C 798.646 612.558 798.982 613.421 799.409 614.148 C 799.836 614.868 800.322 615.405 800.869 615.758 C 801.176 615.958 801.366 616.221 801.439 616.548 C 801.512 616.875 801.476 617.185 801.329 617.478 C 801.129 617.831 800.779 618.008 800.279 618.008 Z M 805.519 597.688 L 805.299 597.688 C 805.199 597.688 805.072 597.688 804.919 597.688 C 804.772 597.688 804.576 597.738 804.329 597.838 C 802.722 598.238 801.396 599.161 800.349 600.608 C 799.296 602.055 798.596 603.855 798.249 606.008 C 798.096 607.108 798.046 608.085 798.099 608.938 C 798.346 608.785 798.646 608.545 798.999 608.218 C 799.346 607.898 799.746 607.511 800.199 607.058 C 800.952 606.205 801.676 605.305 802.369 604.358 C 803.069 603.411 803.696 602.461 804.249 601.508 C 804.949 600.308 805.362 599.408 805.489 598.808 C 805.609 598.208 805.619 597.835 805.519 597.688 ZM 812.744 621.758 C 812.644 621.758 812.571 621.745 812.524 621.718 C 812.477 621.698 812.404 621.688 812.304 621.688 C 811.751 621.481 811.311 621.028 810.984 620.328 C 810.664 619.635 810.377 618.488 810.124 616.888 C 809.824 615.035 809.601 612.485 809.454 609.238 C 809.401 607.885 809.361 606.558 809.334 605.258 C 809.307 603.958 809.284 602.808 809.264 601.808 C 809.237 600.808 809.224 599.985 809.224 599.338 C 809.224 598.685 809.224 598.358 809.224 598.358 C 809.224 598.011 809.351 597.725 809.604 597.498 C 809.851 597.271 810.151 597.158 810.504 597.158 C 811.304 597.158 811.704 597.558 811.704 598.358 C 811.704 598.358 811.704 598.645 811.704 599.218 C 811.704 599.798 811.704 600.548 811.704 601.468 C 811.704 602.395 811.714 603.458 811.734 604.658 C 811.761 605.858 811.797 607.081 811.844 608.328 C 811.944 611.081 812.084 613.221 812.264 614.748 C 812.437 616.275 812.624 617.385 812.824 618.078 C 812.971 617.431 813.107 616.681 813.234 615.828 C 813.361 614.981 813.474 614.208 813.574 613.508 C 813.774 612.355 813.974 611.218 814.174 610.098 C 814.374 608.971 814.597 607.935 814.844 606.988 C 814.897 606.735 815.011 606.385 815.184 605.938 C 815.364 605.485 815.591 605.058 815.864 604.658 C 816.137 604.258 816.474 603.921 816.874 603.648 C 817.274 603.375 817.747 603.261 818.294 603.308 C 818.794 603.408 819.234 603.508 819.614 603.608 C 819.987 603.708 820.351 603.808 820.704 603.908 C 821.151 604.055 821.547 604.168 821.894 604.248 C 822.247 604.321 822.611 604.321 822.984 604.248 C 823.357 604.168 823.757 604.005 824.184 603.758 C 824.611 603.505 825.124 603.105 825.724 602.558 C 825.971 602.311 826.257 602.198 826.584 602.218 C 826.911 602.245 827.201 602.381 827.454 602.628 C 827.701 602.881 827.801 603.171 827.754 603.498 C 827.701 603.825 827.547 604.111 827.294 604.358 C 826.547 605.058 825.851 605.595 825.204 605.968 C 824.551 606.341 823.924 606.581 823.324 606.688 C 822.677 606.781 822.104 606.768 821.604 606.648 C 821.104 606.521 820.577 606.385 820.024 606.238 C 819.724 606.138 819.424 606.048 819.124 605.968 C 818.824 605.895 818.474 605.831 818.074 605.778 C 817.974 605.885 817.837 606.098 817.664 606.418 C 817.484 606.745 817.271 607.381 817.024 608.328 C 816.824 609.181 816.647 610.071 816.494 610.998 C 816.347 611.925 816.197 612.885 816.044 613.878 C 815.697 616.131 815.374 617.858 815.074 619.058 C 814.774 620.258 814.324 621.058 813.724 621.458 C 813.324 621.658 812.997 621.758 812.744 621.758 ZM 829.804 618.008 C 829.504 618.008 829.277 617.958 829.124 617.858 C 827.624 616.905 826.524 615.305 825.824 613.058 C 825.124 610.811 824.974 608.335 825.374 605.628 C 825.774 602.981 826.661 600.758 828.034 598.958 C 829.414 597.158 831.154 595.985 833.254 595.438 C 834.947 594.985 836.171 595.208 836.924 596.108 C 837.771 597.055 837.747 598.655 836.854 600.908 C 836.401 601.961 835.774 603.098 834.974 604.318 C 834.174 605.545 833.274 606.735 832.274 607.888 C 831.674 608.588 830.987 609.288 830.214 609.988 C 829.434 610.681 828.671 611.205 827.924 611.558 C 828.171 612.558 828.507 613.421 828.934 614.148 C 829.361 614.868 829.847 615.405 830.394 615.758 C 830.701 615.958 830.891 616.221 830.964 616.548 C 831.037 616.875 831.001 617.185 830.854 617.478 C 830.654 617.831 830.304 618.008 829.804 618.008 Z M 835.044 597.688 L 834.824 597.688 C 834.724 597.688 834.597 597.688 834.444 597.688 C 834.297 597.688 834.101 597.738 833.854 597.838 C 832.247 598.238 830.921 599.161 829.874 600.608 C 828.821 602.055 828.121 603.855 827.774 606.008 C 827.621 607.108 827.571 608.085 827.624 608.938 C 827.871 608.785 828.171 608.545 828.524 608.218 C 828.871 607.898 829.271 607.511 829.724 607.058 C 830.477 606.205 831.201 605.305 831.894 604.358 C 832.594 603.411 833.221 602.461 833.774 601.508 C 834.474 600.308 834.887 599.408 835.014 598.808 C 835.134 598.208 835.144 597.835 835.044 597.688 ZM 840.249 624.978 C 839.749 624.978 839.299 624.778 838.899 624.378 C 838.746 624.178 838.609 623.928 838.489 623.628 C 838.362 623.335 838.249 622.888 838.149 622.288 C 838.049 621.681 837.986 620.905 837.959 619.958 C 837.939 619.011 837.976 617.811 838.069 616.358 C 838.169 614.705 838.322 612.805 838.529 610.658 C 838.722 608.511 838.996 606.111 839.349 603.458 C 839.649 601.211 839.949 599.025 840.249 596.898 C 840.549 594.771 840.826 592.881 841.079 591.228 C 841.326 589.581 841.522 588.245 841.669 587.218 C 841.822 586.198 841.899 585.661 841.899 585.608 C 841.952 585.261 842.116 584.985 842.389 584.778 C 842.662 584.585 842.972 584.538 843.319 584.638 C 843.672 584.685 843.949 584.845 844.149 585.118 C 844.349 585.391 844.399 585.705 844.299 586.058 C 844.299 586.058 844.222 586.558 844.069 587.558 C 843.922 588.558 843.726 589.858 843.479 591.458 C 843.226 593.058 842.949 594.908 842.649 597.008 C 842.349 599.108 842.076 601.258 841.829 603.458 C 841.376 606.811 841.049 609.611 840.849 611.858 C 840.649 614.105 840.526 615.955 840.479 617.408 C 840.426 618.855 840.426 619.955 840.479 620.708 C 840.526 621.455 840.572 621.981 840.619 622.288 C 840.819 622.135 841.069 621.885 841.369 621.538 C 841.676 621.185 842.026 620.658 842.419 619.958 C 842.972 619.105 843.522 618.118 844.069 616.998 C 844.622 615.871 845.176 614.735 845.729 613.588 C 846.876 611.335 847.972 609.245 849.019 607.318 C 850.072 605.398 851.122 604.061 852.169 603.308 C 852.422 603.108 852.712 603.045 853.039 603.118 C 853.359 603.198 853.619 603.361 853.819 603.608 C 854.019 603.908 854.096 604.221 854.049 604.548 C 854.002 604.868 853.826 605.131 853.519 605.338 C 853.119 605.631 852.696 606.091 852.249 606.718 C 851.796 607.345 851.332 608.095 850.859 608.968 C 850.386 609.841 849.899 610.768 849.399 611.748 C 848.899 612.721 848.426 613.681 847.979 614.628 C 846.326 617.981 844.936 620.545 843.809 622.318 C 842.682 624.091 841.496 624.978 840.249 624.978 ZM 856.769 612.228 C 856.569 612.228 856.269 612.181 855.869 612.088 C 855.176 611.935 854.639 611.671 854.259 611.298 C 853.886 610.925 853.649 610.538 853.549 610.138 C 853.349 609.638 853.276 609.088 853.329 608.488 C 853.376 607.881 853.486 607.281 853.659 606.688 C 853.832 606.081 854.072 605.491 854.379 604.918 C 854.679 604.345 854.952 603.831 855.199 603.378 C 855.246 603.285 855.296 603.175 855.349 603.048 C 855.402 602.921 855.452 602.808 855.499 602.708 C 855.899 601.908 856.426 601.308 857.079 600.908 C 857.726 600.508 858.399 600.358 859.099 600.458 C 860.199 600.611 860.972 601.311 861.419 602.558 C 861.526 602.958 861.616 603.371 861.689 603.798 C 861.762 604.225 861.776 604.661 861.729 605.108 C 862.176 604.908 862.662 604.708 863.189 604.508 C 863.716 604.308 864.276 604.058 864.869 603.758 C 865.176 603.558 865.489 603.521 865.809 603.648 C 866.136 603.775 866.372 603.985 866.519 604.278 C 866.672 604.585 866.699 604.898 866.599 605.218 C 866.499 605.545 866.299 605.785 865.999 605.938 C 865.099 606.331 864.262 606.691 863.489 607.018 C 862.716 607.345 861.976 607.608 861.269 607.808 C 860.976 609.008 860.452 610.008 859.699 610.808 C 858.846 611.755 857.869 612.228 856.769 612.228 Z M 856.019 607.358 C 855.919 607.758 855.832 608.121 855.759 608.448 C 855.686 608.775 855.699 609.061 855.799 609.308 C 855.846 609.361 855.909 609.425 855.989 609.498 C 856.062 609.571 856.222 609.635 856.469 609.688 C 856.622 609.788 856.826 609.811 857.079 609.758 C 857.326 609.711 857.599 609.511 857.899 609.158 C 857.999 609.011 858.112 608.861 858.239 608.708 C 858.359 608.561 858.472 608.388 858.579 608.188 C 857.579 608.188 856.726 607.911 856.019 607.358 Z M 857.449 604.438 C 857.349 604.985 857.399 605.308 857.599 605.408 C 857.799 605.655 858.349 605.755 859.249 605.708 C 859.302 605.255 859.316 604.831 859.289 604.438 C 859.262 604.038 859.199 603.685 859.099 603.378 C 858.999 603.131 858.872 602.958 858.719 602.858 C 858.626 602.858 858.502 602.935 858.349 603.088 C 858.249 603.188 858.172 603.285 858.119 603.378 C 858.019 603.531 857.909 603.695 857.789 603.868 C 857.662 604.041 857.549 604.231 857.449 604.438 ZM 875.544 594.228 C 876.644 594.928 877.384 595.981 877.764 597.388 C 878.137 598.788 878.074 600.285 877.574 601.878 C 877.027 603.785 876.054 605.361 874.654 606.608 C 873.054 608.055 871.177 608.778 869.024 608.778 C 868.624 608.778 868.324 608.755 868.124 608.708 C 867.824 613.155 867.537 618.241 867.264 623.968 C 866.984 629.695 866.721 636.135 866.474 643.288 C 866.474 644.081 866.074 644.478 865.274 644.478 C 864.921 644.478 864.634 644.355 864.414 644.108 C 864.187 643.855 864.074 643.555 864.074 643.208 C 864.474 632.508 864.874 623.371 865.274 615.798 C 865.674 608.225 866.097 602.161 866.544 597.608 C 866.851 594.555 867.151 592.331 867.444 590.938 C 867.544 590.238 867.684 589.738 867.864 589.438 C 868.037 589.131 868.251 588.931 868.504 588.838 C 868.904 588.585 869.327 588.585 869.774 588.838 C 870.021 588.985 870.194 589.221 870.294 589.548 C 870.401 589.868 870.351 590.178 870.144 590.478 C 870.144 590.531 870.097 590.608 870.004 590.708 C 869.951 590.808 869.897 591.008 869.844 591.308 C 869.797 591.608 869.724 592.035 869.624 592.588 C 869.524 593.135 869.424 593.871 869.324 594.798 C 869.224 595.725 869.097 596.861 868.944 598.208 C 870.451 595.208 872.077 593.708 873.824 593.708 C 874.471 593.708 875.044 593.881 875.544 594.228 Z M 875.254 601.208 C 875.547 600.108 875.607 599.121 875.434 598.248 C 875.261 597.375 874.874 596.738 874.274 596.338 C 874.174 596.238 874.024 596.188 873.824 596.188 C 873.424 596.188 872.911 596.575 872.284 597.348 C 871.657 598.121 870.921 599.508 870.074 601.508 C 869.721 602.408 869.407 603.281 869.134 604.128 C 868.861 604.981 868.651 605.708 868.504 606.308 L 869.024 606.308 C 870.771 606.308 872.144 605.758 873.144 604.658 C 874.151 603.558 874.854 602.408 875.254 601.208 ZM 883.979 618.008 C 883.679 618.008 883.452 617.958 883.299 617.858 C 881.799 616.905 880.699 615.305 879.999 613.058 C 879.299 610.811 879.149 608.335 879.549 605.628 C 879.949 602.981 880.836 600.758 882.209 598.958 C 883.589 597.158 885.329 595.985 887.429 595.438 C 889.122 594.985 890.346 595.208 891.099 596.108 C 891.946 597.055 891.922 598.655 891.029 600.908 C 890.576 601.961 889.949 603.098 889.149 604.318 C 888.349 605.545 887.449 606.735 886.449 607.888 C 885.849 608.588 885.162 609.288 884.389 609.988 C 883.609 610.681 882.846 611.205 882.099 611.558 C 882.346 612.558 882.682 613.421 883.109 614.148 C 883.536 614.868 884.022 615.405 884.569 615.758 C 884.876 615.958 885.066 616.221 885.139 616.548 C 885.212 616.875 885.176 617.185 885.029 617.478 C 884.829 617.831 884.479 618.008 883.979 618.008 Z M 889.219 597.688 L 888.999 597.688 C 888.899 597.688 888.772 597.688 888.619 597.688 C 888.472 597.688 888.276 597.738 888.029 597.838 C 886.422 598.238 885.096 599.161 884.049 600.608 C 882.996 602.055 882.296 603.855 881.949 606.008 C 881.796 607.108 881.746 608.085 881.799 608.938 C 882.046 608.785 882.346 608.545 882.699 608.218 C 883.046 607.898 883.446 607.511 883.899 607.058 C 884.652 606.205 885.376 605.305 886.069 604.358 C 886.769 603.411 887.396 602.461 887.949 601.508 C 888.649 600.308 889.062 599.408 889.189 598.808 C 889.309 598.208 889.319 597.835 889.219 597.688 ZM 895.404 616.578 L 895.024 616.578 C 894.624 616.578 894.324 616.431 894.124 616.138 C 893.977 615.931 893.877 615.731 893.824 615.538 C 893.771 615.331 893.771 614.881 893.824 614.188 L 893.824 613.958 C 893.771 613.311 893.721 612.488 893.674 611.488 C 893.621 610.488 893.557 609.425 893.484 608.298 C 893.411 607.171 893.337 606.031 893.264 604.878 C 893.191 603.731 893.127 602.685 893.074 601.738 C 893.021 601.385 893.107 601.085 893.334 600.838 C 893.561 600.585 893.851 600.458 894.204 600.458 C 894.551 600.405 894.847 600.491 895.094 600.718 C 895.347 600.945 895.474 601.235 895.474 601.588 C 895.521 602.281 895.594 603.355 895.694 604.808 C 895.747 604.708 895.797 604.621 895.844 604.548 C 895.897 604.475 895.951 604.385 896.004 604.278 C 896.851 602.731 897.801 601.785 898.854 601.438 C 899.901 601.085 900.847 600.958 901.694 601.058 C 902.501 601.158 902.851 601.608 902.744 602.408 C 902.644 603.208 902.197 603.558 901.404 603.458 C 900.404 603.405 899.601 603.678 898.994 604.278 C 898.447 604.831 898.001 605.521 897.654 606.348 C 897.301 607.168 897.024 608.055 896.824 609.008 C 896.624 609.955 896.487 610.878 896.414 611.778 C 896.334 612.678 896.271 613.431 896.224 614.038 C 896.271 614.431 896.294 614.741 896.294 614.968 C 896.294 615.195 896.294 615.358 896.294 615.458 C 896.247 615.805 896.137 616.055 895.964 616.208 C 895.784 616.355 895.597 616.478 895.404 616.578 Z" transform="matrix(1, 0, 0, 1, 0, 0)" style="fill: rgb(173, 216, 230); text-transform: lowercase; white-space: pre;"/>
</svg>