<?xml version="1.0" encoding="utf-8"?>
<svg viewBox="-100 200 700 300" width="700" height="300" xmlns="http://www.w3.org/2000/svg">
  <path d="M 139.838 405.482 C 139.538 405.482 139.288 405.432 139.088 405.332 C 137.788 405.032 136.865 404.209 136.318 402.862 C 135.765 401.509 135.388 400.032 135.188 398.432 C 134.988 397.032 134.838 395.359 134.738 393.412 C 134.638 391.459 134.588 389.182 134.588 386.582 C 134.488 381.782 134.515 376.432 134.668 370.532 C 134.815 364.632 134.988 358.432 135.188 351.932 C 135.388 345.732 135.561 339.609 135.708 333.562 C 135.861 327.509 135.888 321.982 135.788 316.982 C 135.788 314.282 135.738 311.905 135.638 309.852 C 135.538 307.805 135.388 305.982 135.188 304.382 C 135.088 303.582 135.011 302.905 134.958 302.352 C 134.911 301.805 134.838 301.282 134.738 300.782 C 134.238 301.682 133.611 303.109 132.858 305.062 C 132.111 307.009 131.188 309.782 130.088 313.382 C 128.988 316.982 127.888 321.159 126.788 325.912 C 125.688 330.659 124.488 335.982 123.188 341.882 C 122.088 346.882 121.088 351.782 120.188 356.582 C 119.288 361.382 118.515 365.632 117.868 369.332 C 117.215 373.032 116.661 376.032 116.208 378.332 C 115.761 380.632 115.538 381.782 115.538 381.782 C 115.438 382.582 115.115 383.209 114.568 383.662 C 114.015 384.109 113.338 384.232 112.538 384.032 C 111.738 383.932 111.111 383.632 110.658 383.132 C 110.211 382.632 110.038 381.982 110.138 381.182 C 110.138 381.182 110.211 380.182 110.358 378.182 C 110.511 376.182 110.665 373.582 110.818 370.382 C 110.965 367.182 111.111 363.532 111.258 359.432 C 111.411 355.332 111.538 351.082 111.638 346.682 C 111.838 341.582 111.861 336.959 111.708 332.812 C 111.561 328.659 111.388 324.982 111.188 321.782 C 110.888 317.982 110.515 315.232 110.068 313.532 C 109.615 311.832 109.238 310.682 108.938 310.082 C 108.538 310.682 108.038 311.832 107.438 313.532 C 106.838 315.232 106.138 317.982 105.338 321.782 C 104.038 327.982 102.838 336.282 101.738 346.682 C 101.238 351.082 100.838 355.359 100.538 359.512 C 100.238 363.659 99.961 367.359 99.708 370.612 C 99.461 373.859 99.288 376.482 99.188 378.482 C 99.088 380.482 99.038 381.482 99.038 381.482 C 98.938 382.282 98.638 382.932 98.138 383.432 C 97.638 383.932 96.988 384.182 96.188 384.182 C 95.388 384.082 94.738 383.755 94.238 383.202 C 93.738 382.655 93.488 381.982 93.488 381.182 C 93.488 381.182 93.538 380.209 93.638 378.262 C 93.738 376.309 93.911 373.705 94.158 370.452 C 94.411 367.205 94.688 363.532 94.988 359.432 C 95.288 355.332 95.688 351.082 96.188 346.682 C 97.288 336.182 98.488 327.732 99.788 321.332 C 100.388 318.432 100.965 316.032 101.518 314.132 C 102.065 312.232 102.588 310.682 103.088 309.482 C 103.588 308.282 104.088 307.359 104.588 306.712 C 105.088 306.059 105.538 305.582 105.938 305.282 C 106.638 304.682 107.288 304.332 107.888 304.232 C 108.488 304.132 109.038 304.082 109.538 304.082 C 111.738 304.382 113.438 306.182 114.638 309.482 C 115.438 311.782 116.038 314.832 116.438 318.632 C 116.738 321.732 116.965 325.355 117.118 329.502 C 117.265 333.655 117.288 338.332 117.188 343.532 C 117.388 342.632 117.588 341.732 117.788 340.832 C 117.988 339.932 118.188 339.032 118.388 338.132 C 119.788 331.832 121.088 326.232 122.288 321.332 C 123.488 316.432 124.638 312.232 125.738 308.732 C 127.238 304.232 128.538 300.882 129.638 298.682 C 130.038 297.982 130.715 296.955 131.668 295.602 C 132.615 294.255 133.938 293.632 135.638 293.732 C 136.538 293.832 137.265 294.182 137.818 294.782 C 138.365 295.382 138.815 296.059 139.168 296.812 C 139.515 297.559 139.765 298.332 139.918 299.132 C 140.065 299.932 140.188 300.582 140.288 301.082 C 140.788 303.982 141.138 308.332 141.338 314.132 C 141.438 319.432 141.388 325.382 141.188 331.982 C 140.988 338.582 140.788 345.282 140.588 352.082 C 140.388 358.082 140.238 363.805 140.138 369.252 C 140.038 374.705 139.988 379.682 139.988 384.182 C 139.988 387.182 140.038 389.682 140.138 391.682 C 140.238 393.682 140.361 395.282 140.508 396.482 C 140.661 397.682 140.811 398.582 140.958 399.182 C 141.111 399.782 141.238 400.182 141.338 400.382 C 142.338 401.282 142.688 402.282 142.388 403.382 C 142.088 404.782 141.238 405.482 139.838 405.482 Z M 164.538 368.432 L 164.238 368.432 C 162.938 368.432 161.838 367.932 160.938 366.932 C 160.438 366.432 159.961 365.532 159.508 364.232 C 159.061 362.932 158.888 360.782 158.988 357.782 C 156.288 362.082 153.788 364.682 151.488 365.582 C 150.688 365.782 149.915 365.882 149.168 365.882 C 148.415 365.882 147.688 365.632 146.988 365.132 C 146.288 364.732 145.561 364.032 144.808 363.032 C 144.061 362.032 143.888 360.482 144.288 358.382 C 144.588 356.582 145.315 354.759 146.468 352.912 C 147.615 351.059 148.588 349.582 149.388 348.482 C 150.188 347.382 151.211 346.155 152.458 344.802 C 153.711 343.455 154.838 342.682 155.838 342.482 C 156.538 342.382 157.161 342.532 157.708 342.932 C 158.261 343.332 158.588 343.882 158.688 344.582 C 158.888 345.182 158.811 345.732 158.458 346.232 C 158.111 346.732 157.688 347.082 157.188 347.282 C 156.888 347.482 156.311 348.032 155.458 348.932 C 154.611 349.832 153.638 351.032 152.538 352.532 C 150.238 355.632 149.088 358.132 149.088 360.032 C 149.088 360.532 149.238 360.832 149.538 360.932 L 149.838 360.932 C 150.638 360.632 151.538 359.832 152.538 358.532 C 153.538 357.232 154.561 355.705 155.608 353.952 C 156.661 352.205 157.661 350.359 158.608 348.412 C 159.561 346.459 160.338 344.632 160.938 342.932 C 161.138 342.332 161.538 341.882 162.138 341.582 C 162.738 341.282 163.338 341.232 163.938 341.432 C 164.538 341.632 165.011 342.005 165.358 342.552 C 165.711 343.105 165.788 343.682 165.588 344.282 C 165.488 345.182 165.338 346.132 165.138 347.132 C 164.938 347.932 164.761 348.909 164.608 350.062 C 164.461 351.209 164.338 352.332 164.238 353.432 C 163.838 356.932 163.738 359.382 163.938 360.782 C 164.138 362.182 164.338 363.082 164.538 363.482 C 164.938 363.282 165.638 362.609 166.638 361.462 C 167.638 360.309 168.988 357.932 170.688 354.332 C 171.888 351.832 172.861 349.559 173.608 347.512 C 174.361 345.459 174.738 344.382 174.738 344.282 C 174.938 343.682 175.338 343.232 175.938 342.932 C 176.538 342.632 177.188 342.582 177.888 342.782 C 179.388 343.282 179.888 344.332 179.388 345.932 C 179.388 346.032 178.988 347.155 178.188 349.302 C 177.388 351.455 176.388 353.832 175.188 356.432 C 173.288 360.432 171.465 363.382 169.718 365.282 C 167.965 367.182 166.238 368.232 164.538 368.432 Z M 203.638 340.382 C 204.638 341.382 205.388 342.932 205.888 345.032 C 206.388 347.132 205.838 350.132 204.238 354.032 C 203.138 356.632 201.738 359.232 200.038 361.832 C 198.338 364.432 196.438 366.832 194.338 369.032 C 193.638 369.832 192.788 370.682 191.788 371.582 C 190.788 372.482 189.688 373.305 188.488 374.052 C 187.288 374.805 186.038 375.459 184.738 376.012 C 183.438 376.559 182.138 376.832 180.838 376.832 C 180.338 376.832 179.765 376.782 179.118 376.682 C 178.465 376.582 177.788 376.332 177.088 375.932 C 176.588 379.132 176.215 381.709 175.968 383.662 C 175.715 385.609 175.588 386.832 175.588 387.332 C 175.688 388.032 175.538 388.605 175.138 389.052 C 174.738 389.505 174.238 389.832 173.638 390.032 L 173.188 390.032 C 171.788 390.032 170.988 389.332 170.788 387.932 C 170.788 387.832 170.765 387.632 170.718 387.332 C 170.665 387.032 170.715 386.309 170.868 385.162 C 171.015 384.009 171.238 382.282 171.538 379.982 C 171.838 377.682 172.288 374.482 172.888 370.382 C 172.588 368.982 172.788 367.282 173.488 365.282 C 174.088 360.982 174.815 355.859 175.668 349.912 C 176.515 343.959 177.538 336.882 178.738 328.682 C 179.738 321.582 180.738 314.632 181.738 307.832 C 182.738 301.032 183.638 294.982 184.438 289.682 C 185.238 284.382 185.888 280.082 186.388 276.782 C 186.888 273.482 187.138 271.832 187.138 271.832 C 187.338 270.232 188.238 269.532 189.838 269.732 C 191.438 269.932 192.138 270.832 191.938 272.432 C 191.038 278.632 190.065 285.205 189.018 292.152 C 187.965 299.105 186.938 306.109 185.938 313.162 C 184.938 320.209 183.938 327.159 182.938 334.012 C 181.938 340.859 181.038 347.282 180.238 353.282 C 181.138 352.082 182.261 350.632 183.608 348.932 C 184.961 347.232 186.461 345.605 188.108 344.052 C 189.761 342.505 191.488 341.182 193.288 340.082 C 195.088 338.982 196.888 338.432 198.688 338.432 C 200.688 338.432 202.338 339.082 203.638 340.382 Z M 199.738 352.232 C 200.538 350.232 200.965 348.482 201.018 346.982 C 201.065 345.482 200.788 344.482 200.188 343.982 C 199.788 343.582 199.288 343.382 198.688 343.382 C 197.388 343.382 195.738 344.105 193.738 345.552 C 191.738 347.005 189.638 349.032 187.438 351.632 C 185.138 354.532 183.211 357.309 181.658 359.962 C 180.111 362.609 178.988 364.782 178.288 366.482 C 178.188 366.982 178.115 367.532 178.068 368.132 C 178.015 368.732 177.938 369.282 177.838 369.782 C 178.338 370.782 178.838 371.382 179.338 371.582 C 179.838 371.782 180.338 371.882 180.838 371.882 C 182.138 371.882 183.665 371.305 185.418 370.152 C 187.165 369.005 188.938 367.509 190.738 365.662 C 192.538 363.809 194.238 361.705 195.838 359.352 C 197.438 357.005 198.738 354.632 199.738 352.232 Z M 223.838 375.332 C 223.638 375.332 223.511 375.309 223.458 375.262 C 223.411 375.209 223.338 375.182 223.238 375.182 C 221.038 374.682 219.811 372.832 219.558 369.632 C 219.311 366.432 219.638 361.832 220.538 355.832 C 218.838 358.432 217.111 360.582 215.358 362.282 C 213.611 363.982 211.738 364.782 209.738 364.682 C 207.938 364.482 206.688 363.732 205.988 362.432 C 205.488 361.732 205.188 360.432 205.088 358.532 C 204.988 356.632 205.738 353.482 207.338 349.082 C 208.138 346.782 208.938 344.832 209.738 343.232 C 210.538 341.632 210.938 340.782 210.938 340.682 C 211.238 340.082 211.711 339.659 212.358 339.412 C 213.011 339.159 213.638 339.182 214.238 339.482 C 214.838 339.782 215.265 340.259 215.518 340.912 C 215.765 341.559 215.738 342.182 215.438 342.782 C 215.338 342.782 214.938 343.582 214.238 345.182 C 213.538 346.782 212.788 348.632 211.988 350.732 C 210.888 353.832 210.265 356.032 210.118 357.332 C 209.965 358.632 209.938 359.432 210.038 359.732 C 210.338 359.732 210.915 359.455 211.768 358.902 C 212.615 358.355 213.838 356.982 215.438 354.782 C 216.538 353.082 217.588 351.309 218.588 349.462 C 219.588 347.609 220.438 345.982 221.138 344.582 L 222.338 342.182 C 222.638 341.782 222.988 341.332 223.388 340.832 C 223.788 340.332 224.388 340.082 225.188 340.082 C 225.888 340.082 226.538 340.382 227.138 340.982 C 227.538 341.482 227.738 342.005 227.738 342.552 C 227.738 343.105 227.638 343.782 227.438 344.582 C 227.338 345.082 227.261 345.632 227.208 346.232 C 227.161 346.832 227.038 347.532 226.838 348.332 C 226.438 350.232 226.038 352.382 225.638 354.782 C 225.238 357.182 224.888 359.532 224.588 361.832 C 224.288 365.032 224.211 367.232 224.358 368.432 C 224.511 369.632 224.638 370.332 224.738 370.532 C 225.238 370.732 225.665 371.132 226.018 371.732 C 226.365 372.332 226.438 372.882 226.238 373.382 C 225.938 374.682 225.138 375.332 223.838 375.332 Z M 230.838 375.782 L 230.388 375.782 C 229.188 375.582 228.415 374.909 228.068 373.762 C 227.715 372.609 227.488 371.682 227.388 370.982 C 227.388 370.682 227.365 370.155 227.318 369.402 C 227.265 368.655 227.338 367.455 227.538 365.802 C 227.738 364.155 228.038 361.909 228.438 359.062 C 228.838 356.209 229.438 352.482 230.238 347.882 C 231.038 343.282 232.115 337.632 233.468 330.932 C 234.815 324.232 236.488 316.282 238.488 307.082 C 239.988 300.282 241.438 293.682 242.838 287.282 C 244.238 280.882 245.511 275.209 246.658 270.262 C 247.811 265.309 248.738 261.332 249.438 258.332 C 250.138 255.332 250.488 253.782 250.488 253.682 C 250.688 252.982 251.061 252.455 251.608 252.102 C 252.161 251.755 252.788 251.682 253.488 251.882 C 254.188 252.082 254.711 252.459 255.058 253.012 C 255.411 253.559 255.488 254.132 255.288 254.732 C 254.288 259.032 253.088 264.232 251.688 270.332 C 250.288 276.432 248.815 282.955 247.268 289.902 C 245.715 296.855 244.165 304.005 242.618 311.352 C 241.065 318.705 239.611 325.732 238.258 332.432 C 236.911 339.132 235.738 345.282 234.738 350.882 C 233.738 356.482 233.038 361.032 232.638 364.532 C 233.538 362.232 234.511 359.882 235.558 357.482 C 236.611 355.082 237.761 352.955 239.008 351.102 C 240.261 349.255 241.611 347.782 243.058 346.682 C 244.511 345.582 246.138 345.182 247.938 345.482 C 249.538 345.782 250.815 346.332 251.768 347.132 C 252.715 347.932 253.465 348.859 254.018 349.912 C 254.565 350.959 254.938 352.082 255.138 353.282 C 255.338 354.482 255.538 355.582 255.738 356.582 C 255.938 357.582 256.115 358.582 256.268 359.582 C 256.415 360.582 256.688 361.232 257.088 361.532 C 257.588 361.832 258.238 361.882 259.038 361.682 C 260.838 361.482 262.888 360.582 265.188 358.982 C 267.488 357.382 269.738 355.532 271.938 353.432 C 274.138 351.332 276.188 349.232 278.088 347.132 C 279.988 345.032 281.438 343.332 282.438 342.032 C 282.938 341.532 283.511 341.205 284.158 341.052 C 284.811 340.905 285.388 341.082 285.888 341.582 C 286.388 342.082 286.688 342.655 286.788 343.302 C 286.888 343.955 286.738 344.532 286.338 345.032 C 286.238 345.132 285.338 346.182 283.638 348.182 C 281.938 350.182 279.838 352.482 277.338 355.082 C 273.838 358.582 270.611 361.282 267.658 363.182 C 264.711 365.082 262.088 366.232 259.788 366.632 C 257.488 366.932 255.638 366.532 254.238 365.432 C 252.938 364.432 252.115 363.209 251.768 361.762 C 251.415 360.309 251.138 358.782 250.938 357.182 C 250.638 354.882 250.261 353.209 249.808 352.162 C 249.361 351.109 248.488 350.482 247.188 350.282 C 245.988 350.082 244.438 351.582 242.538 354.782 C 241.438 356.482 240.438 358.432 239.538 360.632 C 238.638 362.832 237.788 364.882 236.988 366.782 C 236.488 367.882 236.065 368.882 235.718 369.782 C 235.365 370.682 234.988 371.532 234.588 372.332 C 234.288 372.932 233.865 373.659 233.318 374.512 C 232.765 375.359 231.938 375.782 230.838 375.782 Z M 300.838 368.432 L 300.538 368.432 C 299.238 368.432 298.138 367.932 297.238 366.932 C 296.738 366.432 296.261 365.532 295.808 364.232 C 295.361 362.932 295.188 360.782 295.288 357.782 C 292.588 362.082 290.088 364.682 287.788 365.582 C 286.988 365.782 286.215 365.882 285.468 365.882 C 284.715 365.882 283.988 365.632 283.288 365.132 C 282.588 364.732 281.861 364.032 281.108 363.032 C 280.361 362.032 280.188 360.482 280.588 358.382 C 280.888 356.582 281.615 354.759 282.768 352.912 C 283.915 351.059 284.888 349.582 285.688 348.482 C 286.488 347.382 287.511 346.155 288.758 344.802 C 290.011 343.455 291.138 342.682 292.138 342.482 C 292.838 342.382 293.461 342.532 294.008 342.932 C 294.561 343.332 294.888 343.882 294.988 344.582 C 295.188 345.182 295.111 345.732 294.758 346.232 C 294.411 346.732 293.988 347.082 293.488 347.282 C 293.188 347.482 292.611 348.032 291.758 348.932 C 290.911 349.832 289.938 351.032 288.838 352.532 C 286.538 355.632 285.388 358.132 285.388 360.032 C 285.388 360.532 285.538 360.832 285.838 360.932 L 286.138 360.932 C 286.938 360.632 287.838 359.832 288.838 358.532 C 289.838 357.232 290.861 355.705 291.908 353.952 C 292.961 352.205 293.961 350.359 294.908 348.412 C 295.861 346.459 296.638 344.632 297.238 342.932 C 297.438 342.332 297.838 341.882 298.438 341.582 C 299.038 341.282 299.638 341.232 300.238 341.432 C 300.838 341.632 301.311 342.005 301.658 342.552 C 302.011 343.105 302.088 343.682 301.888 344.282 C 301.788 345.182 301.638 346.132 301.438 347.132 C 301.238 347.932 301.061 348.909 300.908 350.062 C 300.761 351.209 300.638 352.332 300.538 353.432 C 300.138 356.932 300.038 359.382 300.238 360.782 C 300.438 362.182 300.638 363.082 300.838 363.482 C 301.238 363.282 301.938 362.609 302.938 361.462 C 303.938 360.309 305.288 357.932 306.988 354.332 C 308.188 351.832 309.161 349.559 309.908 347.512 C 310.661 345.459 311.038 344.382 311.038 344.282 C 311.238 343.682 311.638 343.232 312.238 342.932 C 312.838 342.632 313.488 342.582 314.188 342.782 C 315.688 343.282 316.188 344.332 315.688 345.932 C 315.688 346.032 315.288 347.155 314.488 349.302 C 313.688 351.455 312.688 353.832 311.488 356.432 C 309.588 360.432 307.765 363.382 306.018 365.282 C 304.265 367.182 302.538 368.232 300.838 368.432 Z M 321.038 448.232 L 320.138 448.232 C 317.138 448.232 315.088 446.682 313.988 443.582 C 312.488 439.282 312.988 432.332 315.488 422.732 C 316.588 418.332 318.061 413.632 319.908 408.632 C 321.761 403.632 323.888 398.582 326.288 393.482 C 329.188 387.082 332.238 381.182 335.438 375.782 C 335.638 370.282 335.788 365.332 335.888 360.932 C 335.988 356.532 335.938 352.932 335.738 350.132 C 335.538 350.632 335.288 351.132 334.988 351.632 C 334.688 352.132 334.438 352.632 334.238 353.132 C 331.438 359.132 328.765 364.132 326.218 368.132 C 323.665 372.132 320.938 374.182 318.038 374.282 C 316.338 374.282 315.038 373.632 314.138 372.332 C 313.838 371.932 313.538 371.359 313.238 370.612 C 312.938 369.859 312.765 368.832 312.718 367.532 C 312.665 366.232 312.738 364.532 312.938 362.432 C 313.138 360.332 313.588 357.732 314.288 354.632 C 314.988 351.432 315.711 348.632 316.458 346.232 C 317.211 343.832 317.588 342.532 317.588 342.332 C 317.788 341.732 318.188 341.282 318.788 340.982 C 319.388 340.682 320.038 340.632 320.738 340.832 C 321.338 341.032 321.788 341.432 322.088 342.032 C 322.388 342.632 322.438 343.232 322.238 343.832 C 322.238 343.932 321.861 345.209 321.108 347.662 C 320.361 350.109 319.638 352.932 318.938 356.132 C 317.838 361.132 317.365 364.532 317.518 366.332 C 317.665 368.132 317.838 369.132 318.038 369.332 C 318.238 369.332 318.761 369.032 319.608 368.432 C 320.461 367.832 321.688 366.282 323.288 363.782 C 324.388 361.882 325.511 359.809 326.658 357.562 C 327.811 355.309 328.888 353.132 329.888 351.032 C 331.688 347.232 333.015 344.609 333.868 343.162 C 334.715 341.709 335.688 340.882 336.788 340.682 C 337.688 340.482 338.538 340.782 339.338 341.582 C 339.438 341.782 339.588 342.032 339.788 342.332 C 339.988 342.632 340.165 343.259 340.318 344.212 C 340.465 345.159 340.588 346.509 340.688 348.262 C 340.788 350.009 340.838 352.382 340.838 355.382 C 340.838 357.182 340.811 359.082 340.758 361.082 C 340.711 363.082 340.688 365.132 340.688 367.232 C 341.088 366.632 341.465 366.032 341.818 365.432 C 342.165 364.832 342.588 364.282 343.088 363.782 C 349.988 353.882 356.638 346.832 363.038 342.632 C 364.438 341.732 365.588 341.982 366.488 343.382 C 366.888 343.882 367.011 344.482 366.858 345.182 C 366.711 345.882 366.338 346.382 365.738 346.682 C 361.638 349.382 357.415 353.332 353.068 358.532 C 348.715 363.732 344.438 369.932 340.238 377.132 C 340.238 377.932 340.211 378.705 340.158 379.452 C 340.111 380.205 340.038 380.982 339.938 381.782 C 339.738 385.482 339.411 389.805 338.958 394.752 C 338.511 399.705 337.938 404.755 337.238 409.902 C 336.538 415.055 335.688 420.082 334.688 424.982 C 333.688 429.882 332.438 434.132 330.938 437.732 C 328.138 444.332 324.838 447.832 321.038 448.232 Z M 334.688 387.632 L 334.688 387.182 C 333.988 388.582 333.311 389.955 332.658 391.302 C 332.011 392.655 331.338 394.032 330.638 395.432 C 328.338 400.532 326.288 405.509 324.488 410.362 C 322.688 415.209 321.261 419.709 320.208 423.862 C 319.161 428.009 318.488 431.659 318.188 434.812 C 317.888 437.959 318.038 440.332 318.638 441.932 C 318.838 442.732 319.088 443.182 319.388 443.282 C 319.688 443.382 320.038 443.432 320.438 443.432 C 321.238 443.332 321.938 442.959 322.538 442.312 C 323.138 441.659 323.688 440.982 324.188 440.282 C 326.588 436.482 328.688 430.082 330.488 421.082 C 332.288 412.082 333.688 400.932 334.688 387.632 Z" style="fill: rgb(255, 192, 203); white-space: pre;" transform="matrix(1, 0, 0, 1, 0, 0)"/>
  <path d="M 396.03 358.343 C 395.93 356.043 397.03 355.293 399.33 356.093 C 400.63 356.693 401.38 357.543 401.58 358.643 C 401.78 360.643 401.93 362.143 402.03 363.143 C 402.23 365.243 401.28 366.043 399.18 365.543 C 397.48 365.043 396.53 364.043 396.33 362.543 C 396.23 362.043 396.13 360.643 396.03 358.343 Z M 401.13 301.043 C 401.03 302.043 400.953 303.016 400.9 303.963 C 400.853 304.916 400.78 305.893 400.68 306.893 C 400.38 309.493 400.23 312.12 400.23 314.773 C 400.23 317.42 400.18 320.093 400.08 322.793 C 399.98 323.993 399.88 325.193 399.78 326.393 C 399.68 327.593 399.63 328.793 399.63 329.993 C 399.53 333.693 399.53 336.993 399.63 339.893 C 399.63 341.093 399.707 342.266 399.86 343.413 C 400.007 344.566 400.13 345.693 400.23 346.793 C 400.33 347.493 400.33 348.043 400.23 348.443 C 400.03 349.643 399.33 350.193 398.13 350.093 C 396.23 349.993 395.03 349.193 394.53 347.693 C 394.23 346.893 394.08 346.043 394.08 345.143 C 393.88 343.343 393.73 341.57 393.63 339.823 C 393.53 338.07 393.48 336.293 393.48 334.493 C 393.48 332.593 393.453 330.666 393.4 328.713 C 393.353 326.766 393.38 324.793 393.48 322.793 C 393.58 316.393 393.83 310.543 394.23 305.243 C 394.33 302.043 394.503 298.82 394.75 295.573 C 395.003 292.32 395.28 289.043 395.58 285.743 C 395.58 285.143 395.58 284.52 395.58 283.873 C 395.58 283.22 395.58 282.543 395.58 281.843 C 395.68 280.243 396.53 279.693 398.13 280.193 C 400.63 281.093 401.93 282.643 402.03 284.843 C 402.13 286.543 402.13 287.843 402.03 288.743 C 401.93 290.743 401.803 292.793 401.65 294.893 C 401.503 296.993 401.38 299.043 401.28 301.043 C 401.28 301.043 401.253 301.043 401.2 301.043 C 401.153 301.043 401.13 301.043 401.13 301.043 Z" transform="matrix(1, 0, 0, 1, 0, 0)" style="fill: rgb(255, 192, 203); white-space: pre;"/>
</svg>