<?xml version="1.0" encoding="utf-8"?>
<svg viewBox="64.14099884033203 19.077999114990234 382.75 165.98399353027344" width="382.75" height="165.98399353027344" xmlns="http://www.w3.org/2000/svg">
  <path d="M 84.998 134.379 L 84.698 134.379 C 83.398 134.379 82.298 133.879 81.398 132.879 C 80.898 132.379 80.421 131.479 79.968 130.179 C 79.521 128.879 79.348 126.729 79.448 123.729 C 76.748 128.029 74.248 130.629 71.948 131.529 C 71.148 131.729 70.375 131.829 69.628 131.829 C 68.875 131.829 68.148 131.579 67.448 131.079 C 66.748 130.679 66.021 129.979 65.268 128.979 C 64.521 127.979 64.348 126.429 64.748 124.329 C 65.048 122.529 65.775 120.706 66.928 118.859 C 68.075 117.006 69.048 115.529 69.848 114.429 C 70.648 113.329 71.671 112.102 72.918 110.749 C 74.171 109.402 75.298 108.629 76.298 108.429 C 76.998 108.329 77.621 108.479 78.168 108.879 C 78.721 109.279 79.048 109.829 79.148 110.529 C 79.348 111.129 79.271 111.679 78.918 112.179 C 78.571 112.679 78.148 113.029 77.648 113.229 C 77.348 113.429 76.771 113.979 75.918 114.879 C 75.071 115.779 74.098 116.979 72.998 118.479 C 70.698 121.579 69.548 124.079 69.548 125.979 C 69.548 126.479 69.698 126.779 69.998 126.879 L 70.298 126.879 C 71.098 126.579 71.998 125.779 72.998 124.479 C 73.998 123.179 75.021 121.652 76.068 119.899 C 77.121 118.152 78.121 116.306 79.068 114.359 C 80.021 112.406 80.798 110.579 81.398 108.879 C 81.598 108.279 81.998 107.829 82.598 107.529 C 83.198 107.229 83.798 107.179 84.398 107.379 C 84.998 107.579 85.471 107.952 85.818 108.499 C 86.171 109.052 86.248 109.629 86.048 110.229 C 85.948 111.129 85.798 112.079 85.598 113.079 C 85.398 113.879 85.221 114.856 85.068 116.009 C 84.921 117.156 84.798 118.279 84.698 119.379 C 84.298 122.879 84.198 125.329 84.398 126.729 C 84.598 128.129 84.798 129.029 84.998 129.429 C 85.398 129.229 86.098 128.556 87.098 127.409 C 88.098 126.256 89.448 123.879 91.148 120.279 C 92.348 117.779 93.321 115.506 94.068 113.459 C 94.821 111.406 95.198 110.329 95.198 110.229 C 95.398 109.629 95.798 109.179 96.398 108.879 C 96.998 108.579 97.648 108.529 98.348 108.729 C 99.848 109.229 100.348 110.279 99.848 111.879 C 99.848 111.979 99.448 113.102 98.648 115.249 C 97.848 117.402 96.848 119.779 95.648 122.379 C 93.748 126.379 91.925 129.329 90.178 131.229 C 88.425 133.129 86.698 134.179 84.998 134.379 ZM 104.398 154.329 C 103.398 154.329 102.498 153.929 101.698 153.129 C 101.398 152.729 101.124 152.229 100.878 151.629 C 100.624 151.029 100.398 150.129 100.198 148.929 C 99.998 147.729 99.874 146.179 99.828 144.279 C 99.774 142.379 99.848 139.979 100.048 137.079 C 100.248 133.779 100.548 129.979 100.948 125.679 C 101.348 121.379 101.898 116.579 102.598 111.279 C 103.198 106.779 103.798 102.406 104.398 98.159 C 104.998 93.906 105.548 90.129 106.048 86.829 C 106.548 83.529 106.948 80.852 107.248 78.799 C 107.548 76.752 107.698 75.679 107.698 75.579 C 107.798 74.879 108.121 74.329 108.668 73.929 C 109.221 73.529 109.848 73.429 110.548 73.629 C 111.248 73.729 111.798 74.056 112.198 74.609 C 112.598 75.156 112.698 75.779 112.498 76.479 C 112.498 76.479 112.348 77.479 112.048 79.479 C 111.748 81.479 111.348 84.079 110.848 87.279 C 110.348 90.479 109.798 94.179 109.198 98.379 C 108.598 102.579 108.048 106.879 107.548 111.279 C 106.648 117.979 105.998 123.579 105.598 128.079 C 105.198 132.579 104.948 136.279 104.848 139.179 C 104.748 142.079 104.748 144.279 104.848 145.779 C 104.948 147.279 105.048 148.329 105.148 148.929 C 105.548 148.629 106.048 148.129 106.648 147.429 C 107.248 146.729 107.948 145.679 108.748 144.279 C 109.848 142.579 110.948 140.602 112.048 138.349 C 113.148 136.102 114.248 133.829 115.348 131.529 C 117.648 127.029 119.848 122.856 121.948 119.009 C 124.048 115.156 126.148 112.479 128.248 110.979 C 128.748 110.579 129.324 110.456 129.978 110.609 C 130.624 110.756 131.148 111.079 131.548 111.579 C 131.948 112.179 132.098 112.806 131.998 113.459 C 131.898 114.106 131.548 114.629 130.948 115.029 C 130.148 115.629 129.298 116.552 128.398 117.799 C 127.498 119.052 126.571 120.552 125.618 122.299 C 124.671 124.052 123.698 125.906 122.698 127.859 C 121.698 129.806 120.748 131.729 119.848 133.629 C 116.548 140.329 113.771 145.452 111.518 148.999 C 109.271 152.552 106.898 154.329 104.398 154.329 ZM 136.098 154.329 C 135.098 154.329 134.198 153.929 133.398 153.129 C 133.098 152.729 132.824 152.229 132.578 151.629 C 132.324 151.029 132.098 150.129 131.898 148.929 C 131.698 147.729 131.574 146.179 131.528 144.279 C 131.474 142.379 131.548 139.979 131.748 137.079 C 131.948 133.779 132.248 129.979 132.648 125.679 C 133.048 121.379 133.598 116.579 134.298 111.279 C 134.898 106.779 135.498 102.406 136.098 98.159 C 136.698 93.906 137.248 90.129 137.748 86.829 C 138.248 83.529 138.648 80.852 138.948 78.799 C 139.248 76.752 139.398 75.679 139.398 75.579 C 139.498 74.879 139.821 74.329 140.368 73.929 C 140.921 73.529 141.548 73.429 142.248 73.629 C 142.948 73.729 143.498 74.056 143.898 74.609 C 144.298 75.156 144.398 75.779 144.198 76.479 C 144.198 76.479 144.048 77.479 143.748 79.479 C 143.448 81.479 143.048 84.079 142.548 87.279 C 142.048 90.479 141.498 94.179 140.898 98.379 C 140.298 102.579 139.748 106.879 139.248 111.279 C 138.348 117.979 137.698 123.579 137.298 128.079 C 136.898 132.579 136.648 136.279 136.548 139.179 C 136.448 142.079 136.448 144.279 136.548 145.779 C 136.648 147.279 136.748 148.329 136.848 148.929 C 137.248 148.629 137.748 148.129 138.348 147.429 C 138.948 146.729 139.648 145.679 140.448 144.279 C 141.548 142.579 142.648 140.602 143.748 138.349 C 144.848 136.102 145.948 133.829 147.048 131.529 C 149.348 127.029 151.548 122.856 153.648 119.009 C 155.748 115.156 157.848 112.479 159.948 110.979 C 160.448 110.579 161.024 110.456 161.678 110.609 C 162.324 110.756 162.848 111.079 163.248 111.579 C 163.648 112.179 163.798 112.806 163.698 113.459 C 163.598 114.106 163.248 114.629 162.648 115.029 C 161.848 115.629 160.998 116.552 160.098 117.799 C 159.198 119.052 158.271 120.552 157.318 122.299 C 156.371 124.052 155.398 125.906 154.398 127.859 C 153.398 129.806 152.448 131.729 151.548 133.629 C 148.248 140.329 145.471 145.452 143.218 148.999 C 140.971 152.552 138.598 154.329 136.098 154.329 ZM 216.747 134.379 L 216.447 134.379 C 215.147 134.379 214.047 133.879 213.147 132.879 C 212.647 132.379 212.17 131.479 211.717 130.179 C 211.27 128.879 211.097 126.729 211.197 123.729 C 208.497 128.029 205.997 130.629 203.697 131.529 C 202.897 131.729 202.124 131.829 201.377 131.829 C 200.624 131.829 199.897 131.579 199.197 131.079 C 198.497 130.679 197.77 129.979 197.017 128.979 C 196.27 127.979 196.097 126.429 196.497 124.329 C 196.797 122.529 197.524 120.706 198.677 118.859 C 199.824 117.006 200.797 115.529 201.597 114.429 C 202.397 113.329 203.42 112.102 204.667 110.749 C 205.92 109.402 207.047 108.629 208.047 108.429 C 208.747 108.329 209.37 108.479 209.917 108.879 C 210.47 109.279 210.797 109.829 210.897 110.529 C 211.097 111.129 211.02 111.679 210.667 112.179 C 210.32 112.679 209.897 113.029 209.397 113.229 C 209.097 113.429 208.52 113.979 207.667 114.879 C 206.82 115.779 205.847 116.979 204.747 118.479 C 202.447 121.579 201.297 124.079 201.297 125.979 C 201.297 126.479 201.447 126.779 201.747 126.879 L 202.047 126.879 C 202.847 126.579 203.747 125.779 204.747 124.479 C 205.747 123.179 206.77 121.652 207.817 119.899 C 208.87 118.152 209.87 116.306 210.817 114.359 C 211.77 112.406 212.547 110.579 213.147 108.879 C 213.347 108.279 213.747 107.829 214.347 107.529 C 214.947 107.229 215.547 107.179 216.147 107.379 C 216.747 107.579 217.22 107.952 217.567 108.499 C 217.92 109.052 217.997 109.629 217.797 110.229 C 217.697 111.129 217.547 112.079 217.347 113.079 C 217.147 113.879 216.97 114.856 216.817 116.009 C 216.67 117.156 216.547 118.279 216.447 119.379 C 216.047 122.879 215.947 125.329 216.147 126.729 C 216.347 128.129 216.547 129.029 216.747 129.429 C 217.147 129.229 217.847 128.556 218.847 127.409 C 219.847 126.256 221.197 123.879 222.897 120.279 C 224.097 117.779 225.07 115.506 225.817 113.459 C 226.57 111.406 226.947 110.329 226.947 110.229 C 227.147 109.629 227.547 109.179 228.147 108.879 C 228.747 108.579 229.397 108.529 230.097 108.729 C 231.597 109.229 232.097 110.279 231.597 111.879 C 231.597 111.979 231.197 113.102 230.397 115.249 C 229.597 117.402 228.597 119.779 227.397 122.379 C 225.497 126.379 223.674 129.329 221.927 131.229 C 220.174 133.129 218.447 134.179 216.747 134.379 ZM 259.847 106.329 C 260.847 107.329 261.597 108.879 262.097 110.979 C 262.597 113.079 262.047 116.079 260.447 119.979 C 259.347 122.579 257.947 125.179 256.247 127.779 C 254.547 130.379 252.647 132.779 250.547 134.979 C 249.847 135.779 248.997 136.629 247.997 137.529 C 246.997 138.429 245.897 139.252 244.697 139.999 C 243.497 140.752 242.247 141.406 240.947 141.959 C 239.647 142.506 238.347 142.779 237.047 142.779 C 236.547 142.779 235.973 142.729 235.327 142.629 C 234.673 142.529 233.997 142.279 233.297 141.879 C 232.797 145.079 232.423 147.656 232.177 149.609 C 231.923 151.556 231.797 152.779 231.797 153.279 C 231.897 153.979 231.747 154.552 231.347 154.999 C 230.947 155.452 230.447 155.779 229.847 155.979 L 229.397 155.979 C 227.997 155.979 227.197 155.279 226.997 153.879 C 226.997 153.779 226.973 153.579 226.927 153.279 C 226.874 152.979 226.923 152.256 227.077 151.109 C 227.223 149.956 227.447 148.229 227.747 145.929 C 228.047 143.629 228.497 140.429 229.097 136.329 C 228.797 134.929 228.997 133.229 229.697 131.229 C 230.297 126.929 231.023 121.806 231.877 115.859 C 232.723 109.906 233.747 102.829 234.947 94.629 C 235.947 87.529 236.947 80.579 237.947 73.779 C 238.947 66.979 239.847 60.929 240.647 55.629 C 241.447 50.329 242.097 46.029 242.597 42.729 C 243.097 39.429 243.347 37.779 243.347 37.779 C 243.547 36.179 244.447 35.479 246.047 35.679 C 247.647 35.879 248.347 36.779 248.147 38.379 C 247.247 44.579 246.273 51.152 245.227 58.099 C 244.173 65.052 243.147 72.056 242.147 79.109 C 241.147 86.156 240.147 93.106 239.147 99.959 C 238.147 106.806 237.247 113.229 236.447 119.229 C 237.347 118.029 238.47 116.579 239.817 114.879 C 241.17 113.179 242.67 111.552 244.317 109.999 C 245.97 108.452 247.697 107.129 249.497 106.029 C 251.297 104.929 253.097 104.379 254.897 104.379 C 256.897 104.379 258.547 105.029 259.847 106.329 Z M 255.947 118.179 C 256.747 116.179 257.173 114.429 257.227 112.929 C 257.273 111.429 256.997 110.429 256.397 109.929 C 255.997 109.529 255.497 109.329 254.897 109.329 C 253.597 109.329 251.947 110.052 249.947 111.499 C 247.947 112.952 245.847 114.979 243.647 117.579 C 241.347 120.479 239.42 123.256 237.867 125.909 C 236.32 128.556 235.197 130.729 234.497 132.429 C 234.397 132.929 234.324 133.479 234.277 134.079 C 234.223 134.679 234.147 135.229 234.047 135.729 C 234.547 136.729 235.047 137.329 235.547 137.529 C 236.047 137.729 236.547 137.829 237.047 137.829 C 238.347 137.829 239.874 137.252 241.627 136.099 C 243.374 134.952 245.147 133.456 246.947 131.609 C 248.747 129.756 250.447 127.652 252.047 125.299 C 253.647 122.952 254.947 120.579 255.947 118.179 ZM 274.747 128.829 C 274.347 128.829 273.747 128.729 272.947 128.529 C 271.547 128.229 270.473 127.706 269.727 126.959 C 268.973 126.206 268.497 125.429 268.297 124.629 C 267.897 123.629 267.747 122.529 267.847 121.329 C 267.947 120.129 268.173 118.929 268.527 117.729 C 268.873 116.529 269.347 115.356 269.947 114.209 C 270.547 113.056 271.097 112.029 271.597 111.129 C 271.697 110.929 271.797 110.706 271.897 110.459 C 271.997 110.206 272.097 109.979 272.197 109.779 C 272.997 108.179 274.047 106.979 275.347 106.179 C 276.647 105.379 277.997 105.079 279.397 105.279 C 281.597 105.579 283.147 106.979 284.047 109.479 C 284.247 110.279 284.42 111.106 284.567 111.959 C 284.72 112.806 284.747 113.679 284.647 114.579 C 285.547 114.179 286.52 113.779 287.567 113.379 C 288.62 112.979 289.747 112.479 290.947 111.879 C 291.547 111.479 292.17 111.406 292.817 111.659 C 293.47 111.906 293.947 112.329 294.247 112.929 C 294.547 113.529 294.597 114.152 294.397 114.799 C 294.197 115.452 293.797 115.929 293.197 116.229 C 291.397 117.029 289.72 117.752 288.167 118.399 C 286.62 119.052 285.147 119.579 283.747 119.979 C 283.147 122.379 282.097 124.379 280.597 125.979 C 278.897 127.879 276.947 128.829 274.747 128.829 Z M 273.247 119.079 C 273.047 119.879 272.873 120.606 272.727 121.259 C 272.573 121.906 272.597 122.479 272.797 122.979 C 272.897 123.079 273.023 123.206 273.177 123.359 C 273.323 123.506 273.647 123.629 274.147 123.729 C 274.447 123.929 274.847 123.979 275.347 123.879 C 275.847 123.779 276.397 123.379 276.997 122.679 C 277.197 122.379 277.42 122.079 277.667 121.779 C 277.92 121.479 278.147 121.129 278.347 120.729 C 276.347 120.729 274.647 120.179 273.247 119.079 Z M 276.097 113.229 C 275.897 114.329 275.997 114.979 276.397 115.179 C 276.797 115.679 277.897 115.879 279.697 115.779 C 279.797 114.879 279.82 114.029 279.767 113.229 C 279.72 112.429 279.597 111.729 279.397 111.129 C 279.197 110.629 278.947 110.279 278.647 110.079 C 278.447 110.079 278.197 110.229 277.897 110.529 C 277.697 110.729 277.547 110.929 277.447 111.129 C 277.247 111.429 277.02 111.756 276.767 112.109 C 276.52 112.456 276.297 112.829 276.097 113.229 ZM 312.896 141.279 C 312.696 141.279 312.57 141.256 312.516 141.209 C 312.47 141.156 312.396 141.129 312.296 141.129 C 310.096 140.629 308.87 138.779 308.616 135.579 C 308.37 132.379 308.696 127.779 309.596 121.779 C 307.896 124.379 306.17 126.529 304.416 128.229 C 302.67 129.929 300.796 130.729 298.796 130.629 C 296.996 130.429 295.746 129.679 295.046 128.379 C 294.546 127.679 294.246 126.379 294.146 124.479 C 294.046 122.579 294.796 119.429 296.396 115.029 C 297.196 112.729 297.996 110.779 298.796 109.179 C 299.596 107.579 299.996 106.729 299.996 106.629 C 300.296 106.029 300.77 105.606 301.416 105.359 C 302.07 105.106 302.696 105.129 303.296 105.429 C 303.896 105.729 304.323 106.206 304.576 106.859 C 304.823 107.506 304.796 108.129 304.496 108.729 C 304.396 108.729 303.996 109.529 303.296 111.129 C 302.596 112.729 301.846 114.579 301.046 116.679 C 299.946 119.779 299.323 121.979 299.176 123.279 C 299.023 124.579 298.996 125.379 299.096 125.679 C 299.396 125.679 299.973 125.402 300.826 124.849 C 301.673 124.302 302.896 122.929 304.496 120.729 C 305.596 119.029 306.646 117.256 307.646 115.409 C 308.646 113.556 309.496 111.929 310.196 110.529 L 311.396 108.129 C 311.696 107.729 312.046 107.279 312.446 106.779 C 312.846 106.279 313.446 106.029 314.246 106.029 C 314.946 106.029 315.596 106.329 316.196 106.929 C 316.596 107.429 316.796 107.952 316.796 108.499 C 316.796 109.052 316.696 109.729 316.496 110.529 C 316.396 111.029 316.32 111.579 316.266 112.179 C 316.22 112.779 316.096 113.479 315.896 114.279 C 315.496 116.179 315.096 118.329 314.696 120.729 C 314.296 123.129 313.946 125.479 313.646 127.779 C 313.346 130.979 313.27 133.179 313.416 134.379 C 313.57 135.579 313.696 136.279 313.796 136.479 C 314.296 136.679 314.723 137.079 315.076 137.679 C 315.423 138.279 315.496 138.829 315.296 139.329 C 314.996 140.629 314.196 141.279 312.896 141.279 ZM 363.946 81.579 C 365.446 81.579 366.296 82.379 366.496 83.979 C 366.496 84.679 366.27 85.279 365.816 85.779 C 365.37 86.279 364.796 86.529 364.096 86.529 C 358.096 86.729 352.323 87.079 346.776 87.579 C 341.223 88.079 335.946 88.679 330.946 89.379 C 330.446 95.879 329.92 102.579 329.366 109.479 C 328.82 116.379 328.32 123.079 327.866 129.579 C 327.42 136.079 327.02 142.302 326.666 148.249 C 326.32 154.202 326.023 159.529 325.776 164.229 C 325.523 168.929 325.396 172.829 325.396 175.929 C 325.396 179.029 325.496 181.079 325.696 182.079 C 325.896 182.779 325.796 183.402 325.396 183.949 C 324.996 184.502 324.446 184.879 323.746 185.079 L 323.296 185.079 C 321.996 185.079 321.196 184.429 320.896 183.129 C 320.596 181.929 320.47 179.502 320.516 175.849 C 320.57 172.202 320.723 167.779 320.976 162.579 C 321.223 157.379 321.523 151.652 321.876 145.399 C 322.223 139.152 322.646 132.779 323.146 126.279 C 323.646 119.779 324.146 113.406 324.646 107.159 C 325.146 100.906 325.596 95.229 325.996 90.129 C 320.796 90.929 316.096 91.729 311.896 92.529 C 307.696 93.329 304.096 94.052 301.096 94.699 C 298.096 95.352 295.746 95.906 294.046 96.359 C 292.346 96.806 291.496 97.029 291.496 97.029 C 291.396 97.129 291.196 97.179 290.896 97.179 C 289.596 97.179 288.796 96.579 288.496 95.379 C 287.996 93.779 288.546 92.779 290.146 92.379 C 290.246 92.379 291.173 92.129 292.926 91.629 C 294.673 91.129 297.12 90.556 300.266 89.909 C 303.42 89.256 307.223 88.506 311.676 87.659 C 316.123 86.806 321.046 85.979 326.446 85.179 C 326.746 81.479 326.996 78.352 327.196 75.799 C 327.396 73.252 327.596 71.429 327.796 70.329 C 327.796 69.629 328.046 69.056 328.546 68.609 C 329.046 68.156 329.646 67.979 330.346 68.079 C 331.046 68.179 331.62 68.479 332.066 68.979 C 332.52 69.479 332.696 70.079 332.596 70.779 C 332.396 72.979 332.196 75.202 331.996 77.449 C 331.796 79.702 331.596 82.029 331.396 84.429 C 336.296 83.729 341.47 83.129 346.916 82.629 C 352.37 82.129 358.046 81.779 363.946 81.579 ZM 374.996 145.479 L 374.696 145.479 C 374.196 145.379 373.673 145.129 373.126 144.729 C 372.573 144.329 372.196 143.479 371.996 142.179 C 371.696 140.679 371.669 138.502 371.916 135.649 C 372.169 132.802 372.522 129.702 372.976 126.349 C 373.423 123.002 373.996 119.529 374.696 115.929 C 375.396 112.329 376.046 108.979 376.646 105.879 C 377.246 102.779 377.796 100.129 378.296 97.929 C 378.796 95.729 379.096 94.279 379.196 93.579 C 379.396 92.879 379.769 92.356 380.316 92.009 C 380.869 91.656 381.496 91.579 382.196 91.779 C 383.696 92.079 384.296 93.029 383.996 94.629 C 383.496 96.729 382.919 99.379 382.266 102.579 C 381.619 105.779 380.946 109.206 380.246 112.859 C 379.546 116.506 378.896 120.179 378.296 123.879 C 377.696 127.579 377.246 130.879 376.946 133.779 C 377.246 132.979 377.573 132.179 377.926 131.379 C 378.272 130.579 378.546 129.779 378.746 128.979 C 379.746 126.379 380.772 123.729 381.826 121.029 C 382.872 118.329 383.946 115.879 385.046 113.679 C 386.146 111.279 387.369 109.206 388.716 107.459 C 390.069 105.706 391.646 105.079 393.446 105.579 C 394.446 105.779 395.372 106.379 396.226 107.379 C 397.073 108.379 397.396 110.129 397.196 112.629 C 397.096 113.929 396.896 115.306 396.596 116.759 C 396.296 118.206 395.996 119.679 395.696 121.179 C 395.396 122.279 395.096 123.456 394.796 124.709 C 394.496 125.956 394.346 126.979 394.346 127.779 C 394.546 127.679 395.146 127.229 396.146 126.429 C 397.546 125.229 398.946 123.829 400.346 122.229 C 401.946 120.529 403.346 119.129 404.546 118.029 C 405.046 117.529 405.796 117.006 406.796 116.459 C 407.796 115.906 408.896 115.879 410.096 116.379 C 411.496 117.079 412.272 118.379 412.426 120.279 C 412.573 122.179 412.546 124.429 412.346 127.029 C 412.246 128.429 412.169 130.052 412.116 131.899 C 412.069 133.752 412.296 134.979 412.796 135.579 C 413.196 136.179 413.323 136.802 413.176 137.449 C 413.022 138.102 412.696 138.629 412.196 139.029 C 411.596 139.429 410.969 139.552 410.316 139.399 C 409.669 139.252 409.146 138.929 408.746 138.429 C 407.846 137.129 407.369 135.452 407.316 133.399 C 407.269 131.352 407.346 129.179 407.546 126.879 C 407.546 126.079 407.569 125.229 407.616 124.329 C 407.669 123.429 407.696 122.579 407.696 121.779 C 406.396 122.979 405.146 124.229 403.946 125.529 C 402.146 127.529 400.369 129.306 398.616 130.859 C 396.869 132.406 395.196 133.179 393.596 133.179 C 392.996 133.179 392.396 133.029 391.796 132.729 C 391.096 132.429 390.596 132.006 390.296 131.459 C 389.996 130.906 389.769 130.329 389.616 129.729 C 389.469 129.129 389.419 128.556 389.466 128.009 C 389.519 127.456 389.546 127.029 389.546 126.729 C 389.646 125.729 389.819 124.679 390.066 123.579 C 390.319 122.479 390.596 121.279 390.896 119.979 C 391.096 118.879 391.319 117.756 391.566 116.609 C 391.819 115.456 392.046 114.379 392.246 113.379 C 392.346 112.079 392.346 111.229 392.246 110.829 C 391.946 111.229 391.496 111.906 390.896 112.859 C 390.296 113.806 389.596 115.229 388.796 117.129 C 387.896 119.129 386.969 121.329 386.016 123.729 C 385.069 126.129 384.196 128.479 383.396 130.779 C 382.696 132.579 382.019 134.279 381.366 135.879 C 380.719 137.479 380.146 138.929 379.646 140.229 C 378.946 141.729 378.269 142.979 377.616 143.979 C 376.969 144.979 376.096 145.479 374.996 145.479 ZM 430.095 140.379 C 429.495 140.379 429.046 140.279 428.745 140.079 C 425.745 138.179 423.546 134.979 422.146 130.479 C 420.745 125.979 420.445 121.029 421.245 115.629 C 422.046 110.329 423.822 105.879 426.576 102.279 C 429.322 98.679 432.796 96.329 436.995 95.229 C 440.396 94.329 442.845 94.779 444.345 96.579 C 446.046 98.479 445.995 101.679 444.195 106.179 C 443.296 108.279 442.046 110.552 440.445 112.999 C 438.845 115.452 437.046 117.829 435.046 120.129 C 433.845 121.529 432.469 122.929 430.915 124.329 C 429.369 125.729 427.845 126.779 426.345 127.479 C 426.845 129.479 427.519 131.202 428.366 132.649 C 429.219 134.102 430.195 135.179 431.296 135.879 C 431.896 136.279 432.269 136.802 432.415 137.449 C 432.569 138.102 432.495 138.729 432.195 139.329 C 431.796 140.029 431.095 140.379 430.095 140.379 Z M 440.595 99.729 L 440.146 99.729 C 439.945 99.729 439.695 99.729 439.396 99.729 C 439.095 99.729 438.695 99.829 438.195 100.029 C 434.995 100.829 432.345 102.679 430.245 105.579 C 428.146 108.479 426.745 112.079 426.046 116.379 C 425.745 118.579 425.646 120.529 425.745 122.229 C 426.245 121.929 426.845 121.452 427.546 120.799 C 428.245 120.152 429.046 119.379 429.945 118.479 C 431.445 116.779 432.896 114.979 434.296 113.079 C 435.695 111.179 436.945 109.279 438.046 107.379 C 439.445 104.979 440.269 103.179 440.516 101.979 C 440.769 100.779 440.796 100.029 440.595 99.729 Z" transform="matrix(1, 0, 0, 1, 0, 0)" style="fill: rgb(173, 216, 230); white-space: pre;"/>
</svg>