<?xml version="1.0" encoding="utf-8"?>
<svg viewBox="64.14099884033203 19.077999114990234 226.43800354003906 175.43699645996094" width="226.43800354003906" height="175.43699645996094" xmlns="http://www.w3.org/2000/svg">
  <path d="M 87.098 92.829 C 89.298 94.229 90.771 96.329 91.518 99.129 C 92.271 101.929 92.148 104.929 91.148 108.129 C 90.048 111.929 88.098 115.079 85.298 117.579 C 82.098 120.479 78.348 121.929 74.048 121.929 C 73.248 121.929 72.648 121.879 72.248 121.779 C 71.648 130.679 71.071 140.856 70.518 152.309 C 69.971 163.756 69.448 176.629 68.948 190.929 C 68.948 192.529 68.148 193.329 66.548 193.329 C 65.848 193.329 65.275 193.079 64.828 192.579 C 64.375 192.079 64.148 191.479 64.148 190.779 C 64.948 169.379 65.748 151.102 66.548 135.949 C 67.348 120.802 68.198 108.679 69.098 99.579 C 69.698 93.479 70.298 89.029 70.898 86.229 C 71.098 84.829 71.371 83.829 71.718 83.229 C 72.071 82.629 72.498 82.229 72.998 82.029 C 73.798 81.529 74.648 81.529 75.548 82.029 C 76.048 82.329 76.398 82.802 76.598 83.449 C 76.798 84.102 76.698 84.729 76.298 85.329 C 76.298 85.429 76.198 85.579 75.998 85.779 C 75.898 85.979 75.798 86.379 75.698 86.979 C 75.598 87.579 75.448 88.429 75.248 89.529 C 75.048 90.629 74.848 92.102 74.648 93.949 C 74.448 95.802 74.198 98.079 73.898 100.779 C 76.898 94.779 80.148 91.779 83.648 91.779 C 84.948 91.779 86.098 92.129 87.098 92.829 Z M 86.498 106.779 C 87.098 104.579 87.225 102.606 86.878 100.859 C 86.525 99.106 85.748 97.829 84.548 97.029 C 84.348 96.829 84.048 96.729 83.648 96.729 C 82.848 96.729 81.821 97.502 80.568 99.049 C 79.321 100.602 77.848 103.379 76.148 107.379 C 75.448 109.179 74.821 110.929 74.268 112.629 C 73.721 114.329 73.298 115.779 72.998 116.979 L 74.048 116.979 C 77.548 116.979 80.298 115.879 82.298 113.679 C 84.298 111.479 85.698 109.179 86.498 106.779 ZM 105.448 128.829 C 105.048 128.829 104.448 128.729 103.648 128.529 C 102.248 128.229 101.174 127.706 100.428 126.959 C 99.674 126.206 99.198 125.429 98.998 124.629 C 98.598 123.629 98.448 122.529 98.548 121.329 C 98.648 120.129 98.874 118.929 99.228 117.729 C 99.574 116.529 100.048 115.356 100.648 114.209 C 101.248 113.056 101.798 112.029 102.298 111.129 C 102.398 110.929 102.498 110.706 102.598 110.459 C 102.698 110.206 102.798 109.979 102.898 109.779 C 103.698 108.179 104.748 106.979 106.048 106.179 C 107.348 105.379 108.698 105.079 110.098 105.279 C 112.298 105.579 113.848 106.979 114.748 109.479 C 114.948 110.279 115.121 111.106 115.268 111.959 C 115.421 112.806 115.448 113.679 115.348 114.579 C 116.248 114.179 117.221 113.779 118.268 113.379 C 119.321 112.979 120.448 112.479 121.648 111.879 C 122.248 111.479 122.871 111.406 123.518 111.659 C 124.171 111.906 124.648 112.329 124.948 112.929 C 125.248 113.529 125.298 114.152 125.098 114.799 C 124.898 115.452 124.498 115.929 123.898 116.229 C 122.098 117.029 120.421 117.752 118.868 118.399 C 117.321 119.052 115.848 119.579 114.448 119.979 C 113.848 122.379 112.798 124.379 111.298 125.979 C 109.598 127.879 107.648 128.829 105.448 128.829 Z M 103.948 119.079 C 103.748 119.879 103.574 120.606 103.428 121.259 C 103.274 121.906 103.298 122.479 103.498 122.979 C 103.598 123.079 103.724 123.206 103.878 123.359 C 104.024 123.506 104.348 123.629 104.848 123.729 C 105.148 123.929 105.548 123.979 106.048 123.879 C 106.548 123.779 107.098 123.379 107.698 122.679 C 107.898 122.379 108.121 122.079 108.368 121.779 C 108.621 121.479 108.848 121.129 109.048 120.729 C 107.048 120.729 105.348 120.179 103.948 119.079 Z M 106.798 113.229 C 106.598 114.329 106.698 114.979 107.098 115.179 C 107.498 115.679 108.598 115.879 110.398 115.779 C 110.498 114.879 110.521 114.029 110.468 113.229 C 110.421 112.429 110.298 111.729 110.098 111.129 C 109.898 110.629 109.648 110.279 109.348 110.079 C 109.148 110.079 108.898 110.229 108.598 110.529 C 108.398 110.729 108.248 110.929 108.148 111.129 C 107.948 111.429 107.721 111.756 107.468 112.109 C 107.221 112.456 106.998 112.829 106.798 113.229 ZM 131.897 137.529 L 131.147 137.529 C 130.347 137.529 129.747 137.229 129.347 136.629 C 129.047 136.229 128.847 135.829 128.747 135.429 C 128.647 135.029 128.647 134.129 128.747 132.729 L 128.747 132.279 C 128.647 130.979 128.547 129.329 128.447 127.329 C 128.347 125.329 128.224 123.206 128.077 120.959 C 127.924 118.706 127.771 116.429 127.617 114.129 C 127.471 111.829 127.347 109.729 127.247 107.829 C 127.147 107.129 127.324 106.529 127.777 106.029 C 128.224 105.529 128.797 105.279 129.497 105.279 C 130.197 105.179 130.797 105.352 131.297 105.799 C 131.797 106.252 132.047 106.829 132.047 107.529 C 132.147 108.929 132.297 111.079 132.497 113.979 C 132.597 113.779 132.697 113.606 132.797 113.459 C 132.897 113.306 132.997 113.129 133.097 112.929 C 134.797 109.829 136.697 107.929 138.797 107.229 C 140.897 106.529 142.797 106.279 144.497 106.479 C 146.097 106.679 146.797 107.579 146.597 109.179 C 146.397 110.779 145.497 111.479 143.897 111.279 C 141.897 111.179 140.297 111.729 139.097 112.929 C 137.997 114.029 137.097 115.402 136.397 117.049 C 135.697 118.702 135.147 120.479 134.747 122.379 C 134.347 124.279 134.071 126.129 133.917 127.929 C 133.771 129.729 133.647 131.229 133.547 132.429 C 133.647 133.229 133.697 133.856 133.697 134.309 C 133.697 134.756 133.697 135.079 133.697 135.279 C 133.597 135.979 133.374 136.479 133.027 136.779 C 132.674 137.079 132.297 137.329 131.897 137.529 ZM 193.747 81.579 C 195.247 81.579 196.097 82.379 196.297 83.979 C 196.297 84.679 196.07 85.279 195.617 85.779 C 195.17 86.279 194.597 86.529 193.897 86.529 C 187.897 86.729 182.124 87.079 176.577 87.579 C 171.024 88.079 165.747 88.679 160.747 89.379 C 160.247 95.879 159.72 102.579 159.167 109.479 C 158.62 116.379 158.12 123.079 157.667 129.579 C 157.22 136.079 156.82 142.302 156.467 148.249 C 156.12 154.202 155.824 159.529 155.577 164.229 C 155.324 168.929 155.197 172.829 155.197 175.929 C 155.197 179.029 155.297 181.079 155.497 182.079 C 155.697 182.779 155.597 183.402 155.197 183.949 C 154.797 184.502 154.247 184.879 153.547 185.079 L 153.097 185.079 C 151.797 185.079 150.997 184.429 150.697 183.129 C 150.397 181.929 150.27 179.502 150.317 175.849 C 150.37 172.202 150.524 167.779 150.777 162.579 C 151.024 157.379 151.324 151.652 151.677 145.399 C 152.024 139.152 152.447 132.779 152.947 126.279 C 153.447 119.779 153.947 113.406 154.447 107.159 C 154.947 100.906 155.397 95.229 155.797 90.129 C 150.597 90.929 145.897 91.729 141.697 92.529 C 137.497 93.329 133.897 94.052 130.897 94.699 C 127.897 95.352 125.547 95.906 123.847 96.359 C 122.147 96.806 121.297 97.029 121.297 97.029 C 121.197 97.129 120.997 97.179 120.697 97.179 C 119.397 97.179 118.597 96.579 118.297 95.379 C 117.797 93.779 118.347 92.779 119.947 92.379 C 120.047 92.379 120.974 92.129 122.727 91.629 C 124.474 91.129 126.92 90.556 130.067 89.909 C 133.22 89.256 137.024 88.506 141.477 87.659 C 145.924 86.806 150.847 85.979 156.247 85.179 C 156.547 81.479 156.797 78.352 156.997 75.799 C 157.197 73.252 157.397 71.429 157.597 70.329 C 157.597 69.629 157.847 69.056 158.347 68.609 C 158.847 68.156 159.447 67.979 160.147 68.079 C 160.847 68.179 161.42 68.479 161.867 68.979 C 162.32 69.479 162.497 70.079 162.397 70.779 C 162.197 72.979 161.997 75.202 161.797 77.449 C 161.597 79.702 161.397 82.029 161.197 84.429 C 166.097 83.729 171.27 83.129 176.717 82.629 C 182.17 82.129 187.847 81.779 193.747 81.579 ZM 210.297 83.829 C 210.997 83.829 211.57 84.079 212.017 84.579 C 212.47 85.079 212.697 85.679 212.697 86.379 C 212.697 86.979 212.47 87.529 212.017 88.029 C 211.57 88.529 210.997 88.779 210.297 88.779 L 210.147 88.779 C 203.247 88.579 197.147 88.579 191.847 88.779 C 186.547 88.979 181.797 89.329 177.597 89.829 C 176.497 94.629 175.374 100.306 174.227 106.859 C 173.074 113.406 171.997 120.879 170.997 129.279 C 169.997 137.679 169.147 147.079 168.447 157.479 C 167.747 167.879 167.297 179.429 167.097 192.129 C 167.097 192.829 166.847 193.402 166.347 193.849 C 165.847 194.302 165.297 194.529 164.697 194.529 L 164.547 194.529 C 163.847 194.529 163.274 194.279 162.827 193.779 C 162.374 193.279 162.147 192.679 162.147 191.979 C 162.947 150.879 166.347 117.079 172.347 90.579 C 170.147 90.879 168.147 91.202 166.347 91.549 C 164.547 91.902 162.947 92.279 161.547 92.679 C 159.347 93.279 157.52 93.856 156.067 94.409 C 154.62 94.956 153.447 95.479 152.547 95.979 C 151.447 96.479 150.597 96.979 149.997 97.479 L 146.547 94.029 C 146.747 93.829 147.747 93.129 149.547 91.929 C 151.347 90.729 154.647 89.479 159.447 88.179 C 163.447 87.079 168.197 86.129 173.697 85.329 C 175.797 76.829 178.097 69.679 180.597 63.879 C 183.097 58.079 185.647 53.929 188.247 51.429 C 189.847 49.929 191.447 49.179 193.047 49.179 C 194.847 49.279 196.247 50.056 197.247 51.509 C 198.247 52.956 198.997 54.652 199.497 56.599 C 199.997 58.552 200.297 60.506 200.397 62.459 C 200.497 64.406 200.547 65.879 200.547 66.879 C 200.547 67.879 200.524 68.779 200.477 69.579 C 200.424 70.379 200.347 71.129 200.247 71.829 C 200.147 72.329 199.92 73.106 199.567 74.159 C 199.22 75.206 198.397 75.729 197.097 75.729 C 195.497 75.729 194.697 74.929 194.697 73.329 C 194.697 72.529 194.897 71.929 195.297 71.529 C 195.497 70.929 195.62 69.906 195.667 68.459 C 195.72 67.006 195.697 65.406 195.597 63.659 C 195.497 61.906 195.297 60.229 194.997 58.629 C 194.697 57.029 194.247 55.779 193.647 54.879 C 193.347 54.379 193.097 54.129 192.897 54.129 C 192.597 54.229 191.997 54.756 191.097 55.709 C 190.197 56.656 189.097 58.256 187.797 60.509 C 186.497 62.756 185.097 65.806 183.597 69.659 C 182.097 73.506 180.597 78.329 179.097 84.129 C 178.997 84.229 178.947 84.329 178.947 84.429 C 178.947 84.529 178.897 84.629 178.797 84.729 C 187.897 83.829 198.397 83.529 210.297 83.829 ZM 196.697 128.829 C 196.297 128.829 195.697 128.729 194.897 128.529 C 193.497 128.229 192.423 127.706 191.677 126.959 C 190.923 126.206 190.447 125.429 190.247 124.629 C 189.847 123.629 189.697 122.529 189.797 121.329 C 189.897 120.129 190.123 118.929 190.477 117.729 C 190.823 116.529 191.297 115.356 191.897 114.209 C 192.497 113.056 193.047 112.029 193.547 111.129 C 193.647 110.929 193.747 110.706 193.847 110.459 C 193.947 110.206 194.047 109.979 194.147 109.779 C 194.947 108.179 195.997 106.979 197.297 106.179 C 198.597 105.379 199.947 105.079 201.347 105.279 C 203.547 105.579 205.097 106.979 205.997 109.479 C 206.197 110.279 206.37 111.106 206.517 111.959 C 206.67 112.806 206.697 113.679 206.597 114.579 C 207.497 114.179 208.47 113.779 209.517 113.379 C 210.57 112.979 211.697 112.479 212.897 111.879 C 213.497 111.479 214.12 111.406 214.767 111.659 C 215.42 111.906 215.897 112.329 216.197 112.929 C 216.497 113.529 216.547 114.152 216.347 114.799 C 216.147 115.452 215.747 115.929 215.147 116.229 C 213.347 117.029 211.67 117.752 210.117 118.399 C 208.57 119.052 207.097 119.579 205.697 119.979 C 205.097 122.379 204.047 124.379 202.547 125.979 C 200.847 127.879 198.897 128.829 196.697 128.829 Z M 195.197 119.079 C 194.997 119.879 194.823 120.606 194.677 121.259 C 194.523 121.906 194.547 122.479 194.747 122.979 C 194.847 123.079 194.973 123.206 195.127 123.359 C 195.273 123.506 195.597 123.629 196.097 123.729 C 196.397 123.929 196.797 123.979 197.297 123.879 C 197.797 123.779 198.347 123.379 198.947 122.679 C 199.147 122.379 199.37 122.079 199.617 121.779 C 199.87 121.479 200.097 121.129 200.297 120.729 C 198.297 120.729 196.597 120.179 195.197 119.079 Z M 198.047 113.229 C 197.847 114.329 197.947 114.979 198.347 115.179 C 198.747 115.679 199.847 115.879 201.647 115.779 C 201.747 114.879 201.77 114.029 201.717 113.229 C 201.67 112.429 201.547 111.729 201.347 111.129 C 201.147 110.629 200.897 110.279 200.597 110.079 C 200.397 110.079 200.147 110.229 199.847 110.529 C 199.647 110.729 199.497 110.929 199.397 111.129 C 199.197 111.429 198.97 111.756 198.717 112.109 C 198.47 112.456 198.247 112.829 198.047 113.229 ZM 221.196 154.329 C 220.196 154.329 219.296 153.929 218.496 153.129 C 218.196 152.729 217.923 152.229 217.676 151.629 C 217.423 151.029 217.196 150.129 216.996 148.929 C 216.796 147.729 216.673 146.179 216.626 144.279 C 216.573 142.379 216.646 139.979 216.846 137.079 C 217.046 133.779 217.346 129.979 217.746 125.679 C 218.146 121.379 218.696 116.579 219.396 111.279 C 219.996 106.779 220.596 102.406 221.196 98.159 C 221.796 93.906 222.346 90.129 222.846 86.829 C 223.346 83.529 223.746 80.852 224.046 78.799 C 224.346 76.752 224.496 75.679 224.496 75.579 C 224.596 74.879 224.92 74.329 225.466 73.929 C 226.02 73.529 226.646 73.429 227.346 73.629 C 228.046 73.729 228.596 74.056 228.996 74.609 C 229.396 75.156 229.496 75.779 229.296 76.479 C 229.296 76.479 229.146 77.479 228.846 79.479 C 228.546 81.479 228.146 84.079 227.646 87.279 C 227.146 90.479 226.596 94.179 225.996 98.379 C 225.396 102.579 224.846 106.879 224.346 111.279 C 223.446 117.979 222.796 123.579 222.396 128.079 C 221.996 132.579 221.746 136.279 221.646 139.179 C 221.546 142.079 221.546 144.279 221.646 145.779 C 221.746 147.279 221.846 148.329 221.946 148.929 C 222.346 148.629 222.846 148.129 223.446 147.429 C 224.046 146.729 224.746 145.679 225.546 144.279 C 226.646 142.579 227.746 140.602 228.846 138.349 C 229.946 136.102 231.046 133.829 232.146 131.529 C 234.446 127.029 236.646 122.856 238.746 119.009 C 240.846 115.156 242.946 112.479 245.046 110.979 C 245.546 110.579 246.123 110.456 246.776 110.609 C 247.423 110.756 247.946 111.079 248.346 111.579 C 248.746 112.179 248.896 112.806 248.796 113.459 C 248.696 114.106 248.346 114.629 247.746 115.029 C 246.946 115.629 246.096 116.552 245.196 117.799 C 244.296 119.052 243.37 120.552 242.416 122.299 C 241.47 124.052 240.496 125.906 239.496 127.859 C 238.496 129.806 237.546 131.729 236.646 133.629 C 233.346 140.329 230.57 145.452 228.316 148.999 C 226.07 152.552 223.696 154.329 221.196 154.329 ZM 249.596 141.279 C 248.596 141.279 247.846 140.729 247.346 139.629 C 247.146 139.229 246.973 138.679 246.826 137.979 C 246.673 137.279 246.596 136.279 246.596 134.979 C 246.596 133.679 246.719 132.079 246.966 130.179 C 247.219 128.279 247.596 125.879 248.096 122.979 C 248.596 119.979 249.119 117.329 249.666 115.029 C 250.219 112.729 250.546 111.529 250.646 111.429 C 250.846 110.729 251.219 110.206 251.766 109.859 C 252.319 109.506 252.946 109.429 253.646 109.629 C 254.246 109.829 254.719 110.202 255.066 110.749 C 255.419 111.302 255.496 111.929 255.296 112.629 C 255.096 113.729 254.846 114.879 254.546 116.079 C 254.346 117.179 254.073 118.406 253.726 119.759 C 253.373 121.106 253.096 122.479 252.896 123.879 C 252.396 126.479 252.046 128.656 251.846 130.409 C 251.646 132.156 251.546 133.552 251.546 134.599 C 251.546 135.652 251.596 136.429 251.696 136.929 C 251.796 137.429 251.846 137.729 251.846 137.829 C 252.546 139.429 252.096 140.479 250.496 140.979 C 250.096 141.179 249.796 141.279 249.596 141.279 Z M 252.896 105.879 C 252.196 105.879 251.619 105.629 251.166 105.129 C 250.719 104.629 250.496 104.029 250.496 103.329 C 250.496 102.729 250.719 102.206 251.166 101.759 C 251.619 101.306 252.146 101.029 252.746 100.929 C 252.746 100.829 252.773 100.756 252.826 100.709 C 252.873 100.656 252.896 100.529 252.896 100.329 C 253.096 99.629 253.469 99.079 254.016 98.679 C 254.569 98.279 255.196 98.179 255.896 98.379 C 256.596 98.579 257.123 98.956 257.476 99.509 C 257.823 100.056 257.896 100.679 257.696 101.379 C 257.196 103.379 256.419 104.629 255.366 105.129 C 254.319 105.629 253.496 105.879 252.896 105.879 ZM 270.646 128.829 C 270.246 128.829 269.646 128.729 268.846 128.529 C 267.446 128.229 266.373 127.706 265.626 126.959 C 264.873 126.206 264.396 125.429 264.196 124.629 C 263.796 123.629 263.646 122.529 263.746 121.329 C 263.846 120.129 264.073 118.929 264.426 117.729 C 264.773 116.529 265.246 115.356 265.846 114.209 C 266.446 113.056 266.996 112.029 267.496 111.129 C 267.596 110.929 267.696 110.706 267.796 110.459 C 267.896 110.206 267.996 109.979 268.096 109.779 C 268.896 108.179 269.946 106.979 271.246 106.179 C 272.546 105.379 273.896 105.079 275.296 105.279 C 277.496 105.579 279.046 106.979 279.946 109.479 C 280.146 110.279 280.319 111.106 280.466 111.959 C 280.619 112.806 280.646 113.679 280.546 114.579 C 281.446 114.179 282.419 113.779 283.466 113.379 C 284.519 112.979 285.646 112.479 286.846 111.879 C 287.446 111.479 288.069 111.406 288.716 111.659 C 289.369 111.906 289.846 112.329 290.146 112.929 C 290.446 113.529 290.496 114.152 290.296 114.799 C 290.096 115.452 289.696 115.929 289.096 116.229 C 287.296 117.029 285.619 117.752 284.066 118.399 C 282.519 119.052 281.046 119.579 279.646 119.979 C 279.046 122.379 277.996 124.379 276.496 125.979 C 274.796 127.879 272.846 128.829 270.646 128.829 Z M 269.146 119.079 C 268.946 119.879 268.773 120.606 268.626 121.259 C 268.473 121.906 268.496 122.479 268.696 122.979 C 268.796 123.079 268.923 123.206 269.076 123.359 C 269.223 123.506 269.546 123.629 270.046 123.729 C 270.346 123.929 270.746 123.979 271.246 123.879 C 271.746 123.779 272.296 123.379 272.896 122.679 C 273.096 122.379 273.319 122.079 273.566 121.779 C 273.819 121.479 274.046 121.129 274.246 120.729 C 272.246 120.729 270.546 120.179 269.146 119.079 Z M 271.996 113.229 C 271.796 114.329 271.896 114.979 272.296 115.179 C 272.696 115.679 273.796 115.879 275.596 115.779 C 275.696 114.879 275.719 114.029 275.666 113.229 C 275.619 112.429 275.496 111.729 275.296 111.129 C 275.096 110.629 274.846 110.279 274.546 110.079 C 274.346 110.079 274.096 110.229 273.796 110.529 C 273.596 110.729 273.446 110.929 273.346 111.129 C 273.146 111.429 272.919 111.756 272.666 112.109 C 272.419 112.456 272.196 112.829 271.996 113.229 Z" transform="matrix(1, 0, 0, 1, 0, 0)" style="fill: rgb(173, 216, 230); white-space: pre;"/>
</svg>