<?xml version="1.0" encoding="utf-8"?>
<svg viewBox="263.5159912109375 207.39100646972656 600 600" width="600" height="600" xmlns="http://www.w3.org/2000/svg">
  <path d="M 462.049 692.346 L 461.289 692.346 C 459.942 692.179 458.889 691.589 458.129 690.576 C 457.369 689.569 457.076 688.389 457.249 687.036 C 457.249 687.036 457.502 685.139 458.009 681.346 C 458.509 677.553 459.099 672.579 459.779 666.426 C 460.452 660.273 461.126 653.233 461.799 645.306 C 462.472 637.386 463.062 629.209 463.569 620.776 C 464.582 605.603 465.002 593.213 464.829 583.606 C 464.662 573.993 464.286 566.363 463.699 560.716 C 463.106 555.069 462.346 551.023 461.419 548.576 C 460.492 546.129 459.692 544.486 459.019 543.646 C 458.679 543.306 458.426 543.136 458.259 543.136 C 458.092 543.136 457.376 543.516 456.109 544.276 C 454.842 545.036 453.199 547.396 451.179 551.356 C 449.152 555.323 446.792 561.519 444.099 569.946 C 441.399 578.379 438.532 590.349 435.499 605.856 C 433.979 613.949 432.586 621.959 431.319 629.886 C 430.059 637.806 429.006 644.843 428.159 650.996 C 427.319 657.156 426.689 662.173 426.269 666.046 C 425.842 669.926 425.629 671.949 425.629 672.116 C 425.462 673.469 424.872 674.523 423.859 675.276 C 422.852 676.036 421.672 676.333 420.319 676.166 C 418.972 675.999 417.919 675.449 417.159 674.516 C 416.399 673.589 416.106 672.453 416.279 671.106 C 416.279 671.106 416.489 669.166 416.909 665.286 C 417.329 661.413 418.002 656.313 418.929 649.986 C 419.856 643.666 420.952 636.503 422.219 628.496 C 423.486 620.483 424.876 612.346 426.389 604.086 C 430.269 584.533 434.232 569.106 438.279 557.806 C 444.179 541.793 450.839 533.786 458.259 533.786 C 459.272 533.786 460.496 534.036 461.929 534.536 C 463.356 535.043 464.746 536.056 466.099 537.576 C 470.312 542.636 472.926 553.846 473.939 571.206 C 474.272 577.786 474.356 585.249 474.189 593.596 C 474.022 601.943 473.602 611.173 472.929 621.286 C 472.422 629.886 471.789 638.189 471.029 646.196 C 470.269 654.203 469.552 661.326 468.879 667.566 C 468.206 673.806 467.659 678.823 467.239 682.616 C 466.812 686.409 466.599 688.306 466.599 688.306 C 466.266 690.999 464.749 692.346 462.049 692.346 Z M 415.519 593.466 L 414.759 593.466 C 412.059 593.466 410.542 592.203 410.209 589.676 C 409.869 588.323 410.079 587.143 410.839 586.136 C 411.599 585.123 412.652 584.533 413.999 584.366 L 479.249 574.246 C 480.596 574.079 481.776 574.373 482.789 575.126 C 483.802 575.886 484.392 576.943 484.559 578.296 C 484.899 579.643 484.689 580.779 483.929 581.706 C 483.169 582.633 482.116 583.266 480.769 583.606 L 415.519 593.466 Z M 496.179 626.346 C 493.652 626.346 491.462 625.419 489.609 623.566 C 489.609 623.393 489.522 623.306 489.349 623.306 C 486.482 619.766 485.472 615.806 486.319 611.426 C 486.825 608.386 488.089 605.559 490.109 602.946 C 492.135 600.333 494.285 598.016 496.559 595.996 C 498.839 593.969 500.945 592.366 502.879 591.186 C 504.819 590.006 506.042 589.249 506.549 588.916 C 507.562 588.409 508.615 588.283 509.709 588.536 C 510.809 588.789 511.609 589.423 512.109 590.436 C 512.789 591.443 512.959 592.496 512.619 593.596 C 512.279 594.689 511.605 595.489 510.599 595.996 C 509.585 596.669 508.235 597.596 506.549 598.776 C 504.862 599.956 503.175 601.306 501.489 602.826 C 499.802 604.339 498.285 605.983 496.939 607.756 C 495.592 609.523 494.749 611.249 494.409 612.936 C 494.242 614.623 494.665 616.309 495.679 617.996 C 495.845 617.996 496.182 617.996 496.689 617.996 C 497.195 617.996 498.039 617.743 499.219 617.236 C 500.399 616.729 501.872 615.886 503.639 614.706 C 505.412 613.526 507.645 611.756 510.339 609.396 C 512.025 608.049 513.629 606.616 515.149 605.096 C 516.669 603.583 518.019 602.236 519.199 601.056 C 520.545 599.703 521.725 598.436 522.739 597.256 C 523.579 596.416 524.545 595.953 525.639 595.866 C 526.739 595.786 527.709 596.166 528.549 597.006 C 529.395 597.853 529.859 598.823 529.939 599.916 C 530.025 601.009 529.649 601.979 528.809 602.826 C 528.809 602.993 527.712 604.213 525.519 606.486 C 523.325 608.766 520.629 611.339 517.429 614.206 C 508.322 622.299 501.239 626.346 496.179 626.346 Z M 536.888 629.626 C 536.215 629.626 535.201 629.459 533.848 629.126 C 531.488 628.619 529.678 627.733 528.418 626.466 C 527.151 625.206 526.348 623.899 526.008 622.546 C 525.335 620.859 525.081 619.006 525.248 616.986 C 525.421 614.966 525.801 612.943 526.388 610.916 C 526.981 608.896 527.785 606.916 528.798 604.976 C 529.805 603.036 530.731 601.306 531.578 599.786 C 531.745 599.453 531.911 599.073 532.078 598.646 C 532.251 598.226 532.421 597.849 532.588 597.516 C 533.935 594.816 535.705 592.793 537.898 591.446 C 540.091 590.093 542.368 589.586 544.728 589.926 C 548.435 590.433 551.048 592.793 552.568 597.006 C 552.901 598.353 553.195 599.743 553.448 601.176 C 553.701 602.609 553.745 604.086 553.578 605.606 C 555.098 604.933 556.741 604.259 558.508 603.586 C 560.281 602.906 562.178 602.063 564.198 601.056 C 565.211 600.383 566.265 600.256 567.358 600.676 C 568.458 601.096 569.258 601.813 569.758 602.826 C 570.265 603.833 570.351 604.886 570.018 605.986 C 569.678 607.079 569.001 607.879 567.988 608.386 C 564.955 609.733 562.131 610.956 559.518 612.056 C 556.905 613.149 554.418 614.033 552.058 614.706 C 551.045 618.753 549.275 622.126 546.748 624.826 C 543.881 628.026 540.595 629.626 536.888 629.626 Z M 534.358 613.196 C 534.018 614.543 533.721 615.763 533.468 616.856 C 533.215 617.956 533.258 618.926 533.598 619.766 C 533.765 619.933 533.975 620.143 534.228 620.396 C 534.481 620.649 535.031 620.863 535.878 621.036 C 536.385 621.369 537.058 621.453 537.898 621.286 C 538.738 621.119 539.665 620.446 540.678 619.266 C 541.018 618.759 541.398 618.253 541.818 617.746 C 542.238 617.239 542.618 616.649 542.958 615.976 C 539.585 615.976 536.718 615.049 534.358 613.196 Z M 539.158 603.326 C 538.825 605.186 538.995 606.283 539.668 606.616 C 540.341 607.463 542.195 607.799 545.228 607.626 C 545.401 606.113 545.445 604.679 545.358 603.326 C 545.271 601.979 545.061 600.799 544.728 599.786 C 544.388 598.946 543.965 598.356 543.458 598.016 C 543.125 598.016 542.705 598.269 542.198 598.776 C 541.858 599.116 541.605 599.453 541.438 599.786 C 541.098 600.293 540.718 600.843 540.298 601.436 C 539.878 602.023 539.498 602.653 539.158 603.326 Z M 574.049 644.296 L 572.789 644.296 C 571.436 644.296 570.422 643.793 569.749 642.786 C 569.242 642.106 568.906 641.429 568.739 640.756 C 568.572 640.083 568.572 638.566 568.739 636.206 L 568.739 635.446 C 568.572 633.253 568.402 630.473 568.229 627.106 C 568.062 623.733 567.852 620.149 567.599 616.356 C 567.346 612.563 567.092 608.726 566.839 604.846 C 566.586 600.966 566.376 597.426 566.209 594.226 C 566.042 593.046 566.339 592.033 567.099 591.186 C 567.852 590.346 568.822 589.926 570.009 589.926 C 571.189 589.759 572.199 590.053 573.039 590.806 C 573.879 591.566 574.299 592.536 574.299 593.716 C 574.472 596.076 574.726 599.703 575.059 604.596 C 575.232 604.256 575.402 603.959 575.569 603.706 C 575.736 603.453 575.902 603.159 576.069 602.826 C 578.936 597.599 582.139 594.396 585.679 593.216 C 589.226 592.036 592.432 591.613 595.299 591.946 C 597.992 592.286 599.172 593.803 598.839 596.496 C 598.499 599.196 596.979 600.379 594.279 600.046 C 590.912 599.873 588.216 600.799 586.189 602.826 C 584.336 604.679 582.819 606.996 581.639 609.776 C 580.459 612.563 579.532 615.556 578.859 618.756 C 578.186 621.963 577.722 625.083 577.469 628.116 C 577.216 631.149 577.002 633.676 576.829 635.696 C 577.002 637.049 577.089 638.106 577.089 638.866 C 577.089 639.619 577.089 640.166 577.089 640.506 C 576.916 641.686 576.536 642.529 575.949 643.036 C 575.356 643.543 574.722 643.963 574.049 644.296 Z M 647.881 744.696 L 647.631 744.696 C 645.271 744.696 643.924 743.349 643.591 740.656 C 642.238 700.863 642.151 666.216 643.331 636.716 C 644.511 607.209 646.281 582.509 648.641 562.616 C 647.801 564.976 647.044 567.249 646.371 569.436 C 645.698 571.629 644.938 573.823 644.091 576.016 C 640.044 587.309 636.421 596.413 633.221 603.326 C 630.014 610.239 627.148 615.636 624.621 619.516 C 622.088 623.396 619.854 626.053 617.921 627.486 C 615.981 628.913 614.251 629.879 612.731 630.386 C 609.531 631.399 606.581 630.726 603.881 628.366 C 602.028 626.679 600.678 624.613 599.831 622.166 C 598.991 619.726 598.614 617.156 598.701 614.456 C 598.781 611.756 599.284 609.143 600.211 606.616 C 601.138 604.089 602.361 601.899 603.881 600.046 C 606.914 596.333 610.791 594.309 615.511 593.976 C 619.224 593.803 623.018 594.813 626.891 597.006 C 628.244 593.806 629.678 590.266 631.191 586.386 C 632.711 582.506 634.398 578.123 636.251 573.236 C 638.444 567.503 640.551 561.559 642.571 555.406 C 644.598 549.253 646.538 543.183 648.391 537.196 C 650.244 531.209 652.014 525.393 653.701 519.746 C 655.388 514.099 656.904 508.916 658.251 504.196 C 658.931 501.496 659.521 499.093 660.021 496.986 C 660.528 494.879 661.034 492.899 661.541 491.046 C 662.388 488.179 663.104 485.859 663.691 484.086 C 664.284 482.319 664.748 480.846 665.081 479.666 C 665.928 477.639 666.561 476.206 666.981 475.366 C 667.401 474.519 668.034 473.929 668.881 473.596 C 670.394 472.916 671.911 473.166 673.431 474.346 C 674.444 475.359 674.864 476.456 674.691 477.636 C 674.524 478.816 674.271 479.829 673.931 480.676 C 673.424 481.856 672.751 484.006 671.911 487.126 C 671.071 490.239 669.974 493.906 668.621 498.126 C 668.288 499.473 667.908 500.819 667.481 502.166 C 667.061 503.519 666.684 504.869 666.351 506.216 C 663.991 515.996 661.714 528.219 659.521 542.886 C 658.174 552.326 656.868 563.453 655.601 576.266 C 654.334 589.079 653.281 603.663 652.441 620.016 C 651.594 636.376 651.088 654.586 650.921 674.646 C 650.754 694.713 651.091 716.633 651.931 740.406 C 651.931 741.586 651.551 742.596 650.791 743.436 C 650.038 744.276 649.068 744.696 647.881 744.696 Z M 616.531 602.316 C 613.831 602.316 611.721 603.329 610.201 605.356 C 609.194 606.536 608.438 607.926 607.931 609.526 C 607.424 611.126 607.128 612.726 607.041 614.326 C 606.961 615.933 607.131 617.453 607.551 618.886 C 607.971 620.319 608.601 621.373 609.441 622.046 C 609.781 622.379 610.121 622.546 610.461 622.546 C 610.794 622.379 611.341 622.043 612.101 621.536 C 612.861 621.029 613.748 620.146 614.761 618.886 C 615.768 617.619 616.988 615.849 618.421 613.576 C 619.854 611.296 621.498 608.216 623.351 604.336 C 621.164 602.989 618.891 602.316 616.531 602.316 Z M 691.622 638.986 L 691.122 638.986 C 688.929 638.986 687.072 638.143 685.552 636.456 C 684.712 635.616 683.912 634.099 683.152 631.906 C 682.392 629.713 682.099 626.089 682.272 621.036 C 677.719 628.283 673.502 632.666 669.622 634.186 C 668.276 634.519 666.969 634.686 665.702 634.686 C 664.436 634.686 663.212 634.266 662.032 633.426 C 660.852 632.753 659.632 631.573 658.372 629.886 C 657.106 628.199 656.809 625.586 657.482 622.046 C 657.989 619.013 659.212 615.936 661.152 612.816 C 663.092 609.696 664.736 607.209 666.082 605.356 C 667.429 603.496 669.159 601.429 671.272 599.156 C 673.379 596.883 675.276 595.576 676.962 595.236 C 678.142 595.069 679.196 595.323 680.122 595.996 C 681.049 596.669 681.596 597.596 681.762 598.776 C 682.102 599.789 681.976 600.716 681.382 601.556 C 680.796 602.403 680.079 602.993 679.232 603.326 C 678.726 603.666 677.756 604.596 676.322 606.116 C 674.889 607.629 673.246 609.649 671.392 612.176 C 667.512 617.403 665.572 621.619 665.572 624.826 C 665.572 625.666 665.826 626.173 666.332 626.346 L 666.842 626.346 C 668.189 625.839 669.706 624.489 671.392 622.296 C 673.079 620.103 674.809 617.533 676.582 614.586 C 678.349 611.633 680.032 608.513 681.632 605.226 C 683.239 601.939 684.546 598.863 685.552 595.996 C 685.892 594.983 686.569 594.223 687.582 593.716 C 688.589 593.209 689.599 593.126 690.612 593.466 C 691.626 593.806 692.426 594.439 693.012 595.366 C 693.606 596.293 693.732 597.263 693.392 598.276 C 693.226 599.789 692.976 601.389 692.642 603.076 C 692.302 604.423 692.006 606.066 691.752 608.006 C 691.499 609.946 691.289 611.843 691.122 613.696 C 690.449 619.596 690.279 623.726 690.612 626.086 C 690.952 628.446 691.289 629.966 691.622 630.646 C 692.302 630.306 693.482 629.166 695.162 627.226 C 696.849 625.286 699.126 621.283 701.992 615.216 C 704.019 611.003 705.662 607.166 706.922 603.706 C 708.189 600.253 708.822 598.443 708.822 598.276 C 709.162 597.263 709.836 596.503 710.842 595.996 C 711.856 595.489 712.952 595.406 714.132 595.746 C 716.666 596.586 717.509 598.356 716.662 601.056 C 716.662 601.223 715.989 603.119 714.642 606.746 C 713.289 610.366 711.602 614.369 709.582 618.756 C 706.376 625.503 703.299 630.476 700.352 633.676 C 697.399 636.883 694.489 638.653 691.622 638.986 Z" style="text-transform: capitalize; white-space: pre; fill: rgb(173, 216, 230);" transform="matrix(1, 0, 0, 1, 0, 0)"/>
  <path d="M 372.328 464.527 L 371.818 464.527 C 370.471 464.527 369.418 464.064 368.658 463.137 C 367.905 462.21 367.528 461.074 367.528 459.727 L 377.638 322.907 C 377.638 321.56 378.101 320.464 379.028 319.617 C 379.955 318.777 381.095 318.44 382.448 318.607 C 383.795 318.774 384.888 319.28 385.728 320.127 C 386.575 320.967 386.915 322.064 386.748 323.417 L 376.878 460.227 C 376.545 463.094 375.028 464.527 372.328 464.527 Z M 372.328 321.647 C 370.135 321.647 368.618 320.55 367.778 318.357 C 367.438 317.177 367.521 315.997 368.028 314.817 C 368.535 313.637 369.461 312.877 370.808 312.537 C 370.808 312.537 371.568 312.284 373.088 311.777 C 374.608 311.27 376.631 310.64 379.158 309.887 C 381.685 309.127 384.591 308.284 387.878 307.357 C 391.171 306.43 394.588 305.46 398.128 304.447 C 404.868 302.76 410.471 301.454 414.938 300.527 C 419.411 299.6 423.081 298.927 425.948 298.507 C 428.808 298.08 430.998 297.954 432.518 298.127 C 434.038 298.294 435.218 298.46 436.058 298.627 C 437.405 298.967 438.418 299.64 439.098 300.647 C 439.771 301.66 439.938 302.844 439.598 304.197 C 439.265 305.544 438.548 306.51 437.448 307.097 C 436.355 307.69 435.218 307.817 434.038 307.477 C 433.698 307.477 432.938 307.437 431.758 307.357 C 430.578 307.27 428.765 307.437 426.318 307.857 C 423.878 308.277 420.591 308.91 416.458 309.757 C 412.331 310.597 407.065 311.86 400.658 313.547 C 397.111 314.394 393.738 315.28 390.538 316.207 C 387.331 317.134 384.465 317.977 381.938 318.737 C 379.411 319.497 377.388 320.127 375.868 320.627 C 374.348 321.134 373.588 321.387 373.588 321.387 C 373.255 321.56 372.835 321.647 372.328 321.647 Z M 364.738 360.837 L 364.238 360.837 C 361.538 360.837 360.021 359.407 359.688 356.547 C 359.348 355.194 359.598 354.054 360.438 353.127 C 361.285 352.2 362.381 351.654 363.728 351.487 L 409.758 346.677 C 411.105 346.344 412.241 346.597 413.168 347.437 C 414.095 348.284 414.645 349.38 414.818 350.727 C 414.985 352.074 414.688 353.21 413.928 354.137 C 413.168 355.064 412.115 355.614 410.768 355.787 L 364.738 360.837 Z M 425.424 426.087 L 424.164 426.087 C 422.811 426.087 421.798 425.584 421.124 424.577 C 420.618 423.897 420.281 423.22 420.114 422.547 C 419.948 421.874 419.948 420.357 420.114 417.997 L 420.114 417.237 C 419.948 415.044 419.778 412.264 419.604 408.897 C 419.438 405.524 419.228 401.94 418.974 398.147 C 418.721 394.354 418.468 390.517 418.214 386.637 C 417.961 382.757 417.751 379.217 417.584 376.017 C 417.418 374.837 417.714 373.824 418.474 372.977 C 419.228 372.137 420.198 371.717 421.384 371.717 C 422.564 371.55 423.574 371.844 424.414 372.597 C 425.254 373.357 425.674 374.327 425.674 375.507 C 425.848 377.867 426.101 381.494 426.434 386.387 C 426.608 386.047 426.778 385.75 426.944 385.497 C 427.111 385.244 427.278 384.95 427.444 384.617 C 430.311 379.39 433.514 376.187 437.054 375.007 C 440.601 373.827 443.808 373.404 446.674 373.737 C 449.368 374.077 450.548 375.594 450.214 378.287 C 449.874 380.987 448.354 382.17 445.654 381.837 C 442.288 381.664 439.591 382.59 437.564 384.617 C 435.711 386.47 434.194 388.787 433.014 391.567 C 431.834 394.354 430.908 397.347 430.234 400.547 C 429.561 403.754 429.098 406.874 428.844 409.907 C 428.591 412.94 428.378 415.467 428.204 417.487 C 428.378 418.84 428.464 419.897 428.464 420.657 C 428.464 421.41 428.464 421.957 428.464 422.297 C 428.291 423.477 427.911 424.32 427.324 424.827 C 426.731 425.334 426.098 425.754 425.424 426.087 Z M 468.916 430.897 C 467.903 430.897 467.143 430.727 466.636 430.387 C 461.576 427.187 457.866 421.794 455.506 414.207 C 453.146 406.62 452.643 398.274 453.996 389.167 C 455.343 380.234 458.333 372.73 462.966 366.657 C 467.606 360.59 473.466 356.63 480.546 354.777 C 486.279 353.257 490.409 354.014 492.936 357.047 C 495.803 360.254 495.719 365.65 492.686 373.237 C 491.166 376.777 489.059 380.61 486.366 384.737 C 483.666 388.87 480.629 392.877 477.256 396.757 C 475.236 399.117 472.919 401.477 470.306 403.837 C 467.693 406.197 465.119 407.967 462.586 409.147 C 463.433 412.52 464.573 415.427 466.006 417.867 C 467.439 420.314 469.083 422.127 470.936 423.307 C 471.949 423.98 472.583 424.867 472.836 425.967 C 473.089 427.06 472.963 428.114 472.456 429.127 C 471.783 430.307 470.603 430.897 468.916 430.897 Z M 486.616 362.357 L 485.856 362.357 C 485.523 362.357 485.103 362.357 484.596 362.357 C 484.089 362.357 483.413 362.527 482.566 362.867 C 477.173 364.214 472.706 367.334 469.166 372.227 C 465.626 377.114 463.266 383.18 462.086 390.427 C 461.579 394.14 461.409 397.43 461.576 400.297 C 462.423 399.79 463.436 398.987 464.616 397.887 C 465.796 396.794 467.143 395.487 468.656 393.967 C 471.189 391.107 473.636 388.074 475.996 384.867 C 478.356 381.667 480.463 378.464 482.316 375.257 C 484.676 371.21 486.066 368.177 486.486 366.157 C 486.913 364.13 486.956 362.864 486.616 362.357 Z M 541.985 526.487 L 541.735 526.487 C 539.374 526.487 538.028 525.14 537.694 522.447 C 536.341 482.654 536.254 448.007 537.435 418.507 C 538.615 389 540.384 364.3 542.744 344.407 C 541.905 346.767 541.148 349.04 540.475 351.227 C 539.801 353.42 539.041 355.614 538.194 357.807 C 534.148 369.1 530.524 378.204 527.324 385.117 C 524.118 392.03 521.251 397.427 518.725 401.307 C 516.191 405.187 513.958 407.844 512.024 409.277 C 510.084 410.704 508.355 411.67 506.834 412.177 C 503.635 413.19 500.684 412.517 497.984 410.157 C 496.131 408.47 494.781 406.404 493.934 403.957 C 493.095 401.517 492.718 398.947 492.804 396.247 C 492.885 393.547 493.388 390.934 494.315 388.407 C 495.241 385.88 496.464 383.69 497.984 381.837 C 501.018 378.124 504.894 376.1 509.614 375.767 C 513.328 375.594 517.121 376.604 520.995 378.797 C 522.348 375.597 523.781 372.057 525.295 368.177 C 526.814 364.297 528.501 359.914 530.355 355.027 C 532.548 349.294 534.655 343.35 536.675 337.197 C 538.701 331.044 540.641 324.974 542.494 318.987 C 544.348 313 546.118 307.184 547.805 301.537 C 549.491 295.89 551.008 290.707 552.355 285.987 C 553.035 283.287 553.624 280.884 554.124 278.777 C 554.631 276.67 555.138 274.69 555.644 272.837 C 556.491 269.97 557.208 267.65 557.795 265.877 C 558.388 264.11 558.851 262.637 559.185 261.457 C 560.031 259.43 560.665 257.997 561.084 257.157 C 561.504 256.31 562.138 255.72 562.985 255.387 C 564.498 254.707 566.014 254.957 567.535 256.137 C 568.548 257.15 568.968 258.247 568.795 259.427 C 568.628 260.607 568.374 261.62 568.035 262.467 C 567.528 263.647 566.855 265.797 566.014 268.917 C 565.175 272.03 564.078 275.697 562.725 279.917 C 562.391 281.264 562.011 282.61 561.584 283.957 C 561.165 285.31 560.788 286.66 560.454 288.007 C 558.095 297.787 555.818 310.01 553.624 324.677 C 552.278 334.117 550.971 345.244 549.704 358.057 C 548.438 370.87 547.384 385.454 546.545 401.807 C 545.698 418.167 545.191 436.377 545.024 456.437 C 544.858 476.504 545.194 498.424 546.035 522.197 C 546.035 523.377 545.655 524.387 544.894 525.227 C 544.141 526.067 543.171 526.487 541.985 526.487 Z M 510.635 384.107 C 507.934 384.107 505.824 385.12 504.304 387.147 C 503.298 388.327 502.541 389.717 502.035 391.317 C 501.528 392.917 501.231 394.517 501.144 396.117 C 501.065 397.724 501.234 399.244 501.655 400.677 C 502.074 402.11 502.704 403.164 503.544 403.837 C 503.885 404.17 504.225 404.337 504.565 404.337 C 504.898 404.17 505.445 403.834 506.204 403.327 C 506.964 402.82 507.851 401.937 508.864 400.677 C 509.871 399.41 511.091 397.64 512.524 395.367 C 513.958 393.087 515.601 390.007 517.454 386.127 C 515.268 384.78 512.995 384.107 510.635 384.107 Z M 572.076 430.897 C 571.063 430.897 570.303 430.727 569.796 430.387 C 564.736 427.187 561.026 421.794 558.666 414.207 C 556.306 406.62 555.803 398.274 557.156 389.167 C 558.503 380.234 561.493 372.73 566.126 366.657 C 570.766 360.59 576.626 356.63 583.706 354.777 C 589.439 353.257 593.569 354.014 596.096 357.047 C 598.963 360.254 598.879 365.65 595.846 373.237 C 594.326 376.777 592.219 380.61 589.526 384.737 C 586.826 388.87 583.789 392.877 580.416 396.757 C 578.396 399.117 576.079 401.477 573.466 403.837 C 570.853 406.197 568.279 407.967 565.746 409.147 C 566.593 412.52 567.733 415.427 569.166 417.867 C 570.599 420.314 572.243 422.127 574.096 423.307 C 575.109 423.98 575.743 424.867 575.996 425.967 C 576.249 427.06 576.123 428.114 575.616 429.127 C 574.943 430.307 573.763 430.897 572.076 430.897 Z M 589.776 362.357 L 589.016 362.357 C 588.683 362.357 588.263 362.357 587.756 362.357 C 587.249 362.357 586.573 362.527 585.726 362.867 C 580.333 364.214 575.866 367.334 572.326 372.227 C 568.786 377.114 566.426 383.18 565.246 390.427 C 564.739 394.14 564.569 397.43 564.736 400.297 C 565.583 399.79 566.596 398.987 567.776 397.887 C 568.956 396.794 570.303 395.487 571.816 393.967 C 574.349 391.107 576.796 388.074 579.156 384.867 C 581.516 381.667 583.623 378.464 585.476 375.257 C 587.836 371.21 589.226 368.177 589.646 366.157 C 590.073 364.13 590.116 362.864 589.776 362.357 Z M 608.224 426.087 L 606.964 426.087 C 605.611 426.087 604.598 425.584 603.924 424.577 C 603.418 423.897 603.081 423.22 602.914 422.547 C 602.748 421.874 602.748 420.357 602.914 417.997 L 602.914 417.237 C 602.748 415.044 602.578 412.264 602.405 408.897 C 602.238 405.524 602.028 401.94 601.774 398.147 C 601.521 394.354 601.268 390.517 601.014 386.637 C 600.761 382.757 600.551 379.217 600.384 376.017 C 600.218 374.837 600.514 373.824 601.274 372.977 C 602.028 372.137 602.998 371.717 604.184 371.717 C 605.364 371.55 606.374 371.844 607.214 372.597 C 608.054 373.357 608.474 374.327 608.474 375.507 C 608.648 377.867 608.901 381.494 609.234 386.387 C 609.408 386.047 609.578 385.75 609.744 385.497 C 609.911 385.244 610.078 384.95 610.244 384.617 C 613.111 379.39 616.314 376.187 619.854 375.007 C 623.401 373.827 626.608 373.404 629.474 373.737 C 632.168 374.077 633.348 375.594 633.014 378.287 C 632.674 380.987 631.155 382.17 628.454 381.837 C 625.088 381.664 622.391 382.59 620.364 384.617 C 618.511 386.47 616.994 388.787 615.814 391.567 C 614.634 394.354 613.708 397.347 613.034 400.547 C 612.361 403.754 611.898 406.874 611.644 409.907 C 611.391 412.94 611.178 415.467 611.004 417.487 C 611.178 418.84 611.264 419.897 611.264 420.657 C 611.264 421.41 611.264 421.957 611.264 422.297 C 611.091 423.477 610.711 424.32 610.124 424.827 C 609.531 425.334 608.898 425.754 608.224 426.087 Z M 636.286 432.417 C 634.6 432.417 633.336 431.487 632.496 429.627 C 632.156 428.954 631.86 428.027 631.606 426.847 C 631.353 425.667 631.226 423.98 631.226 421.787 C 631.226 419.6 631.436 416.904 631.856 413.697 C 632.283 410.497 632.916 406.45 633.756 401.557 C 634.603 396.497 635.49 392.03 636.416 388.157 C 637.343 384.277 637.89 382.254 638.056 382.087 C 638.396 380.907 639.03 380.02 639.956 379.427 C 640.883 378.84 641.936 378.714 643.116 379.047 C 644.13 379.387 644.93 380.02 645.516 380.947 C 646.11 381.874 646.236 382.927 645.896 384.107 C 645.556 385.96 645.136 387.9 644.636 389.927 C 644.296 391.78 643.83 393.844 643.236 396.117 C 642.65 398.397 642.186 400.717 641.846 403.077 C 641.006 407.457 640.416 411.124 640.076 414.077 C 639.743 417.03 639.576 419.39 639.576 421.157 C 639.576 422.93 639.66 424.237 639.826 425.077 C 639.993 425.924 640.076 426.43 640.076 426.597 C 641.256 429.297 640.5 431.067 637.806 431.907 C 637.133 432.247 636.626 432.417 636.286 432.417 Z M 641.846 372.727 C 640.666 372.727 639.7 372.307 638.946 371.467 C 638.186 370.62 637.806 369.607 637.806 368.427 C 637.806 367.414 638.186 366.53 638.946 365.777 C 639.7 365.017 640.583 364.554 641.596 364.387 C 641.596 364.214 641.64 364.087 641.726 364.007 C 641.806 363.92 641.846 363.707 641.846 363.367 C 642.186 362.187 642.82 361.26 643.746 360.587 C 644.673 359.914 645.726 359.747 646.906 360.087 C 648.086 360.42 648.973 361.05 649.566 361.977 C 650.153 362.904 650.28 363.957 649.946 365.137 C 649.1 368.51 647.793 370.62 646.026 371.467 C 644.253 372.307 642.86 372.727 641.846 372.727 Z M 662.069 408.137 C 659.542 408.137 657.352 407.21 655.499 405.357 C 655.499 405.184 655.412 405.097 655.239 405.097 C 652.372 401.557 651.362 397.597 652.209 393.217 C 652.715 390.177 653.979 387.35 655.999 384.737 C 658.025 382.124 660.175 379.807 662.449 377.787 C 664.729 375.76 666.835 374.157 668.769 372.977 C 670.709 371.797 671.932 371.04 672.439 370.707 C 673.452 370.2 674.505 370.074 675.599 370.327 C 676.699 370.58 677.499 371.214 677.999 372.227 C 678.679 373.234 678.849 374.287 678.509 375.387 C 678.169 376.48 677.495 377.28 676.489 377.787 C 675.475 378.46 674.125 379.387 672.439 380.567 C 670.752 381.747 669.065 383.097 667.379 384.617 C 665.692 386.13 664.175 387.774 662.829 389.547 C 661.482 391.314 660.639 393.04 660.299 394.727 C 660.132 396.414 660.555 398.1 661.569 399.787 C 661.735 399.787 662.072 399.787 662.579 399.787 C 663.085 399.787 663.929 399.534 665.109 399.027 C 666.289 398.52 667.762 397.677 669.529 396.497 C 671.302 395.317 673.535 393.547 676.229 391.187 C 677.915 389.84 679.519 388.407 681.039 386.887 C 682.559 385.374 683.909 384.027 685.089 382.847 C 686.435 381.494 687.615 380.227 688.629 379.047 C 689.469 378.207 690.435 377.744 691.529 377.657 C 692.629 377.577 693.599 377.957 694.439 378.797 C 695.285 379.644 695.749 380.614 695.829 381.707 C 695.915 382.8 695.539 383.77 694.699 384.617 C 694.699 384.784 693.602 386.004 691.409 388.277 C 689.215 390.557 686.519 393.13 683.319 395.997 C 674.212 404.09 667.129 408.137 662.069 408.137 Z M 686.338 518.907 L 686.088 518.907 C 684.908 518.734 683.938 518.27 683.178 517.517 C 682.418 516.757 682.121 515.787 682.288 514.607 C 684.481 474.14 687.181 438.734 690.388 408.387 C 693.588 378.04 696.621 352.75 699.488 332.517 C 702.355 312.284 704.798 297.067 706.818 286.867 C 708.845 276.667 709.858 271.484 709.858 271.317 C 710.191 270.304 710.825 269.46 711.758 268.787 C 712.685 268.114 713.651 267.944 714.658 268.277 C 715.838 268.617 716.768 269.25 717.448 270.177 C 718.121 271.104 718.288 272.157 717.948 273.337 C 717.948 273.504 716.938 278.647 714.918 288.767 C 712.891 298.88 710.445 313.97 707.578 334.037 C 704.711 354.097 701.678 379.177 698.478 409.277 C 695.271 439.37 692.575 474.564 690.388 514.857 C 690.388 517.557 689.038 518.907 686.338 518.907 Z M 736.918 415.977 L 736.668 415.977 C 732.448 415.977 728.865 414.544 725.918 411.677 C 722.965 408.81 720.055 405.52 717.188 401.807 C 716.348 400.967 715.591 400.04 714.918 399.027 C 714.245 398.02 713.485 397.094 712.638 396.247 C 710.951 394.054 709.011 392.537 706.818 391.697 C 705.811 392.537 704.801 393.38 703.788 394.227 C 702.775 395.067 701.848 395.824 701.008 396.497 C 697.295 398.857 694.428 399.954 692.408 399.787 C 689.708 399.454 688.105 398.02 687.598 395.487 C 687.265 393.8 687.645 392.2 688.738 390.687 C 689.838 389.167 691.145 387.817 692.658 386.637 C 692.658 385.964 692.741 385.374 692.908 384.867 C 693.081 384.7 693.798 383.057 695.058 379.937 C 696.325 376.817 698.055 373.317 700.248 369.437 C 704.461 361.85 707.918 356.92 710.618 354.647 C 713.311 352.367 715.501 351.06 717.188 350.727 C 720.055 350.22 722.585 350.894 724.778 352.747 C 726.125 354.1 727.138 355.914 727.818 358.187 C 728.491 360.46 727.898 363.62 726.038 367.667 C 724.525 371.04 722.505 374.33 719.978 377.537 C 717.445 380.737 715.081 383.434 712.888 385.627 C 715.081 386.974 717.105 388.744 718.958 390.937 C 719.805 391.777 720.608 392.704 721.368 393.717 C 722.121 394.73 722.921 395.744 723.768 396.757 C 726.128 399.624 728.318 402.194 730.338 404.467 C 732.365 406.74 734.475 407.794 736.668 407.627 C 741.895 407.627 749.648 400.294 759.928 385.627 C 760.601 384.78 761.488 384.234 762.588 383.987 C 763.681 383.734 764.651 383.944 765.498 384.617 C 766.505 385.29 767.135 386.217 767.388 387.397 C 767.641 388.577 767.431 389.587 766.758 390.427 C 760.691 399.194 755.298 405.6 750.578 409.647 C 745.851 413.694 741.298 415.804 736.918 415.977 Z M 719.468 359.067 L 719.218 358.817 C 718.371 358.984 717.441 359.574 716.428 360.587 C 715.588 361.434 714.451 362.74 713.018 364.507 C 711.585 366.28 709.941 368.854 708.088 372.227 C 705.895 376.267 704.125 379.807 702.778 382.847 L 704.038 382.847 C 704.545 382.507 705.008 382.084 705.428 381.577 C 705.855 381.07 706.318 380.567 706.818 380.067 C 710.191 376.52 713.018 373.147 715.298 369.947 C 717.571 366.74 718.961 364.044 719.468 361.857 C 719.635 361.35 719.761 360.844 719.848 360.337 C 719.935 359.83 719.808 359.407 719.468 359.067 Z" style="text-transform: capitalize; white-space: pre; fill: rgb(173, 216, 230);" transform="matrix(1, 0, 0, 1, 0, 0)"/>
  <g transform="matrix(1.5, 0, 0, 1.5000450611114502, 241.19500732421878, 174.56324768066406)">
    <g>
      <g>
        <path d="M 186.156 221.879 L 207.585 243.308 L 221.87 229.022 L 229.014 236.164 L 214.728 250.45 L 229.014 264.735 L 221.87 271.877 L 207.585 257.593 L 207.585 257.593 L 200.441 250.45 L 200.443 250.45 L 171.87 221.879 L 221.87 171.88 L 229.014 179.022 L 186.156 221.879 Z M 257.585 236.164 L 236.156 257.591 L 229.014 250.45 L 243.299 236.164 L 221.87 214.737 L 207.453 229.152 L 200.311 222.01 L 214.728 207.593 L 214.727 207.593 L 236.156 186.164 L 243.299 193.307 L 264.727 214.737 L 271.87 221.879 L 264.727 229.022 L 264.727 229.022 L 257.585 236.164 Z M 250.441 229.022 L 257.585 221.879 L 236.156 200.451 L 229.014 207.593 L 250.441 229.022 Z" id="" style="fill: rgb(194, 194, 194);"/>
      </g>
    </g>
  </g>
  <g id="svg-1" transform="matrix(0.22856800258159637, 0, 0, 0.22857500612735748, 449.23199462890625, 393.103515625)">
    <g id="svg-1">
      <g id="svg-1">
        <path d="M265.62 500L406.25 640.63L500 546.88L546.88 593.75L453.13 687.5L546.88 781.25L500 828.12L406.25 734.38L406.25 734.38L359.37 687.5L359.38 687.5L171.87 500L500 171.88L546.88 218.75L265.62 500ZM734.38 593.75L593.75 734.37L546.88 687.5L640.63 593.75L500 453.13L405.39 547.73L358.52 500.86L453.13 406.25L453.12 406.25L593.75 265.62L640.63 312.5L781.25 453.13L828.13 500L781.25 546.88L781.25 546.88L734.38 593.75ZM687.5 546.88L734.38 500L593.75 359.38L546.88 406.25L687.5 546.88Z" id="svg-1" transform="matrix(1, 0, 0, 1, 0, 0)" style="fill: rgb(220, 220, 220);"/>
      </g>
    </g>
  </g>
  <g id="g-1" transform="matrix(0.22856800258159637, 0, 0, 0.22857500612735748, 439.71600341796875, 393.103515625)">
    <g id="g-1">
      <g id="g-1">
        <path d="M265.62 500L406.25 640.63L500 546.88L546.88 593.75L453.13 687.5L546.88 781.25L500 828.12L406.25 734.38L406.25 734.38L359.37 687.5L359.38 687.5L171.87 500L500 171.88L546.88 218.75L265.62 500ZM734.38 593.75L593.75 734.37L546.88 687.5L640.63 593.75L500 453.13L405.39 547.73L358.52 500.86L453.13 406.25L453.12 406.25L593.75 265.62L640.63 312.5L781.25 453.13L828.13 500L781.25 546.88L781.25 546.88L734.38 593.75ZM687.5 546.88L734.38 500L593.75 359.38L546.88 406.25L687.5 546.88Z" id="g-1" transform="matrix(1, 0, 0, 1, 0, 0)" style="fill: rgb(246, 246, 246);"/>
      </g>
    </g>
  </g>
  <path d="M 422.956 538.567 L 422.896 538.567 C 422.336 538.567 422.016 538.247 421.936 537.607 C 421.616 528.167 421.596 519.947 421.876 512.947 C 422.156 505.947 422.576 500.087 423.136 495.367 C 422.936 495.927 422.756 496.467 422.596 496.987 C 422.436 497.507 422.256 498.027 422.056 498.547 C 421.096 501.227 420.236 503.387 419.476 505.027 C 418.716 506.667 418.036 507.947 417.436 508.867 C 416.836 509.787 416.306 510.417 415.846 510.757 C 415.386 511.097 414.976 511.327 414.616 511.447 C 413.856 511.687 413.156 511.527 412.516 510.967 C 412.076 510.567 411.756 510.077 411.556 509.497 C 411.356 508.917 411.266 508.307 411.286 507.667 C 411.306 507.027 411.426 506.407 411.646 505.807 C 411.866 505.207 412.156 504.687 412.516 504.247 C 413.236 503.367 414.156 502.887 415.276 502.807 C 416.156 502.767 417.056 503.007 417.976 503.527 C 418.296 502.767 418.636 501.927 418.996 501.007 C 419.356 500.087 419.756 499.047 420.196 497.887 C 420.716 496.527 421.216 495.117 421.696 493.657 C 422.176 492.197 422.636 490.757 423.076 489.337 C 423.516 487.917 423.936 486.537 424.336 485.197 C 424.736 483.857 425.096 482.627 425.416 481.507 C 425.576 480.867 425.716 480.297 425.836 479.797 C 425.956 479.297 426.076 478.827 426.196 478.387 C 426.396 477.707 426.566 477.157 426.706 476.737 C 426.846 476.317 426.956 475.967 427.036 475.687 C 427.236 475.207 427.386 474.867 427.486 474.667 C 427.586 474.467 427.736 474.327 427.936 474.247 C 428.296 474.087 428.656 474.147 429.016 474.427 C 429.256 474.667 429.356 474.927 429.316 475.207 C 429.276 475.487 429.216 475.727 429.136 475.927 C 429.016 476.207 428.856 476.717 428.656 477.457 C 428.456 478.197 428.196 479.067 427.876 480.067 C 427.796 480.387 427.706 480.707 427.606 481.027 C 427.506 481.347 427.416 481.667 427.336 481.987 C 426.776 484.307 426.236 487.207 425.716 490.687 C 425.396 492.927 425.086 495.567 424.786 498.607 C 424.486 501.647 424.236 505.107 424.036 508.987 C 423.836 512.867 423.716 517.187 423.676 521.947 C 423.636 526.707 423.716 531.907 423.916 537.547 C 423.916 537.827 423.826 538.067 423.646 538.267 C 423.466 538.467 423.236 538.567 422.956 538.567 Z M 415.516 504.787 C 414.876 504.787 414.376 505.027 414.016 505.507 C 413.776 505.787 413.596 506.117 413.476 506.497 C 413.356 506.877 413.286 507.257 413.266 507.637 C 413.246 508.017 413.286 508.377 413.386 508.717 C 413.486 509.057 413.636 509.307 413.836 509.467 C 413.916 509.547 413.996 509.587 414.076 509.587 C 414.156 509.547 414.286 509.467 414.466 509.347 C 414.646 509.227 414.856 509.017 415.096 508.717 C 415.336 508.417 415.626 507.997 415.966 507.457 C 416.306 506.917 416.696 506.187 417.136 505.267 C 416.616 504.947 416.076 504.787 415.516 504.787 ZM 430.856 515.887 C 430.616 515.887 430.436 515.847 430.316 515.767 C 429.116 515.007 428.236 513.727 427.676 511.927 C 427.116 510.127 426.996 508.147 427.316 505.987 C 427.636 503.867 428.346 502.087 429.446 500.647 C 430.546 499.207 431.936 498.267 433.616 497.827 C 434.976 497.467 435.956 497.647 436.556 498.367 C 437.236 499.127 437.216 500.407 436.496 502.207 C 436.136 503.047 435.636 503.957 434.996 504.937 C 434.356 505.917 433.636 506.867 432.836 507.787 C 432.356 508.347 431.806 508.907 431.186 509.467 C 430.566 510.027 429.956 510.447 429.356 510.727 C 429.556 511.527 429.826 512.217 430.166 512.797 C 430.506 513.377 430.896 513.807 431.336 514.087 C 431.576 514.247 431.726 514.457 431.786 514.717 C 431.846 514.977 431.816 515.227 431.696 515.467 C 431.536 515.747 431.256 515.887 430.856 515.887 Z M 435.056 499.627 L 434.876 499.627 C 434.796 499.627 434.696 499.627 434.576 499.627 C 434.456 499.627 434.296 499.667 434.096 499.747 C 432.816 500.067 431.756 500.807 430.916 501.967 C 430.076 503.127 429.516 504.567 429.236 506.287 C 429.116 507.167 429.076 507.947 429.116 508.627 C 429.316 508.507 429.556 508.317 429.836 508.057 C 430.116 507.797 430.436 507.487 430.796 507.127 C 431.396 506.447 431.976 505.727 432.536 504.967 C 433.096 504.207 433.596 503.447 434.036 502.687 C 434.596 501.727 434.926 501.007 435.026 500.527 C 435.126 500.047 435.136 499.747 435.056 499.627 ZM 439.056 519.067 C 438.496 519.067 437.996 518.937 437.556 518.677 C 437.116 518.417 436.796 518.067 436.596 517.627 C 435.876 516.027 436.876 513.807 439.596 510.967 C 439.556 510.887 439.536 510.827 439.536 510.787 C 439.536 510.747 439.516 510.687 439.476 510.607 C 439.196 509.607 438.946 508.617 438.726 507.637 C 438.506 506.657 438.356 505.747 438.276 504.907 C 438.036 502.627 438.616 501.247 440.016 500.767 C 441.136 500.407 442.156 500.447 443.076 500.887 C 443.476 501.087 443.806 501.327 444.066 501.607 C 444.326 501.887 444.546 502.157 444.726 502.417 C 444.906 502.677 445.036 502.907 445.116 503.107 C 445.196 503.307 445.236 503.427 445.236 503.467 C 445.316 503.707 445.306 503.947 445.206 504.187 C 445.106 504.427 444.916 504.587 444.636 504.667 C 444.396 504.747 444.146 504.737 443.886 504.637 C 443.626 504.537 443.456 504.347 443.376 504.067 L 443.196 503.707 C 443.116 503.627 443.046 503.517 442.986 503.377 C 442.926 503.237 442.836 503.107 442.716 502.987 C 442.196 502.467 441.496 502.347 440.616 502.627 C 440.376 502.707 440.236 502.987 440.196 503.467 C 440.156 503.947 440.156 504.367 440.196 504.727 C 440.276 505.407 440.406 506.147 440.586 506.947 C 440.766 507.747 440.976 508.567 441.216 509.407 C 442.136 508.607 443.166 507.757 444.306 506.857 C 445.446 505.957 446.716 505.027 448.116 504.067 C 448.316 503.907 448.546 503.857 448.806 503.917 C 449.066 503.977 449.276 504.107 449.436 504.307 C 449.836 504.787 449.756 505.247 449.196 505.687 C 445.996 507.887 443.516 509.847 441.756 511.567 C 441.956 512.327 442.126 513.047 442.266 513.727 C 442.406 514.407 442.496 515.047 442.536 515.647 C 442.616 516.527 442.386 517.247 441.846 517.807 C 441.306 518.367 440.696 518.747 440.016 518.947 C 439.616 519.027 439.296 519.067 439.056 519.067 Z M 440.136 513.247 C 440.056 513.327 439.996 513.407 439.956 513.487 C 439.916 513.567 439.856 513.647 439.776 513.727 C 439.336 514.287 439.016 514.757 438.816 515.137 C 438.616 515.517 438.486 515.827 438.426 516.067 C 438.366 516.307 438.346 516.487 438.366 516.607 C 438.386 516.727 438.396 516.807 438.396 516.847 C 438.516 517.127 438.896 517.187 439.536 517.027 C 439.616 517.027 439.826 516.937 440.166 516.757 C 440.506 516.577 440.656 516.267 440.616 515.827 C 440.576 515.427 440.516 515.017 440.436 514.597 C 440.356 514.177 440.256 513.727 440.136 513.247 ZM 448.636 516.247 C 448.236 516.247 447.936 516.027 447.736 515.587 C 447.656 515.427 447.586 515.207 447.526 514.927 C 447.466 514.647 447.436 514.247 447.436 513.727 C 447.436 513.207 447.486 512.567 447.586 511.807 C 447.686 511.047 447.836 510.087 448.036 508.927 C 448.236 507.727 448.446 506.667 448.666 505.747 C 448.886 504.827 449.016 504.347 449.056 504.307 C 449.136 504.027 449.286 503.817 449.506 503.677 C 449.726 503.537 449.976 503.507 450.256 503.587 C 450.496 503.667 450.686 503.817 450.826 504.037 C 450.966 504.257 450.996 504.507 450.916 504.787 C 450.836 505.227 450.736 505.687 450.616 506.167 C 450.536 506.607 450.426 507.097 450.286 507.637 C 450.146 508.177 450.036 508.727 449.956 509.287 C 449.756 510.327 449.616 511.197 449.536 511.897 C 449.456 512.597 449.416 513.157 449.416 513.577 C 449.416 513.997 449.436 514.307 449.476 514.507 C 449.516 514.707 449.536 514.827 449.536 514.867 C 449.816 515.507 449.636 515.927 448.996 516.127 C 448.836 516.207 448.716 516.247 448.636 516.247 Z M 449.956 502.087 C 449.676 502.087 449.446 501.987 449.266 501.787 C 449.086 501.587 448.996 501.347 448.996 501.067 C 448.996 500.827 449.086 500.617 449.266 500.437 C 449.446 500.257 449.656 500.147 449.896 500.107 C 449.896 500.067 449.906 500.037 449.926 500.017 C 449.946 499.997 449.956 499.947 449.956 499.867 C 450.036 499.587 450.186 499.367 450.406 499.207 C 450.626 499.047 450.876 499.007 451.156 499.087 C 451.436 499.167 451.646 499.317 451.786 499.537 C 451.926 499.757 451.956 500.007 451.876 500.287 C 451.676 501.087 451.366 501.587 450.946 501.787 C 450.526 501.987 450.196 502.087 449.956 502.087 ZM 449.576 547.387 L 449.396 547.387 L 449.336 547.387 C 448.336 547.307 447.496 547.117 446.816 546.817 C 446.136 546.517 445.566 546.157 445.106 545.737 C 444.646 545.317 444.306 544.857 444.086 544.357 C 443.866 543.857 443.696 543.367 443.576 542.887 C 443.256 541.407 443.366 539.687 443.906 537.727 C 444.446 535.767 445.196 533.767 446.156 531.727 C 447.116 529.687 448.196 527.697 449.396 525.757 C 450.596 523.817 451.676 522.127 452.636 520.687 C 453.676 519.167 454.746 517.687 455.846 516.247 C 456.946 514.807 458.036 513.447 459.116 512.167 C 459.116 510.287 459.096 508.547 459.056 506.947 C 459.016 505.347 458.956 503.967 458.876 502.807 C 458.836 502.887 458.796 502.967 458.756 503.047 C 458.716 503.127 458.676 503.207 458.636 503.287 C 458.116 504.207 457.646 504.937 457.226 505.477 C 456.806 506.017 456.426 506.437 456.086 506.737 C 455.746 507.037 455.456 507.247 455.216 507.367 C 454.976 507.487 454.756 507.567 454.556 507.607 C 453.876 507.687 453.336 507.487 452.936 507.007 C 452.736 506.807 452.546 506.447 452.366 505.927 C 452.186 505.407 452.296 504.747 452.696 503.947 C 452.936 503.467 453.266 502.987 453.686 502.507 C 454.106 502.027 454.586 501.587 455.126 501.187 C 455.666 500.787 456.216 500.447 456.776 500.167 C 457.336 499.887 457.876 499.687 458.396 499.567 C 458.476 499.447 458.526 499.347 458.546 499.267 C 458.566 499.187 458.596 499.107 458.636 499.027 L 458.756 498.787 C 458.956 498.307 459.316 498.127 459.836 498.247 C 460.356 498.327 460.616 498.627 460.616 499.147 C 460.616 499.147 460.636 499.417 460.676 499.957 C 460.716 500.497 460.756 501.247 460.796 502.207 C 460.836 503.167 460.886 504.297 460.946 505.597 C 461.006 506.897 461.036 508.327 461.036 509.887 C 462.316 508.447 463.506 507.227 464.606 506.227 C 465.706 505.227 466.596 504.527 467.276 504.127 C 467.516 504.007 467.766 503.987 468.026 504.067 C 468.286 504.147 468.476 504.307 468.596 504.547 C 468.756 504.787 468.796 505.037 468.716 505.297 C 468.636 505.557 468.476 505.747 468.236 505.867 C 467.556 506.227 466.586 507.027 465.326 508.267 C 464.066 509.507 462.656 511.047 461.096 512.887 C 461.096 513.807 461.086 514.727 461.066 515.647 C 461.046 516.567 461.016 517.507 460.976 518.467 C 460.496 532.307 458.376 541.187 454.616 545.107 C 453.176 546.627 451.496 547.387 449.576 547.387 Z M 449.456 545.407 C 450.856 545.447 452.116 544.887 453.236 543.727 C 454.916 541.967 456.246 538.957 457.226 534.697 C 458.206 530.437 458.796 525.007 458.996 518.407 C 459.036 517.847 459.056 517.317 459.056 516.817 C 459.056 516.317 459.076 515.807 459.116 515.287 C 458.316 516.287 457.506 517.337 456.686 518.437 C 455.866 519.537 455.056 520.667 454.256 521.827 C 451.056 526.507 448.696 530.637 447.176 534.217 C 445.656 537.797 445.096 540.567 445.496 542.527 C 445.536 542.807 445.626 543.107 445.766 543.427 C 445.906 543.747 446.126 544.037 446.426 544.297 C 446.726 544.557 447.116 544.797 447.596 545.017 C 448.076 545.237 448.696 545.367 449.456 545.407 Z M 456.956 502.327 C 456.396 502.647 455.886 503.027 455.426 503.467 C 454.966 503.907 454.636 504.347 454.436 504.787 C 454.316 505.027 454.256 505.207 454.256 505.327 C 454.256 505.447 454.276 505.547 454.316 505.627 C 454.476 505.547 454.756 505.297 455.156 504.877 C 455.556 504.457 456.156 503.607 456.956 502.327 ZM 477.636 523.087 L 477.516 523.087 C 476.596 522.967 475.906 522.487 475.446 521.647 C 474.986 520.807 474.676 519.757 474.516 518.497 C 474.356 517.237 474.296 515.847 474.336 514.327 C 474.376 512.807 474.436 511.287 474.516 509.767 C 474.596 508.967 474.656 508.147 474.696 507.307 C 474.736 506.467 474.736 505.767 474.696 505.207 C 474.616 505.367 474.516 505.537 474.396 505.717 C 474.276 505.897 474.136 506.147 473.976 506.467 C 473.696 507.027 473.416 507.637 473.136 508.297 C 472.856 508.957 472.576 509.627 472.296 510.307 C 471.456 512.307 470.816 513.697 470.376 514.477 C 469.936 515.257 469.436 515.647 468.876 515.647 C 468.436 515.647 468.136 515.507 467.976 515.227 C 467.776 515.027 467.646 514.697 467.586 514.237 C 467.526 513.777 467.576 512.967 467.736 511.807 C 467.816 511.167 467.926 510.437 468.066 509.617 C 468.206 508.797 468.376 507.867 468.576 506.827 C 468.736 505.987 468.906 505.157 469.086 504.337 C 469.266 503.517 469.426 502.787 469.566 502.147 C 469.706 501.507 469.816 500.987 469.896 500.587 C 469.976 500.187 470.016 499.987 470.016 499.987 C 470.096 499.707 470.246 499.497 470.466 499.357 C 470.686 499.217 470.936 499.187 471.216 499.267 C 471.456 499.347 471.656 499.497 471.816 499.717 C 471.976 499.937 472.016 500.187 471.936 500.467 C 471.816 501.027 471.676 501.667 471.516 502.387 C 471.396 502.987 471.246 503.677 471.066 504.457 C 470.886 505.237 470.716 506.027 470.556 506.827 C 470.356 507.787 470.196 508.617 470.076 509.317 C 469.956 510.017 469.856 510.647 469.776 511.207 C 469.896 510.927 470.016 510.647 470.136 510.367 C 470.256 510.087 470.376 509.827 470.496 509.587 C 470.816 508.787 471.146 507.987 471.486 507.187 C 471.826 506.387 472.176 505.667 472.536 505.027 C 472.656 504.787 472.806 504.517 472.986 504.217 C 473.166 503.917 473.376 503.627 473.616 503.347 C 473.856 503.067 474.126 502.857 474.426 502.717 C 474.726 502.577 475.056 502.547 475.416 502.627 C 475.976 502.787 476.316 503.157 476.436 503.737 C 476.556 504.317 476.616 504.907 476.616 505.507 C 476.656 506.067 476.656 506.727 476.616 507.487 C 476.576 508.247 476.536 509.047 476.496 509.887 C 476.416 511.167 476.356 512.497 476.316 513.877 C 476.276 515.257 476.316 516.527 476.436 517.687 C 476.636 519.887 477.076 521.027 477.756 521.107 C 478.036 521.147 478.266 521.267 478.446 521.467 C 478.626 521.667 478.696 521.907 478.656 522.187 C 478.576 522.787 478.236 523.087 477.636 523.087 ZM 483.376 515.887 C 483.136 515.887 482.956 515.847 482.836 515.767 C 481.636 515.007 480.756 513.727 480.196 511.927 C 479.636 510.127 479.516 508.147 479.836 505.987 C 480.156 503.867 480.866 502.087 481.966 500.647 C 483.066 499.207 484.456 498.267 486.136 497.827 C 487.496 497.467 488.476 497.647 489.076 498.367 C 489.756 499.127 489.736 500.407 489.016 502.207 C 488.656 503.047 488.156 503.957 487.516 504.937 C 486.876 505.917 486.156 506.867 485.356 507.787 C 484.876 508.347 484.326 508.907 483.706 509.467 C 483.086 510.027 482.476 510.447 481.876 510.727 C 482.076 511.527 482.346 512.217 482.686 512.797 C 483.026 513.377 483.416 513.807 483.856 514.087 C 484.096 514.247 484.246 514.457 484.306 514.717 C 484.366 514.977 484.336 515.227 484.216 515.467 C 484.056 515.747 483.776 515.887 483.376 515.887 Z M 487.576 499.627 L 487.396 499.627 C 487.316 499.627 487.216 499.627 487.096 499.627 C 486.976 499.627 486.816 499.667 486.616 499.747 C 485.336 500.067 484.276 500.807 483.436 501.967 C 482.596 503.127 482.036 504.567 481.756 506.287 C 481.636 507.167 481.596 507.947 481.636 508.627 C 481.836 508.507 482.076 508.317 482.356 508.057 C 482.636 507.797 482.956 507.487 483.316 507.127 C 483.916 506.447 484.496 505.727 485.056 504.967 C 485.616 504.207 486.116 503.447 486.556 502.687 C 487.116 501.727 487.446 501.007 487.546 500.527 C 487.646 500.047 487.656 499.747 487.576 499.627 ZM 492.716 514.747 L 492.416 514.747 C 492.096 514.747 491.856 514.627 491.696 514.387 C 491.576 514.227 491.496 514.067 491.456 513.907 C 491.416 513.747 491.416 513.387 491.456 512.827 L 491.456 512.647 C 491.416 512.127 491.376 511.467 491.336 510.667 C 491.296 509.867 491.246 509.017 491.186 508.117 C 491.126 507.217 491.066 506.307 491.006 505.387 C 490.946 504.467 490.896 503.627 490.856 502.867 C 490.816 502.587 490.886 502.347 491.066 502.147 C 491.246 501.947 491.476 501.847 491.756 501.847 C 492.036 501.807 492.276 501.877 492.476 502.057 C 492.676 502.237 492.776 502.467 492.776 502.747 C 492.816 503.307 492.876 504.167 492.956 505.327 C 492.996 505.247 493.036 505.177 493.076 505.117 C 493.116 505.057 493.156 504.987 493.196 504.907 C 493.876 503.667 494.636 502.907 495.476 502.627 C 496.316 502.347 497.076 502.247 497.756 502.327 C 498.396 502.407 498.676 502.767 498.596 503.407 C 498.516 504.047 498.156 504.327 497.516 504.247 C 496.716 504.207 496.076 504.427 495.596 504.907 C 495.156 505.347 494.796 505.897 494.516 506.557 C 494.236 507.217 494.016 507.927 493.856 508.687 C 493.696 509.447 493.586 510.187 493.526 510.907 C 493.466 511.627 493.416 512.227 493.376 512.707 C 493.416 513.027 493.436 513.277 493.436 513.457 C 493.436 513.637 493.436 513.767 493.436 513.847 C 493.396 514.127 493.306 514.327 493.166 514.447 C 493.026 514.567 492.876 514.667 492.716 514.747 ZM 623.996 538.567 L 623.936 538.567 C 623.376 538.567 623.056 538.247 622.976 537.607 C 622.656 528.167 622.636 519.947 622.916 512.947 C 623.196 505.947 623.616 500.087 624.176 495.367 C 623.976 495.927 623.796 496.467 623.636 496.987 C 623.476 497.507 623.296 498.027 623.096 498.547 C 622.136 501.227 621.276 503.387 620.516 505.027 C 619.756 506.667 619.076 507.947 618.476 508.867 C 617.876 509.787 617.346 510.417 616.886 510.757 C 616.426 511.097 616.016 511.327 615.656 511.447 C 614.896 511.687 614.196 511.527 613.556 510.967 C 613.116 510.567 612.796 510.077 612.596 509.497 C 612.396 508.917 612.306 508.307 612.326 507.667 C 612.346 507.027 612.466 506.407 612.686 505.807 C 612.906 505.207 613.196 504.687 613.556 504.247 C 614.276 503.367 615.196 502.887 616.316 502.807 C 617.196 502.767 618.096 503.007 619.016 503.527 C 619.336 502.767 619.676 501.927 620.036 501.007 C 620.396 500.087 620.796 499.047 621.236 497.887 C 621.756 496.527 622.256 495.117 622.736 493.657 C 623.216 492.197 623.676 490.757 624.116 489.337 C 624.556 487.917 624.976 486.537 625.376 485.197 C 625.776 483.857 626.136 482.627 626.456 481.507 C 626.616 480.867 626.756 480.297 626.876 479.797 C 626.996 479.297 627.116 478.827 627.236 478.387 C 627.436 477.707 627.606 477.157 627.746 476.737 C 627.886 476.317 627.996 475.967 628.076 475.687 C 628.276 475.207 628.426 474.867 628.526 474.667 C 628.626 474.467 628.776 474.327 628.976 474.247 C 629.336 474.087 629.696 474.147 630.056 474.427 C 630.296 474.667 630.396 474.927 630.356 475.207 C 630.316 475.487 630.256 475.727 630.176 475.927 C 630.056 476.207 629.896 476.717 629.696 477.457 C 629.496 478.197 629.236 479.067 628.916 480.067 C 628.836 480.387 628.746 480.707 628.646 481.027 C 628.546 481.347 628.456 481.667 628.376 481.987 C 627.816 484.307 627.276 487.207 626.756 490.687 C 626.436 492.927 626.126 495.567 625.826 498.607 C 625.526 501.647 625.276 505.107 625.076 508.987 C 624.876 512.867 624.756 517.187 624.716 521.947 C 624.676 526.707 624.756 531.907 624.956 537.547 C 624.956 537.827 624.866 538.067 624.686 538.267 C 624.506 538.467 624.276 538.567 623.996 538.567 Z M 616.556 504.787 C 615.916 504.787 615.416 505.027 615.056 505.507 C 614.816 505.787 614.636 506.117 614.516 506.497 C 614.396 506.877 614.326 507.257 614.306 507.637 C 614.286 508.017 614.326 508.377 614.426 508.717 C 614.526 509.057 614.676 509.307 614.876 509.467 C 614.956 509.547 615.036 509.587 615.116 509.587 C 615.196 509.547 615.326 509.467 615.506 509.347 C 615.686 509.227 615.896 509.017 616.136 508.717 C 616.376 508.417 616.666 507.997 617.006 507.457 C 617.346 506.917 617.736 506.187 618.176 505.267 C 617.656 504.947 617.116 504.787 616.556 504.787 ZM 631.896 515.887 C 631.656 515.887 631.476 515.847 631.356 515.767 C 630.156 515.007 629.276 513.727 628.716 511.927 C 628.156 510.127 628.036 508.147 628.356 505.987 C 628.676 503.867 629.386 502.087 630.486 500.647 C 631.586 499.207 632.976 498.267 634.656 497.827 C 636.016 497.467 636.996 497.647 637.596 498.367 C 638.276 499.127 638.256 500.407 637.536 502.207 C 637.176 503.047 636.676 503.957 636.036 504.937 C 635.396 505.917 634.676 506.867 633.876 507.787 C 633.396 508.347 632.846 508.907 632.226 509.467 C 631.606 510.027 630.996 510.447 630.396 510.727 C 630.596 511.527 630.866 512.217 631.206 512.797 C 631.546 513.377 631.936 513.807 632.376 514.087 C 632.616 514.247 632.766 514.457 632.826 514.717 C 632.886 514.977 632.856 515.227 632.736 515.467 C 632.576 515.747 632.296 515.887 631.896 515.887 Z M 636.096 499.627 L 635.916 499.627 C 635.836 499.627 635.736 499.627 635.616 499.627 C 635.496 499.627 635.336 499.667 635.136 499.747 C 633.856 500.067 632.796 500.807 631.956 501.967 C 631.116 503.127 630.556 504.567 630.276 506.287 C 630.156 507.167 630.116 507.947 630.156 508.627 C 630.356 508.507 630.596 508.317 630.876 508.057 C 631.156 507.797 631.476 507.487 631.836 507.127 C 632.436 506.447 633.016 505.727 633.576 504.967 C 634.136 504.207 634.636 503.447 635.076 502.687 C 635.636 501.727 635.966 501.007 636.066 500.527 C 636.166 500.047 636.176 499.747 636.096 499.627 ZM 642.076 518.887 C 641.996 518.887 641.936 518.877 641.896 518.857 C 641.856 518.837 641.796 518.827 641.716 518.827 C 641.276 518.667 640.926 518.307 640.666 517.747 C 640.406 517.187 640.176 516.267 639.976 514.987 C 639.736 513.507 639.556 511.467 639.436 508.867 C 639.396 507.787 639.366 506.727 639.346 505.687 C 639.326 504.647 639.306 503.727 639.286 502.927 C 639.266 502.127 639.256 501.467 639.256 500.947 C 639.256 500.427 639.256 500.167 639.256 500.167 C 639.256 499.887 639.356 499.657 639.556 499.477 C 639.756 499.297 639.996 499.207 640.276 499.207 C 640.916 499.207 641.236 499.527 641.236 500.167 C 641.236 500.167 641.236 500.397 641.236 500.857 C 641.236 501.317 641.236 501.917 641.236 502.657 C 641.236 503.397 641.246 504.247 641.266 505.207 C 641.286 506.167 641.316 507.147 641.356 508.147 C 641.436 510.347 641.546 512.057 641.686 513.277 C 641.826 514.497 641.976 515.387 642.136 515.947 C 642.256 515.427 642.366 514.827 642.466 514.147 C 642.566 513.467 642.656 512.847 642.736 512.287 C 642.896 511.367 643.056 510.457 643.216 509.557 C 643.376 508.657 643.556 507.827 643.756 507.067 C 643.796 506.867 643.886 506.587 644.026 506.227 C 644.166 505.867 644.346 505.527 644.566 505.207 C 644.786 504.887 645.056 504.617 645.376 504.397 C 645.696 504.177 646.076 504.087 646.516 504.127 C 646.916 504.207 647.266 504.287 647.566 504.367 C 647.866 504.447 648.156 504.527 648.436 504.607 C 648.796 504.727 649.116 504.817 649.396 504.877 C 649.676 504.937 649.966 504.937 650.266 504.877 C 650.566 504.817 650.886 504.687 651.226 504.487 C 651.566 504.287 651.976 503.967 652.456 503.527 C 652.656 503.327 652.886 503.237 653.146 503.257 C 653.406 503.277 653.636 503.387 653.836 503.587 C 654.036 503.787 654.116 504.017 654.076 504.277 C 654.036 504.537 653.916 504.767 653.716 504.967 C 653.116 505.527 652.556 505.957 652.036 506.257 C 651.516 506.557 651.016 506.747 650.536 506.827 C 650.016 506.907 649.556 506.897 649.156 506.797 C 648.756 506.697 648.336 506.587 647.896 506.467 C 647.656 506.387 647.416 506.317 647.176 506.257 C 646.936 506.197 646.656 506.147 646.336 506.107 C 646.256 506.187 646.146 506.357 646.006 506.617 C 645.866 506.877 645.696 507.387 645.496 508.147 C 645.336 508.827 645.196 509.537 645.076 510.277 C 644.956 511.017 644.836 511.787 644.716 512.587 C 644.436 514.387 644.176 515.767 643.936 516.727 C 643.696 517.687 643.336 518.327 642.856 518.647 C 642.536 518.807 642.276 518.887 642.076 518.887 ZM 655.916 515.887 C 655.676 515.887 655.496 515.847 655.376 515.767 C 654.176 515.007 653.296 513.727 652.736 511.927 C 652.176 510.127 652.056 508.147 652.376 505.987 C 652.696 503.867 653.406 502.087 654.506 500.647 C 655.606 499.207 656.996 498.267 658.676 497.827 C 660.036 497.467 661.016 497.647 661.616 498.367 C 662.296 499.127 662.276 500.407 661.556 502.207 C 661.196 503.047 660.696 503.957 660.056 504.937 C 659.416 505.917 658.696 506.867 657.896 507.787 C 657.416 508.347 656.866 508.907 656.246 509.467 C 655.626 510.027 655.016 510.447 654.416 510.727 C 654.616 511.527 654.886 512.217 655.226 512.797 C 655.566 513.377 655.956 513.807 656.396 514.087 C 656.636 514.247 656.786 514.457 656.846 514.717 C 656.906 514.977 656.876 515.227 656.756 515.467 C 656.596 515.747 656.316 515.887 655.916 515.887 Z M 660.116 499.627 L 659.936 499.627 C 659.856 499.627 659.756 499.627 659.636 499.627 C 659.516 499.627 659.356 499.667 659.156 499.747 C 657.876 500.067 656.816 500.807 655.976 501.967 C 655.136 503.127 654.576 504.567 654.296 506.287 C 654.176 507.167 654.136 507.947 654.176 508.627 C 654.376 508.507 654.616 508.317 654.896 508.057 C 655.176 507.797 655.496 507.487 655.856 507.127 C 656.456 506.447 657.036 505.727 657.596 504.967 C 658.156 504.207 658.656 503.447 659.096 502.687 C 659.656 501.727 659.986 501.007 660.086 500.527 C 660.186 500.047 660.196 499.747 660.116 499.627 ZM 664.476 521.467 C 664.076 521.467 663.716 521.307 663.396 520.987 C 663.276 520.827 663.166 520.627 663.066 520.387 C 662.966 520.147 662.876 519.787 662.796 519.307 C 662.716 518.827 662.666 518.207 662.646 517.447 C 662.626 516.687 662.656 515.727 662.736 514.567 C 662.816 513.247 662.936 511.727 663.096 510.007 C 663.256 508.287 663.476 506.367 663.756 504.247 C 663.996 502.447 664.236 500.697 664.476 498.997 C 664.716 497.297 664.936 495.787 665.136 494.467 C 665.336 493.147 665.496 492.077 665.616 491.257 C 665.736 490.437 665.796 490.007 665.796 489.967 C 665.836 489.687 665.966 489.467 666.186 489.307 C 666.406 489.147 666.656 489.107 666.936 489.187 C 667.216 489.227 667.436 489.357 667.596 489.577 C 667.756 489.797 667.796 490.047 667.716 490.327 C 667.716 490.327 667.656 490.727 667.536 491.527 C 667.416 492.327 667.256 493.367 667.056 494.647 C 666.856 495.927 666.636 497.407 666.396 499.087 C 666.156 500.767 665.936 502.487 665.736 504.247 C 665.376 506.927 665.116 509.167 664.956 510.967 C 664.796 512.767 664.696 514.247 664.656 515.407 C 664.616 516.567 664.616 517.447 664.656 518.047 C 664.696 518.647 664.736 519.067 664.776 519.307 C 664.936 519.187 665.136 518.987 665.376 518.707 C 665.616 518.427 665.896 518.007 666.216 517.447 C 666.656 516.767 667.096 515.977 667.536 515.077 C 667.976 514.177 668.416 513.267 668.856 512.347 C 669.776 510.547 670.656 508.877 671.496 507.337 C 672.336 505.797 673.176 504.727 674.016 504.127 C 674.216 503.967 674.446 503.917 674.706 503.977 C 674.966 504.037 675.176 504.167 675.336 504.367 C 675.496 504.607 675.556 504.857 675.516 505.117 C 675.476 505.377 675.336 505.587 675.096 505.747 C 674.776 505.987 674.436 506.357 674.076 506.857 C 673.716 507.357 673.346 507.957 672.966 508.657 C 672.586 509.357 672.196 510.097 671.796 510.877 C 671.396 511.657 671.016 512.427 670.656 513.187 C 669.336 515.867 668.226 517.917 667.326 519.337 C 666.426 520.757 665.476 521.467 664.476 521.467 ZM 677.896 511.267 C 677.736 511.267 677.496 511.227 677.176 511.147 C 676.616 511.027 676.186 510.817 675.886 510.517 C 675.586 510.217 675.396 509.907 675.316 509.587 C 675.156 509.187 675.096 508.747 675.136 508.267 C 675.176 507.787 675.266 507.307 675.406 506.827 C 675.546 506.347 675.736 505.877 675.976 505.417 C 676.216 504.957 676.436 504.547 676.636 504.187 C 676.676 504.107 676.716 504.017 676.756 503.917 C 676.796 503.817 676.836 503.727 676.876 503.647 C 677.196 503.007 677.616 502.527 678.136 502.207 C 678.656 501.887 679.196 501.767 679.756 501.847 C 680.636 501.967 681.256 502.527 681.616 503.527 C 681.696 503.847 681.766 504.177 681.826 504.517 C 681.886 504.857 681.896 505.207 681.856 505.567 C 682.216 505.407 682.606 505.247 683.026 505.087 C 683.446 504.927 683.896 504.727 684.376 504.487 C 684.616 504.327 684.866 504.297 685.126 504.397 C 685.386 504.497 685.576 504.667 685.696 504.907 C 685.816 505.147 685.836 505.397 685.756 505.657 C 685.676 505.917 685.516 506.107 685.276 506.227 C 684.556 506.547 683.886 506.837 683.266 507.097 C 682.646 507.357 682.056 507.567 681.496 507.727 C 681.256 508.687 680.836 509.487 680.236 510.127 C 679.556 510.887 678.776 511.267 677.896 511.267 Z M 677.296 507.367 C 677.216 507.687 677.146 507.977 677.086 508.237 C 677.026 508.497 677.036 508.727 677.116 508.927 C 677.156 508.967 677.206 509.017 677.266 509.077 C 677.326 509.137 677.456 509.187 677.656 509.227 C 677.776 509.307 677.936 509.327 678.136 509.287 C 678.336 509.247 678.556 509.087 678.796 508.807 C 678.876 508.687 678.966 508.567 679.066 508.447 C 679.166 508.327 679.256 508.187 679.336 508.027 C 678.536 508.027 677.856 507.807 677.296 507.367 Z M 678.436 505.027 C 678.356 505.467 678.396 505.727 678.556 505.807 C 678.716 506.007 679.156 506.087 679.876 506.047 C 679.916 505.687 679.926 505.347 679.906 505.027 C 679.886 504.707 679.836 504.427 679.756 504.187 C 679.676 503.987 679.576 503.847 679.456 503.767 C 679.376 503.767 679.276 503.827 679.156 503.947 C 679.076 504.027 679.016 504.107 678.976 504.187 C 678.896 504.307 678.806 504.437 678.706 504.577 C 678.606 504.717 678.516 504.867 678.436 505.027 ZM 693.116 496.867 C 693.996 497.427 694.586 498.267 694.886 499.387 C 695.186 500.507 695.136 501.707 694.736 502.987 C 694.296 504.507 693.516 505.767 692.396 506.767 C 691.116 507.927 689.616 508.507 687.896 508.507 C 687.576 508.507 687.336 508.487 687.176 508.447 C 686.936 512.007 686.706 516.077 686.486 520.657 C 686.266 525.237 686.056 530.387 685.856 536.107 C 685.856 536.747 685.536 537.067 684.896 537.067 C 684.616 537.067 684.386 536.967 684.206 536.767 C 684.026 536.567 683.936 536.327 683.936 536.047 C 684.256 527.487 684.576 520.177 684.896 514.117 C 685.216 508.057 685.556 503.207 685.916 499.567 C 686.156 497.127 686.396 495.347 686.636 494.227 C 686.716 493.667 686.826 493.267 686.966 493.027 C 687.106 492.787 687.276 492.627 687.476 492.547 C 687.796 492.347 688.136 492.347 688.496 492.547 C 688.696 492.667 688.836 492.857 688.916 493.117 C 688.996 493.377 688.956 493.627 688.796 493.867 C 688.796 493.907 688.756 493.967 688.676 494.047 C 688.636 494.127 688.596 494.287 688.556 494.527 C 688.516 494.767 688.456 495.107 688.376 495.547 C 688.296 495.987 688.216 496.577 688.136 497.317 C 688.056 498.057 687.956 498.967 687.836 500.047 C 689.036 497.647 690.336 496.447 691.736 496.447 C 692.256 496.447 692.716 496.587 693.116 496.867 Z M 692.876 502.447 C 693.116 501.567 693.166 500.777 693.026 500.077 C 692.886 499.377 692.576 498.867 692.096 498.547 C 692.016 498.467 691.896 498.427 691.736 498.427 C 691.416 498.427 691.006 498.737 690.506 499.357 C 690.006 499.977 689.416 501.087 688.736 502.687 C 688.456 503.407 688.206 504.107 687.986 504.787 C 687.766 505.467 687.596 506.047 687.476 506.527 L 687.896 506.527 C 689.296 506.527 690.396 506.087 691.196 505.207 C 691.996 504.327 692.556 503.407 692.876 502.447 ZM 700.056 515.887 C 699.816 515.887 699.636 515.847 699.516 515.767 C 698.316 515.007 697.436 513.727 696.876 511.927 C 696.316 510.127 696.196 508.147 696.516 505.987 C 696.836 503.867 697.546 502.087 698.646 500.647 C 699.746 499.207 701.136 498.267 702.816 497.827 C 704.176 497.467 705.156 497.647 705.756 498.367 C 706.436 499.127 706.416 500.407 705.696 502.207 C 705.336 503.047 704.836 503.957 704.196 504.937 C 703.556 505.917 702.836 506.867 702.036 507.787 C 701.556 508.347 701.006 508.907 700.386 509.467 C 699.766 510.027 699.156 510.447 698.556 510.727 C 698.756 511.527 699.026 512.217 699.366 512.797 C 699.706 513.377 700.096 513.807 700.536 514.087 C 700.776 514.247 700.926 514.457 700.986 514.717 C 701.046 514.977 701.016 515.227 700.896 515.467 C 700.736 515.747 700.456 515.887 700.056 515.887 Z M 704.256 499.627 L 704.076 499.627 C 703.996 499.627 703.896 499.627 703.776 499.627 C 703.656 499.627 703.496 499.667 703.296 499.747 C 702.016 500.067 700.956 500.807 700.116 501.967 C 699.276 503.127 698.716 504.567 698.436 506.287 C 698.316 507.167 698.276 507.947 698.316 508.627 C 698.516 508.507 698.756 508.317 699.036 508.057 C 699.316 507.797 699.636 507.487 699.996 507.127 C 700.596 506.447 701.176 505.727 701.736 504.967 C 702.296 504.207 702.796 503.447 703.236 502.687 C 703.796 501.727 704.126 501.007 704.226 500.527 C 704.326 500.047 704.336 499.747 704.256 499.627 ZM 709.396 514.747 L 709.096 514.747 C 708.776 514.747 708.536 514.627 708.376 514.387 C 708.256 514.227 708.176 514.067 708.136 513.907 C 708.096 513.747 708.096 513.387 708.136 512.827 L 708.136 512.647 C 708.096 512.127 708.056 511.467 708.016 510.667 C 707.976 509.867 707.926 509.017 707.866 508.117 C 707.806 507.217 707.746 506.307 707.686 505.387 C 707.626 504.467 707.576 503.627 707.536 502.867 C 707.496 502.587 707.566 502.347 707.746 502.147 C 707.926 501.947 708.156 501.847 708.436 501.847 C 708.716 501.807 708.956 501.877 709.156 502.057 C 709.356 502.237 709.456 502.467 709.456 502.747 C 709.496 503.307 709.556 504.167 709.636 505.327 C 709.676 505.247 709.716 505.177 709.756 505.117 C 709.796 505.057 709.836 504.987 709.876 504.907 C 710.556 503.667 711.316 502.907 712.156 502.627 C 712.996 502.347 713.756 502.247 714.436 502.327 C 715.076 502.407 715.356 502.767 715.276 503.407 C 715.196 504.047 714.836 504.327 714.196 504.247 C 713.396 504.207 712.756 504.427 712.276 504.907 C 711.836 505.347 711.476 505.897 711.196 506.557 C 710.916 507.217 710.696 507.927 710.536 508.687 C 710.376 509.447 710.266 510.187 710.206 510.907 C 710.146 511.627 710.096 512.227 710.056 512.707 C 710.096 513.027 710.116 513.277 710.116 513.457 C 710.116 513.637 710.116 513.767 710.116 513.847 C 710.076 514.127 709.986 514.327 709.846 514.447 C 709.706 514.567 709.556 514.667 709.396 514.747 Z" transform="matrix(1, 0, 0, 1, 0, 0)" style="fill: rgb(169, 169, 169); white-space: pre;"/>
  <path d="M 556.641 497.668 C 556.641 498.868 556.641 499.735 556.641 500.268 C 556.641 500.868 556.908 501.168 557.441 501.168 C 558.041 501.301 558.658 501.435 559.291 501.568 C 559.924 501.701 560.608 501.735 561.341 501.668 C 561.941 501.601 562.708 501.635 563.641 501.768 C 564.041 501.835 564.408 502.035 564.741 502.368 C 565.341 502.901 565.308 503.335 564.641 503.668 C 564.241 503.868 563.908 504.001 563.641 504.068 C 561.974 504.468 560.241 504.568 558.441 504.368 C 557.641 504.368 557.041 504.451 556.641 504.618 C 556.241 504.785 556.141 505.468 556.341 506.668 C 556.741 508.868 556.674 510.968 556.141 512.968 C 555.941 513.568 555.574 513.801 555.041 513.668 C 553.508 513.468 552.674 512.635 552.541 511.168 C 552.408 510.368 552.308 509.551 552.241 508.718 C 552.174 507.885 552.108 507.035 552.041 506.168 C 551.908 505.301 551.441 504.901 550.641 504.968 C 550.174 505.035 549.441 505.168 548.441 505.368 C 547.241 505.501 546.308 505.235 545.641 504.568 C 545.108 504.168 544.908 503.735 545.041 503.268 C 545.174 502.868 545.474 502.601 545.941 502.468 C 546.541 502.335 547.108 502.235 547.641 502.168 C 548.174 502.035 548.708 501.935 549.241 501.868 C 549.774 501.801 550.341 501.735 550.941 501.668 C 551.608 501.601 551.974 501.168 552.041 500.368 C 552.041 499.901 552.074 499.535 552.141 499.268 C 552.208 497.935 552.341 496.001 552.541 493.468 C 552.541 493.268 552.541 493.135 552.541 493.068 C 552.674 492.401 553.041 492.135 553.641 492.268 C 555.374 492.535 556.341 493.568 556.541 495.368 C 556.541 495.701 556.541 496.085 556.541 496.518 C 556.541 496.951 556.541 497.335 556.541 497.668 C 556.541 497.668 556.558 497.668 556.591 497.668 C 556.624 497.668 556.641 497.668 556.641 497.668 Z" transform="matrix(1, 0, 0, 1, 0, 0)" style="fill: rgb(169, 169, 169); white-space: pre;"/>
</svg>