<?xml version="1.0" encoding="utf-8"?>
<svg viewBox="114.9219970703125 79.18800354003906 143.23399353027344 173.48399353027344" width="143.23399353027344" height="173.48399353027344" xmlns="http://www.w3.org/2000/svg">
  <path d="M 125.587 206.344 C 124.987 206.344 124.587 206.294 124.387 206.194 C 121.787 205.894 119.787 204.594 118.387 202.294 C 116.087 197.994 116.937 190.394 120.937 179.494 C 121.637 177.594 122.36 175.771 123.107 174.024 C 123.86 172.271 124.537 170.717 125.137 169.364 C 125.737 168.017 126.237 166.944 126.637 166.144 C 127.037 165.344 127.237 164.894 127.237 164.794 C 127.537 164.194 127.987 163.771 128.587 163.524 C 129.187 163.271 129.787 163.294 130.387 163.594 C 131.087 163.894 131.537 164.371 131.737 165.024 C 131.937 165.671 131.887 166.294 131.587 166.894 C 131.487 166.994 130.787 168.444 129.487 171.244 C 128.187 174.044 126.887 177.344 125.587 181.144 C 124.387 184.444 123.537 187.221 123.037 189.474 C 122.537 191.721 122.237 193.571 122.137 195.024 C 122.037 196.471 122.06 197.594 122.207 198.394 C 122.36 199.194 122.537 199.744 122.737 200.044 C 123.237 200.844 123.987 201.294 124.987 201.394 C 126.287 201.494 127.587 201.044 128.887 200.044 C 130.387 198.744 131.66 196.821 132.707 194.274 C 133.76 191.721 134.637 188.971 135.337 186.024 C 136.037 183.071 136.56 180.221 136.907 177.474 C 137.26 174.721 137.487 172.494 137.587 170.794 L 137.587 170.494 C 137.587 169.794 137.837 169.221 138.337 168.774 C 138.837 168.321 139.437 168.094 140.137 168.094 C 140.837 168.194 141.41 168.467 141.857 168.914 C 142.31 169.367 142.487 169.944 142.387 170.644 L 142.387 170.944 C 142.387 171.444 142.337 172.667 142.237 174.614 C 142.137 176.567 142.137 178.794 142.237 181.294 C 142.337 184.494 142.487 186.944 142.687 188.644 C 142.887 190.344 143.087 191.544 143.287 192.244 C 143.487 191.844 143.637 191.494 143.737 191.194 C 144.037 190.394 144.26 189.544 144.407 188.644 C 144.56 187.744 144.737 186.794 144.937 185.794 C 145.337 183.794 145.787 181.944 146.287 180.244 C 146.787 178.544 147.637 177.294 148.837 176.494 C 149.837 175.794 151.037 175.594 152.437 175.894 C 153.237 176.094 154.264 175.994 155.517 175.594 C 156.764 175.194 158.087 174.644 159.487 173.944 C 160.887 173.244 162.264 172.467 163.617 171.614 C 164.964 170.767 166.187 169.944 167.287 169.144 C 167.787 168.744 168.364 168.594 169.017 168.694 C 169.664 168.794 170.187 169.144 170.587 169.744 C 171.087 170.244 171.264 170.821 171.117 171.474 C 170.964 172.121 170.637 172.644 170.137 173.044 C 170.037 173.144 169.387 173.621 168.187 174.474 C 166.987 175.321 165.487 176.244 163.687 177.244 C 158.387 180.144 154.337 181.294 151.537 180.694 C 151.137 181.094 150.787 181.944 150.487 183.244 C 150.187 184.544 149.937 185.694 149.737 186.694 C 149.337 188.994 148.81 191.194 148.157 193.294 C 147.51 195.394 146.237 196.844 144.337 197.644 C 143.137 198.144 141.987 197.994 140.887 197.194 C 140.387 196.894 139.937 196.444 139.537 195.844 C 139.137 195.244 138.787 194.244 138.487 192.844 C 136.587 198.144 134.437 201.794 132.037 203.794 C 130.037 205.494 127.887 206.344 125.587 206.344 ZM 174.486 188.944 C 174.086 188.944 173.486 188.844 172.686 188.644 C 171.286 188.344 170.212 187.821 169.466 187.074 C 168.712 186.321 168.236 185.544 168.036 184.744 C 167.636 183.744 167.486 182.644 167.586 181.444 C 167.686 180.244 167.912 179.044 168.266 177.844 C 168.612 176.644 169.086 175.471 169.686 174.324 C 170.286 173.171 170.836 172.144 171.336 171.244 C 171.436 171.044 171.536 170.821 171.636 170.574 C 171.736 170.321 171.836 170.094 171.936 169.894 C 172.736 168.294 173.786 167.094 175.086 166.294 C 176.386 165.494 177.736 165.194 179.136 165.394 C 181.336 165.694 182.886 167.094 183.786 169.594 C 183.986 170.394 184.159 171.221 184.306 172.074 C 184.459 172.921 184.486 173.794 184.386 174.694 C 185.286 174.294 186.259 173.894 187.306 173.494 C 188.359 173.094 189.486 172.594 190.686 171.994 C 191.286 171.594 191.909 171.521 192.556 171.774 C 193.209 172.021 193.686 172.444 193.986 173.044 C 194.286 173.644 194.336 174.267 194.136 174.914 C 193.936 175.567 193.536 176.044 192.936 176.344 C 191.136 177.144 189.459 177.867 187.906 178.514 C 186.359 179.167 184.886 179.694 183.486 180.094 C 182.886 182.494 181.836 184.494 180.336 186.094 C 178.636 187.994 176.686 188.944 174.486 188.944 Z M 172.986 179.194 C 172.786 179.994 172.612 180.721 172.466 181.374 C 172.312 182.021 172.336 182.594 172.536 183.094 C 172.636 183.194 172.762 183.321 172.916 183.474 C 173.062 183.621 173.386 183.744 173.886 183.844 C 174.186 184.044 174.586 184.094 175.086 183.994 C 175.586 183.894 176.136 183.494 176.736 182.794 C 176.936 182.494 177.159 182.194 177.406 181.894 C 177.659 181.594 177.886 181.244 178.086 180.844 C 176.086 180.844 174.386 180.294 172.986 179.194 Z M 175.836 173.344 C 175.636 174.444 175.736 175.094 176.136 175.294 C 176.536 175.794 177.636 175.994 179.436 175.894 C 179.536 174.994 179.559 174.144 179.506 173.344 C 179.459 172.544 179.336 171.844 179.136 171.244 C 178.936 170.744 178.686 170.394 178.386 170.194 C 178.186 170.194 177.936 170.344 177.636 170.644 C 177.436 170.844 177.286 171.044 177.186 171.244 C 176.986 171.544 176.759 171.871 176.506 172.224 C 176.259 172.571 176.036 172.944 175.836 173.344 ZM 195.935 197.644 L 195.185 197.644 C 194.385 197.644 193.785 197.344 193.385 196.744 C 193.085 196.344 192.885 195.944 192.785 195.544 C 192.685 195.144 192.685 194.244 192.785 192.844 L 192.785 192.394 C 192.685 191.094 192.585 189.444 192.485 187.444 C 192.385 185.444 192.262 183.321 192.115 181.074 C 191.962 178.821 191.808 176.544 191.655 174.244 C 191.508 171.944 191.385 169.844 191.285 167.944 C 191.185 167.244 191.362 166.644 191.815 166.144 C 192.262 165.644 192.835 165.394 193.535 165.394 C 194.235 165.294 194.835 165.467 195.335 165.914 C 195.835 166.367 196.085 166.944 196.085 167.644 C 196.185 169.044 196.335 171.194 196.535 174.094 C 196.635 173.894 196.735 173.721 196.835 173.574 C 196.935 173.421 197.035 173.244 197.135 173.044 C 198.835 169.944 200.735 168.044 202.835 167.344 C 204.935 166.644 206.835 166.394 208.535 166.594 C 210.135 166.794 210.835 167.694 210.635 169.294 C 210.435 170.894 209.535 171.594 207.935 171.394 C 205.935 171.294 204.335 171.844 203.135 173.044 C 202.035 174.144 201.135 175.517 200.435 177.164 C 199.735 178.817 199.185 180.594 198.785 182.494 C 198.385 184.394 198.108 186.244 197.955 188.044 C 197.808 189.844 197.685 191.344 197.585 192.544 C 197.685 193.344 197.735 193.971 197.735 194.424 C 197.735 194.871 197.735 195.194 197.735 195.394 C 197.635 196.094 197.412 196.594 197.065 196.894 C 196.712 197.194 196.335 197.444 195.935 197.644 ZM 209.885 252.694 L 209.735 252.694 C 209.035 252.594 208.461 252.317 208.015 251.864 C 207.561 251.417 207.385 250.844 207.485 250.144 C 208.785 226.144 210.385 205.144 212.285 187.144 C 214.185 169.144 215.985 154.144 217.685 142.144 C 219.385 130.144 220.835 121.121 222.035 115.074 C 223.235 109.021 223.835 105.944 223.835 105.844 C 224.035 105.244 224.408 104.744 224.955 104.344 C 225.508 103.944 226.085 103.844 226.685 104.044 C 227.385 104.244 227.935 104.617 228.335 105.164 C 228.735 105.717 228.835 106.344 228.635 107.044 C 228.635 107.144 228.035 110.194 226.835 116.194 C 225.635 122.194 224.185 131.144 222.485 143.044 C 220.785 154.944 218.985 169.817 217.085 187.664 C 215.185 205.517 213.585 226.394 212.285 250.294 C 212.285 251.894 211.485 252.694 209.885 252.694 Z M 239.885 191.644 L 239.735 191.644 C 237.235 191.644 235.111 190.794 233.365 189.094 C 231.611 187.394 229.885 185.444 228.185 183.244 C 227.685 182.744 227.235 182.194 226.835 181.594 C 226.435 180.994 225.985 180.444 225.485 179.944 C 224.485 178.644 223.335 177.744 222.035 177.244 C 221.435 177.744 220.835 178.244 220.235 178.744 C 219.635 179.244 219.085 179.694 218.585 180.094 C 216.385 181.494 214.685 182.144 213.485 182.044 C 211.885 181.844 210.935 180.994 210.635 179.494 C 210.435 178.494 210.661 177.544 211.315 176.644 C 211.961 175.744 212.735 174.944 213.635 174.244 C 213.635 173.844 213.685 173.494 213.785 173.194 C 213.885 173.094 214.308 172.121 215.055 170.274 C 215.808 168.421 216.835 166.344 218.135 164.044 C 220.635 159.544 222.685 156.621 224.285 155.274 C 225.885 153.921 227.185 153.144 228.185 152.944 C 229.885 152.644 231.385 153.044 232.685 154.144 C 233.485 154.944 234.085 156.021 234.485 157.374 C 234.885 158.721 234.535 160.594 233.435 162.994 C 232.535 164.994 231.335 166.944 229.835 168.844 C 228.335 170.744 226.935 172.344 225.635 173.644 C 226.935 174.444 228.135 175.494 229.235 176.794 C 229.735 177.294 230.211 177.844 230.665 178.444 C 231.111 179.044 231.585 179.644 232.085 180.244 C 233.485 181.944 234.785 183.471 235.985 184.824 C 237.185 186.171 238.435 186.794 239.735 186.694 C 242.835 186.694 247.435 182.344 253.535 173.644 C 253.935 173.144 254.461 172.817 255.115 172.664 C 255.761 172.517 256.335 172.644 256.835 173.044 C 257.435 173.444 257.811 173.994 257.965 174.694 C 258.111 175.394 257.985 175.994 257.585 176.494 C 253.985 181.694 250.785 185.494 247.985 187.894 C 245.185 190.294 242.485 191.544 239.885 191.644 Z M 229.535 157.894 L 229.385 157.744 C 228.885 157.844 228.335 158.194 227.735 158.794 C 227.235 159.294 226.558 160.071 225.705 161.124 C 224.858 162.171 223.885 163.694 222.785 165.694 C 221.485 168.094 220.435 170.194 219.635 171.994 L 220.385 171.994 C 220.685 171.794 220.958 171.544 221.205 171.244 C 221.458 170.944 221.735 170.644 222.035 170.344 C 224.035 168.244 225.708 166.244 227.055 164.344 C 228.408 162.444 229.235 160.844 229.535 159.544 C 229.635 159.244 229.708 158.944 229.755 158.644 C 229.808 158.344 229.735 158.094 229.535 157.894 Z" transform="matrix(1, 0, 0, 1, 0, 0)" style="fill: rgb(173, 216, 230); white-space: pre;"/>
</svg>